<?xml version="1.0" encoding="UTF-8" standalone="no"?>
<!DOCTYPE svg PUBLIC "-//W3C//DTD SVG 1.1//EN" "http://www.w3.org/Graphics/SVG/1.1/DTD/svg11.dtd">
<svg width="100%" height="100%" viewBox="0 0 142 156" version="1.1" xmlns="http://www.w3.org/2000/svg" xmlns:xlink="http://www.w3.org/1999/xlink" xml:space="preserve" xmlns:serif="http://www.serif.com/" style="fill-rule:evenodd;clip-rule:evenodd;stroke-linejoin:round;stroke-miterlimit:2;">
    <g id="Grupo_2385" transform="matrix(1,0,0,1,-554.409,-553.593)">
        <g id="Trazado_1216" transform="matrix(1,0,0,1,0,-6.734)">
            <path d="M622.523,649.742C627.853,635.365 624.515,616.873 615.082,608.521C604.865,599.281 597.72,587.129 594.612,573.708C594.384,572.399 593.237,571.435 591.909,571.435C590.403,571.435 589.164,572.674 589.164,574.179C589.164,574.337 589.178,574.494 589.205,574.65C592.457,589.324 600.237,602.612 611.442,612.63C619.191,619.491 621.908,635.612 617.377,647.83C615.087,654.009 610.106,661.407 599.389,661.565C573.489,661.943 558.637,675.836 558.637,699.683C558.637,699.7 558.637,699.718 558.637,699.735C558.637,701.241 559.876,702.48 561.382,702.48C562.887,702.48 564.127,701.241 564.127,699.735C564.127,699.718 564.126,699.7 564.126,699.683C564.126,671.741 586.269,667.246 599.469,667.054C610.1,666.9 618.5,660.589 622.523,649.742Z" style="fill:rgb(9,22,99);fill-rule:nonzero;"/>
        </g>
        <g id="Trazado_1217" transform="matrix(1,0,0,1,-662.431,-76.575)">
            <path d="M1337.98,667.866C1334.78,663.529 1330.7,659.908 1326.01,657.237C1322.73,655.461 1319.07,654.511 1315.35,654.468L1315.18,654.468C1308.48,654.468 1302.68,657.455 1299.2,659.246C1297.95,660.001 1296.6,660.57 1295.18,660.935L1294.31,655.535C1294.28,655.54 1294.26,655.545 1294.26,655.545C1295.1,655.207 1295.91,654.819 1296.7,654.383C1300.62,652.364 1307.16,648.998 1315.17,648.998L1315.38,648.998C1325.26,649.071 1334.31,654.286 1342.3,664.498L1337.98,667.866Z" style="fill:rgb(9,22,99);fill-rule:nonzero;"/>
        </g>
        <g id="Trazado_1218" transform="matrix(1,0,0,1,-768.679,-606.659)">
            <path d="M1429.39,1271.93C1419.98,1271.93 1412.25,1264.19 1412.25,1254.79C1412.25,1245.38 1419.98,1237.64 1429.39,1237.64C1438.79,1237.64 1446.53,1245.38 1446.53,1254.79C1446.52,1264.19 1438.79,1271.92 1429.39,1271.93ZM1429.39,1243.12C1422.99,1243.12 1417.72,1248.39 1417.72,1254.79C1417.72,1261.19 1422.99,1266.46 1429.39,1266.46C1435.79,1266.46 1441.06,1261.19 1441.06,1254.79C1441.05,1248.39 1435.79,1243.12 1429.39,1243.12Z" style="fill:rgb(9,22,99);fill-rule:nonzero;"/>
        </g>
        <g id="Elipse_4" transform="matrix(1,0,0,1,652.884,640.305)">
            <circle cx="7.824" cy="7.824" r="7.824" style="fill:rgb(9,22,99);"/>
        </g>
        <g id="Trazado_1219" transform="matrix(1,0,0,1,-690.523,-534.18)">
            <path d="M1335.81,1170.25C1335.08,1170.25 1334.39,1169.96 1333.87,1169.45L1326.25,1161.83C1325.76,1161.32 1325.48,1160.63 1325.48,1159.92C1325.48,1158.42 1326.71,1157.18 1328.21,1157.18C1328.93,1157.18 1329.61,1157.46 1330.12,1157.96L1337.74,1165.58C1338.26,1166.1 1338.55,1166.79 1338.55,1167.52C1338.55,1169.02 1337.31,1170.25 1335.81,1170.25C1335.81,1170.25 1335.81,1170.25 1335.81,1170.25L1335.81,1170.25Z" style="fill:rgb(9,22,99);fill-rule:nonzero;"/>
        </g>
        <g id="Trazado_1220" transform="matrix(1,0,0,1,-821.272,-465.737)">
            <path d="M1473.39,1096.27C1471.89,1096.27 1470.65,1095.03 1470.65,1093.53C1470.65,1093.26 1470.69,1093 1470.77,1092.74L1473.67,1083.1C1474.02,1081.96 1475.08,1081.17 1476.28,1081.17C1477.78,1081.17 1479.02,1082.41 1479.02,1083.91C1479.02,1084.17 1478.98,1084.43 1478.91,1084.68L1476.01,1094.32C1475.66,1095.47 1474.59,1096.27 1473.39,1096.27Z" style="fill:rgb(9,22,99);fill-rule:nonzero;"/>
        </g>
        <g id="Trazado_1221" transform="matrix(1,0,0,1,-626.773,-670.405)">
            <path d="M1257.4,1316.81C1257.4,1316.81 1257.4,1316.81 1257.4,1316.81C1255.9,1316.81 1254.66,1315.57 1254.66,1314.07C1254.66,1312.87 1255.46,1311.8 1256.61,1311.45L1266.25,1308.55C1266.5,1308.48 1266.76,1308.44 1267.02,1308.44C1268.52,1308.44 1269.76,1309.67 1269.76,1311.17C1269.76,1312.37 1268.97,1313.44 1267.83,1313.79L1258.19,1316.69C1257.93,1316.77 1257.67,1316.81 1257.4,1316.81Z" style="fill:rgb(9,22,99);fill-rule:nonzero;"/>
        </g>
        <g id="Trazado_1222" transform="matrix(1,0,0,1,-1034.64,-878.688)">
            <path d="M1717.95,1552.82C1717.22,1552.82 1716.52,1552.54 1716.01,1552.02L1708.39,1544.4C1707.89,1543.89 1707.61,1543.2 1707.61,1542.49C1707.61,1540.99 1708.85,1539.76 1710.35,1539.76C1711.06,1539.76 1711.75,1540.03 1712.26,1540.53L1719.88,1548.15C1720.39,1548.66 1720.68,1549.36 1720.68,1550.09C1720.68,1551.59 1719.45,1552.82 1717.95,1552.82C1717.94,1552.82 1717.94,1552.82 1717.94,1552.82L1717.95,1552.82Z" style="fill:rgb(9,22,99);fill-rule:nonzero;"/>
        </g>
        <g id="Trazado_1223" transform="matrix(1,0,0,1,-946.612,-928.846)">
            <path d="M1612.58,1610.54C1611.07,1610.54 1609.84,1609.31 1609.84,1607.8C1609.84,1607.54 1609.88,1607.27 1609.95,1607.02L1612.85,1597.38C1613.19,1596.22 1614.27,1595.41 1615.48,1595.41C1616.98,1595.41 1618.22,1596.65 1618.22,1598.15C1618.22,1598.42 1618.17,1598.69 1618.09,1598.96L1615.19,1608.59C1614.85,1609.75 1613.78,1610.54 1612.58,1610.54Z" style="fill:rgb(9,22,99);fill-rule:nonzero;"/>
        </g>
        <g id="Trazado_1224" transform="matrix(1,0,0,1,-1080.1,-785.183)">
            <path d="M1760.81,1444.27C1760.81,1444.27 1760.81,1444.27 1760.81,1444.27C1759.31,1444.27 1758.08,1443.03 1758.08,1441.53C1758.08,1440.33 1758.87,1439.26 1760.03,1438.91L1769.66,1436.01C1769.91,1435.94 1770.17,1435.9 1770.43,1435.9C1771.93,1435.9 1773.17,1437.13 1773.17,1438.63C1773.17,1439.83 1772.38,1440.9 1771.24,1441.25L1761.6,1444.15C1761.35,1444.23 1761.08,1444.27 1760.81,1444.27Z" style="fill:rgb(9,22,99);fill-rule:nonzero;"/>
        </g>
        <g id="Trazado_1225" transform="matrix(1,0,0,1,-424.649,0)">
            <path d="M1046.78,588.167C1051.27,588.167 1054.96,586.137 1058.88,583.988C1059.61,583.588 1060.36,583.183 1061.11,582.788L1063.2,575.707C1060.82,576.733 1058.49,577.891 1056.24,579.177C1052.68,581.135 1049.86,582.677 1046.79,582.677C1041.71,582.677 1037.06,571.438 1035.6,565.994C1035.25,564.847 1034.18,564.06 1032.98,564.06C1031.48,564.06 1030.24,565.299 1030.24,566.805C1030.24,567.008 1030.26,567.211 1030.3,567.41C1030.86,569.536 1036.14,588.167 1046.78,588.167Z" style="fill:rgb(9,22,99);fill-rule:nonzero;"/>
        </g>
        <g id="Trazado_1226" transform="matrix(1,0,0,1,-990.326,-123.603)">
            <path d="M1681.76,753.817C1681.76,729.108 1673.65,710.028 1659.48,701.217L1658.38,707.102C1669.79,715.388 1676.27,732.168 1676.27,753.815C1676.31,759.839 1675.56,765.842 1674.05,771.672L1679.36,772.879C1680.99,766.656 1681.79,760.248 1681.76,753.817Z" style="fill:rgb(9,22,99);fill-rule:nonzero;"/>
        </g>
        <g id="Trazado_1227" transform="matrix(1,0,0,1,-149.662,-977.975)">
            <path d="M786.109,1665.22C775.702,1665.47 767.395,1660.79 760.083,1656.65C754.023,1653.22 748.299,1649.99 742.208,1649.99C724.835,1649.99 724.835,1665.75 724.835,1670.93C724.835,1670.94 724.835,1670.96 724.835,1670.98C724.835,1672.49 726.074,1673.72 727.58,1673.72C729.085,1673.72 730.325,1672.49 730.325,1670.98C730.325,1670.96 730.324,1670.94 730.324,1670.93C730.324,1659.95 733.767,1655.48 742.208,1655.48C746.853,1655.48 751.731,1658.24 757.379,1661.43C765.312,1665.92 774.318,1671.07 786.248,1670.71C795.038,1670.43 803.626,1668 811.254,1663.62L808.715,1658.54C801.831,1662.57 794.073,1664.86 786.109,1665.22Z" style="fill:rgb(9,22,99);fill-rule:nonzero;"/>
        </g>
    </g>
</svg>
