<?xml version="1.0" encoding="UTF-8" standalone="no"?>
<!DOCTYPE svg PUBLIC "-//W3C//DTD SVG 1.1//EN" "http://www.w3.org/Graphics/SVG/1.1/DTD/svg11.dtd">
<svg width="100%" height="100%" viewBox="0 0 142 156" version="1.1" xmlns="http://www.w3.org/2000/svg" xmlns:xlink="http://www.w3.org/1999/xlink" xml:space="preserve" xmlns:serif="http://www.serif.com/" style="fill-rule:evenodd;clip-rule:evenodd;stroke-linecap:round;stroke-linejoin:round;">
    <g id="Grupo_2596" transform="matrix(0.924144,0,0,0.916237,-165.363,-113.295)">
        <g id="Trazado_2071" transform="matrix(1,0,0,1,-5.222,-46.216)">
            <path d="M205.9,327.274C201.625,313.394 199.822,298.871 200.573,284.367C200.835,275.364 202.321,266.438 204.989,257.835C205.35,256.735 205.676,255.773 205.989,254.914C207.553,250.722 208.91,248.314 212.364,238.314C213.704,234.448 214.684,231.337 215.422,228.742" style="fill:none;fill-rule:nonzero;stroke:rgb(9,22,99);stroke-width:6px;"/>
        </g>
        <g id="Trazado_2072" transform="matrix(1,0,0,1,-15.673,-3.035)">
            <path d="M226.9,160.113L222.054,139.235" style="fill:none;fill-rule:nonzero;stroke:rgb(9,22,99);stroke-width:6px;"/>
        </g>
        <g id="Trazado_2073" transform="matrix(1,0,0,1,-51.519,-120.633)">
            <path d="M296.357,383L305.698,387.178L302.223,398.022" style="fill:none;fill-rule:nonzero;stroke:rgb(9,22,99);stroke-width:6px;"/>
        </g>
        <g id="Trazado_2074" transform="matrix(1,0,0,1,-60.226,-120.633)">
            <path d="M317.815,398.021L314.405,387.177L324.288,383" style="fill:none;fill-rule:nonzero;stroke:rgb(9,22,99);stroke-width:6px;"/>
        </g>
        <g id="Trazado_2075" transform="matrix(1,0,0,1,-99.921,-29.527)">
            <path d="M396.755,194.149C396.658,196.032 396.663,197.919 396.772,199.802C397.047,204.613 397.972,209.356 401.927,220.818C406.102,232.898 407.237,233.894 409.299,240.338C412.787,251.181 413.299,259.962 413.715,266.87C414.562,281.611 412.918,296.39 408.852,310.585" style="fill:none;fill-rule:nonzero;stroke:rgb(9,22,99);stroke-width:6px;"/>
        </g>
        <g id="Trazado_2076" transform="matrix(1,0,0,1,-10.368,-70.593)">
            <path d="M211.057,279.274C246.283,289.328 283.624,289.371 318.873,279.399" style="fill:none;fill-rule:nonzero;stroke:rgb(9,22,99);stroke-width:6px;"/>
        </g>
        <g id="Trazado_2077" transform="matrix(1,0,0,1,-6.965,-84.034)">
            <path d="M204,307.134C241.613,317.869 281.483,317.916 319.12,307.268" style="fill:none;fill-rule:nonzero;stroke:rgb(9,22,99);stroke-width:6px;"/>
        </g>
        <g id="Grupo_2596-2" transform="matrix(1,0,0,1,238.563,132.944)">
            <g id="Trazado_2078" transform="matrix(1,0,0,1,-284.233,-170.565)">
                <path d="M287.918,212.244C287.043,212.68 286.19,213.159 285.363,213.681C283.232,215.09 284.39,218.881 286.556,219.664C287.735,220.052 289.024,219.941 290.119,219.356L306.902,210.927" style="fill:none;fill-rule:nonzero;stroke:rgb(9,22,99);stroke-width:6px;"/>
            </g>
            <g id="Trazado_2079" transform="matrix(1,0,0,1,-285.669,-132.944)">
                <path d="M289.354,174.623C288.155,173.707 287.384,172.337 287.224,170.837C287.224,170.745 287.209,170.659 287.209,170.579C287.202,167.001 293.559,164.128 296.115,162.591C299.752,160.404 304.039,158.922 307.515,156.691C309.677,155.305 312.148,154.25 313.588,152.124C316.123,148.382 315.27,144.064 310.698,142.452C308.179,141.563 305.88,142.292 303.738,143.662C301.838,144.877 299.672,146.688 297.213,146.198C293.887,145.536 295.052,141.537 295.751,141.433C295.751,141.433 300.093,138.496 301.999,135.761C302.834,134.561 304.407,134.681 305.057,134.499C306.8,134.459 309.286,134.418 312.281,134.425C314.847,134.347 317.416,134.434 319.971,134.686C322.039,134.997 324.056,135.586 325.966,136.437C328.545,137.605 331.316,138.291 334.142,138.462L334.194,138.462C335.558,138.491 336.923,138.44 338.282,138.311C344.606,137.792 350.864,136.659 356.968,134.928L364.044,132.939" style="fill:none;fill-rule:nonzero;stroke:rgb(9,22,99);stroke-width:6px;"/>
            </g>
            <g id="Trazado_2080" transform="matrix(1,0,0,1,-288.335,-176.977)">
                <path d="M292.872,226.445C292.448,228.069 293.043,229.798 294.377,230.817C294.876,231.252 295.489,231.533 296.144,231.628C297.524,231.849 298.581,231.387 300.884,230.402C304.393,228.902 304.03,229.08 304.284,228.953C308.029,227.119 311.59,225.273 313.606,224.217" style="fill:none;fill-rule:nonzero;stroke:rgb(9,22,99);stroke-width:6px;"/>
            </g>
            <g id="Trazado_2081" transform="matrix(1,0,0,1,-296.746,-153.958)">
                <path d="M310.915,206.8C310.556,207.241 310.315,207.766 310.215,208.326C310.034,209.815 310.744,211.279 312.025,212.059C313.354,212.846 314.952,212.664 316.731,211.784C318.684,210.818 320.648,209.856 322.601,208.889C323.394,208.504 324.179,208.104 324.973,207.718L334.048,203.08C335.8,202.18 337.429,201.06 338.897,199.747C343.158,195.991 347.212,192.008 351.042,187.814C352.742,185.893 356.561,185.327 358.222,184.514L381.569,176.499" style="fill:none;fill-rule:nonzero;stroke:rgb(9,22,99);stroke-width:6px;"/>
            </g>
            <g id="Trazado_2082" transform="matrix(1,0,0,1,-287.514,-163.793)">
                <path d="M291.034,205.582C296.806,202.822 302.783,199.649 308.554,196.889" style="fill:none;fill-rule:nonzero;stroke:rgb(9,22,99);stroke-width:6px;"/>
            </g>
        </g>
        <g id="Grupo_2597" transform="matrix(1,0,0,1,189.565,152.705)">
            <g id="Trazado_2083" transform="matrix(1,0,0,1,-256.171,-208.725)">
                <path d="M334.778,249.066C334.778,249.066 338.621,251.19 339.653,251.872C341.784,253.281 340.626,257.072 338.46,257.854C337.281,258.242 335.992,258.131 334.897,257.546L327.63,253.9" style="fill:none;fill-rule:nonzero;stroke:rgb(9,22,99);stroke-width:6px;"/>
            </g>
            <g id="Trazado_2084" transform="matrix(1,0,0,1,-194.786,-171.124)">
                <path d="M255.118,172.943C251.442,171.862 245.093,172.898 245.093,172.898C243.025,173.209 241.008,173.798 239.098,174.649C236.519,175.817 233.748,176.503 230.922,176.674L230.87,176.674C227.59,176.835 219.895,175.726 216.97,175.635L200.385,171.121" style="fill:none;fill-rule:nonzero;stroke:rgb(9,22,99);stroke-width:6px;"/>
            </g>
            <g id="Trazado_2085" transform="matrix(1,0,0,1,-244.873,-215.185)">
                <path d="M324.948,264.685C325.372,266.309 324.777,268.038 323.443,269.057C322.944,269.491 322.331,269.773 321.676,269.867C320.296,270.088 319.239,269.626 316.936,268.641C313.426,267.141 313.79,267.319 313.536,267.192C309.791,265.358 306.23,263.512 304.214,262.457" style="fill:none;fill-rule:nonzero;stroke:rgb(9,22,99);stroke-width:6px;"/>
            </g>
            <g id="Trazado_2086" transform="matrix(1,0,0,1,-189.565,-192.947)">
                <path d="M260.007,245.822C260.366,246.263 260.607,246.788 260.707,247.348C260.889,248.837 260.179,250.302 258.897,251.081C257.568,251.868 255.97,251.686 254.191,250.806C252.238,249.84 250.274,248.878 248.321,247.912C247.528,247.526 246.743,247.126 245.949,246.741L236.874,242.103C235.122,241.203 233.493,240.084 232.025,238.771C227.765,235.015 223.71,231.032 219.88,226.838C218.18,224.918 214.361,224.351 212.701,223.538L189.562,216.359" style="fill:none;fill-rule:nonzero;stroke:rgb(9,22,99);stroke-width:6px;"/>
            </g>
        </g>
        <g id="Trazado_2087" transform="matrix(1,0,0,1,-52.199,-81.937)">
            <path d="M302.9,305.356C302.9,306.765 301.741,307.924 300.332,307.924C298.923,307.924 297.764,306.765 297.764,305.356C297.764,303.947 298.923,302.788 300.332,302.788" style="fill:none;fill-rule:nonzero;stroke:rgb(9,22,99);stroke-width:6px;"/>
        </g>
        <g id="Trazado_2088" transform="matrix(1,0,0,1,-63.351,-81.937)">
            <path d="M320.883,305.356C320.883,306.765 322.042,307.924 323.451,307.924C324.86,307.924 326.019,306.765 326.019,305.356C326.019,303.947 324.86,302.788 323.451,302.788" style="fill:none;fill-rule:nonzero;stroke:rgb(9,22,99);stroke-width:6px;"/>
        </g>
    </g>
</svg>
