<?xml version="1.0" encoding="UTF-8" standalone="no"?>
<!DOCTYPE svg PUBLIC "-//W3C//DTD SVG 1.1//EN" "http://www.w3.org/Graphics/SVG/1.1/DTD/svg11.dtd">
<svg width="100%" height="100%" viewBox="0 0 142 156" version="1.1" xmlns="http://www.w3.org/2000/svg" xmlns:xlink="http://www.w3.org/1999/xlink" xml:space="preserve" xmlns:serif="http://www.serif.com/" style="fill-rule:evenodd;clip-rule:evenodd;stroke-linejoin:round;stroke-miterlimit:2;">
    <g id="Grupo_2384" transform="matrix(1.0958,0,0,1.0958,192.29,-1308.55)">
        <path id="Trazado_1213" d="M-108.269,1202.24C-108.691,1200.83 -109.978,1199.83 -111.452,1199.79C-112.927,1199.74 -114.275,1200.65 -114.784,1202.03C-117.498,1209.38 -123.784,1219.3 -130.434,1229.8C-142.278,1248.49 -155.703,1269.68 -155.703,1286.55C-155.675,1311.21 -135.391,1331.49 -110.73,1331.52C-86.069,1331.49 -65.785,1311.21 -65.757,1286.55C-65.757,1270.03 -78.373,1251.3 -90.574,1233.2C-98.379,1221.62 -105.751,1210.67 -108.269,1202.24ZM-110.731,1324.65C-131.623,1324.62 -148.806,1307.44 -148.831,1286.55C-148.831,1271.67 -135.973,1251.38 -124.631,1233.48C-119.774,1225.81 -115.108,1218.45 -111.746,1211.95C-108.018,1219.61 -102.269,1228.14 -96.273,1237.04C-85.19,1253.48 -72.63,1272.12 -72.63,1286.55C-72.654,1307.44 -89.839,1324.63 -110.731,1324.65Z" style="fill:rgb(9,22,99);fill-rule:nonzero;"/>
        <g id="Trazado_1214" transform="matrix(1,0,0,1,-32.4,-177.632)">
            <path d="M-109.1,1457.27C-108.833,1457.36 -108.556,1457.4 -108.276,1457.4C-107.078,1457.4 -106.012,1456.61 -105.654,1455.47C-104.906,1453.13 -104.033,1450.84 -103.039,1448.6C-102.887,1448.25 -102.809,1447.88 -102.809,1447.5C-102.809,1446.4 -103.458,1445.41 -104.457,1444.98C-104.804,1444.83 -105.179,1444.75 -105.558,1444.75C-106.648,1444.75 -107.64,1445.4 -108.076,1446.39C-109.149,1448.82 -110.091,1451.3 -110.899,1453.83C-110.983,1454.09 -111.025,1454.37 -111.025,1454.65C-111.025,1455.85 -110.243,1456.91 -109.1,1457.27Z" style="fill:rgb(9,22,99);fill-rule:nonzero;"/>
        </g>
        <g id="Trazado_1215" transform="matrix(1,0,0,1,-27.898,-221.647)">
            <path d="M-90.882,1535.96C-103.17,1532.34 -111.685,1521.01 -111.734,1508.2C-111.734,1506.69 -112.975,1505.45 -114.483,1505.45C-115.991,1505.45 -117.232,1506.69 -117.232,1508.2C-117.253,1515.73 -114.776,1523.05 -110.193,1529.03C-105.715,1534.88 -99.487,1539.16 -92.416,1541.24C-92.167,1541.31 -91.908,1541.35 -91.648,1541.35C-90.429,1541.35 -89.35,1540.53 -89.01,1539.36C-88.938,1539.11 -88.901,1538.86 -88.901,1538.6C-88.901,1537.38 -89.712,1536.3 -90.882,1535.96Z" style="fill:rgb(9,22,99);fill-rule:nonzero;"/>
        </g>
    </g>
</svg>
