<svg width="314" height="202" viewBox="0 0 314 202" fill="none" xmlns="http://www.w3.org/2000/svg">
<rect width="314" height="202" rx="9" fill="white"/>
<path d="M30.44 101V90.504H33.432C35.784 90.504 37.384 91.288 37.384 93.592C37.384 95.816 35.8 96.84 33.496 96.84H31.784V101H30.44ZM31.784 95.752H33.336C35.16 95.752 36.04 95.08 36.04 93.592C36.04 92.088 35.112 91.592 33.272 91.592H31.784V95.752ZM39.3901 101V93.224H40.4781L40.5901 94.632H40.6381C41.1821 93.656 41.9821 93.032 42.8461 93.032C43.1981 93.032 43.4381 93.08 43.6781 93.192L43.3901 94.328C43.1661 94.264 42.9901 94.232 42.6861 94.232C42.0301 94.232 41.2461 94.696 40.7181 96.008V101H39.3901ZM47.9324 101.192C45.8524 101.192 44.2204 99.688 44.2204 97.112C44.2204 94.584 45.9324 93.032 47.7084 93.032C49.6924 93.032 50.8284 94.44 50.8284 96.68C50.8284 96.968 50.8124 97.208 50.7644 97.464H45.5324C45.6444 99.064 46.6204 100.12 48.0924 100.12C48.8444 100.12 49.5004 99.912 50.0444 99.544L50.5084 100.392C49.8364 100.872 49.0044 101.192 47.9324 101.192ZM45.5324 96.44H49.6444C49.6444 94.904 48.9244 94.088 47.7404 94.088C46.6524 94.088 45.6924 94.952 45.5324 96.44ZM54.7659 101.192C53.6299 101.192 52.5899 100.776 51.8699 100.072L52.4779 99.304C53.1499 99.864 53.8539 100.152 54.8139 100.152C55.8379 100.152 56.3339 99.624 56.3339 98.952C56.3339 98.152 55.4699 97.816 54.5899 97.496C53.4219 97.08 52.3019 96.52 52.3019 95.24C52.3019 93.992 53.2939 93.032 54.9899 93.032C55.9659 93.032 56.7979 93.4 57.4059 93.912L56.7979 94.68C56.2539 94.28 55.6939 94.056 55.0059 94.056C54.0139 94.056 53.5819 94.6 53.5819 95.176C53.5819 95.88 54.2539 96.168 55.2299 96.504C56.4459 96.936 57.6139 97.464 57.6139 98.872C57.6139 100.136 56.6059 101.192 54.7659 101.192ZM62.573 101.192C60.493 101.192 58.861 99.688 58.861 97.112C58.861 94.584 60.573 93.032 62.349 93.032C64.333 93.032 65.469 94.44 65.469 96.68C65.469 96.968 65.453 97.208 65.405 97.464H60.173C60.285 99.064 61.261 100.12 62.733 100.12C63.485 100.12 64.141 99.912 64.685 99.544L65.149 100.392C64.477 100.872 63.645 101.192 62.573 101.192ZM60.173 96.44H64.285C64.285 94.904 63.565 94.088 62.381 94.088C61.293 94.088 60.333 94.952 60.173 96.44ZM67.3745 101V93.224H68.4625L68.5745 94.344H68.6225C69.3585 93.608 70.1585 93.032 71.2305 93.032C72.8785 93.032 73.6145 94.088 73.6145 96.072V101H72.2865V96.248C72.2865 94.792 71.8385 94.184 70.8145 94.184C70.0305 94.184 69.4705 94.584 68.7025 95.368V101H67.3745ZM79.1965 101.192C77.1325 101.192 75.5485 99.704 75.5485 97.128C75.5485 94.52 77.2925 93.032 79.2925 93.032C80.3165 93.032 81.0205 93.432 81.5645 93.944L80.9085 94.776C80.4765 94.376 79.9805 94.136 79.3565 94.136C77.9485 94.136 76.9245 95.336 76.9245 97.128C76.9245 98.904 77.8845 100.088 79.3085 100.088C80.0285 100.088 80.6685 99.768 81.1325 99.352L81.7085 100.2C81.0045 100.84 80.1245 101.192 79.1965 101.192ZM83.4214 101V93.224H84.7494V101H83.4214ZM84.0934 91.624C83.5814 91.624 83.2134 91.288 83.2134 90.76C83.2134 90.248 83.5814 89.896 84.0934 89.896C84.6054 89.896 84.9734 90.248 84.9734 90.76C84.9734 91.288 84.6054 91.624 84.0934 91.624ZM89.1665 101.192C87.8705 101.192 86.8945 100.392 86.8945 98.984C86.8945 97.256 88.3345 96.424 91.6625 96.056C91.6465 95.08 91.3265 94.136 90.0625 94.136C89.1665 94.136 88.3505 94.536 87.7425 94.936L87.2305 94.04C87.9505 93.56 89.0385 93.032 90.2865 93.032C92.1745 93.032 92.9905 94.296 92.9905 96.216V101H91.9025L91.7745 100.072H91.7265C90.9905 100.696 90.1425 101.192 89.1665 101.192ZM89.5345 100.104C90.2865 100.104 90.9105 99.768 91.6625 99.112V97C89.0385 97.304 88.1905 97.896 88.1905 98.904C88.1905 99.768 88.7825 100.104 89.5345 100.104ZM101.296 101.192C99.3441 101.192 98.0801 99.72 98.0801 97.128C98.0801 94.6 99.6801 93.032 101.456 93.032C102.352 93.032 102.944 93.368 103.632 93.928L103.568 92.6V89.608H104.896V101H103.808L103.696 100.088H103.648C103.04 100.68 102.208 101.192 101.296 101.192ZM101.584 100.072C102.304 100.072 102.928 99.72 103.568 99.016V94.952C102.912 94.36 102.32 94.152 101.68 94.152C100.448 94.152 99.4561 95.336 99.4561 97.112C99.4561 98.968 100.224 100.072 101.584 100.072ZM110.651 101.192C108.571 101.192 106.939 99.688 106.939 97.112C106.939 94.584 108.651 93.032 110.427 93.032C112.411 93.032 113.547 94.44 113.547 96.68C113.547 96.968 113.531 97.208 113.483 97.464H108.251C108.363 99.064 109.339 100.12 110.811 100.12C111.563 100.12 112.219 99.912 112.763 99.544L113.227 100.392C112.555 100.872 111.723 101.192 110.651 101.192ZM108.251 96.44H112.363C112.363 94.904 111.643 94.088 110.459 94.088C109.371 94.088 108.411 94.952 108.251 96.44ZM118.656 101V93.224H119.744L119.856 94.344H119.904C120.592 93.608 121.392 93.032 122.32 93.032C123.52 93.032 124.16 93.592 124.48 94.504C125.28 93.64 126.096 93.032 127.04 93.032C128.64 93.032 129.408 94.088 129.408 96.072V101H128.08V96.248C128.08 94.792 127.616 94.184 126.64 94.184C126.032 94.184 125.408 94.568 124.688 95.368V101H123.36V96.248C123.36 94.792 122.912 94.184 121.92 94.184C121.344 94.184 120.704 94.568 119.984 95.368V101H118.656ZM135.057 101.192C132.977 101.192 131.345 99.688 131.345 97.112C131.345 94.584 133.057 93.032 134.833 93.032C136.817 93.032 137.953 94.44 137.953 96.68C137.953 96.968 137.937 97.208 137.889 97.464H132.657C132.769 99.064 133.745 100.12 135.217 100.12C135.969 100.12 136.625 99.912 137.169 99.544L137.633 100.392C136.961 100.872 136.129 101.192 135.057 101.192ZM132.657 96.44H136.769C136.769 94.904 136.049 94.088 134.865 94.088C133.777 94.088 132.817 94.952 132.657 96.44ZM142.151 101.192C140.487 101.192 139.927 100.136 139.927 98.584V94.296H138.775V93.304L139.991 93.224L140.151 90.728H141.255V93.224H143.367V94.296H141.255V98.616C141.255 99.56 141.575 100.104 142.455 100.104C142.743 100.104 143.031 100.056 143.351 99.912L143.623 100.856C143.207 101.048 142.679 101.192 142.151 101.192ZM146.573 101.192C145.277 101.192 144.301 100.392 144.301 98.984C144.301 97.256 145.741 96.424 149.069 96.056C149.053 95.08 148.733 94.136 147.469 94.136C146.573 94.136 145.757 94.536 145.149 94.936L144.637 94.04C145.357 93.56 146.445 93.032 147.693 93.032C149.581 93.032 150.397 94.296 150.397 96.216V101H149.309L149.181 100.072H149.133C148.397 100.696 147.549 101.192 146.573 101.192ZM146.941 100.104C147.693 100.104 148.317 99.768 149.069 99.112V97C146.445 97.304 145.597 97.896 145.597 98.904C145.597 99.768 146.189 100.104 146.941 100.104ZM152.843 104.28V93.224H153.931L154.043 94.12H154.091C154.795 93.528 155.675 93.032 156.571 93.032C158.571 93.032 159.659 94.584 159.659 97C159.659 99.64 158.059 101.192 156.283 101.192C155.579 101.192 154.843 100.856 154.139 100.296L154.171 101.656V104.28H152.843ZM156.059 100.072C157.339 100.072 158.283 98.92 158.283 97C158.283 95.288 157.691 94.152 156.235 94.152C155.579 94.152 154.923 94.504 154.171 95.208V99.272C154.875 99.864 155.547 100.072 156.059 100.072ZM163.11 101.192C162.118 101.192 161.718 100.552 161.718 99.432V89.608H163.046V99.528C163.046 99.944 163.222 100.088 163.43 100.088C163.51 100.088 163.574 100.088 163.702 100.056L163.878 101.048C163.686 101.144 163.446 101.192 163.11 101.192ZM167.588 101.192C166.292 101.192 165.316 100.392 165.316 98.984C165.316 97.256 166.756 96.424 170.084 96.056C170.068 95.08 169.748 94.136 168.484 94.136C167.588 94.136 166.772 94.536 166.164 94.936L165.652 94.04C166.372 93.56 167.46 93.032 168.708 93.032C170.596 93.032 171.412 94.296 171.412 96.216V101H170.324L170.196 100.072H170.148C169.412 100.696 168.564 101.192 167.588 101.192ZM167.956 100.104C168.708 100.104 169.332 99.768 170.084 99.112V97C167.46 97.304 166.612 97.896 166.612 98.904C166.612 99.768 167.204 100.104 167.956 100.104ZM175.891 101.192C174.755 101.192 173.715 100.776 172.995 100.072L173.603 99.304C174.275 99.864 174.979 100.152 175.939 100.152C176.963 100.152 177.459 99.624 177.459 98.952C177.459 98.152 176.595 97.816 175.715 97.496C174.547 97.08 173.427 96.52 173.427 95.24C173.427 93.992 174.419 93.032 176.115 93.032C177.091 93.032 177.923 93.4 178.531 93.912L177.923 94.68C177.379 94.28 176.819 94.056 176.131 94.056C175.139 94.056 174.707 94.6 174.707 95.176C174.707 95.88 175.379 96.168 176.355 96.504C177.571 96.936 178.739 97.464 178.739 98.872C178.739 100.136 177.731 101.192 175.891 101.192ZM180.562 101V93.224H181.89V101H180.562ZM181.234 91.624C180.722 91.624 180.354 91.288 180.354 90.76C180.354 90.248 180.722 89.896 181.234 89.896C181.746 89.896 182.114 90.248 182.114 90.76C182.114 91.288 181.746 91.624 181.234 91.624ZM186.307 101.192C185.011 101.192 184.035 100.392 184.035 98.984C184.035 97.256 185.475 96.424 188.803 96.056C188.787 95.08 188.467 94.136 187.203 94.136C186.307 94.136 185.491 94.536 184.883 94.936L184.371 94.04C185.091 93.56 186.179 93.032 187.427 93.032C189.315 93.032 190.131 94.296 190.131 96.216V101H189.043L188.915 100.072H188.867C188.131 100.696 187.283 101.192 186.307 101.192ZM186.675 100.104C187.427 100.104 188.051 99.768 188.803 99.112V97C186.179 97.304 185.331 97.896 185.331 98.904C185.331 99.768 185.923 100.104 186.675 100.104ZM195.781 101V93.224H197.109V101H195.781ZM196.453 91.624C195.941 91.624 195.573 91.288 195.573 90.76C195.573 90.248 195.941 89.896 196.453 89.896C196.965 89.896 197.333 90.248 197.333 90.76C197.333 91.288 196.965 91.624 196.453 91.624ZM199.734 101V93.224H200.822L200.934 94.344H200.982C201.718 93.608 202.518 93.032 203.59 93.032C205.238 93.032 205.974 94.088 205.974 96.072V101H204.646V96.248C204.646 94.792 204.198 94.184 203.174 94.184C202.39 94.184 201.83 94.584 201.062 95.368V101H199.734ZM210.932 101.192C209.268 101.192 208.708 100.136 208.708 98.584V94.296H207.556V93.304L208.772 93.224L208.932 90.728H210.036V93.224H212.148V94.296H210.036V98.616C210.036 99.56 210.356 100.104 211.236 100.104C211.524 100.104 211.812 100.056 212.132 99.912L212.404 100.856C211.988 101.048 211.46 101.192 210.932 101.192ZM216.823 101.192C214.743 101.192 213.111 99.688 213.111 97.112C213.111 94.584 214.823 93.032 216.599 93.032C218.583 93.032 219.719 94.44 219.719 96.68C219.719 96.968 219.703 97.208 219.655 97.464H214.423C214.535 99.064 215.511 100.12 216.983 100.12C217.735 100.12 218.391 99.912 218.935 99.544L219.399 100.392C218.727 100.872 217.895 101.192 216.823 101.192ZM214.423 96.44H218.535C218.535 94.904 217.815 94.088 216.631 94.088C215.543 94.088 214.583 94.952 214.423 96.44ZM223.657 101.192C222.521 101.192 221.481 100.776 220.761 100.072L221.368 99.304C222.041 99.864 222.745 100.152 223.705 100.152C224.729 100.152 225.225 99.624 225.225 98.952C225.225 98.152 224.361 97.816 223.481 97.496C222.312 97.08 221.193 96.52 221.193 95.24C221.193 93.992 222.185 93.032 223.881 93.032C224.857 93.032 225.689 93.4 226.297 93.912L225.689 94.68C225.145 94.28 224.585 94.056 223.897 94.056C222.905 94.056 222.473 94.6 222.473 95.176C222.473 95.88 223.145 96.168 224.121 96.504C225.337 96.936 226.505 97.464 226.505 98.872C226.505 100.136 225.497 101.192 223.657 101.192ZM230.463 101.192C228.799 101.192 228.239 100.136 228.239 98.584V94.296H227.087V93.304L228.303 93.224L228.463 90.728H229.567V93.224H231.679V94.296H229.567V98.616C229.567 99.56 229.887 100.104 230.767 100.104C231.055 100.104 231.343 100.056 231.663 99.912L231.935 100.856C231.519 101.048 230.991 101.192 230.463 101.192ZM233.437 101V93.224H234.765V101H233.437ZM234.109 91.624C233.597 91.624 233.229 91.288 233.229 90.76C233.229 90.248 233.597 89.896 234.109 89.896C234.621 89.896 234.989 90.248 234.989 90.76C234.989 91.288 234.621 91.624 234.109 91.624ZM237.39 101V93.224H238.478L238.59 94.344H238.638C239.374 93.608 240.174 93.032 241.246 93.032C242.894 93.032 243.63 94.088 243.63 96.072V101H242.302V96.248C242.302 94.792 241.854 94.184 240.83 94.184C240.046 94.184 239.486 94.584 238.718 95.368V101H237.39ZM247.932 101.192C246.636 101.192 245.66 100.392 245.66 98.984C245.66 97.256 247.1 96.424 250.428 96.056C250.412 95.08 250.092 94.136 248.828 94.136C247.932 94.136 247.116 94.536 246.508 94.936L245.996 94.04C246.716 93.56 247.804 93.032 249.052 93.032C250.94 93.032 251.756 94.296 251.756 96.216V101H250.668L250.54 100.072H250.492C249.756 100.696 248.908 101.192 247.932 101.192ZM248.3 100.104C249.052 100.104 249.676 99.768 250.428 99.112V97C247.804 97.304 246.956 97.896 246.956 98.904C246.956 99.768 247.548 100.104 248.3 100.104ZM255.595 101.192C254.603 101.192 254.203 100.552 254.203 99.432V89.608H255.531V99.528C255.531 99.944 255.707 100.088 255.915 100.088C255.995 100.088 256.059 100.088 256.187 100.056L256.363 101.048C256.171 101.144 255.931 101.192 255.595 101.192ZM264.62 101.192C262.54 101.192 260.908 99.688 260.908 97.112C260.908 94.584 262.62 93.032 264.396 93.032C266.38 93.032 267.516 94.44 267.516 96.68C267.516 96.968 267.5 97.208 267.452 97.464H262.22C262.332 99.064 263.308 100.12 264.78 100.12C265.532 100.12 266.188 99.912 266.732 99.544L267.196 100.392C266.524 100.872 265.692 101.192 264.62 101.192ZM262.22 96.44H266.332C266.332 94.904 265.612 94.088 264.428 94.088C263.34 94.088 262.38 94.952 262.22 96.44ZM269.421 101V93.224H270.509L270.621 94.344H270.669C271.405 93.608 272.205 93.032 273.277 93.032C274.925 93.032 275.661 94.088 275.661 96.072V101H274.333V96.248C274.333 94.792 273.885 94.184 272.861 94.184C272.077 94.184 271.517 94.584 270.749 95.368V101H269.421ZM33.448 124.192C31.368 124.192 29.736 122.688 29.736 120.112C29.736 117.584 31.448 116.032 33.224 116.032C35.208 116.032 36.344 117.44 36.344 119.68C36.344 119.968 36.328 120.208 36.28 120.464H31.048C31.16 122.064 32.136 123.12 33.608 123.12C34.36 123.12 35.016 122.912 35.56 122.544L36.024 123.392C35.352 123.872 34.52 124.192 33.448 124.192ZM31.048 119.44H35.16C35.16 117.904 34.44 117.088 33.256 117.088C32.168 117.088 31.208 117.952 31.048 119.44ZM39.6415 124.192C38.6495 124.192 38.2495 123.552 38.2495 122.432V112.608H39.5775V122.528C39.5775 122.944 39.7535 123.088 39.9615 123.088C40.0415 123.088 40.1055 123.088 40.2335 123.056L40.4095 124.048C40.2175 124.144 39.9775 124.192 39.6415 124.192ZM48.6668 124.192C46.5868 124.192 44.9548 122.688 44.9548 120.112C44.9548 117.584 46.6668 116.032 48.4427 116.032C50.4268 116.032 51.5628 117.44 51.5628 119.68C51.5628 119.968 51.5468 120.208 51.4988 120.464H46.2668C46.3788 122.064 47.3548 123.12 48.8268 123.12C49.5788 123.12 50.2348 122.912 50.7788 122.544L51.2428 123.392C50.5708 123.872 49.7388 124.192 48.6668 124.192ZM46.2668 119.44H50.3788C50.3788 117.904 49.6588 117.088 48.4748 117.088C47.3868 117.088 46.4268 117.952 46.2668 119.44ZM55.5003 124.192C54.3643 124.192 53.3243 123.776 52.6043 123.072L53.2122 122.304C53.8843 122.864 54.5883 123.152 55.5483 123.152C56.5723 123.152 57.0683 122.624 57.0683 121.952C57.0683 121.152 56.2043 120.816 55.3243 120.496C54.1562 120.08 53.0363 119.52 53.0363 118.24C53.0363 116.992 54.0283 116.032 55.7243 116.032C56.7003 116.032 57.5323 116.4 58.1403 116.912L57.5323 117.68C56.9883 117.28 56.4283 117.056 55.7403 117.056C54.7483 117.056 54.3163 117.6 54.3163 118.176C54.3163 118.88 54.9883 119.168 55.9643 119.504C57.1803 119.936 58.3483 120.464 58.3483 121.872C58.3483 123.136 57.3403 124.192 55.5003 124.192ZM63.1954 124.192C61.2914 124.192 59.5954 122.704 59.5954 120.128C59.5954 117.52 61.2914 116.032 63.1954 116.032C65.0994 116.032 66.8114 117.52 66.8114 120.128C66.8114 122.704 65.0994 124.192 63.1954 124.192ZM63.1954 123.088C64.5394 123.088 65.4354 121.904 65.4354 120.128C65.4354 118.336 64.5394 117.136 63.1954 117.136C61.8674 117.136 60.9714 118.336 60.9714 120.128C60.9714 121.904 61.8674 123.088 63.1954 123.088ZM62.5074 114.832L61.8354 114.16L64.5554 111.504L65.3714 112.384L62.5074 114.832ZM69.0673 124V117.296H68.0113V116.304L69.0673 116.224V115.008C69.0673 113.424 69.7873 112.416 71.3393 112.416C71.8193 112.416 72.3153 112.528 72.6353 112.672L72.3473 113.648C72.0433 113.552 71.7552 113.488 71.4833 113.488C70.7473 113.488 70.3953 114.016 70.3953 115.008V116.224H72.0273V117.296H70.3953V124H69.0673ZM74.9946 124.192C73.6986 124.192 72.7226 123.392 72.7226 121.984C72.7226 120.256 74.1626 119.424 77.4906 119.056C77.4746 118.08 77.1546 117.136 75.8906 117.136C74.9946 117.136 74.1786 117.536 73.5706 117.936L73.0586 117.04C73.7786 116.56 74.8666 116.032 76.1146 116.032C78.0026 116.032 78.8186 117.296 78.8186 119.216V124H77.7306L77.6026 123.072H77.5546C76.8186 123.696 75.9706 124.192 74.9946 124.192ZM75.3626 123.104C76.1146 123.104 76.7386 122.768 77.4906 122.112V120C74.8666 120.304 74.0186 120.896 74.0186 121.904C74.0186 122.768 74.6106 123.104 75.3626 123.104ZM83.8891 127.584C81.9851 127.584 80.6731 126.832 80.6731 125.488C80.6731 124.832 81.1051 124.208 81.8091 123.728V123.664C81.4251 123.424 81.1211 123.008 81.1211 122.4C81.1211 121.744 81.5691 121.232 81.9691 120.96V120.896C81.4571 120.48 80.9611 119.728 80.9611 118.8C80.9611 117.104 82.3051 116.032 83.8891 116.032C84.3211 116.032 84.7051 116.112 84.9931 116.224H87.6971V117.248H86.1131C86.4811 117.6 86.7371 118.176 86.7371 118.832C86.7371 120.496 85.4731 121.536 83.8891 121.536C83.5051 121.536 83.0891 121.44 82.7371 121.264C82.4491 121.504 82.2411 121.76 82.2411 122.192C82.2411 122.672 82.5611 123.024 83.6011 123.024H85.1051C86.9131 123.024 87.8251 123.6 87.8251 124.88C87.8251 126.336 86.3051 127.584 83.8891 127.584ZM83.8891 120.64C84.7851 120.64 85.5371 119.936 85.5371 118.8C85.5371 117.68 84.8011 116.992 83.8891 116.992C82.9771 116.992 82.2411 117.664 82.2411 118.8C82.2411 119.936 82.9931 120.64 83.8891 120.64ZM84.0811 126.656C85.5531 126.656 86.5291 125.888 86.5291 125.088C86.5291 124.368 85.9851 124.128 84.9611 124.128H83.6331C83.3291 124.128 82.9611 124.096 82.6251 124C82.0651 124.4 81.8251 124.864 81.8251 125.312C81.8251 126.144 82.6731 126.656 84.0811 126.656ZM92.1485 124.192C90.2445 124.192 88.5485 122.704 88.5485 120.128C88.5485 117.52 90.2445 116.032 92.1485 116.032C94.0525 116.032 95.7645 117.52 95.7645 120.128C95.7645 122.704 94.0525 124.192 92.1485 124.192ZM92.1485 123.088C93.4925 123.088 94.3885 121.904 94.3885 120.128C94.3885 118.336 93.4925 117.136 92.1485 117.136C90.8205 117.136 89.9245 118.336 89.9245 120.128C89.9245 121.904 90.8205 123.088 92.1485 123.088ZM98.3281 124.192C97.8001 124.192 97.3681 123.776 97.3681 123.184C97.3681 122.576 97.8001 122.16 98.3281 122.16C98.8561 122.16 99.2881 122.576 99.2881 123.184C99.2881 123.776 98.8561 124.192 98.3281 124.192ZM107.883 124.192C106.379 124.192 105.115 123.6 104.203 122.624L104.955 121.744C105.723 122.528 106.795 123.008 107.899 123.008C109.275 123.008 110.091 122.32 110.091 121.312C110.091 120.24 109.323 119.904 108.347 119.472L106.827 118.8C105.851 118.384 104.715 117.648 104.715 116.096C104.715 114.496 106.107 113.312 108.011 113.312C109.291 113.312 110.379 113.84 111.115 114.576L110.379 115.472C109.739 114.864 108.923 114.496 108.011 114.496C106.843 114.496 106.075 115.088 106.075 116.016C106.075 117.024 106.987 117.408 107.803 117.744L109.307 118.4C110.523 118.912 111.467 119.648 111.467 121.2C111.467 122.864 110.091 124.192 107.883 124.192ZM115.662 124.192C114.014 124.192 113.278 123.136 113.278 121.152V116.224H114.606V120.976C114.606 122.416 115.054 123.04 116.078 123.04C116.862 123.04 117.422 122.64 118.142 121.728V116.224H119.47V124H118.382L118.27 122.784H118.222C117.502 123.632 116.734 124.192 115.662 124.192ZM125.296 124V116.224H126.624V124H125.296ZM125.968 114.624C125.456 114.624 125.088 114.288 125.088 113.76C125.088 113.248 125.456 112.896 125.968 112.896C126.48 112.896 126.848 113.248 126.848 113.76C126.848 114.288 126.48 114.624 125.968 114.624ZM129.25 124V116.224H130.338L130.45 117.344H130.498C131.186 116.608 131.986 116.032 132.914 116.032C134.114 116.032 134.754 116.592 135.074 117.504C135.874 116.64 136.69 116.032 137.634 116.032C139.234 116.032 140.002 117.088 140.002 119.072V124H138.674V119.248C138.674 117.792 138.21 117.184 137.234 117.184C136.626 117.184 136.002 117.568 135.282 118.368V124H133.954V119.248C133.954 117.792 133.506 117.184 132.514 117.184C131.938 117.184 131.298 117.568 130.578 118.368V124H129.25ZM142.515 127.28V116.224H143.603L143.715 117.12H143.763C144.467 116.528 145.347 116.032 146.243 116.032C148.243 116.032 149.331 117.584 149.331 120C149.331 122.64 147.731 124.192 145.955 124.192C145.251 124.192 144.515 123.856 143.811 123.296L143.843 124.656V127.28H142.515ZM145.731 123.072C147.011 123.072 147.955 121.92 147.955 120C147.955 118.288 147.363 117.152 145.907 117.152C145.251 117.152 144.595 117.504 143.843 118.208V122.272C144.547 122.864 145.219 123.072 145.731 123.072ZM154.414 124.192C152.51 124.192 150.814 122.704 150.814 120.128C150.814 117.52 152.51 116.032 154.414 116.032C156.318 116.032 158.03 117.52 158.03 120.128C158.03 122.704 156.318 124.192 154.414 124.192ZM154.414 123.088C155.758 123.088 156.654 121.904 156.654 120.128C156.654 118.336 155.758 117.136 154.414 117.136C153.086 117.136 152.19 118.336 152.19 120.128C152.19 121.904 153.086 123.088 154.414 123.088ZM160.062 124V116.224H161.15L161.262 117.632H161.31C161.854 116.656 162.654 116.032 163.518 116.032C163.87 116.032 164.11 116.08 164.35 116.192L164.062 117.328C163.838 117.264 163.662 117.232 163.358 117.232C162.702 117.232 161.918 117.696 161.39 119.008V124H160.062ZM168.073 124.192C166.409 124.192 165.849 123.136 165.849 121.584V117.296H164.697V116.304L165.913 116.224L166.073 113.728H167.177V116.224H169.289V117.296H167.177V121.616C167.177 122.56 167.497 123.104 168.377 123.104C168.665 123.104 168.953 123.056 169.273 122.912L169.545 123.856C169.129 124.048 168.601 124.192 168.073 124.192ZM172.495 124.192C171.199 124.192 170.223 123.392 170.223 121.984C170.223 120.256 171.663 119.424 174.991 119.056C174.975 118.08 174.655 117.136 173.391 117.136C172.495 117.136 171.679 117.536 171.071 117.936L170.559 117.04C171.279 116.56 172.367 116.032 173.615 116.032C175.503 116.032 176.319 117.296 176.319 119.216V124H175.231L175.103 123.072H175.055C174.319 123.696 173.471 124.192 172.495 124.192ZM172.863 123.104C173.615 123.104 174.239 122.768 174.991 122.112V120C172.367 120.304 171.519 120.896 171.519 121.904C171.519 122.768 172.111 123.104 172.863 123.104ZM178.765 124V116.224H179.853L179.965 117.344H180.013C180.749 116.608 181.549 116.032 182.621 116.032C184.269 116.032 185.005 117.088 185.005 119.072V124H183.677V119.248C183.677 117.792 183.229 117.184 182.205 117.184C181.421 117.184 180.861 117.584 180.093 118.368V124H178.765ZM190.587 124.192C188.523 124.192 186.939 122.704 186.939 120.128C186.939 117.52 188.683 116.032 190.683 116.032C191.707 116.032 192.411 116.432 192.955 116.944L192.299 117.776C191.867 117.376 191.371 117.136 190.747 117.136C189.339 117.136 188.315 118.336 188.315 120.128C188.315 121.904 189.275 123.088 190.699 123.088C191.419 123.088 192.059 122.768 192.523 122.352L193.099 123.2C192.395 123.84 191.515 124.192 190.587 124.192ZM194.812 124V116.224H196.14V124H194.812ZM195.484 114.624C194.972 114.624 194.604 114.288 194.604 113.76C194.604 113.248 194.972 112.896 195.484 112.896C195.996 112.896 196.364 113.248 196.364 113.76C196.364 114.288 195.996 114.624 195.484 114.624ZM200.557 124.192C199.261 124.192 198.285 123.392 198.285 121.984C198.285 120.256 199.725 119.424 203.053 119.056C203.037 118.08 202.717 117.136 201.453 117.136C200.557 117.136 199.741 117.536 199.133 117.936L198.621 117.04C199.341 116.56 200.429 116.032 201.677 116.032C203.565 116.032 204.381 117.296 204.381 119.216V124H203.293L203.165 123.072H203.117C202.381 123.696 201.533 124.192 200.557 124.192ZM200.925 123.104C201.677 123.104 202.301 122.768 203.053 122.112V120C200.429 120.304 199.581 120.896 199.581 121.904C199.581 122.768 200.173 123.104 200.925 123.104ZM213.103 124.192C211.039 124.192 209.455 122.704 209.455 120.128C209.455 117.52 211.199 116.032 213.199 116.032C214.223 116.032 214.927 116.432 215.471 116.944L214.815 117.776C214.383 117.376 213.887 117.136 213.263 117.136C211.855 117.136 210.831 118.336 210.831 120.128C210.831 121.904 211.791 123.088 213.215 123.088C213.935 123.088 214.575 122.768 215.039 122.352L215.615 123.2C214.911 123.84 214.031 124.192 213.103 124.192ZM218.72 124.192C217.728 124.192 217.328 123.552 217.328 122.432V112.608H218.656V122.528C218.656 122.944 218.832 123.088 219.04 123.088C219.12 123.088 219.184 123.088 219.312 123.056L219.488 124.048C219.296 124.144 219.056 124.192 218.72 124.192ZM221.406 124V116.224H222.734V124H221.406ZM221.39 114.832L220.718 114.16L223.438 111.504L224.254 112.384L221.39 114.832ZM225.359 124V116.224H226.447L226.559 117.344H226.607C227.343 116.608 228.143 116.032 229.215 116.032C230.863 116.032 231.599 117.088 231.599 119.072V124H230.271V119.248C230.271 117.792 229.823 117.184 228.799 117.184C228.015 117.184 227.455 117.584 226.687 118.368V124H225.359ZM234.109 124V116.224H235.437V124H234.109ZM234.781 114.624C234.269 114.624 233.901 114.288 233.901 113.76C233.901 113.248 234.269 112.896 234.781 112.896C235.293 112.896 235.661 113.248 235.661 113.76C235.661 114.288 235.293 114.624 234.781 114.624ZM241.134 124.192C239.07 124.192 237.486 122.704 237.486 120.128C237.486 117.52 239.23 116.032 241.23 116.032C242.254 116.032 242.958 116.432 243.502 116.944L242.846 117.776C242.414 117.376 241.918 117.136 241.294 117.136C239.886 117.136 238.862 118.336 238.862 120.128C238.862 121.904 239.822 123.088 241.246 123.088C241.966 123.088 242.606 122.768 243.07 122.352L243.646 123.2C242.942 123.84 242.062 124.192 241.134 124.192ZM246.995 124.192C245.699 124.192 244.723 123.392 244.723 121.984C244.723 120.256 246.163 119.424 249.491 119.056C249.475 118.08 249.155 117.136 247.891 117.136C246.995 117.136 246.179 117.536 245.571 117.936L245.059 117.04C245.779 116.56 246.867 116.032 248.115 116.032C250.003 116.032 250.819 117.296 250.819 119.216V124H249.731L249.603 123.072H249.555C248.819 123.696 247.971 124.192 246.995 124.192ZM247.363 123.104C248.115 123.104 248.739 122.768 249.491 122.112V120C246.867 120.304 246.019 120.896 246.019 121.904C246.019 122.768 246.611 123.104 247.363 123.104ZM30.312 147V139.224H31.4L31.512 140.632H31.56C32.104 139.656 32.904 139.032 33.768 139.032C34.12 139.032 34.36 139.08 34.6 139.192L34.312 140.328C34.088 140.264 33.912 140.232 33.608 140.232C32.952 140.232 32.168 140.696 31.64 142.008V147H30.312ZM37.2759 147.192C35.9799 147.192 35.0039 146.392 35.0039 144.984C35.0039 143.256 36.4439 142.424 39.7719 142.056C39.7559 141.08 39.4359 140.136 38.1719 140.136C37.2759 140.136 36.4599 140.536 35.8519 140.936L35.3399 140.04C36.0599 139.56 37.1479 139.032 38.3959 139.032C40.2839 139.032 41.0999 140.296 41.0999 142.216V147H40.0119L39.8839 146.072H39.8359C39.0999 146.696 38.2519 147.192 37.2759 147.192ZM37.6439 146.104C38.3959 146.104 39.0199 145.768 39.7719 145.112V143C37.1479 143.304 36.2999 143.896 36.2999 144.904C36.2999 145.768 36.8919 146.104 37.6439 146.104ZM46.2024 147.192C44.2504 147.192 42.9864 145.72 42.9864 143.128C42.9864 140.6 44.5864 139.032 46.3624 139.032C47.2584 139.032 47.8504 139.368 48.5384 139.928L48.4744 138.6V135.608H49.8024V147H48.7144L48.6024 146.088H48.5544C47.9464 146.68 47.1144 147.192 46.2024 147.192ZM46.4904 146.072C47.2104 146.072 47.8344 145.72 48.4744 145.016V140.952C47.8184 140.36 47.2264 140.152 46.5864 140.152C45.3544 140.152 44.3624 141.336 44.3624 143.112C44.3624 144.968 45.1304 146.072 46.4904 146.072ZM52.4214 147V139.224H53.7494V147H52.4214ZM53.0934 137.624C52.5814 137.624 52.2134 137.288 52.2134 136.76C52.2134 136.248 52.5814 135.896 53.0934 135.896C53.6054 135.896 53.9734 136.248 53.9734 136.76C53.9734 137.288 53.6054 137.624 53.0934 137.624ZM59.4465 147.192C57.3825 147.192 55.7985 145.704 55.7985 143.128C55.7985 140.52 57.5425 139.032 59.5425 139.032C60.5665 139.032 61.2705 139.432 61.8145 139.944L61.1585 140.776C60.7265 140.376 60.2305 140.136 59.6065 140.136C58.1985 140.136 57.1745 141.336 57.1745 143.128C57.1745 144.904 58.1345 146.088 59.5585 146.088C60.2785 146.088 60.9185 145.768 61.3825 145.352L61.9585 146.2C61.2545 146.84 60.3745 147.192 59.4465 147.192ZM65.3071 147.192C64.0111 147.192 63.0351 146.392 63.0351 144.984C63.0351 143.256 64.4751 142.424 67.8031 142.056C67.7871 141.08 67.4671 140.136 66.2031 140.136C65.3071 140.136 64.4911 140.536 63.8831 140.936L63.3711 140.04C64.0911 139.56 65.1791 139.032 66.4271 139.032C68.3151 139.032 69.1311 140.296 69.1311 142.216V147H68.0431L67.9151 146.072H67.8671C67.1311 146.696 66.2831 147.192 65.3071 147.192ZM65.6751 146.104C66.4271 146.104 67.0511 145.768 67.8031 145.112V143C65.1791 143.304 64.3311 143.896 64.3311 144.904C64.3311 145.768 64.9231 146.104 65.6751 146.104ZM77.9168 147.192C75.8368 147.192 74.2048 145.688 74.2048 143.112C74.2048 140.584 75.9168 139.032 77.6927 139.032C79.6768 139.032 80.8128 140.44 80.8128 142.68C80.8128 142.968 80.7968 143.208 80.7488 143.464H75.5168C75.6288 145.064 76.6048 146.12 78.0768 146.12C78.8288 146.12 79.4848 145.912 80.0288 145.544L80.4928 146.392C79.8208 146.872 78.9888 147.192 77.9168 147.192ZM75.5168 142.44H79.6288C79.6288 140.904 78.9088 140.088 77.7248 140.088C76.6368 140.088 75.6768 140.952 75.5168 142.44ZM82.7183 147V139.224H83.8063L83.9183 140.344H83.9663C84.7023 139.608 85.5023 139.032 86.5743 139.032C88.2223 139.032 88.9583 140.088 88.9583 142.072V147H87.6303V142.248C87.6303 140.792 87.1823 140.184 86.1583 140.184C85.3743 140.184 84.8143 140.584 84.0463 141.368V147H82.7183ZM96.7034 147.192C95.5674 147.192 94.5274 146.776 93.8074 146.072L94.4154 145.304C95.0874 145.864 95.7914 146.152 96.7514 146.152C97.7754 146.152 98.2714 145.624 98.2714 144.952C98.2714 144.152 97.4074 143.816 96.5274 143.496C95.3594 143.08 94.2394 142.52 94.2394 141.24C94.2394 139.992 95.2314 139.032 96.9274 139.032C97.9034 139.032 98.7354 139.4 99.3434 139.912L98.7354 140.68C98.1914 140.28 97.6314 140.056 96.9434 140.056C95.9514 140.056 95.5194 140.6 95.5194 141.176C95.5194 141.88 96.1914 142.168 97.1674 142.504C98.3834 142.936 99.5514 143.464 99.5514 144.872C99.5514 146.136 98.5434 147.192 96.7034 147.192ZM103.647 147.192C101.999 147.192 101.263 146.136 101.263 144.152V139.224H102.591V143.976C102.591 145.416 103.039 146.04 104.062 146.04C104.847 146.04 105.407 145.64 106.127 144.728V139.224H107.455V147H106.367L106.255 145.784H106.207C105.487 146.632 104.719 147.192 103.647 147.192ZM113.281 150.28V139.224H114.369L114.481 140.12H114.529C115.233 139.528 116.113 139.032 117.009 139.032C119.009 139.032 120.097 140.584 120.097 143C120.097 145.64 118.497 147.192 116.721 147.192C116.017 147.192 115.281 146.856 114.577 146.296L114.609 147.656V150.28H113.281ZM116.497 146.072C117.777 146.072 118.721 144.92 118.721 143C118.721 141.288 118.129 140.152 116.673 140.152C116.017 140.152 115.361 140.504 114.609 141.208V145.272C115.313 145.864 115.985 146.072 116.497 146.072ZM125.18 147.192C123.276 147.192 121.58 145.704 121.58 143.128C121.58 140.52 123.276 139.032 125.18 139.032C127.084 139.032 128.796 140.52 128.796 143.128C128.796 145.704 127.084 147.192 125.18 147.192ZM125.18 146.088C126.524 146.088 127.42 144.904 127.42 143.128C127.42 141.336 126.524 140.136 125.18 140.136C123.852 140.136 122.956 141.336 122.956 143.128C122.956 144.904 123.852 146.088 125.18 146.088ZM132.86 147.192C131.724 147.192 130.684 146.776 129.964 146.072L130.572 145.304C131.244 145.864 131.948 146.152 132.908 146.152C133.932 146.152 134.428 145.624 134.428 144.952C134.428 144.152 133.564 143.816 132.684 143.496C131.516 143.08 130.396 142.52 130.396 141.24C130.396 139.992 131.388 139.032 133.084 139.032C134.06 139.032 134.892 139.4 135.5 139.912L134.892 140.68C134.348 140.28 133.788 140.056 133.1 140.056C132.108 140.056 131.676 140.6 131.676 141.176C131.676 141.88 132.348 142.168 133.324 142.504C134.54 142.936 135.708 143.464 135.708 144.872C135.708 146.136 134.7 147.192 132.86 147.192ZM137.531 147V139.224H138.859V147H137.531ZM138.203 137.624C137.691 137.624 137.323 137.288 137.323 136.76C137.323 136.248 137.691 135.896 138.203 135.896C138.715 135.896 139.083 136.248 139.083 136.76C139.083 137.288 138.715 137.624 138.203 137.624ZM144.924 147.192C144.204 147.192 143.404 146.824 142.716 146.2H142.668L142.54 147H141.484V135.608H142.812V138.712L142.764 140.104C143.484 139.496 144.348 139.032 145.212 139.032C147.212 139.032 148.3 140.584 148.3 142.984C148.3 145.64 146.7 147.192 144.924 147.192ZM144.7 146.072C145.98 146.072 146.924 144.92 146.924 143C146.924 141.288 146.332 140.152 144.876 140.152C144.22 140.152 143.548 140.504 142.812 141.208V145.272C143.484 145.864 144.188 146.072 144.7 146.072ZM151.735 147.192C150.743 147.192 150.343 146.552 150.343 145.432V135.608H151.671V145.528C151.671 145.944 151.847 146.088 152.055 146.088C152.135 146.088 152.199 146.088 152.327 146.056L152.503 147.048C152.311 147.144 152.071 147.192 151.735 147.192ZM157.557 147.192C155.477 147.192 153.845 145.688 153.845 143.112C153.845 140.584 155.557 139.032 157.333 139.032C159.317 139.032 160.453 140.44 160.453 142.68C160.453 142.968 160.437 143.208 160.389 143.464H155.157C155.269 145.064 156.245 146.12 157.717 146.12C158.469 146.12 159.125 145.912 159.669 145.544L160.133 146.392C159.461 146.872 158.629 147.192 157.557 147.192ZM155.157 142.44H159.269C159.269 140.904 158.549 140.088 157.365 140.088C156.277 140.088 155.317 140.952 155.157 142.44ZM168.698 147.192C166.618 147.192 164.986 145.688 164.986 143.112C164.986 140.584 166.698 139.032 168.474 139.032C170.458 139.032 171.594 140.44 171.594 142.68C171.594 142.968 171.578 143.208 171.53 143.464H166.298C166.41 145.064 167.386 146.12 168.858 146.12C169.61 146.12 170.266 145.912 170.81 145.544L171.274 146.392C170.602 146.872 169.77 147.192 168.698 147.192ZM166.298 142.44H170.41C170.41 140.904 169.69 140.088 168.506 140.088C167.418 140.088 166.458 140.952 166.298 142.44ZM175.258 147L172.458 139.224H173.834L175.29 143.624C175.53 144.392 175.77 145.176 176.01 145.928H176.074C176.298 145.176 176.554 144.392 176.794 143.624L178.25 139.224H179.562L176.81 147H175.258ZM184.024 147.192C182.12 147.192 180.424 145.704 180.424 143.128C180.424 140.52 182.12 139.032 184.024 139.032C185.928 139.032 187.64 140.52 187.64 143.128C187.64 145.704 185.928 147.192 184.024 147.192ZM184.024 146.088C185.368 146.088 186.264 144.904 186.264 143.128C186.264 141.336 185.368 140.136 184.024 140.136C182.696 140.136 181.799 141.336 181.799 143.128C181.799 144.904 182.696 146.088 184.024 146.088ZM191.063 147.192C190.071 147.192 189.671 146.552 189.671 145.432V135.608H190.999V145.528C190.999 145.944 191.175 146.088 191.383 146.088C191.463 146.088 191.527 146.088 191.655 146.056L191.831 147.048C191.639 147.144 191.399 147.192 191.063 147.192ZM196.022 147.192C194.374 147.192 193.638 146.136 193.638 144.152V139.224H194.966V143.976C194.966 145.416 195.414 146.04 196.438 146.04C197.222 146.04 197.782 145.64 198.502 144.728V139.224H199.83V147H198.742L198.63 145.784H198.582C197.862 146.632 197.094 147.192 196.022 147.192ZM205.525 147.192C203.461 147.192 201.877 145.704 201.877 143.128C201.877 140.52 203.621 139.032 205.621 139.032C206.645 139.032 207.349 139.432 207.893 139.944L207.237 140.776C206.805 140.376 206.309 140.136 205.685 140.136C204.277 140.136 203.253 141.336 203.253 143.128C203.253 144.904 204.213 146.088 205.637 146.088C206.357 146.088 206.997 145.768 207.461 145.352L208.037 146.2C207.333 146.84 206.453 147.192 205.525 147.192ZM209.75 147V139.224H211.078V147H209.75ZM210.422 137.624C209.91 137.624 209.542 137.288 209.542 136.76C209.542 136.248 209.91 135.896 210.422 135.896C210.934 135.896 211.302 136.248 211.302 136.76C211.302 137.288 210.934 137.624 210.422 137.624ZM216.727 147.192C214.823 147.192 213.127 145.704 213.127 143.128C213.127 140.52 214.823 139.032 216.727 139.032C218.631 139.032 220.343 140.52 220.343 143.128C220.343 145.704 218.631 147.192 216.727 147.192ZM216.727 146.088C218.071 146.088 218.967 144.904 218.967 143.128C218.967 141.336 218.071 140.136 216.727 140.136C215.399 140.136 214.503 141.336 214.503 143.128C214.503 144.904 215.399 146.088 216.727 146.088ZM216.039 137.832L215.367 137.16L218.087 134.504L218.903 135.384L216.039 137.832ZM222.375 147V139.224H223.463L223.575 140.344H223.623C224.359 139.608 225.159 139.032 226.231 139.032C227.879 139.032 228.615 140.088 228.615 142.072V147H227.287V142.248C227.287 140.792 226.839 140.184 225.815 140.184C225.031 140.184 224.471 140.584 223.703 141.368V147H222.375ZM236.12 147.192C234.824 147.192 233.848 146.392 233.848 144.984C233.848 143.256 235.288 142.424 238.616 142.056C238.6 141.08 238.28 140.136 237.016 140.136C236.12 140.136 235.304 140.536 234.696 140.936L234.184 140.04C234.904 139.56 235.992 139.032 237.24 139.032C239.128 139.032 239.944 140.296 239.944 142.216V147H238.856L238.728 146.072H238.68C237.944 146.696 237.096 147.192 236.12 147.192ZM236.488 146.104C237.24 146.104 237.864 145.768 238.616 145.112V143C235.992 143.304 235.144 143.896 235.144 144.904C235.144 145.768 235.736 146.104 236.488 146.104ZM32.104 170.192C30.808 170.192 29.832 169.392 29.832 167.984C29.832 166.256 31.272 165.424 34.6 165.056C34.584 164.08 34.264 163.136 33 163.136C32.104 163.136 31.288 163.536 30.68 163.936L30.168 163.04C30.888 162.56 31.976 162.032 33.224 162.032C35.112 162.032 35.928 163.296 35.928 165.216V170H34.84L34.712 169.072H34.664C33.928 169.696 33.08 170.192 32.104 170.192ZM32.472 169.104C33.224 169.104 33.848 168.768 34.6 168.112V166C31.976 166.304 31.128 166.896 31.128 167.904C31.128 168.768 31.72 169.104 32.472 169.104ZM41.0305 170.192C39.0785 170.192 37.8145 168.72 37.8145 166.128C37.8145 163.6 39.4145 162.032 41.1905 162.032C42.0865 162.032 42.6785 162.368 43.3665 162.928L43.3025 161.6V158.608H44.6305V170H43.5425L43.4305 169.088H43.3825C42.7745 169.68 41.9425 170.192 41.0305 170.192ZM41.3185 169.072C42.0385 169.072 42.6625 168.72 43.3025 168.016V163.952C42.6465 163.36 42.0545 163.152 41.4145 163.152C40.1825 163.152 39.1905 164.336 39.1905 166.112C39.1905 167.968 39.9585 169.072 41.3185 169.072ZM50.3855 170.192C48.3055 170.192 46.6735 168.688 46.6735 166.112C46.6735 163.584 48.3855 162.032 50.1615 162.032C52.1455 162.032 53.2815 163.44 53.2815 165.68C53.2815 165.968 53.2655 166.208 53.2175 166.464H47.9855C48.0975 168.064 49.0735 169.12 50.5455 169.12C51.2975 169.12 51.9535 168.912 52.4975 168.544L52.9615 169.392C52.2895 169.872 51.4575 170.192 50.3855 170.192ZM47.9855 165.44H52.0975C52.0975 163.904 51.3775 163.088 50.1935 163.088C49.1055 163.088 48.1455 163.952 47.9855 165.44ZM55.187 170V162.224H56.275L56.387 163.344H56.435C57.171 162.608 57.971 162.032 59.043 162.032C60.691 162.032 61.427 163.088 61.427 165.072V170H60.099V165.248C60.099 163.792 59.651 163.184 58.627 163.184C57.843 163.184 57.283 163.584 56.515 164.368V170H55.187ZM66.961 170.192C65.057 170.192 63.361 168.704 63.361 166.128C63.361 163.52 65.057 162.032 66.961 162.032C68.865 162.032 70.577 163.52 70.577 166.128C70.577 168.704 68.865 170.192 66.961 170.192ZM66.961 169.088C68.305 169.088 69.201 167.904 69.201 166.128C69.201 164.336 68.305 163.136 66.961 163.136C65.633 163.136 64.737 164.336 64.737 166.128C64.737 167.904 65.633 169.088 66.961 169.088ZM75.6809 170.192C73.6169 170.192 72.0329 168.704 72.0329 166.128C72.0329 163.52 73.7769 162.032 75.7769 162.032C76.8009 162.032 77.5049 162.432 78.0489 162.944L77.3929 163.776C76.9609 163.376 76.4649 163.136 75.8409 163.136C74.4329 163.136 73.4089 164.336 73.4089 166.128C73.4089 167.904 74.3689 169.088 75.7929 169.088C76.5129 169.088 77.1529 168.768 77.6169 168.352L78.1929 169.2C77.4889 169.84 76.6089 170.192 75.6809 170.192ZM81.5415 170.192C80.2455 170.192 79.2695 169.392 79.2695 167.984C79.2695 166.256 80.7095 165.424 84.0375 165.056C84.0215 164.08 83.7015 163.136 82.4375 163.136C81.5415 163.136 80.7255 163.536 80.1175 163.936L79.6055 163.04C80.3255 162.56 81.4135 162.032 82.6615 162.032C84.5495 162.032 85.3655 163.296 85.3655 165.216V170H84.2775L84.1495 169.072H84.1015C83.3655 169.696 82.5175 170.192 81.5415 170.192ZM81.9095 169.104C82.6615 169.104 83.2855 168.768 84.0375 168.112V166C81.4135 166.304 80.5655 166.896 80.5655 167.904C80.5655 168.768 81.1575 169.104 81.9095 169.104ZM87.812 170V162.224H88.9L89.012 163.632H89.06C89.604 162.656 90.404 162.032 91.268 162.032C91.62 162.032 91.86 162.08 92.1 162.192L91.812 163.328C91.588 163.264 91.412 163.232 91.108 163.232C90.452 163.232 89.668 163.696 89.14 165.008V170H87.812ZM96.2903 170.192C94.2263 170.192 92.6423 168.704 92.6423 166.128C92.6423 163.52 94.3863 162.032 96.3863 162.032C97.4103 162.032 98.1143 162.432 98.6583 162.944L98.0023 163.776C97.5703 163.376 97.0743 163.136 96.4503 163.136C95.0423 163.136 94.0182 164.336 94.0182 166.128C94.0182 167.904 94.9783 169.088 96.4023 169.088C97.1223 169.088 97.7623 168.768 98.2263 168.352L98.8023 169.2C98.0983 169.84 97.2183 170.192 96.2903 170.192ZM100.515 170V162.224H101.843V170H100.515ZM101.187 160.624C100.675 160.624 100.307 160.288 100.307 159.76C100.307 159.248 100.675 158.896 101.187 158.896C101.699 158.896 102.067 159.248 102.067 159.76C102.067 160.288 101.699 160.624 101.187 160.624ZM104.468 170V162.224H105.556L105.668 163.344H105.716C106.452 162.608 107.252 162.032 108.324 162.032C109.972 162.032 110.708 163.088 110.708 165.072V170H109.38V165.248C109.38 163.792 108.932 163.184 107.908 163.184C107.124 163.184 106.564 163.584 105.796 164.368V170H104.468ZM116.242 170.192C114.338 170.192 112.642 168.704 112.642 166.128C112.642 163.52 114.338 162.032 116.242 162.032C118.146 162.032 119.858 163.52 119.858 166.128C119.858 168.704 118.146 170.192 116.242 170.192ZM116.242 169.088C117.586 169.088 118.482 167.904 118.482 166.128C118.482 164.336 117.586 163.136 116.242 163.136C114.914 163.136 114.018 164.336 114.018 166.128C114.018 167.904 114.914 169.088 116.242 169.088ZM121.89 170V162.224H122.978L123.09 163.344H123.138C123.826 162.608 124.626 162.032 125.554 162.032C126.754 162.032 127.394 162.592 127.714 163.504C128.514 162.64 129.33 162.032 130.274 162.032C131.874 162.032 132.642 163.088 132.642 165.072V170H131.314V165.248C131.314 163.792 130.85 163.184 129.874 163.184C129.266 163.184 128.642 163.568 127.922 164.368V170H126.594V165.248C126.594 163.792 126.146 163.184 125.154 163.184C124.578 163.184 123.938 163.568 123.218 164.368V170H121.89ZM136.948 170.192C135.652 170.192 134.676 169.392 134.676 167.984C134.676 166.256 136.116 165.424 139.444 165.056C139.428 164.08 139.108 163.136 137.844 163.136C136.948 163.136 136.132 163.536 135.524 163.936L135.012 163.04C135.732 162.56 136.82 162.032 138.068 162.032C139.956 162.032 140.772 163.296 140.772 165.216V170H139.684L139.556 169.072H139.508C138.772 169.696 137.924 170.192 136.948 170.192ZM137.316 169.104C138.068 169.104 138.692 168.768 139.444 168.112V166C136.82 166.304 135.972 166.896 135.972 167.904C135.972 168.768 136.564 169.104 137.316 169.104ZM143.906 170.192C143.378 170.192 142.946 169.776 142.946 169.184C142.946 168.576 143.378 168.16 143.906 168.16C144.434 168.16 144.866 168.576 144.866 169.184C144.866 169.776 144.434 170.192 143.906 170.192ZM146.738 163.696V163.104C148.674 161.36 149.698 160.384 149.698 159.44C149.698 158.64 149.234 158.128 148.498 158.128C147.97 158.128 147.506 158.528 147.154 159.04L146.546 158.48C147.026 157.76 147.778 157.264 148.626 157.264C149.874 157.264 150.706 157.968 150.706 159.28C150.706 160.48 149.73 161.456 148.402 162.816H151.026V163.696H146.738Z" fill="#091663"/>
<path d="M58.9432 48.4H68.4472L67.8232 51.616H62.1112L61.5832 54.352H66.4312L65.8072 57.568H60.9592L60.2872 60.784H66.1912L65.5672 64H55.8232L58.9432 48.4ZM70.0344 60.112C70.4664 60.624 70.8824 60.984 71.2824 61.192C71.6824 61.4 72.0664 61.504 72.4344 61.504C72.8024 61.504 73.1144 61.432 73.3704 61.288C73.6424 61.128 73.7784 60.928 73.7784 60.688C73.7784 60.528 73.7304 60.392 73.6344 60.28C73.5384 60.168 73.4024 60.056 73.2264 59.944C73.0664 59.816 72.8584 59.688 72.6024 59.56C72.3464 59.432 72.0664 59.28 71.7624 59.104C71.4744 58.944 71.1864 58.752 70.8984 58.528C70.6264 58.304 70.3784 58.056 70.1544 57.784C69.9464 57.496 69.7784 57.184 69.6504 56.848C69.5224 56.512 69.4584 56.144 69.4584 55.744C69.4584 55.168 69.5864 54.64 69.8424 54.16C70.0984 53.664 70.4424 53.24 70.8744 52.888C71.3064 52.52 71.8184 52.232 72.4104 52.024C73.0024 51.816 73.6344 51.712 74.3064 51.712C75.1704 51.712 75.9384 51.904 76.6104 52.288C77.2824 52.656 77.8744 53.104 78.3864 53.632L76.3224 55.6C76.0344 55.312 75.7224 55.064 75.3864 54.856C75.0504 54.648 74.6904 54.544 74.3064 54.544C73.9224 54.544 73.6184 54.632 73.3944 54.808C73.1704 54.968 73.0584 55.168 73.0584 55.408C73.0584 55.584 73.1144 55.736 73.2264 55.864C73.3384 55.976 73.4824 56.088 73.6584 56.2C73.8504 56.312 74.0584 56.424 74.2824 56.536C74.5224 56.648 74.7544 56.768 74.9784 56.896C75.2664 57.056 75.5544 57.24 75.8424 57.448C76.1304 57.64 76.3864 57.872 76.6104 58.144C76.8344 58.416 77.0184 58.728 77.1624 59.08C77.3064 59.416 77.3784 59.808 77.3784 60.256C77.3784 60.864 77.2504 61.416 76.9944 61.912C76.7384 62.392 76.3784 62.816 75.9144 63.184C75.4664 63.536 74.9224 63.808 74.2824 64C73.6424 64.192 72.9464 64.288 72.1944 64.288C71.8424 64.288 71.4664 64.24 71.0664 64.144C70.6664 64.048 70.2664 63.904 69.8664 63.712C69.4824 63.52 69.1064 63.28 68.7384 62.992C68.3864 62.688 68.0824 62.336 67.8264 61.936L70.0344 60.112ZM83.8498 64.288C83.1298 64.288 82.4738 64.168 81.8818 63.928C81.2898 63.688 80.7858 63.352 80.3698 62.92C79.9538 62.472 79.6258 61.944 79.3858 61.336C79.1618 60.728 79.0498 60.048 79.0498 59.296C79.0498 58.128 79.2498 57.08 79.6498 56.152C80.0498 55.208 80.5698 54.408 81.2098 53.752C81.8658 53.096 82.5938 52.592 83.3938 52.24C84.2098 51.888 85.0338 51.712 85.8658 51.712C86.5858 51.712 87.2418 51.832 87.8338 52.072C88.4258 52.312 88.9298 52.656 89.3458 53.104C89.7618 53.536 90.0818 54.064 90.3058 54.688C90.5458 55.296 90.6658 55.968 90.6658 56.704C90.6658 57.872 90.4658 58.928 90.0658 59.872C89.6658 60.8 89.1378 61.592 88.4818 62.248C87.8418 62.904 87.1138 63.408 86.2978 63.76C85.4978 64.112 84.6818 64.288 83.8498 64.288ZM85.4338 54.784C85.0818 54.784 84.7538 54.896 84.4498 55.12C84.1458 55.344 83.8818 55.656 83.6578 56.056C83.4338 56.44 83.2578 56.912 83.1298 57.472C83.0018 58.016 82.9378 58.608 82.9378 59.248C82.9378 59.856 83.0418 60.336 83.2498 60.688C83.4738 61.04 83.8178 61.216 84.2818 61.216C84.6338 61.216 84.9618 61.104 85.2658 60.88C85.5698 60.656 85.8338 60.352 86.0578 59.968C86.2818 59.568 86.4578 59.096 86.5858 58.552C86.7138 58.008 86.7778 57.408 86.7778 56.752C86.7778 56.144 86.6658 55.664 86.4418 55.312C86.2338 54.96 85.8978 54.784 85.4338 54.784ZM87.0658 46.576H90.8578L87.1618 50.224H84.2818L87.0658 46.576ZM93.0667 52.144L94.6507 52L94.6987 51.664C94.8107 51.04 94.9867 50.448 95.2267 49.888C95.4827 49.328 95.8107 48.832 96.2107 48.4C96.6107 47.968 97.0907 47.632 97.6507 47.392C98.2267 47.136 98.8907 47.008 99.6427 47.008C100.619 47.008 101.531 47.232 102.379 47.68L101.179 50.368C101.051 50.288 100.883 50.216 100.675 50.152C100.467 50.072 100.267 50.032 100.075 50.032C99.8667 50.032 99.6827 50.048 99.5227 50.08C99.3627 50.112 99.2187 50.184 99.0907 50.296C98.9627 50.392 98.8507 50.544 98.7547 50.752C98.6747 50.944 98.6027 51.2 98.5387 51.52L98.4427 52H100.411L99.8347 54.976H97.8187L96.0427 64H92.2027L94.0267 54.976H92.4907L93.0667 52.144ZM100.074 59.872C100.074 58.736 100.25 57.672 100.602 56.68C100.954 55.688 101.426 54.824 102.018 54.088C102.61 53.352 103.29 52.776 104.058 52.36C104.826 51.928 105.626 51.712 106.458 51.712C106.97 51.712 107.458 51.848 107.922 52.12C108.386 52.376 108.73 52.736 108.954 53.2H109.002L109.53 52H112.602L110.202 64H107.082V62.512H107.034C106.506 63.072 105.914 63.512 105.258 63.832C104.618 64.136 104.01 64.288 103.434 64.288C102.378 64.288 101.554 63.912 100.962 63.16C100.37 62.392 100.074 61.296 100.074 59.872ZM105.162 61.168C105.482 61.168 105.834 61.072 106.218 60.88C106.602 60.672 106.954 60.24 107.274 59.584L108.042 55.744C107.898 55.424 107.698 55.192 107.442 55.048C107.202 54.904 106.97 54.832 106.746 54.832C106.394 54.832 106.058 54.944 105.738 55.168C105.418 55.392 105.13 55.704 104.874 56.104C104.634 56.504 104.434 56.984 104.274 57.544C104.13 58.104 104.058 58.72 104.058 59.392C104.058 60.016 104.154 60.472 104.346 60.76C104.554 61.032 104.826 61.168 105.162 61.168ZM125.841 52L123.537 63.52C123.169 65.376 122.409 66.752 121.257 67.648C120.121 68.544 118.673 68.992 116.913 68.992C116.241 68.992 115.497 68.856 114.681 68.584C113.881 68.312 113.121 67.888 112.401 67.312L114.033 64.768C114.497 65.104 114.977 65.384 115.473 65.608C115.969 65.848 116.481 65.968 117.009 65.968C118.417 65.968 119.361 65.264 119.841 63.856L120.417 61.984H120.369C119.841 62.496 119.297 62.88 118.737 63.136C118.177 63.392 117.585 63.52 116.961 63.52C115.953 63.52 115.113 63.184 114.441 62.512C113.785 61.824 113.457 60.768 113.457 59.344C113.457 58.272 113.625 57.272 113.961 56.344C114.297 55.416 114.753 54.608 115.329 53.92C115.905 53.232 116.569 52.696 117.321 52.312C118.073 51.912 118.865 51.712 119.697 51.712C120.209 51.712 120.689 51.848 121.137 52.12C121.585 52.376 121.921 52.736 122.145 53.2H122.193L122.721 52H125.841ZM118.497 60.4C118.833 60.4 119.185 60.32 119.553 60.16C119.937 59.984 120.289 59.616 120.609 59.056L121.233 55.744C121.089 55.424 120.897 55.192 120.657 55.048C120.433 54.904 120.209 54.832 119.985 54.832C119.633 54.832 119.305 54.928 119.001 55.12C118.697 55.312 118.425 55.592 118.185 55.96C117.961 56.312 117.777 56.736 117.633 57.232C117.505 57.728 117.441 58.272 117.441 58.864C117.441 59.392 117.537 59.784 117.729 60.04C117.921 60.28 118.177 60.4 118.497 60.4ZM131.451 64.288C130.731 64.288 130.075 64.168 129.483 63.928C128.891 63.688 128.387 63.352 127.971 62.92C127.555 62.472 127.227 61.944 126.987 61.336C126.763 60.728 126.651 60.048 126.651 59.296C126.651 58.128 126.851 57.08 127.251 56.152C127.651 55.208 128.171 54.408 128.811 53.752C129.467 53.096 130.195 52.592 130.995 52.24C131.811 51.888 132.635 51.712 133.467 51.712C134.187 51.712 134.843 51.832 135.435 52.072C136.027 52.312 136.531 52.656 136.947 53.104C137.363 53.536 137.683 54.064 137.907 54.688C138.147 55.296 138.267 55.968 138.267 56.704C138.267 57.872 138.067 58.928 137.667 59.872C137.267 60.8 136.739 61.592 136.083 62.248C135.443 62.904 134.715 63.408 133.899 63.76C133.099 64.112 132.283 64.288 131.451 64.288ZM133.035 54.784C132.683 54.784 132.355 54.896 132.051 55.12C131.747 55.344 131.483 55.656 131.259 56.056C131.035 56.44 130.859 56.912 130.731 57.472C130.603 58.016 130.539 58.608 130.539 59.248C130.539 59.856 130.643 60.336 130.851 60.688C131.075 61.04 131.419 61.216 131.883 61.216C132.235 61.216 132.563 61.104 132.867 60.88C133.171 60.656 133.435 60.352 133.659 59.968C133.883 59.568 134.059 59.096 134.187 58.552C134.315 58.008 134.379 57.408 134.379 56.752C134.379 56.144 134.267 55.664 134.043 55.312C133.835 54.96 133.499 54.784 133.035 54.784ZM153.441 50.8L154.113 47.296H157.953L154.593 64H151.473V62.512H151.425C150.897 63.072 150.305 63.512 149.649 63.832C149.009 64.136 148.401 64.288 147.825 64.288C146.769 64.288 145.945 63.912 145.353 63.16C144.761 62.392 144.465 61.296 144.465 59.872C144.465 58.736 144.641 57.672 144.993 56.68C145.345 55.688 145.817 54.824 146.409 54.088C147.001 53.352 147.681 52.776 148.449 52.36C149.217 51.928 150.017 51.712 150.849 51.712C151.361 51.712 151.817 51.832 152.217 52.072C152.617 52.312 152.929 52.64 153.153 53.056H153.201L153.441 50.8ZM149.553 61.168C149.857 61.168 150.201 61.072 150.585 60.88C150.969 60.672 151.329 60.24 151.665 59.584L152.433 55.744C152.289 55.424 152.089 55.192 151.833 55.048C151.593 54.904 151.361 54.832 151.137 54.832C150.785 54.832 150.449 54.944 150.129 55.168C149.809 55.392 149.521 55.704 149.265 56.104C149.025 56.504 148.825 56.984 148.665 57.544C148.521 58.104 148.449 58.72 148.449 59.392C148.449 60.016 148.545 60.472 148.737 60.76C148.945 61.032 149.217 61.168 149.553 61.168ZM157.612 59.104C157.612 58 157.812 57 158.212 56.104C158.612 55.192 159.132 54.416 159.772 53.776C160.428 53.12 161.156 52.616 161.956 52.264C162.772 51.896 163.58 51.712 164.38 51.712C165.116 51.712 165.732 51.832 166.228 52.072C166.74 52.312 167.148 52.64 167.452 53.056C167.772 53.472 168.004 53.96 168.148 54.52C168.292 55.064 168.364 55.648 168.364 56.272C168.364 56.576 168.332 56.88 168.268 57.184C168.22 57.488 168.156 57.776 168.076 58.048C168.012 58.304 167.94 58.536 167.86 58.744C167.796 58.936 167.74 59.072 167.692 59.152H161.212C161.244 59.952 161.492 60.528 161.956 60.88C162.42 61.232 163.004 61.408 163.708 61.408C164.044 61.408 164.396 61.328 164.764 61.168C165.132 61.008 165.452 60.832 165.724 60.64L167.068 63.04C166.588 63.376 165.972 63.672 165.22 63.928C164.468 64.168 163.596 64.288 162.604 64.288C161.868 64.288 161.196 64.168 160.588 63.928C159.98 63.688 159.452 63.344 159.004 62.896C158.572 62.448 158.228 61.904 157.972 61.264C157.732 60.624 157.612 59.904 157.612 59.104ZM165.148 56.848C165.18 56.752 165.204 56.64 165.22 56.512C165.236 56.368 165.244 56.224 165.244 56.08C165.244 55.664 165.148 55.32 164.956 55.048C164.764 54.776 164.412 54.64 163.9 54.64C163.436 54.64 162.988 54.816 162.556 55.168C162.124 55.52 161.772 56.08 161.5 56.848H165.148ZM177.584 48.4H182.576C183.36 48.4 184.08 48.472 184.736 48.616C185.408 48.744 185.984 48.952 186.464 49.24C186.944 49.528 187.32 49.904 187.592 50.368C187.864 50.816 188 51.36 188 52C188 52.848 187.712 53.624 187.136 54.328C186.56 55.032 185.728 55.552 184.64 55.888L184.592 55.984C186.352 56.416 187.232 57.36 187.232 58.816C187.232 59.76 187.04 60.56 186.656 61.216C186.288 61.872 185.792 62.408 185.168 62.824C184.544 63.224 183.816 63.52 182.984 63.712C182.152 63.904 181.28 64 180.368 64H174.464L177.584 48.4ZM181.472 54.64C182.416 54.64 183.08 54.464 183.464 54.112C183.864 53.76 184.064 53.28 184.064 52.672C184.064 51.776 183.36 51.328 181.952 51.328H180.848L180.176 54.64H181.472ZM180.656 61.072C181.616 61.072 182.336 60.888 182.816 60.52C183.296 60.136 183.536 59.616 183.536 58.96C183.536 57.808 182.832 57.232 181.424 57.232H179.648L178.88 61.072H180.656ZM189.207 59.872C189.207 58.736 189.383 57.672 189.735 56.68C190.087 55.688 190.559 54.824 191.151 54.088C191.743 53.352 192.423 52.776 193.191 52.36C193.959 51.928 194.759 51.712 195.591 51.712C196.103 51.712 196.591 51.848 197.055 52.12C197.519 52.376 197.863 52.736 198.087 53.2H198.135L198.663 52H201.735L199.335 64H196.215V62.512H196.167C195.639 63.072 195.047 63.512 194.391 63.832C193.751 64.136 193.143 64.288 192.567 64.288C191.511 64.288 190.687 63.912 190.095 63.16C189.503 62.392 189.207 61.296 189.207 59.872ZM194.295 61.168C194.615 61.168 194.967 61.072 195.351 60.88C195.735 60.672 196.087 60.24 196.407 59.584L197.175 55.744C197.031 55.424 196.831 55.192 196.575 55.048C196.335 54.904 196.103 54.832 195.879 54.832C195.527 54.832 195.191 54.944 194.871 55.168C194.551 55.392 194.263 55.704 194.007 56.104C193.767 56.504 193.567 56.984 193.407 57.544C193.263 58.104 193.191 58.72 193.191 59.392C193.191 60.016 193.287 60.472 193.479 60.76C193.687 61.032 193.959 61.168 194.295 61.168ZM204.462 52H207.582L207.486 54.352H207.582C208.046 53.584 208.598 52.952 209.238 52.456C209.894 51.96 210.558 51.712 211.23 51.712C211.566 51.712 211.83 51.736 212.022 51.784C212.23 51.816 212.398 51.872 212.526 51.952L211.278 55.264C211.102 55.168 210.894 55.112 210.654 55.096C210.43 55.08 210.222 55.072 210.03 55.072C209.518 55.072 209.038 55.24 208.59 55.576C208.158 55.912 207.71 56.48 207.246 57.28L205.95 64H202.11L204.462 52ZM214.071 52H217.191L217.095 54.352H217.191C217.655 53.584 218.207 52.952 218.847 52.456C219.503 51.96 220.167 51.712 220.839 51.712C221.175 51.712 221.439 51.736 221.631 51.784C221.839 51.816 222.007 51.872 222.135 51.952L220.887 55.264C220.711 55.168 220.503 55.112 220.263 55.096C220.039 55.08 219.831 55.072 219.639 55.072C219.127 55.072 218.647 55.24 218.199 55.576C217.767 55.912 217.319 56.48 216.855 57.28L215.559 64H211.719L214.071 52ZM221.526 59.104C221.526 58 221.726 57 222.126 56.104C222.526 55.192 223.046 54.416 223.686 53.776C224.342 53.12 225.07 52.616 225.87 52.264C226.686 51.896 227.494 51.712 228.294 51.712C229.03 51.712 229.646 51.832 230.142 52.072C230.654 52.312 231.062 52.64 231.366 53.056C231.686 53.472 231.918 53.96 232.062 54.52C232.206 55.064 232.278 55.648 232.278 56.272C232.278 56.576 232.246 56.88 232.182 57.184C232.134 57.488 232.07 57.776 231.99 58.048C231.926 58.304 231.854 58.536 231.774 58.744C231.71 58.936 231.654 59.072 231.606 59.152H225.126C225.158 59.952 225.406 60.528 225.87 60.88C226.334 61.232 226.918 61.408 227.622 61.408C227.958 61.408 228.31 61.328 228.678 61.168C229.046 61.008 229.366 60.832 229.638 60.64L230.982 63.04C230.502 63.376 229.886 63.672 229.134 63.928C228.382 64.168 227.51 64.288 226.518 64.288C225.782 64.288 225.11 64.168 224.502 63.928C223.894 63.688 223.366 63.344 222.918 62.896C222.486 62.448 222.142 61.904 221.886 61.264C221.646 60.624 221.526 59.904 221.526 59.104ZM229.062 56.848C229.094 56.752 229.118 56.64 229.134 56.512C229.15 56.368 229.158 56.224 229.158 56.08C229.158 55.664 229.062 55.32 228.87 55.048C228.678 54.776 228.326 54.64 227.814 54.64C227.35 54.64 226.902 54.816 226.47 55.168C226.038 55.52 225.686 56.08 225.414 56.848H229.062ZM235.024 54.976H233.488L234.064 52.144L235.792 52L236.848 48.928H240.064L239.488 52H242.08L241.504 54.976H238.816L237.904 59.488C237.872 59.632 237.856 59.768 237.856 59.896C237.856 60.008 237.856 60.128 237.856 60.256C237.856 60.96 238.24 61.312 239.008 61.312C239.264 61.312 239.552 61.232 239.872 61.072L240.544 63.76C240.208 63.888 239.784 64.008 239.272 64.12C238.776 64.232 238.192 64.288 237.52 64.288C236.88 64.288 236.328 64.2 235.864 64.024C235.416 63.864 235.048 63.64 234.76 63.352C234.472 63.048 234.256 62.696 234.112 62.296C233.984 61.88 233.92 61.424 233.92 60.928C233.92 60.656 233.936 60.392 233.968 60.136C234.016 59.88 234.064 59.616 234.112 59.344L235.024 54.976ZM244.235 54.976H242.699L243.275 52.144L245.003 52L246.059 48.928H249.275L248.699 52H251.291L250.715 54.976H248.027L247.115 59.488C247.083 59.632 247.067 59.768 247.067 59.896C247.067 60.008 247.067 60.128 247.067 60.256C247.067 60.96 247.451 61.312 248.219 61.312C248.475 61.312 248.763 61.232 249.083 61.072L249.755 63.76C249.419 63.888 248.995 64.008 248.483 64.12C247.987 64.232 247.403 64.288 246.731 64.288C246.091 64.288 245.539 64.2 245.075 64.024C244.627 63.864 244.259 63.64 243.971 63.352C243.683 63.048 243.467 62.696 243.323 62.296C243.195 61.88 243.131 61.424 243.131 60.928C243.131 60.656 243.147 60.392 243.179 60.136C243.227 59.88 243.275 59.616 243.323 59.344L244.235 54.976ZM255.163 56.608C254.587 56.608 254.123 56.424 253.771 56.056C253.419 55.688 253.243 55.2 253.243 54.592C253.243 54.272 253.307 53.952 253.435 53.632C253.563 53.312 253.739 53.024 253.963 52.768C254.203 52.512 254.483 52.304 254.803 52.144C255.123 51.984 255.483 51.904 255.883 51.904C256.459 51.904 256.923 52.096 257.275 52.48C257.627 52.864 257.803 53.344 257.803 53.92C257.803 54.256 257.739 54.584 257.611 54.904C257.483 55.224 257.299 55.512 257.059 55.768C256.835 56.024 256.563 56.232 256.243 56.392C255.923 56.536 255.563 56.608 255.163 56.608ZM253.867 64.288C253.291 64.288 252.827 64.104 252.475 63.736C252.123 63.368 251.947 62.88 251.947 62.272C251.947 61.952 252.011 61.632 252.139 61.312C252.267 60.992 252.443 60.704 252.667 60.448C252.907 60.192 253.187 59.984 253.507 59.824C253.827 59.664 254.187 59.584 254.587 59.584C255.163 59.584 255.627 59.776 255.979 60.16C256.331 60.544 256.507 61.024 256.507 61.6C256.507 61.936 256.443 62.264 256.315 62.584C256.187 62.904 256.003 63.192 255.763 63.448C255.539 63.704 255.267 63.904 254.947 64.048C254.627 64.208 254.267 64.288 253.867 64.288Z" fill="#0386D7"/>
</svg>
