<svg width="314" height="202" viewBox="0 0 314 202" fill="none" xmlns="http://www.w3.org/2000/svg">
<rect width="314" height="202" rx="9" fill="white"/>
<path d="M33.352 101.192C32.616 101.192 31.9333 101.053 31.304 100.776C30.6747 100.488 30.1307 100.109 29.672 99.64L30.472 98.712C30.8453 99.1067 31.2827 99.4267 31.784 99.672C32.296 99.9067 32.824 100.024 33.368 100.024C34.0613 100.024 34.6 99.8693 34.984 99.56C35.368 99.24 35.56 98.824 35.56 98.312C35.56 97.9493 35.48 97.6613 35.32 97.448C35.1707 97.2347 34.9627 97.0533 34.696 96.904C34.44 96.7547 34.1467 96.6053 33.816 96.456L32.312 95.8C31.9813 95.6613 31.6507 95.48 31.32 95.256C31 95.032 30.728 94.744 30.504 94.392C30.2907 94.04 30.184 93.608 30.184 93.096C30.184 92.5627 30.3227 92.088 30.6 91.672C30.888 91.2453 31.2827 90.9147 31.784 90.68C32.2853 90.4347 32.8507 90.312 33.48 90.312C34.1093 90.312 34.6907 90.4347 35.224 90.68C35.7573 90.9147 36.2107 91.224 36.584 91.608L35.864 92.472C35.544 92.1627 35.1867 91.9227 34.792 91.752C34.408 91.5707 33.9707 91.48 33.48 91.48C32.8933 91.48 32.4187 91.6187 32.056 91.896C31.704 92.1733 31.528 92.5467 31.528 93.016C31.528 93.3467 31.6133 93.624 31.784 93.848C31.9653 94.0613 32.1893 94.2373 32.456 94.376C32.7227 94.5147 32.9947 94.6427 33.272 94.76L34.76 95.4C35.1653 95.5707 35.528 95.7787 35.848 96.024C36.1787 96.2587 36.44 96.552 36.632 96.904C36.824 97.2453 36.92 97.6773 36.92 98.2C36.92 98.7547 36.776 99.2613 36.488 99.72C36.2 100.168 35.7893 100.525 35.256 100.792C34.7227 101.059 34.088 101.192 33.352 101.192ZM42.0109 101.192C41.3175 101.192 40.6882 101.032 40.1229 100.712C39.5575 100.381 39.1095 99.912 38.7789 99.304C38.4482 98.696 38.2829 97.9707 38.2829 97.128C38.2829 96.2747 38.4482 95.544 38.7789 94.936C39.1202 94.328 39.5575 93.8587 40.0909 93.528C40.6242 93.1973 41.1842 93.032 41.7709 93.032C42.7629 93.032 43.5255 93.3627 44.0589 94.024C44.6029 94.6853 44.8749 95.5707 44.8749 96.68C44.8749 96.8187 44.8695 96.9573 44.8589 97.096C44.8589 97.224 44.8482 97.336 44.8269 97.432H39.5789C39.6322 98.2533 39.8882 98.9093 40.3469 99.4C40.8162 99.8907 41.4242 100.136 42.1709 100.136C42.5442 100.136 42.8855 100.083 43.1949 99.976C43.5149 99.8587 43.8189 99.7093 44.1069 99.528L44.5709 100.392C44.2402 100.605 43.8615 100.792 43.4349 100.952C43.0189 101.112 42.5442 101.192 42.0109 101.192ZM39.5629 96.488H43.7229C43.7229 95.6987 43.5522 95.1013 43.2109 94.696C42.8802 94.28 42.4109 94.072 41.8029 94.072C41.2589 94.072 40.7682 94.2853 40.3309 94.712C39.9042 95.128 39.6482 95.72 39.5629 96.488ZM52.6555 101.192C51.6848 101.192 50.9062 100.84 50.3195 100.136C49.7328 99.4213 49.4395 98.4187 49.4395 97.128C49.4395 96.2853 49.5942 95.56 49.9035 94.952C50.2235 94.3333 50.6395 93.8587 51.1515 93.528C51.6742 93.1973 52.2288 93.032 52.8155 93.032C53.2635 93.032 53.6528 93.112 53.9835 93.272C54.3142 93.432 54.6502 93.6507 54.9915 93.928L54.9275 92.6V89.608H56.2555V101H55.1675L55.0555 100.088H55.0075C54.7088 100.387 54.3568 100.648 53.9515 100.872C53.5462 101.085 53.1142 101.192 52.6555 101.192ZM52.9435 100.088C53.6262 100.088 54.2875 99.7307 54.9275 99.016V94.952C54.5968 94.6533 54.2768 94.4453 53.9675 94.328C53.6688 94.2 53.3595 94.136 53.0395 94.136C52.6235 94.136 52.2448 94.264 51.9035 94.52C51.5728 94.7653 51.3062 95.112 51.1035 95.56C50.9008 95.9973 50.7995 96.5147 50.7995 97.112C50.7995 98.04 50.9862 98.7707 51.3595 99.304C51.7328 99.8267 52.2608 100.088 52.9435 100.088ZM62.0265 101.192C61.3332 101.192 60.7038 101.032 60.1385 100.712C59.5732 100.381 59.1252 99.912 58.7945 99.304C58.4638 98.696 58.2985 97.9707 58.2985 97.128C58.2985 96.2747 58.4638 95.544 58.7945 94.936C59.1358 94.328 59.5732 93.8587 60.1065 93.528C60.6398 93.1973 61.1998 93.032 61.7865 93.032C62.7785 93.032 63.5412 93.3627 64.0745 94.024C64.6185 94.6853 64.8905 95.5707 64.8905 96.68C64.8905 96.8187 64.8852 96.9573 64.8745 97.096C64.8745 97.224 64.8638 97.336 64.8425 97.432H59.5945C59.6478 98.2533 59.9038 98.9093 60.3625 99.4C60.8318 99.8907 61.4398 100.136 62.1865 100.136C62.5598 100.136 62.9012 100.083 63.2105 99.976C63.5305 99.8587 63.8345 99.7093 64.1225 99.528L64.5865 100.392C64.2558 100.605 63.8772 100.792 63.4505 100.952C63.0345 101.112 62.5598 101.192 62.0265 101.192ZM59.5785 96.488H63.7385C63.7385 95.6987 63.5678 95.1013 63.2265 94.696C62.8958 94.28 62.4265 94.072 61.8185 94.072C61.2745 94.072 60.7838 94.2853 60.3465 94.712C59.9198 95.128 59.6638 95.72 59.5785 96.488ZM67.036 101V94.296H65.98V93.304L67.036 93.224V91.992C67.036 91.2027 67.2173 90.5787 67.58 90.12C67.9533 89.6507 68.5293 89.416 69.308 89.416C69.5533 89.416 69.788 89.4427 70.012 89.496C70.236 89.5387 70.4333 89.5973 70.604 89.672L70.316 90.68C70.028 90.552 69.7347 90.488 69.436 90.488C68.7107 90.488 68.348 90.9893 68.348 91.992V93.224H69.996V94.296H68.348V101H67.036ZM71.4839 101V93.224H72.7959V101H71.4839ZM72.1559 91.624C71.8999 91.624 71.6865 91.5493 71.5159 91.4C71.3559 91.24 71.2759 91.0267 71.2759 90.76C71.2759 90.504 71.3559 90.296 71.5159 90.136C71.6865 89.976 71.8999 89.896 72.1559 89.896C72.4119 89.896 72.6199 89.976 72.7799 90.136C72.9505 90.296 73.0359 90.504 73.0359 90.76C73.0359 91.0267 72.9505 91.24 72.7799 91.4C72.6199 91.5493 72.4119 91.624 72.1559 91.624ZM75.4214 101V93.224H76.5094L76.6214 94.344H76.6694C77.0427 93.9707 77.4374 93.6613 77.8534 93.416C78.2694 93.16 78.744 93.032 79.2774 93.032C80.0987 93.032 80.696 93.2933 81.0694 93.816C81.4534 94.328 81.6454 95.08 81.6454 96.072V101H80.3334V96.248C80.3334 95.5227 80.216 94.9947 79.9814 94.664C79.7467 94.3333 79.3734 94.168 78.8614 94.168C78.4667 94.168 78.1094 94.2693 77.7894 94.472C77.48 94.6747 77.128 94.9733 76.7334 95.368V101H75.4214ZM87.3234 101.192C86.63 101.192 86.0007 101.032 85.4354 100.712C84.87 100.381 84.422 99.912 84.0914 99.304C83.7607 98.696 83.5954 97.9707 83.5954 97.128C83.5954 96.2747 83.7607 95.544 84.0914 94.936C84.4327 94.328 84.87 93.8587 85.4034 93.528C85.9367 93.1973 86.4967 93.032 87.0834 93.032C88.0754 93.032 88.838 93.3627 89.3714 94.024C89.9154 94.6853 90.1874 95.5707 90.1874 96.68C90.1874 96.8187 90.182 96.9573 90.1714 97.096C90.1714 97.224 90.1607 97.336 90.1394 97.432H84.8914C84.9447 98.2533 85.2007 98.9093 85.6594 99.4C86.1287 99.8907 86.7367 100.136 87.4834 100.136C87.8567 100.136 88.198 100.083 88.5074 99.976C88.8274 99.8587 89.1314 99.7093 89.4194 99.528L89.8834 100.392C89.5527 100.605 89.174 100.792 88.7474 100.952C88.3314 101.112 87.8567 101.192 87.3234 101.192ZM84.8754 96.488H89.0354C89.0354 95.6987 88.8647 95.1013 88.5234 94.696C88.1927 94.28 87.7234 94.072 87.1154 94.072C86.5714 94.072 86.0807 94.2853 85.6434 94.712C85.2167 95.128 84.9607 95.72 84.8754 96.488ZM95.312 104.28V93.224H96.4L96.512 94.12H96.56C96.912 93.8213 97.296 93.5653 97.712 93.352C98.1387 93.1387 98.5813 93.032 99.04 93.032C100.043 93.032 100.805 93.3947 101.328 94.12C101.851 94.8347 102.112 95.7947 102.112 97C102.112 97.8747 101.952 98.6267 101.632 99.256C101.323 99.8853 100.912 100.365 100.4 100.696C99.8987 101.027 99.3493 101.192 98.752 101.192C98.3893 101.192 98.0267 101.112 97.664 100.952C97.312 100.792 96.9547 100.573 96.592 100.296L96.624 101.656V104.28H95.312ZM98.528 100.088C99.168 100.088 99.696 99.816 100.112 99.272C100.539 98.7173 100.752 97.96 100.752 97C100.752 96.1467 100.592 95.4587 100.272 94.936C99.9627 94.4027 99.44 94.136 98.704 94.136C98.3733 94.136 98.0373 94.2267 97.696 94.408C97.3653 94.5893 97.008 94.8507 96.624 95.192V99.272C96.976 99.5707 97.3173 99.784 97.648 99.912C97.9787 100.029 98.272 100.088 98.528 100.088ZM107.211 101.192C106.582 101.192 105.99 101.032 105.435 100.712C104.891 100.392 104.448 99.928 104.107 99.32C103.776 98.712 103.611 97.9813 103.611 97.128C103.611 96.2533 103.776 95.512 104.107 94.904C104.448 94.296 104.891 93.832 105.435 93.512C105.99 93.192 106.582 93.032 107.211 93.032C107.851 93.032 108.443 93.192 108.987 93.512C109.531 93.832 109.968 94.296 110.299 94.904C110.64 95.512 110.811 96.2533 110.811 97.128C110.811 97.9813 110.64 98.712 110.299 99.32C109.968 99.928 109.531 100.392 108.987 100.712C108.443 101.032 107.851 101.192 107.211 101.192ZM107.211 100.104C107.883 100.104 108.422 99.832 108.827 99.288C109.243 98.7333 109.451 98.0133 109.451 97.128C109.451 96.232 109.243 95.5067 108.827 94.952C108.422 94.3973 107.883 94.12 107.211 94.12C106.55 94.12 106.011 94.3973 105.595 94.952C105.179 95.5067 104.971 96.232 104.971 97.128C104.971 98.0133 105.179 98.7333 105.595 99.288C106.011 99.832 106.55 100.104 107.211 100.104ZM112.859 101V93.224H113.947L114.059 94.632H114.107C114.374 94.1413 114.699 93.752 115.083 93.464C115.467 93.176 115.878 93.032 116.315 93.032C116.624 93.032 116.902 93.0853 117.147 93.192L116.891 94.344C116.763 94.3013 116.646 94.2693 116.539 94.248C116.432 94.2267 116.299 94.216 116.139 94.216C115.808 94.216 115.462 94.3493 115.099 94.616C114.747 94.8827 114.438 95.3467 114.171 96.008V101H112.859ZM123.001 101.192C122.51 101.192 122.153 101.043 121.929 100.744C121.716 100.435 121.609 99.9973 121.609 99.432V89.608H122.921V99.528C122.921 99.7307 122.958 99.88 123.033 99.976C123.108 100.061 123.193 100.104 123.289 100.104C123.332 100.104 123.369 100.104 123.401 100.104C123.444 100.093 123.502 100.083 123.577 100.072L123.753 101.064C123.668 101.107 123.566 101.139 123.449 101.16C123.332 101.181 123.182 101.192 123.001 101.192ZM127.479 101.192C126.828 101.192 126.284 101 125.847 100.616C125.42 100.221 125.207 99.6773 125.207 98.984C125.207 98.1307 125.586 97.48 126.343 97.032C127.111 96.5733 128.322 96.2533 129.975 96.072C129.975 95.7413 129.927 95.4267 129.831 95.128C129.746 94.8293 129.586 94.5893 129.351 94.408C129.127 94.216 128.802 94.12 128.375 94.12C127.927 94.12 127.506 94.2053 127.111 94.376C126.716 94.5467 126.364 94.7387 126.055 94.952L125.543 94.04C125.906 93.8053 126.348 93.5813 126.871 93.368C127.404 93.144 127.98 93.032 128.599 93.032C129.548 93.032 130.236 93.3253 130.663 93.912C131.09 94.488 131.303 95.2613 131.303 96.232V101H130.215L130.103 100.072H130.055C129.692 100.371 129.292 100.632 128.855 100.856C128.428 101.08 127.97 101.192 127.479 101.192ZM127.863 100.136C128.236 100.136 128.588 100.045 128.919 99.864C129.25 99.6827 129.602 99.4267 129.975 99.096V96.936C128.684 97.096 127.778 97.336 127.255 97.656C126.743 97.976 126.487 98.3867 126.487 98.888C126.487 99.3253 126.62 99.6453 126.887 99.848C127.154 100.04 127.479 100.136 127.863 100.136ZM136.953 104.28V93.224H138.041L138.153 94.12H138.201C138.553 93.8213 138.937 93.5653 139.353 93.352C139.779 93.1387 140.222 93.032 140.681 93.032C141.683 93.032 142.446 93.3947 142.969 94.12C143.491 94.8347 143.753 95.7947 143.753 97C143.753 97.8747 143.593 98.6267 143.273 99.256C142.963 99.8853 142.553 100.365 142.041 100.696C141.539 101.027 140.99 101.192 140.393 101.192C140.03 101.192 139.667 101.112 139.305 100.952C138.953 100.792 138.595 100.573 138.233 100.296L138.265 101.656V104.28H136.953ZM140.169 100.088C140.809 100.088 141.337 99.816 141.753 99.272C142.179 98.7173 142.393 97.96 142.393 97C142.393 96.1467 142.233 95.4587 141.913 94.936C141.603 94.4027 141.081 94.136 140.345 94.136C140.014 94.136 139.678 94.2267 139.337 94.408C139.006 94.5893 138.649 94.8507 138.265 95.192V99.272C138.617 99.5707 138.958 99.784 139.289 99.912C139.619 100.029 139.913 100.088 140.169 100.088ZM145.828 101V93.224H146.916L147.028 94.632H147.076C147.342 94.1413 147.668 93.752 148.052 93.464C148.436 93.176 148.846 93.032 149.284 93.032C149.593 93.032 149.87 93.0853 150.116 93.192L149.86 94.344C149.732 94.3013 149.614 94.2693 149.508 94.248C149.401 94.2267 149.268 94.216 149.108 94.216C148.777 94.216 148.43 94.3493 148.068 94.616C147.716 94.8827 147.406 95.3467 147.14 96.008V101H145.828ZM154.37 101.192C153.677 101.192 153.048 101.032 152.482 100.712C151.917 100.381 151.469 99.912 151.138 99.304C150.808 98.696 150.642 97.9707 150.642 97.128C150.642 96.2747 150.808 95.544 151.138 94.936C151.48 94.328 151.917 93.8587 152.45 93.528C152.984 93.1973 153.544 93.032 154.13 93.032C155.122 93.032 155.885 93.3627 156.418 94.024C156.962 94.6853 157.234 95.5707 157.234 96.68C157.234 96.8187 157.229 96.9573 157.218 97.096C157.218 97.224 157.208 97.336 157.186 97.432H151.938C151.992 98.2533 152.248 98.9093 152.706 99.4C153.176 99.8907 153.784 100.136 154.53 100.136C154.904 100.136 155.245 100.083 155.554 99.976C155.874 99.8587 156.178 99.7093 156.466 99.528L156.93 100.392C156.6 100.605 156.221 100.792 155.794 100.952C155.378 101.112 154.904 101.192 154.37 101.192ZM151.922 96.488H156.082C156.082 95.6987 155.912 95.1013 155.57 94.696C155.24 94.28 154.77 94.072 154.162 94.072C153.618 94.072 153.128 94.2853 152.69 94.712C152.264 95.128 152.008 95.72 151.922 96.488ZM161.188 101.192C160.633 101.192 160.105 101.091 159.604 100.888C159.102 100.675 158.665 100.419 158.292 100.12L158.948 99.24C159.289 99.5067 159.641 99.7307 160.004 99.912C160.366 100.083 160.777 100.168 161.236 100.168C161.748 100.168 162.132 100.051 162.388 99.816C162.644 99.5707 162.772 99.2827 162.772 98.952C162.772 98.6853 162.681 98.4613 162.5 98.28C162.329 98.0987 162.105 97.9493 161.828 97.832C161.561 97.704 161.284 97.5867 160.996 97.48C160.633 97.3413 160.276 97.1867 159.924 97.016C159.572 96.8347 159.284 96.6053 159.06 96.328C158.836 96.04 158.724 95.6773 158.724 95.24C158.724 94.6107 158.958 94.088 159.428 93.672C159.908 93.2453 160.569 93.032 161.412 93.032C161.892 93.032 162.34 93.1173 162.756 93.288C163.172 93.4587 163.529 93.6667 163.828 93.912L163.188 94.744C162.921 94.5413 162.644 94.376 162.356 94.248C162.068 94.12 161.753 94.056 161.412 94.056C160.921 94.056 160.558 94.168 160.324 94.392C160.1 94.616 159.988 94.8773 159.988 95.176C159.988 95.4213 160.068 95.624 160.228 95.784C160.388 95.9333 160.596 96.0667 160.852 96.184C161.108 96.2907 161.38 96.4027 161.668 96.52C162.041 96.6587 162.409 96.8187 162.772 97C163.134 97.1707 163.433 97.4053 163.668 97.704C163.913 97.992 164.036 98.3813 164.036 98.872C164.036 99.288 163.924 99.672 163.7 100.024C163.486 100.376 163.166 100.659 162.74 100.872C162.324 101.085 161.806 101.192 161.188 101.192ZM169.011 101.192C168.318 101.192 167.688 101.032 167.123 100.712C166.558 100.381 166.11 99.912 165.779 99.304C165.448 98.696 165.283 97.9707 165.283 97.128C165.283 96.2747 165.448 95.544 165.779 94.936C166.12 94.328 166.558 93.8587 167.091 93.528C167.624 93.1973 168.184 93.032 168.771 93.032C169.763 93.032 170.526 93.3627 171.059 94.024C171.603 94.6853 171.875 95.5707 171.875 96.68C171.875 96.8187 171.87 96.9573 171.859 97.096C171.859 97.224 171.848 97.336 171.827 97.432H166.579C166.632 98.2533 166.888 98.9093 167.347 99.4C167.816 99.8907 168.424 100.136 169.171 100.136C169.544 100.136 169.886 100.083 170.195 99.976C170.515 99.8587 170.819 99.7093 171.107 99.528L171.571 100.392C171.24 100.605 170.862 100.792 170.435 100.952C170.019 101.112 169.544 101.192 169.011 101.192ZM166.563 96.488H170.723C170.723 95.6987 170.552 95.1013 170.211 94.696C169.88 94.28 169.411 94.072 168.803 94.072C168.259 94.072 167.768 94.2853 167.331 94.712C166.904 95.128 166.648 95.72 166.563 96.488ZM173.796 101V93.224H174.884L174.996 94.344H175.044C175.418 93.9707 175.812 93.6613 176.228 93.416C176.644 93.16 177.119 93.032 177.652 93.032C178.474 93.032 179.071 93.2933 179.444 93.816C179.828 94.328 180.02 95.08 180.02 96.072V101H178.708V96.248C178.708 95.5227 178.591 94.9947 178.356 94.664C178.122 94.3333 177.748 94.168 177.236 94.168C176.842 94.168 176.484 94.2693 176.164 94.472C175.855 94.6747 175.503 94.9733 175.108 95.368V101H173.796ZM185.618 101.192C184.936 101.192 184.317 101.032 183.762 100.712C183.208 100.392 182.77 99.928 182.45 99.32C182.13 98.712 181.97 97.9813 181.97 97.128C181.97 96.2533 182.141 95.512 182.482 94.904C182.834 94.296 183.293 93.832 183.858 93.512C184.434 93.192 185.053 93.032 185.714 93.032C186.226 93.032 186.664 93.1227 187.026 93.304C187.4 93.4853 187.72 93.6987 187.986 93.944L187.314 94.808C187.09 94.6053 186.85 94.44 186.594 94.312C186.349 94.184 186.072 94.12 185.762 94.12C185.293 94.12 184.872 94.248 184.498 94.504C184.136 94.7493 183.848 95.1013 183.634 95.56C183.432 96.008 183.33 96.5307 183.33 97.128C183.33 98.0133 183.549 98.7333 183.986 99.288C184.434 99.832 185.016 100.104 185.73 100.104C186.093 100.104 186.429 100.029 186.738 99.88C187.048 99.72 187.32 99.5333 187.554 99.32L188.13 100.2C187.778 100.509 187.389 100.755 186.962 100.936C186.536 101.107 186.088 101.192 185.618 101.192ZM189.843 101V93.224H191.155V101H189.843ZM190.515 91.624C190.259 91.624 190.046 91.5493 189.875 91.4C189.715 91.24 189.635 91.0267 189.635 90.76C189.635 90.504 189.715 90.296 189.875 90.136C190.046 89.976 190.259 89.896 190.515 89.896C190.771 89.896 190.979 89.976 191.139 90.136C191.31 90.296 191.395 90.504 191.395 90.76C191.395 91.0267 191.31 91.24 191.139 91.4C190.979 91.5493 190.771 91.624 190.515 91.624ZM195.573 101.192C194.922 101.192 194.378 101 193.941 100.616C193.514 100.221 193.301 99.6773 193.301 98.984C193.301 98.1307 193.679 97.48 194.437 97.032C195.205 96.5733 196.415 96.2533 198.069 96.072C198.069 95.7413 198.021 95.4267 197.925 95.128C197.839 94.8293 197.679 94.5893 197.445 94.408C197.221 94.216 196.895 94.12 196.469 94.12C196.021 94.12 195.599 94.2053 195.205 94.376C194.81 94.5467 194.458 94.7387 194.149 94.952L193.637 94.04C193.999 93.8053 194.442 93.5813 194.965 93.368C195.498 93.144 196.074 93.032 196.693 93.032C197.642 93.032 198.33 93.3253 198.757 93.912C199.183 94.488 199.397 95.2613 199.397 96.232V101H198.309L198.197 100.072H198.149C197.786 100.371 197.386 100.632 196.949 100.856C196.522 101.08 196.063 101.192 195.573 101.192ZM195.957 100.136C196.33 100.136 196.682 100.045 197.013 99.864C197.343 99.6827 197.695 99.4267 198.069 99.096V96.936C196.778 97.096 195.871 97.336 195.349 97.656C194.837 97.976 194.581 98.3867 194.581 98.888C194.581 99.3253 194.714 99.6453 194.981 99.848C195.247 100.04 195.573 100.136 195.957 100.136ZM207.702 101.192C206.732 101.192 205.953 100.84 205.366 100.136C204.78 99.4213 204.486 98.4187 204.486 97.128C204.486 96.2853 204.641 95.56 204.95 94.952C205.27 94.3333 205.686 93.8587 206.198 93.528C206.721 93.1973 207.276 93.032 207.862 93.032C208.31 93.032 208.7 93.112 209.03 93.272C209.361 93.432 209.697 93.6507 210.038 93.928L209.974 92.6V89.608H211.302V101H210.214L210.102 100.088H210.054C209.756 100.387 209.404 100.648 208.998 100.872C208.593 101.085 208.161 101.192 207.702 101.192ZM207.99 100.088C208.673 100.088 209.334 99.7307 209.974 99.016V94.952C209.644 94.6533 209.324 94.4453 209.014 94.328C208.716 94.2 208.406 94.136 208.086 94.136C207.67 94.136 207.292 94.264 206.95 94.52C206.62 94.7653 206.353 95.112 206.15 95.56C205.948 95.9973 205.846 96.5147 205.846 97.112C205.846 98.04 206.033 98.7707 206.406 99.304C206.78 99.8267 207.308 100.088 207.99 100.088ZM217.073 101.192C216.38 101.192 215.751 101.032 215.185 100.712C214.62 100.381 214.172 99.912 213.841 99.304C213.511 98.696 213.345 97.9707 213.345 97.128C213.345 96.2747 213.511 95.544 213.841 94.936C214.183 94.328 214.62 93.8587 215.153 93.528C215.687 93.1973 216.247 93.032 216.833 93.032C217.825 93.032 218.588 93.3627 219.121 94.024C219.665 94.6853 219.937 95.5707 219.937 96.68C219.937 96.8187 219.932 96.9573 219.921 97.096C219.921 97.224 219.911 97.336 219.889 97.432H214.641C214.695 98.2533 214.951 98.9093 215.409 99.4C215.879 99.8907 216.487 100.136 217.233 100.136C217.607 100.136 217.948 100.083 218.257 99.976C218.577 99.8587 218.881 99.7093 219.169 99.528L219.633 100.392C219.303 100.605 218.924 100.792 218.497 100.952C218.081 101.112 217.607 101.192 217.073 101.192ZM214.625 96.488H218.785C218.785 95.6987 218.615 95.1013 218.273 94.696C217.943 94.28 217.473 94.072 216.865 94.072C216.321 94.072 215.831 94.2853 215.393 94.712C214.967 95.128 214.711 95.72 214.625 96.488ZM227.094 101.192C226.539 101.192 226.011 101.091 225.51 100.888C225.009 100.675 224.571 100.419 224.198 100.12L224.854 99.24C225.195 99.5067 225.547 99.7307 225.91 99.912C226.273 100.083 226.683 100.168 227.142 100.168C227.654 100.168 228.038 100.051 228.294 99.816C228.55 99.5707 228.678 99.2827 228.678 98.952C228.678 98.6853 228.587 98.4613 228.406 98.28C228.235 98.0987 228.011 97.9493 227.734 97.832C227.467 97.704 227.19 97.5867 226.902 97.48C226.539 97.3413 226.182 97.1867 225.83 97.016C225.478 96.8347 225.19 96.6053 224.966 96.328C224.742 96.04 224.63 95.6773 224.63 95.24C224.63 94.6107 224.865 94.088 225.334 93.672C225.814 93.2453 226.475 93.032 227.318 93.032C227.798 93.032 228.246 93.1173 228.662 93.288C229.078 93.4587 229.435 93.6667 229.734 93.912L229.094 94.744C228.827 94.5413 228.55 94.376 228.262 94.248C227.974 94.12 227.659 94.056 227.318 94.056C226.827 94.056 226.465 94.168 226.23 94.392C226.006 94.616 225.894 94.8773 225.894 95.176C225.894 95.4213 225.974 95.624 226.134 95.784C226.294 95.9333 226.502 96.0667 226.758 96.184C227.014 96.2907 227.286 96.4027 227.574 96.52C227.947 96.6587 228.315 96.8187 228.678 97C229.041 97.1707 229.339 97.4053 229.574 97.704C229.819 97.992 229.942 98.3813 229.942 98.872C229.942 99.288 229.83 99.672 229.606 100.024C229.393 100.376 229.073 100.659 228.646 100.872C228.23 101.085 227.713 101.192 227.094 101.192ZM231.765 101V93.224H233.077V101H231.765ZM232.213 91.832L231.541 91.176L233.797 88.504L234.725 89.384L232.213 91.832ZM235.703 101V93.224H236.791L236.903 94.344H236.951C237.324 93.9707 237.719 93.6613 238.135 93.416C238.551 93.16 239.025 93.032 239.559 93.032C240.38 93.032 240.977 93.2933 241.351 93.816C241.735 94.328 241.927 95.08 241.927 96.072V101H240.615V96.248C240.615 95.5227 240.497 94.9947 240.263 94.664C240.028 94.3333 239.655 94.168 239.143 94.168C238.748 94.168 238.391 94.2693 238.071 94.472C237.761 94.6747 237.409 94.9733 237.015 95.368V101H235.703ZM246.901 101.192C246.069 101.192 245.487 100.952 245.157 100.472C244.837 99.992 244.677 99.368 244.677 98.6V94.296H243.525V93.304L244.741 93.224L244.901 91.048H246.005V93.224H248.101V94.296H246.005V98.616C246.005 99.096 246.09 99.4693 246.261 99.736C246.442 99.992 246.757 100.12 247.205 100.12C247.343 100.12 247.493 100.099 247.653 100.056C247.813 100.003 247.957 99.9547 248.085 99.912L248.341 100.904C248.127 100.979 247.893 101.043 247.637 101.096C247.391 101.16 247.146 101.192 246.901 101.192ZM252.664 101.192C252.035 101.192 251.443 101.032 250.888 100.712C250.344 100.392 249.901 99.928 249.56 99.32C249.229 98.712 249.064 97.9813 249.064 97.128C249.064 96.2533 249.229 95.512 249.56 94.904C249.901 94.296 250.344 93.832 250.888 93.512C251.443 93.192 252.035 93.032 252.664 93.032C253.304 93.032 253.896 93.192 254.44 93.512C254.984 93.832 255.421 94.296 255.752 94.904C256.093 95.512 256.264 96.2533 256.264 97.128C256.264 97.9813 256.093 98.712 255.752 99.32C255.421 99.928 254.984 100.392 254.44 100.712C253.896 101.032 253.304 101.192 252.664 101.192ZM252.664 100.104C253.336 100.104 253.875 99.832 254.28 99.288C254.696 98.7333 254.904 98.0133 254.904 97.128C254.904 96.232 254.696 95.5067 254.28 94.952C253.875 94.3973 253.336 94.12 252.664 94.12C252.003 94.12 251.464 94.3973 251.048 94.952C250.632 95.5067 250.424 96.232 250.424 97.128C250.424 98.0133 250.632 98.7333 251.048 99.288C251.464 99.832 252.003 100.104 252.664 100.104ZM258.312 101V93.224H259.4L259.512 94.344H259.56C259.901 93.9707 260.275 93.6613 260.68 93.416C261.085 93.16 261.517 93.032 261.976 93.032C262.573 93.032 263.037 93.1653 263.368 93.432C263.709 93.688 263.96 94.0507 264.12 94.52C264.525 94.0827 264.936 93.7253 265.352 93.448C265.768 93.1707 266.211 93.032 266.68 93.032C267.48 93.032 268.072 93.2933 268.456 93.816C268.851 94.328 269.048 95.08 269.048 96.072V101H267.736V96.248C267.736 95.5227 267.619 94.9947 267.384 94.664C267.149 94.3333 266.787 94.168 266.296 94.168C265.72 94.168 265.069 94.568 264.344 95.368V101H263.032V96.248C263.032 95.5227 262.915 94.9947 262.68 94.664C262.445 94.3333 262.077 94.168 261.576 94.168C261 94.168 260.349 94.568 259.624 95.368V101H258.312ZM273.37 101.192C272.719 101.192 272.175 101 271.738 100.616C271.311 100.221 271.098 99.6773 271.098 98.984C271.098 98.1307 271.476 97.48 272.234 97.032C273.002 96.5733 274.212 96.2533 275.866 96.072C275.866 95.7413 275.818 95.4267 275.722 95.128C275.636 94.8293 275.476 94.5893 275.242 94.408C275.018 94.216 274.692 94.12 274.266 94.12C273.818 94.12 273.396 94.2053 273.002 94.376C272.607 94.5467 272.255 94.7387 271.946 94.952L271.434 94.04C271.796 93.8053 272.239 93.5813 272.762 93.368C273.295 93.144 273.871 93.032 274.49 93.032C275.439 93.032 276.127 93.3253 276.554 93.912C276.98 94.488 277.194 95.2613 277.194 96.232V101H276.106L275.994 100.072H275.946C275.583 100.371 275.183 100.632 274.746 100.856C274.319 101.08 273.86 101.192 273.37 101.192ZM273.754 100.136C274.127 100.136 274.479 100.045 274.81 99.864C275.14 99.6827 275.492 99.4267 275.866 99.096V96.936C274.575 97.096 273.668 97.336 273.146 97.656C272.634 97.976 272.378 98.3867 272.378 98.888C272.378 99.3253 272.511 99.6453 272.778 99.848C273.044 100.04 273.37 100.136 273.754 100.136ZM281.672 101.192C281.117 101.192 280.589 101.091 280.088 100.888C279.587 100.675 279.149 100.419 278.776 100.12L279.432 99.24C279.773 99.5067 280.125 99.7307 280.488 99.912C280.851 100.083 281.261 100.168 281.72 100.168C282.232 100.168 282.616 100.051 282.872 99.816C283.128 99.5707 283.256 99.2827 283.256 98.952C283.256 98.6853 283.165 98.4613 282.984 98.28C282.813 98.0987 282.589 97.9493 282.312 97.832C282.045 97.704 281.768 97.5867 281.48 97.48C281.117 97.3413 280.76 97.1867 280.408 97.016C280.056 96.8347 279.768 96.6053 279.544 96.328C279.32 96.04 279.208 95.6773 279.208 95.24C279.208 94.6107 279.443 94.088 279.912 93.672C280.392 93.2453 281.053 93.032 281.896 93.032C282.376 93.032 282.824 93.1173 283.24 93.288C283.656 93.4587 284.013 93.6667 284.312 93.912L283.672 94.744C283.405 94.5413 283.128 94.376 282.84 94.248C282.552 94.12 282.237 94.056 281.896 94.056C281.405 94.056 281.043 94.168 280.808 94.392C280.584 94.616 280.472 94.8773 280.472 95.176C280.472 95.4213 280.552 95.624 280.712 95.784C280.872 95.9333 281.08 96.0667 281.336 96.184C281.592 96.2907 281.864 96.4027 282.152 96.52C282.525 96.6587 282.893 96.8187 283.256 97C283.619 97.1707 283.917 97.4053 284.152 97.704C284.397 97.992 284.52 98.3813 284.52 98.872C284.52 99.288 284.408 99.672 284.184 100.024C283.971 100.376 283.651 100.659 283.224 100.872C282.808 101.085 282.291 101.192 281.672 101.192ZM32.968 121.192C31.9973 121.192 31.2187 120.84 30.632 120.136C30.0453 119.421 29.752 118.419 29.752 117.128C29.752 116.285 29.9067 115.56 30.216 114.952C30.536 114.333 30.952 113.859 31.464 113.528C31.9867 113.197 32.5413 113.032 33.128 113.032C33.576 113.032 33.9653 113.112 34.296 113.272C34.6267 113.432 34.9627 113.651 35.304 113.928L35.24 112.6V109.608H36.568V121H35.48L35.368 120.088H35.32C35.0213 120.387 34.6693 120.648 34.264 120.872C33.8587 121.085 33.4267 121.192 32.968 121.192ZM33.256 120.088C33.9387 120.088 34.6 119.731 35.24 119.016V114.952C34.9093 114.653 34.5893 114.445 34.28 114.328C33.9813 114.2 33.672 114.136 33.352 114.136C32.936 114.136 32.5573 114.264 32.216 114.52C31.8853 114.765 31.6187 115.112 31.416 115.56C31.2133 115.997 31.112 116.515 31.112 117.112C31.112 118.04 31.2987 118.771 31.672 119.304C32.0453 119.827 32.5733 120.088 33.256 120.088ZM42.339 121.192C41.6457 121.192 41.0163 121.032 40.451 120.712C39.8857 120.381 39.4377 119.912 39.107 119.304C38.7763 118.696 38.611 117.971 38.611 117.128C38.611 116.275 38.7763 115.544 39.107 114.936C39.4483 114.328 39.8857 113.859 40.419 113.528C40.9523 113.197 41.5123 113.032 42.099 113.032C43.091 113.032 43.8537 113.363 44.387 114.024C44.931 114.685 45.203 115.571 45.203 116.68C45.203 116.819 45.1977 116.957 45.187 117.096C45.187 117.224 45.1763 117.336 45.155 117.432H39.907C39.9603 118.253 40.2163 118.909 40.675 119.4C41.1443 119.891 41.7523 120.136 42.499 120.136C42.8723 120.136 43.2137 120.083 43.523 119.976C43.843 119.859 44.147 119.709 44.435 119.528L44.899 120.392C44.5683 120.605 44.1897 120.792 43.763 120.952C43.347 121.112 42.8723 121.192 42.339 121.192ZM39.891 116.488H44.051C44.051 115.699 43.8803 115.101 43.539 114.696C43.2083 114.28 42.739 114.072 42.131 114.072C41.587 114.072 41.0963 114.285 40.659 114.712C40.2323 115.128 39.9763 115.72 39.891 116.488ZM51.7196 121.192C51.229 121.192 50.8716 121.043 50.6476 120.744C50.4343 120.435 50.3276 119.997 50.3276 119.432V109.608H51.6396V119.528C51.6396 119.731 51.677 119.88 51.7516 119.976C51.8263 120.061 51.9116 120.104 52.0076 120.104C52.0503 120.104 52.0876 120.104 52.1196 120.104C52.1623 120.093 52.221 120.083 52.2956 120.072L52.4716 121.064C52.3863 121.107 52.285 121.139 52.1676 121.16C52.0503 121.181 51.901 121.192 51.7196 121.192ZM56.1978 121.192C55.5471 121.192 55.0031 121 54.5658 120.616C54.1391 120.221 53.9258 119.677 53.9258 118.984C53.9258 118.131 54.3044 117.48 55.0618 117.032C55.8298 116.573 57.0404 116.253 58.6938 116.072C58.6938 115.741 58.6458 115.427 58.5498 115.128C58.4644 114.829 58.3044 114.589 58.0698 114.408C57.8458 114.216 57.5204 114.12 57.0938 114.12C56.6458 114.12 56.2244 114.205 55.8298 114.376C55.4351 114.547 55.0831 114.739 54.7738 114.952L54.2618 114.04C54.6244 113.805 55.0671 113.581 55.5898 113.368C56.1231 113.144 56.6991 113.032 57.3177 113.032C58.2671 113.032 58.9551 113.325 59.3818 113.912C59.8084 114.488 60.0218 115.261 60.0218 116.232V121H58.9338L58.8218 120.072H58.7738C58.4111 120.371 58.0111 120.632 57.5738 120.856C57.1471 121.08 56.6884 121.192 56.1978 121.192ZM56.5818 120.136C56.9551 120.136 57.3071 120.045 57.6378 119.864C57.9684 119.683 58.3204 119.427 58.6938 119.096V116.936C57.4031 117.096 56.4964 117.336 55.9738 117.656C55.4618 117.976 55.2057 118.387 55.2057 118.888C55.2057 119.325 55.3391 119.645 55.6058 119.848C55.8724 120.04 56.1978 120.136 56.5818 120.136ZM68.8234 121.192C68.13 121.192 67.5007 121.032 66.9354 120.712C66.37 120.381 65.922 119.912 65.5914 119.304C65.2607 118.696 65.0954 117.971 65.0954 117.128C65.0954 116.275 65.2607 115.544 65.5914 114.936C65.9327 114.328 66.37 113.859 66.9034 113.528C67.4367 113.197 67.9967 113.032 68.5834 113.032C69.5754 113.032 70.338 113.363 70.8714 114.024C71.4154 114.685 71.6874 115.571 71.6874 116.68C71.6874 116.819 71.682 116.957 71.6714 117.096C71.6714 117.224 71.6607 117.336 71.6394 117.432H66.3914C66.4447 118.253 66.7007 118.909 67.1594 119.4C67.6287 119.891 68.2367 120.136 68.9834 120.136C69.3567 120.136 69.698 120.083 70.0074 119.976C70.3274 119.859 70.6314 119.709 70.9194 119.528L71.3834 120.392C71.0527 120.605 70.674 120.792 70.2474 120.952C69.8314 121.112 69.3567 121.192 68.8234 121.192ZM66.3754 116.488H70.5354C70.5354 115.699 70.3647 115.101 70.0234 114.696C69.6927 114.28 69.2234 114.072 68.6154 114.072C68.0714 114.072 67.5807 114.285 67.1434 114.712C66.7167 115.128 66.4607 115.72 66.3754 116.488ZM73.6089 121V113.224H74.6969L74.8089 114.344H74.8569C75.2302 113.971 75.6249 113.661 76.0409 113.416C76.4569 113.16 76.9315 113.032 77.4649 113.032C78.2862 113.032 78.8835 113.293 79.2569 113.816C79.6409 114.328 79.8329 115.08 79.8329 116.072V121H78.5209V116.248C78.5209 115.523 78.4035 114.995 78.1689 114.664C77.9342 114.333 77.5609 114.168 77.0489 114.168C76.6542 114.168 76.2969 114.269 75.9769 114.472C75.6675 114.675 75.3155 114.973 74.9209 115.368V121H73.6089ZM82.5829 121V114.296H81.5269V113.304L82.5829 113.224V111.992C82.5829 111.203 82.7642 110.579 83.1269 110.12C83.5002 109.651 84.0762 109.416 84.8549 109.416C85.1002 109.416 85.3349 109.443 85.5589 109.496C85.7829 109.539 85.9802 109.597 86.1509 109.672L85.8629 110.68C85.5749 110.552 85.2815 110.488 84.9829 110.488C84.2575 110.488 83.8949 110.989 83.8949 111.992V113.224H85.5429V114.296H83.8949V121H82.5829ZM90.0265 121.192C89.3332 121.192 88.7038 121.032 88.1385 120.712C87.5732 120.381 87.1252 119.912 86.7945 119.304C86.4638 118.696 86.2985 117.971 86.2985 117.128C86.2985 116.275 86.4638 115.544 86.7945 114.936C87.1358 114.328 87.5732 113.859 88.1065 113.528C88.6398 113.197 89.1998 113.032 89.7865 113.032C90.7785 113.032 91.5412 113.363 92.0745 114.024C92.6185 114.685 92.8905 115.571 92.8905 116.68C92.8905 116.819 92.8852 116.957 92.8745 117.096C92.8745 117.224 92.8638 117.336 92.8425 117.432H87.5945C87.6478 118.253 87.9038 118.909 88.3625 119.4C88.8318 119.891 89.4398 120.136 90.1865 120.136C90.5598 120.136 90.9012 120.083 91.2105 119.976C91.5305 119.859 91.8345 119.709 92.1225 119.528L92.5865 120.392C92.2558 120.605 91.8772 120.792 91.4505 120.952C91.0345 121.112 90.5598 121.192 90.0265 121.192ZM87.5785 116.488H91.7385C91.7385 115.699 91.5678 115.101 91.2265 114.696C90.8958 114.28 90.4265 114.072 89.8185 114.072C89.2745 114.072 88.7838 114.285 88.3465 114.712C87.9198 115.128 87.6638 115.72 87.5785 116.488ZM94.812 121V113.224H95.9L96.012 114.632H96.06C96.3267 114.141 96.652 113.752 97.036 113.464C97.42 113.176 97.8307 113.032 98.268 113.032C98.5773 113.032 98.8547 113.085 99.1 113.192L98.844 114.344C98.716 114.301 98.5987 114.269 98.492 114.248C98.3853 114.227 98.252 114.216 98.092 114.216C97.7613 114.216 97.4147 114.349 97.052 114.616C96.7 114.883 96.3907 115.347 96.124 116.008V121H94.812ZM100.359 121V113.224H101.447L101.559 114.344H101.607C101.948 113.971 102.322 113.661 102.727 113.416C103.132 113.16 103.564 113.032 104.023 113.032C104.62 113.032 105.084 113.165 105.415 113.432C105.756 113.688 106.007 114.051 106.167 114.52C106.572 114.083 106.983 113.725 107.399 113.448C107.815 113.171 108.258 113.032 108.727 113.032C109.527 113.032 110.119 113.293 110.503 113.816C110.898 114.328 111.095 115.08 111.095 116.072V121H109.783V116.248C109.783 115.523 109.666 114.995 109.431 114.664C109.196 114.333 108.834 114.168 108.343 114.168C107.767 114.168 107.116 114.568 106.391 115.368V121H105.079V116.248C105.079 115.523 104.962 114.995 104.727 114.664C104.492 114.333 104.124 114.168 103.623 114.168C103.047 114.168 102.396 114.568 101.671 115.368V121H100.359ZM116.777 121.192C116.083 121.192 115.454 121.032 114.889 120.712C114.323 120.381 113.875 119.912 113.545 119.304C113.214 118.696 113.049 117.971 113.049 117.128C113.049 116.275 113.214 115.544 113.545 114.936C113.886 114.328 114.323 113.859 114.857 113.528C115.39 113.197 115.95 113.032 116.536 113.032C117.529 113.032 118.291 113.363 118.825 114.024C119.369 114.685 119.641 115.571 119.641 116.68C119.641 116.819 119.635 116.957 119.625 117.096C119.625 117.224 119.614 117.336 119.593 117.432H114.345C114.398 118.253 114.654 118.909 115.113 119.4C115.582 119.891 116.19 120.136 116.937 120.136C117.31 120.136 117.651 120.083 117.961 119.976C118.281 119.859 118.585 119.709 118.873 119.528L119.337 120.392C119.006 120.605 118.627 120.792 118.201 120.952C117.785 121.112 117.31 121.192 116.777 121.192ZM114.329 116.488H118.489C118.489 115.699 118.318 115.101 117.977 114.696C117.646 114.28 117.177 114.072 116.569 114.072C116.025 114.072 115.534 114.285 115.097 114.712C114.67 115.128 114.414 115.72 114.329 116.488ZM124.218 121.192C123.247 121.192 122.469 120.84 121.882 120.136C121.295 119.421 121.002 118.419 121.002 117.128C121.002 116.285 121.157 115.56 121.466 114.952C121.786 114.333 122.202 113.859 122.714 113.528C123.237 113.197 123.791 113.032 124.378 113.032C124.826 113.032 125.215 113.112 125.546 113.272C125.877 113.432 126.213 113.651 126.554 113.928L126.49 112.6V109.608H127.818V121H126.73L126.618 120.088H126.57C126.271 120.387 125.919 120.648 125.514 120.872C125.109 121.085 124.677 121.192 124.218 121.192ZM124.506 120.088C125.189 120.088 125.85 119.731 126.49 119.016V114.952C126.159 114.653 125.839 114.445 125.53 114.328C125.231 114.2 124.922 114.136 124.602 114.136C124.186 114.136 123.807 114.264 123.466 114.52C123.135 114.765 122.869 115.112 122.666 115.56C122.463 115.997 122.362 116.515 122.362 117.112C122.362 118.04 122.549 118.771 122.922 119.304C123.295 119.827 123.823 120.088 124.506 120.088ZM132.229 121.192C131.578 121.192 131.034 121 130.597 120.616C130.17 120.221 129.957 119.677 129.957 118.984C129.957 118.131 130.336 117.48 131.093 117.032C131.861 116.573 133.072 116.253 134.725 116.072C134.725 115.741 134.677 115.427 134.581 115.128C134.496 114.829 134.336 114.589 134.101 114.408C133.877 114.216 133.552 114.12 133.125 114.12C132.677 114.12 132.256 114.205 131.861 114.376C131.466 114.547 131.114 114.739 130.805 114.952L130.293 114.04C130.656 113.805 131.098 113.581 131.621 113.368C132.154 113.144 132.73 113.032 133.349 113.032C134.298 113.032 134.986 113.325 135.413 113.912C135.84 114.488 136.053 115.261 136.053 116.232V121H134.965L134.853 120.072H134.805C134.442 120.371 134.042 120.632 133.605 120.856C133.178 121.08 132.72 121.192 132.229 121.192ZM132.613 120.136C132.986 120.136 133.338 120.045 133.669 119.864C134 119.683 134.352 119.427 134.725 119.096V116.936C133.434 117.096 132.528 117.336 132.005 117.656C131.493 117.976 131.237 118.387 131.237 118.888C131.237 119.325 131.37 119.645 131.637 119.848C131.904 120.04 132.229 120.136 132.613 120.136ZM141.156 121.192C140.185 121.192 139.406 120.84 138.82 120.136C138.233 119.421 137.94 118.419 137.94 117.128C137.94 116.285 138.094 115.56 138.404 114.952C138.724 114.333 139.14 113.859 139.652 113.528C140.174 113.197 140.729 113.032 141.316 113.032C141.764 113.032 142.153 113.112 142.484 113.272C142.814 113.432 143.15 113.651 143.492 113.928L143.428 112.6V109.608H144.756V121H143.668L143.556 120.088H143.508C143.209 120.387 142.857 120.648 142.452 120.872C142.046 121.085 141.614 121.192 141.156 121.192ZM141.444 120.088C142.126 120.088 142.788 119.731 143.428 119.016V114.952C143.097 114.653 142.777 114.445 142.468 114.328C142.169 114.2 141.86 114.136 141.54 114.136C141.124 114.136 140.745 114.264 140.404 114.52C140.073 114.765 139.806 115.112 139.604 115.56C139.401 115.997 139.299 116.515 139.299 117.112C139.299 118.04 139.486 118.771 139.86 119.304C140.233 119.827 140.761 120.088 141.444 120.088ZM150.706 124.344C150.535 124.344 150.37 124.328 150.21 124.296C150.06 124.264 149.922 124.227 149.794 124.184L150.05 123.144C150.135 123.165 150.231 123.187 150.338 123.208C150.444 123.24 150.546 123.256 150.642 123.256C151.079 123.256 151.442 123.096 151.73 122.776C152.018 122.467 152.242 122.072 152.402 121.592L152.578 121.016L149.458 113.224H150.818L152.402 117.528C152.519 117.859 152.642 118.216 152.77 118.6C152.908 118.984 153.036 119.357 153.154 119.72H153.218C153.335 119.368 153.447 119 153.554 118.616C153.66 118.232 153.767 117.869 153.874 117.528L155.266 113.224H156.546L153.618 121.64C153.436 122.152 153.218 122.611 152.962 123.016C152.716 123.421 152.407 123.741 152.034 123.976C151.671 124.221 151.228 124.344 150.706 124.344ZM163.042 121.192C162.391 121.192 161.847 121 161.41 120.616C160.983 120.221 160.77 119.677 160.77 118.984C160.77 118.131 161.148 117.48 161.906 117.032C162.674 116.573 163.884 116.253 165.538 116.072C165.538 115.741 165.49 115.427 165.394 115.128C165.308 114.829 165.148 114.589 164.914 114.408C164.69 114.216 164.364 114.12 163.938 114.12C163.49 114.12 163.068 114.205 162.674 114.376C162.279 114.547 161.927 114.739 161.618 114.952L161.106 114.04C161.468 113.805 161.911 113.581 162.434 113.368C162.967 113.144 163.543 113.032 164.161 113.032C165.111 113.032 165.799 113.325 166.226 113.912C166.652 114.488 166.866 115.261 166.866 116.232V121H165.778L165.666 120.072H165.618C165.255 120.371 164.855 120.632 164.418 120.856C163.991 121.08 163.532 121.192 163.042 121.192ZM163.426 120.136C163.799 120.136 164.151 120.045 164.482 119.864C164.812 119.683 165.164 119.427 165.538 119.096V116.936C164.247 117.096 163.34 117.336 162.818 117.656C162.306 117.976 162.049 118.387 162.049 118.888C162.049 119.325 162.183 119.645 162.45 119.848C162.716 120.04 163.042 120.136 163.426 120.136ZM171.584 121.192C170.763 121.192 170.16 120.936 169.776 120.424C169.392 119.901 169.2 119.144 169.2 118.152V113.224H170.528V117.976C170.528 118.701 170.64 119.229 170.864 119.56C171.099 119.891 171.472 120.056 171.984 120.056C172.389 120.056 172.747 119.955 173.056 119.752C173.376 119.539 173.717 119.203 174.08 118.744V113.224H175.392V121H174.304L174.192 119.784H174.144C173.781 120.211 173.397 120.552 172.992 120.808C172.587 121.064 172.117 121.192 171.584 121.192ZM180.047 121.192C179.492 121.192 178.964 121.091 178.463 120.888C177.962 120.675 177.524 120.419 177.151 120.12L177.807 119.24C178.148 119.507 178.5 119.731 178.863 119.912C179.226 120.083 179.636 120.168 180.095 120.168C180.607 120.168 180.991 120.051 181.247 119.816C181.503 119.571 181.631 119.283 181.631 118.952C181.631 118.685 181.54 118.461 181.359 118.28C181.188 118.099 180.964 117.949 180.687 117.832C180.42 117.704 180.143 117.587 179.855 117.48C179.492 117.341 179.135 117.187 178.783 117.016C178.431 116.835 178.143 116.605 177.919 116.328C177.695 116.04 177.583 115.677 177.583 115.24C177.583 114.611 177.818 114.088 178.287 113.672C178.767 113.245 179.428 113.032 180.271 113.032C180.751 113.032 181.199 113.117 181.615 113.288C182.031 113.459 182.388 113.667 182.687 113.912L182.047 114.744C181.78 114.541 181.503 114.376 181.215 114.248C180.927 114.12 180.612 114.056 180.271 114.056C179.78 114.056 179.418 114.168 179.183 114.392C178.959 114.616 178.847 114.877 178.847 115.176C178.847 115.421 178.927 115.624 179.087 115.784C179.247 115.933 179.455 116.067 179.711 116.184C179.967 116.291 180.239 116.403 180.527 116.52C180.9 116.659 181.268 116.819 181.631 117C181.994 117.171 182.292 117.405 182.527 117.704C182.772 117.992 182.895 118.381 182.895 118.872C182.895 119.288 182.783 119.672 182.559 120.024C182.346 120.376 182.026 120.659 181.599 120.872C181.183 121.085 180.666 121.192 180.047 121.192ZM187.87 121.192C187.177 121.192 186.548 121.032 185.982 120.712C185.417 120.381 184.969 119.912 184.638 119.304C184.308 118.696 184.142 117.971 184.142 117.128C184.142 116.275 184.308 115.544 184.638 114.936C184.98 114.328 185.417 113.859 185.95 113.528C186.484 113.197 187.044 113.032 187.63 113.032C188.622 113.032 189.385 113.363 189.918 114.024C190.462 114.685 190.734 115.571 190.734 116.68C190.734 116.819 190.729 116.957 190.718 117.096C190.718 117.224 190.708 117.336 190.686 117.432H185.438C185.492 118.253 185.748 118.909 186.206 119.4C186.676 119.891 187.284 120.136 188.03 120.136C188.404 120.136 188.745 120.083 189.054 119.976C189.374 119.859 189.678 119.709 189.966 119.528L190.43 120.392C190.1 120.605 189.721 120.792 189.294 120.952C188.878 121.112 188.404 121.192 187.87 121.192ZM185.422 116.488H189.582C189.582 115.699 189.412 115.101 189.07 114.696C188.74 114.28 188.27 114.072 187.662 114.072C187.118 114.072 186.628 114.285 186.19 114.712C185.764 115.128 185.508 115.72 185.422 116.488ZM192.656 121V113.224H193.744L193.856 114.344H193.904C194.277 113.971 194.672 113.661 195.088 113.416C195.504 113.16 195.978 113.032 196.512 113.032C197.333 113.032 197.93 113.293 198.304 113.816C198.688 114.328 198.88 115.08 198.88 116.072V121H197.568V116.248C197.568 115.523 197.45 114.995 197.216 114.664C196.981 114.333 196.608 114.168 196.096 114.168C195.701 114.168 195.344 114.269 195.024 114.472C194.714 114.675 194.362 114.973 193.968 115.368V121H192.656ZM204.478 121.192C203.795 121.192 203.176 121.032 202.622 120.712C202.067 120.392 201.63 119.928 201.31 119.32C200.99 118.712 200.83 117.981 200.83 117.128C200.83 116.253 201 115.512 201.342 114.904C201.694 114.296 202.152 113.832 202.718 113.512C203.294 113.192 203.912 113.032 204.574 113.032C205.086 113.032 205.523 113.123 205.886 113.304C206.259 113.485 206.579 113.699 206.846 113.944L206.174 114.808C205.95 114.605 205.71 114.44 205.454 114.312C205.208 114.184 204.931 114.12 204.622 114.12C204.152 114.12 203.731 114.248 203.358 114.504C202.995 114.749 202.707 115.101 202.494 115.56C202.291 116.008 202.19 116.531 202.19 117.128C202.19 118.013 202.408 118.733 202.846 119.288C203.294 119.832 203.875 120.104 204.59 120.104C204.952 120.104 205.288 120.029 205.598 119.88C205.907 119.72 206.179 119.533 206.414 119.32L206.99 120.2C206.638 120.509 206.248 120.755 205.822 120.936C205.395 121.107 204.947 121.192 204.478 121.192ZM208.703 121V113.224H210.015V121H208.703ZM209.375 111.624C209.119 111.624 208.905 111.549 208.735 111.4C208.575 111.24 208.495 111.027 208.495 110.76C208.495 110.504 208.575 110.296 208.735 110.136C208.905 109.976 209.119 109.896 209.375 109.896C209.631 109.896 209.839 109.976 209.999 110.136C210.169 110.296 210.255 110.504 210.255 110.76C210.255 111.027 210.169 111.24 209.999 111.4C209.839 111.549 209.631 111.624 209.375 111.624ZM214.432 121.192C213.781 121.192 213.237 121 212.8 120.616C212.373 120.221 212.16 119.677 212.16 118.984C212.16 118.131 212.539 117.48 213.296 117.032C214.064 116.573 215.275 116.253 216.928 116.072C216.928 115.741 216.88 115.427 216.784 115.128C216.699 114.829 216.539 114.589 216.304 114.408C216.08 114.216 215.755 114.12 215.328 114.12C214.88 114.12 214.459 114.205 214.064 114.376C213.669 114.547 213.317 114.739 213.008 114.952L212.496 114.04C212.859 113.805 213.301 113.581 213.824 113.368C214.357 113.144 214.933 113.032 215.552 113.032C216.501 113.032 217.189 113.325 217.616 113.912C218.043 114.488 218.256 115.261 218.256 116.232V121H217.168L217.056 120.072H217.008C216.645 120.371 216.245 120.632 215.808 120.856C215.381 121.08 214.923 121.192 214.432 121.192ZM214.816 120.136C215.189 120.136 215.541 120.045 215.872 119.864C216.203 119.683 216.555 119.427 216.928 119.096V116.936C215.637 117.096 214.731 117.336 214.208 117.656C213.696 117.976 213.44 118.387 213.44 118.888C213.44 119.325 213.573 119.645 213.84 119.848C214.107 120.04 214.432 120.136 214.816 120.136ZM226.562 121.192C225.591 121.192 224.812 120.84 224.226 120.136C223.639 119.421 223.346 118.419 223.346 117.128C223.346 116.285 223.5 115.56 223.81 114.952C224.13 114.333 224.546 113.859 225.058 113.528C225.58 113.197 226.135 113.032 226.722 113.032C227.17 113.032 227.559 113.112 227.89 113.272C228.22 113.432 228.556 113.651 228.898 113.928L228.834 112.6V109.608H230.162V121H229.074L228.962 120.088H228.914C228.615 120.387 228.263 120.648 227.858 120.872C227.452 121.085 227.02 121.192 226.562 121.192ZM226.85 120.088C227.532 120.088 228.194 119.731 228.834 119.016V114.952C228.503 114.653 228.183 114.445 227.874 114.328C227.575 114.2 227.266 114.136 226.946 114.136C226.53 114.136 226.151 114.264 225.81 114.52C225.479 114.765 225.212 115.112 225.01 115.56C224.807 115.997 224.706 116.515 224.706 117.112C224.706 118.04 224.892 118.771 225.266 119.304C225.639 119.827 226.167 120.088 226.85 120.088ZM235.933 121.192C235.239 121.192 234.61 121.032 234.045 120.712C233.479 120.381 233.031 119.912 232.701 119.304C232.37 118.696 232.205 117.971 232.205 117.128C232.205 116.275 232.37 115.544 232.701 114.936C233.042 114.328 233.479 113.859 234.013 113.528C234.546 113.197 235.106 113.032 235.693 113.032C236.685 113.032 237.447 113.363 237.981 114.024C238.525 114.685 238.797 115.571 238.797 116.68C238.797 116.819 238.791 116.957 238.781 117.096C238.781 117.224 238.77 117.336 238.749 117.432H233.501C233.554 118.253 233.81 118.909 234.269 119.4C234.738 119.891 235.346 120.136 236.093 120.136C236.466 120.136 236.807 120.083 237.117 119.976C237.437 119.859 237.741 119.709 238.029 119.528L238.493 120.392C238.162 120.605 237.783 120.792 237.357 120.952C236.941 121.112 236.466 121.192 235.933 121.192ZM233.485 116.488H237.645C237.645 115.699 237.474 115.101 237.133 114.696C236.802 114.28 236.333 114.072 235.725 114.072C235.181 114.072 234.69 114.285 234.253 114.712C233.826 115.128 233.57 115.72 233.485 116.488ZM31.704 144.192C31.2133 144.192 30.856 144.043 30.632 143.744C30.4187 143.435 30.312 142.997 30.312 142.432V132.608H31.624V142.528C31.624 142.731 31.6613 142.88 31.736 142.976C31.8107 143.061 31.896 143.104 31.992 143.104C32.0347 143.104 32.072 143.104 32.104 143.104C32.1467 143.093 32.2053 143.083 32.28 143.072L32.456 144.064C32.3707 144.107 32.2693 144.139 32.152 144.16C32.0347 144.181 31.8853 144.192 31.704 144.192ZM37.5421 144.192C36.8488 144.192 36.2195 144.032 35.6541 143.712C35.0888 143.381 34.6408 142.912 34.3101 142.304C33.9795 141.696 33.8141 140.971 33.8141 140.128C33.8141 139.275 33.9795 138.544 34.3101 137.936C34.6515 137.328 35.0888 136.859 35.6221 136.528C36.1555 136.197 36.7155 136.032 37.3021 136.032C38.2941 136.032 39.0568 136.363 39.5901 137.024C40.1341 137.685 40.4061 138.571 40.4061 139.68C40.4061 139.819 40.4008 139.957 40.3901 140.096C40.3901 140.224 40.3795 140.336 40.3581 140.432H35.1101C35.1635 141.253 35.4195 141.909 35.8781 142.4C36.3475 142.891 36.9555 143.136 37.7021 143.136C38.0755 143.136 38.4168 143.083 38.7261 142.976C39.0461 142.859 39.3501 142.709 39.6381 142.528L40.1021 143.392C39.7715 143.605 39.3928 143.792 38.9661 143.952C38.5501 144.112 38.0755 144.192 37.5421 144.192ZM35.0941 139.488H39.2541C39.2541 138.699 39.0835 138.101 38.7421 137.696C38.4115 137.28 37.9421 137.072 37.3341 137.072C36.7901 137.072 36.2995 137.285 35.8621 137.712C35.4355 138.128 35.1795 138.72 35.0941 139.488ZM44.3596 144.192C43.805 144.192 43.277 144.091 42.7756 143.888C42.2743 143.675 41.837 143.419 41.4636 143.12L42.1196 142.24C42.461 142.507 42.813 142.731 43.1756 142.912C43.5383 143.083 43.949 143.168 44.4076 143.168C44.9196 143.168 45.3036 143.051 45.5596 142.816C45.8156 142.571 45.9436 142.283 45.9436 141.952C45.9436 141.685 45.853 141.461 45.6716 141.28C45.501 141.099 45.277 140.949 44.9996 140.832C44.733 140.704 44.4556 140.587 44.1676 140.48C43.805 140.341 43.4476 140.187 43.0956 140.016C42.7436 139.835 42.4556 139.605 42.2316 139.328C42.0076 139.04 41.8956 138.677 41.8956 138.24C41.8956 137.611 42.1303 137.088 42.5996 136.672C43.0796 136.245 43.741 136.032 44.5836 136.032C45.0636 136.032 45.5116 136.117 45.9276 136.288C46.3436 136.459 46.701 136.667 46.9996 136.912L46.3596 137.744C46.093 137.541 45.8156 137.376 45.5276 137.248C45.2396 137.12 44.925 137.056 44.5836 137.056C44.093 137.056 43.7303 137.168 43.4956 137.392C43.2716 137.616 43.1596 137.877 43.1596 138.176C43.1596 138.421 43.2396 138.624 43.3996 138.784C43.5596 138.933 43.7676 139.067 44.0236 139.184C44.2796 139.291 44.5516 139.403 44.8396 139.52C45.213 139.659 45.581 139.819 45.9436 140C46.3063 140.171 46.605 140.405 46.8396 140.704C47.085 140.992 47.2076 141.381 47.2076 141.872C47.2076 142.288 47.0956 142.672 46.8716 143.024C46.6583 143.376 46.3383 143.659 45.9116 143.872C45.4956 144.085 44.9783 144.192 44.3596 144.192ZM49.0308 144V136.224H50.3428V144H49.0308ZM49.7028 134.624C49.4468 134.624 49.2334 134.549 49.0628 134.4C48.9028 134.24 48.8228 134.027 48.8228 133.76C48.8228 133.504 48.9028 133.296 49.0628 133.136C49.2334 132.976 49.4468 132.896 49.7028 132.896C49.9588 132.896 50.1668 132.976 50.3268 133.136C50.4974 133.296 50.5828 133.504 50.5828 133.76C50.5828 134.027 50.4974 134.24 50.3268 134.4C50.1668 134.549 49.9588 134.624 49.7028 134.624ZM55.9923 144.192C55.3629 144.192 54.7709 144.032 54.2163 143.712C53.6723 143.392 53.2296 142.928 52.8883 142.32C52.5576 141.712 52.3923 140.981 52.3923 140.128C52.3923 139.253 52.5576 138.512 52.8883 137.904C53.2296 137.296 53.6723 136.832 54.2163 136.512C54.7709 136.192 55.3629 136.032 55.9923 136.032C56.6323 136.032 57.2243 136.192 57.7683 136.512C58.3123 136.832 58.7496 137.296 59.0803 137.904C59.4216 138.512 59.5923 139.253 59.5923 140.128C59.5923 140.981 59.4216 141.712 59.0803 142.32C58.7496 142.928 58.3123 143.392 57.7683 143.712C57.2243 144.032 56.6323 144.192 55.9923 144.192ZM55.9923 143.104C56.6643 143.104 57.2029 142.832 57.6083 142.288C58.0243 141.733 58.2323 141.013 58.2323 140.128C58.2323 139.232 58.0243 138.507 57.6083 137.952C57.2029 137.397 56.6643 137.12 55.9923 137.12C55.3309 137.12 54.7923 137.397 54.3763 137.952C53.9603 138.507 53.7523 139.232 53.7523 140.128C53.7523 141.013 53.9603 141.733 54.3763 142.288C54.7923 142.832 55.3309 143.104 55.9923 143.104ZM61.6401 144V136.224H62.7281L62.8401 137.344H62.8881C63.2615 136.971 63.6561 136.661 64.0721 136.416C64.4881 136.16 64.9628 136.032 65.4961 136.032C66.3175 136.032 66.9148 136.293 67.2881 136.816C67.6721 137.328 67.8641 138.08 67.8641 139.072V144H66.5521V139.248C66.5521 138.523 66.4348 137.995 66.2001 137.664C65.9655 137.333 65.5921 137.168 65.0801 137.168C64.6855 137.168 64.3281 137.269 64.0081 137.472C63.6988 137.675 63.3468 137.973 62.9521 138.368V144H61.6401ZM73.5421 144.192C72.8488 144.192 72.2195 144.032 71.6541 143.712C71.0888 143.381 70.6408 142.912 70.3101 142.304C69.9795 141.696 69.8141 140.971 69.8141 140.128C69.8141 139.275 69.9795 138.544 70.3101 137.936C70.6515 137.328 71.0888 136.859 71.6221 136.528C72.1555 136.197 72.7155 136.032 73.3021 136.032C74.2941 136.032 75.0568 136.363 75.5901 137.024C76.1341 137.685 76.4061 138.571 76.4061 139.68C76.4061 139.819 76.4008 139.957 76.3901 140.096C76.3901 140.224 76.3795 140.336 76.3581 140.432H71.1101C71.1635 141.253 71.4195 141.909 71.8781 142.4C72.3475 142.891 72.9555 143.136 73.7021 143.136C74.0755 143.136 74.4168 143.083 74.7261 142.976C75.0461 142.859 75.3501 142.709 75.6381 142.528L76.1021 143.392C75.7715 143.605 75.3928 143.792 74.9661 143.952C74.5501 144.112 74.0755 144.192 73.5421 144.192ZM71.0941 139.488H75.2541C75.2541 138.699 75.0835 138.101 74.7421 137.696C74.4115 137.28 73.9421 137.072 73.3341 137.072C72.7901 137.072 72.2995 137.285 71.8621 137.712C71.4355 138.128 71.1795 138.72 71.0941 139.488ZM80.3596 144.192C79.805 144.192 79.277 144.091 78.7756 143.888C78.2743 143.675 77.837 143.419 77.4636 143.12L78.1196 142.24C78.461 142.507 78.813 142.731 79.1756 142.912C79.5383 143.083 79.949 143.168 80.4076 143.168C80.9196 143.168 81.3036 143.051 81.5596 142.816C81.8156 142.571 81.9436 142.283 81.9436 141.952C81.9436 141.685 81.853 141.461 81.6716 141.28C81.501 141.099 81.277 140.949 80.9996 140.832C80.733 140.704 80.4556 140.587 80.1676 140.48C79.805 140.341 79.4476 140.187 79.0956 140.016C78.7436 139.835 78.4556 139.605 78.2316 139.328C78.0076 139.04 77.8956 138.677 77.8956 138.24C77.8956 137.611 78.1303 137.088 78.5996 136.672C79.0796 136.245 79.741 136.032 80.5836 136.032C81.0636 136.032 81.5116 136.117 81.9276 136.288C82.3436 136.459 82.701 136.667 82.9996 136.912L82.3596 137.744C82.093 137.541 81.8156 137.376 81.5276 137.248C81.2396 137.12 80.925 137.056 80.5836 137.056C80.093 137.056 79.7303 137.168 79.4956 137.392C79.2716 137.616 79.1596 137.877 79.1596 138.176C79.1596 138.421 79.2396 138.624 79.3996 138.784C79.5596 138.933 79.7676 139.067 80.0236 139.184C80.2796 139.291 80.5516 139.403 80.8396 139.52C81.213 139.659 81.581 139.819 81.9436 140C82.3063 140.171 82.605 140.405 82.8396 140.704C83.085 140.992 83.2076 141.381 83.2076 141.872C83.2076 142.288 83.0956 142.672 82.8716 143.024C82.6583 143.376 82.3383 143.659 81.9116 143.872C81.4956 144.085 80.9783 144.192 80.3596 144.192ZM91.3859 144.192C90.6925 144.192 90.0632 144.032 89.4979 143.712C88.9325 143.381 88.4845 142.912 88.1539 142.304C87.8232 141.696 87.6579 140.971 87.6579 140.128C87.6579 139.275 87.8232 138.544 88.1539 137.936C88.4952 137.328 88.9325 136.859 89.4659 136.528C89.9992 136.197 90.5592 136.032 91.1459 136.032C92.1379 136.032 92.9005 136.363 93.4339 137.024C93.9779 137.685 94.2499 138.571 94.2499 139.68C94.2499 139.819 94.2445 139.957 94.2339 140.096C94.2339 140.224 94.2232 140.336 94.2019 140.432H88.9539C89.0072 141.253 89.2632 141.909 89.7219 142.4C90.1912 142.891 90.7992 143.136 91.5459 143.136C91.9192 143.136 92.2605 143.083 92.5699 142.976C92.8899 142.859 93.1939 142.709 93.4819 142.528L93.9459 143.392C93.6152 143.605 93.2365 143.792 92.8099 143.952C92.3939 144.112 91.9192 144.192 91.3859 144.192ZM88.9379 139.488H93.0979C93.0979 138.699 92.9272 138.101 92.5859 137.696C92.2552 137.28 91.7859 137.072 91.1779 137.072C90.6339 137.072 90.1432 137.285 89.7059 137.712C89.2792 138.128 89.0232 138.72 88.9379 139.488ZM98.2034 144.192C97.6487 144.192 97.1207 144.091 96.6194 143.888C96.118 143.675 95.6807 143.419 95.3074 143.12L95.9634 142.24C96.3047 142.507 96.6567 142.731 97.0194 142.912C97.382 143.083 97.7927 143.168 98.2514 143.168C98.7634 143.168 99.1474 143.051 99.4034 142.816C99.6594 142.571 99.7874 142.283 99.7874 141.952C99.7874 141.685 99.6967 141.461 99.5154 141.28C99.3447 141.099 99.1207 140.949 98.8434 140.832C98.5767 140.704 98.2994 140.587 98.0114 140.48C97.6487 140.341 97.2914 140.187 96.9394 140.016C96.5874 139.835 96.2994 139.605 96.0754 139.328C95.8514 139.04 95.7394 138.677 95.7394 138.24C95.7394 137.611 95.974 137.088 96.4434 136.672C96.9234 136.245 97.5847 136.032 98.4274 136.032C98.9074 136.032 99.3554 136.117 99.7714 136.288C100.187 136.459 100.545 136.667 100.843 136.912L100.203 137.744C99.9367 137.541 99.6594 137.376 99.3714 137.248C99.0834 137.12 98.7687 137.056 98.4274 137.056C97.9367 137.056 97.574 137.168 97.3394 137.392C97.1154 137.616 97.0034 137.877 97.0034 138.176C97.0034 138.421 97.0834 138.624 97.2434 138.784C97.4034 138.933 97.6114 139.067 97.8674 139.184C98.1234 139.291 98.3954 139.403 98.6834 139.52C99.0567 139.659 99.4247 139.819 99.7874 140C100.15 140.171 100.449 140.405 100.683 140.704C100.929 140.992 101.051 141.381 101.051 141.872C101.051 142.288 100.939 142.672 100.715 143.024C100.502 143.376 100.182 143.659 99.7554 143.872C99.3394 144.085 98.822 144.192 98.2034 144.192ZM105.899 144.192C105.269 144.192 104.677 144.032 104.123 143.712C103.579 143.392 103.136 142.928 102.795 142.32C102.464 141.712 102.299 140.981 102.299 140.128C102.299 139.253 102.464 138.512 102.795 137.904C103.136 137.296 103.579 136.832 104.123 136.512C104.677 136.192 105.269 136.032 105.899 136.032C106.539 136.032 107.131 136.192 107.675 136.512C108.219 136.832 108.656 137.296 108.987 137.904C109.328 138.512 109.499 139.253 109.499 140.128C109.499 140.981 109.328 141.712 108.987 142.32C108.656 142.928 108.219 143.392 107.675 143.712C107.131 144.032 106.539 144.192 105.899 144.192ZM105.899 143.104C106.571 143.104 107.109 142.832 107.515 142.288C107.931 141.733 108.139 141.013 108.139 140.128C108.139 139.232 107.931 138.507 107.515 137.952C107.109 137.397 106.571 137.12 105.899 137.12C105.237 137.12 104.699 137.397 104.283 137.952C103.867 138.507 103.659 139.232 103.659 140.128C103.659 141.013 103.867 141.733 104.283 142.288C104.699 142.832 105.237 143.104 105.899 143.104ZM111.77 144V137.296H110.714V136.304L111.77 136.224V134.992C111.77 134.203 111.952 133.579 112.314 133.12C112.688 132.651 113.264 132.416 114.042 132.416C114.288 132.416 114.522 132.443 114.746 132.496C114.97 132.539 115.168 132.597 115.338 132.672L115.05 133.68C114.762 133.552 114.469 133.488 114.17 133.488C113.445 133.488 113.082 133.989 113.082 134.992V136.224H114.73V137.296H113.082V144H111.77ZM117.698 144.192C117.047 144.192 116.503 144 116.066 143.616C115.639 143.221 115.426 142.677 115.426 141.984C115.426 141.131 115.804 140.48 116.562 140.032C117.33 139.573 118.54 139.253 120.194 139.072C120.194 138.741 120.146 138.427 120.05 138.128C119.964 137.829 119.804 137.589 119.57 137.408C119.346 137.216 119.02 137.12 118.594 137.12C118.146 137.12 117.724 137.205 117.33 137.376C116.935 137.547 116.583 137.739 116.274 137.952L115.762 137.04C116.124 136.805 116.567 136.581 117.09 136.368C117.623 136.144 118.199 136.032 118.818 136.032C119.767 136.032 120.455 136.325 120.882 136.912C121.308 137.488 121.522 138.261 121.522 139.232V144H120.434L120.322 143.072H120.274C119.911 143.371 119.511 143.632 119.074 143.856C118.647 144.08 118.188 144.192 117.698 144.192ZM118.082 143.136C118.455 143.136 118.807 143.045 119.138 142.864C119.468 142.683 119.82 142.427 120.194 142.096V139.936C118.903 140.096 117.996 140.336 117.474 140.656C116.962 140.976 116.706 141.387 116.706 141.888C116.706 142.325 116.839 142.645 117.106 142.848C117.372 143.04 117.698 143.136 118.082 143.136ZM118.642 134.832L117.97 134.176L120.226 131.504L121.154 132.384L118.642 134.832ZM126.592 147.584C125.643 147.584 124.87 147.403 124.272 147.04C123.675 146.677 123.376 146.16 123.376 145.488C123.376 145.157 123.478 144.837 123.68 144.528C123.883 144.229 124.16 143.963 124.512 143.728V143.664C124.32 143.547 124.155 143.381 124.016 143.168C123.888 142.955 123.824 142.699 123.824 142.4C123.824 142.069 123.915 141.781 124.096 141.536C124.278 141.291 124.47 141.099 124.672 140.96V140.896C124.416 140.683 124.182 140.395 123.968 140.032C123.766 139.669 123.664 139.259 123.664 138.8C123.664 138.235 123.798 137.744 124.064 137.328C124.331 136.912 124.688 136.592 125.136 136.368C125.584 136.144 126.07 136.032 126.592 136.032C126.806 136.032 127.008 136.053 127.2 136.096C127.392 136.128 127.558 136.171 127.696 136.224H130.4V137.232H128.8C128.982 137.403 129.131 137.632 129.248 137.92C129.376 138.197 129.44 138.501 129.44 138.832C129.44 139.387 129.312 139.867 129.056 140.272C128.8 140.677 128.459 140.992 128.032 141.216C127.606 141.429 127.126 141.536 126.592 141.536C126.176 141.536 125.787 141.445 125.424 141.264C125.286 141.381 125.168 141.515 125.072 141.664C124.976 141.803 124.928 141.979 124.928 142.192C124.928 142.437 125.024 142.64 125.216 142.8C125.419 142.96 125.782 143.04 126.304 143.04H127.808C128.715 143.04 129.392 143.189 129.84 143.488C130.299 143.776 130.528 144.245 130.528 144.896C130.528 145.376 130.368 145.819 130.048 146.224C129.728 146.629 129.275 146.955 128.688 147.2C128.102 147.456 127.403 147.584 126.592 147.584ZM126.592 140.656C127.04 140.656 127.424 140.491 127.744 140.16C128.075 139.819 128.24 139.365 128.24 138.8C128.24 138.235 128.08 137.792 127.76 137.472C127.44 137.152 127.051 136.992 126.592 136.992C126.134 136.992 125.744 137.152 125.424 137.472C125.104 137.792 124.944 138.235 124.944 138.8C124.944 139.365 125.104 139.819 125.424 140.16C125.755 140.491 126.144 140.656 126.592 140.656ZM126.784 146.672C127.531 146.672 128.128 146.507 128.576 146.176C129.024 145.856 129.248 145.493 129.248 145.088C129.248 144.725 129.11 144.475 128.832 144.336C128.566 144.197 128.182 144.128 127.68 144.128H126.336C126.187 144.128 126.022 144.117 125.84 144.096C125.67 144.075 125.499 144.043 125.328 144C125.051 144.203 124.848 144.416 124.72 144.64C124.592 144.864 124.528 145.088 124.528 145.312C124.528 145.728 124.726 146.059 125.12 146.304C125.526 146.549 126.08 146.672 126.784 146.672ZM132.031 144V136.224H133.343V144H132.031ZM132.703 134.624C132.447 134.624 132.233 134.549 132.063 134.4C131.903 134.24 131.823 134.027 131.823 133.76C131.823 133.504 131.903 133.296 132.063 133.136C132.233 132.976 132.447 132.896 132.703 132.896C132.959 132.896 133.167 132.976 133.327 133.136C133.497 133.296 133.583 133.504 133.583 133.76C133.583 134.027 133.497 134.24 133.327 134.4C133.167 134.549 132.959 134.624 132.703 134.624ZM139.04 144.192C138.358 144.192 137.739 144.032 137.184 143.712C136.63 143.392 136.192 142.928 135.872 142.32C135.552 141.712 135.392 140.981 135.392 140.128C135.392 139.253 135.563 138.512 135.904 137.904C136.256 137.296 136.715 136.832 137.28 136.512C137.856 136.192 138.475 136.032 139.136 136.032C139.648 136.032 140.086 136.123 140.448 136.304C140.822 136.485 141.142 136.699 141.408 136.944L140.736 137.808C140.512 137.605 140.272 137.44 140.016 137.312C139.771 137.184 139.494 137.12 139.184 137.12C138.715 137.12 138.294 137.248 137.92 137.504C137.558 137.749 137.27 138.101 137.056 138.56C136.854 139.008 136.752 139.531 136.752 140.128C136.752 141.013 136.971 141.733 137.408 142.288C137.856 142.832 138.438 143.104 139.152 143.104C139.515 143.104 139.851 143.029 140.16 142.88C140.47 142.72 140.742 142.533 140.976 142.32L141.552 143.2C141.2 143.509 140.811 143.755 140.384 143.936C139.958 144.107 139.51 144.192 139.04 144.192ZM144.901 144.192C144.25 144.192 143.706 144 143.269 143.616C142.842 143.221 142.629 142.677 142.629 141.984C142.629 141.131 143.008 140.48 143.765 140.032C144.533 139.573 145.744 139.253 147.397 139.072C147.397 138.741 147.349 138.427 147.253 138.128C147.168 137.829 147.008 137.589 146.773 137.408C146.549 137.216 146.224 137.12 145.797 137.12C145.349 137.12 144.928 137.205 144.533 137.376C144.138 137.547 143.786 137.739 143.477 137.952L142.965 137.04C143.328 136.805 143.77 136.581 144.293 136.368C144.826 136.144 145.402 136.032 146.021 136.032C146.97 136.032 147.658 136.325 148.085 136.912C148.512 137.488 148.725 138.261 148.725 139.232V144H147.637L147.525 143.072H147.477C147.114 143.371 146.714 143.632 146.277 143.856C145.85 144.08 145.392 144.192 144.901 144.192ZM145.285 143.136C145.658 143.136 146.01 143.045 146.341 142.864C146.672 142.683 147.024 142.427 147.397 142.096V139.936C146.106 140.096 145.2 140.336 144.677 140.656C144.165 140.976 143.909 141.387 143.909 141.888C143.909 142.325 144.042 142.645 144.309 142.848C144.576 143.04 144.901 143.136 145.285 143.136ZM153.203 144.192C152.649 144.192 152.121 144.091 151.619 143.888C151.118 143.675 150.681 143.419 150.307 143.12L150.963 142.24C151.305 142.507 151.657 142.731 152.019 142.912C152.382 143.083 152.793 143.168 153.251 143.168C153.763 143.168 154.147 143.051 154.403 142.816C154.659 142.571 154.787 142.283 154.787 141.952C154.787 141.685 154.697 141.461 154.515 141.28C154.345 141.099 154.121 140.949 153.843 140.832C153.577 140.704 153.299 140.587 153.011 140.48C152.649 140.341 152.291 140.187 151.939 140.016C151.587 139.835 151.299 139.605 151.075 139.328C150.851 139.04 150.739 138.677 150.739 138.24C150.739 137.611 150.974 137.088 151.443 136.672C151.923 136.245 152.585 136.032 153.427 136.032C153.907 136.032 154.355 136.117 154.771 136.288C155.187 136.459 155.545 136.667 155.843 136.912L155.203 137.744C154.937 137.541 154.659 137.376 154.371 137.248C154.083 137.12 153.769 137.056 153.427 137.056C152.937 137.056 152.574 137.168 152.339 137.392C152.115 137.616 152.003 137.877 152.003 138.176C152.003 138.421 152.083 138.624 152.243 138.784C152.403 138.933 152.611 139.067 152.867 139.184C153.123 139.291 153.395 139.403 153.683 139.52C154.057 139.659 154.425 139.819 154.787 140C155.15 140.171 155.449 140.405 155.683 140.704C155.929 140.992 156.051 141.381 156.051 141.872C156.051 142.288 155.939 142.672 155.715 143.024C155.502 143.376 155.182 143.659 154.755 143.872C154.339 144.085 153.822 144.192 153.203 144.192ZM164.23 144.192C163.536 144.192 162.907 144.032 162.342 143.712C161.776 143.381 161.328 142.912 160.998 142.304C160.667 141.696 160.502 140.971 160.502 140.128C160.502 139.275 160.667 138.544 160.998 137.936C161.339 137.328 161.776 136.859 162.31 136.528C162.843 136.197 163.403 136.032 163.99 136.032C164.982 136.032 165.744 136.363 166.278 137.024C166.822 137.685 167.094 138.571 167.094 139.68C167.094 139.819 167.088 139.957 167.078 140.096C167.078 140.224 167.067 140.336 167.046 140.432H161.798C161.851 141.253 162.107 141.909 162.566 142.4C163.035 142.891 163.643 143.136 164.39 143.136C164.763 143.136 165.104 143.083 165.414 142.976C165.734 142.859 166.038 142.709 166.326 142.528L166.79 143.392C166.459 143.605 166.08 143.792 165.654 143.952C165.238 144.112 164.763 144.192 164.23 144.192ZM161.782 139.488H165.942C165.942 138.699 165.771 138.101 165.43 137.696C165.099 137.28 164.63 137.072 164.022 137.072C163.478 137.072 162.987 137.285 162.55 137.712C162.123 138.128 161.867 138.72 161.782 139.488ZM169.015 144V136.224H170.103L170.215 137.344H170.263C170.636 136.971 171.031 136.661 171.447 136.416C171.863 136.16 172.338 136.032 172.871 136.032C173.692 136.032 174.29 136.293 174.663 136.816C175.047 137.328 175.239 138.08 175.239 139.072V144H173.927V139.248C173.927 138.523 173.81 137.995 173.575 137.664C173.34 137.333 172.967 137.168 172.455 137.168C172.06 137.168 171.703 137.269 171.383 137.472C171.074 137.675 170.722 137.973 170.327 138.368V144H169.015ZM182.36 144.192C181.87 144.192 181.512 144.043 181.288 143.744C181.075 143.435 180.968 142.997 180.968 142.432V132.608H182.28V142.528C182.28 142.731 182.318 142.88 182.392 142.976C182.467 143.061 182.552 143.104 182.648 143.104C182.691 143.104 182.728 143.104 182.76 143.104C182.803 143.093 182.862 143.083 182.936 143.072L183.112 144.064C183.027 144.107 182.926 144.139 182.808 144.16C182.691 144.181 182.542 144.192 182.36 144.192ZM186.838 144.192C186.188 144.192 185.644 144 185.206 143.616C184.78 143.221 184.566 142.677 184.566 141.984C184.566 141.131 184.945 140.48 185.702 140.032C186.47 139.573 187.681 139.253 189.334 139.072C189.334 138.741 189.286 138.427 189.19 138.128C189.105 137.829 188.945 137.589 188.71 137.408C188.486 137.216 188.161 137.12 187.734 137.12C187.286 137.12 186.865 137.205 186.47 137.376C186.076 137.547 185.724 137.739 185.414 137.952L184.902 137.04C185.265 136.805 185.708 136.581 186.23 136.368C186.764 136.144 187.34 136.032 187.958 136.032C188.908 136.032 189.596 136.325 190.022 136.912C190.449 137.488 190.662 138.261 190.662 139.232V144H189.574L189.462 143.072H189.414C189.052 143.371 188.652 143.632 188.214 143.856C187.788 144.08 187.329 144.192 186.838 144.192ZM187.222 143.136C187.596 143.136 187.948 143.045 188.278 142.864C188.609 142.683 188.961 142.427 189.334 142.096V139.936C188.044 140.096 187.137 140.336 186.614 140.656C186.102 140.976 185.846 141.387 185.846 141.888C185.846 142.325 185.98 142.645 186.246 142.848C186.513 143.04 186.838 143.136 187.222 143.136ZM199.592 144.192C200.536 144.192 201.624 143.888 202.456 143.296L201.656 141.808C201.096 142.128 200.52 142.304 199.944 142.304C198.936 142.304 198.184 141.84 197.96 140.768H202.648C202.696 140.544 202.744 140.128 202.744 139.68C202.744 137.52 201.624 135.856 199.32 135.856C197.416 135.856 195.56 137.44 195.56 140.016C195.56 142.672 197.32 144.192 199.592 144.192ZM197.928 139.104C198.088 138.176 198.68 137.728 199.384 137.728C200.28 137.728 200.632 138.32 200.632 139.104H197.928ZM204.321 144H206.785V138.672C207.281 138.224 207.617 137.952 208.177 137.952C208.817 137.952 209.105 138.288 209.105 139.392V144H211.585V139.072C211.585 137.088 210.849 135.856 209.121 135.856C208.033 135.856 207.233 136.4 206.577 137.04H206.513L206.337 136.048H204.321V144ZM216.372 144.192C217.124 144.192 217.908 143.792 218.468 143.232H218.516L218.692 144H220.724V132.816H218.244V135.488L218.324 136.672C217.812 136.176 217.284 135.856 216.404 135.856C214.756 135.856 213.124 137.424 213.124 140.016C213.124 142.608 214.404 144.192 216.372 144.192ZM217.028 142.16C216.18 142.16 215.668 141.52 215.668 140C215.668 138.512 216.292 137.872 216.996 137.872C217.396 137.872 217.86 138 218.244 138.336V141.504C217.876 142 217.508 142.16 217.028 142.16ZM226.167 144.192C228.199 144.192 230.071 142.656 230.071 140.016C230.071 137.376 228.199 135.856 226.167 135.856C224.151 135.856 222.279 137.376 222.279 140.016C222.279 142.656 224.151 144.192 226.167 144.192ZM226.167 142.192C225.239 142.192 224.807 141.344 224.807 140.016C224.807 138.704 225.239 137.84 226.167 137.84C227.095 137.84 227.527 138.704 227.527 140.016C227.527 141.344 227.095 142.192 226.167 142.192ZM233.939 144.192C236.099 144.192 237.251 143.056 237.251 141.6C237.251 140.288 236.291 139.568 235.075 139.184C234.067 138.864 233.619 138.672 233.619 138.256C233.619 137.904 233.891 137.68 234.467 137.68C235.011 137.68 235.603 137.84 236.179 138.256L237.235 136.864C236.547 136.288 235.555 135.856 234.387 135.856C232.531 135.856 231.315 136.864 231.315 138.368C231.315 139.6 232.275 140.32 233.411 140.736C234.259 141.056 234.931 141.264 234.931 141.744C234.931 142.128 234.659 142.368 233.987 142.368C233.363 142.368 232.643 142.176 231.907 141.6L230.867 142.992C231.667 143.776 232.883 144.192 233.939 144.192ZM242.2 144.192C243.048 144.192 244.056 143.952 244.824 143.248L243.864 141.696C243.464 142 243.016 142.192 242.488 142.192C241.512 142.192 240.776 141.344 240.776 140.016C240.776 138.704 241.464 137.84 242.568 137.84C242.92 137.84 243.224 137.952 243.592 138.224L244.744 136.704C244.152 136.192 243.4 135.856 242.424 135.856C240.216 135.856 238.248 137.376 238.248 140.016C238.248 142.656 239.96 144.192 242.2 144.192ZM249.182 144.192C251.214 144.192 253.086 142.656 253.086 140.016C253.086 137.376 251.214 135.856 249.182 135.856C247.166 135.856 245.294 137.376 245.294 140.016C245.294 142.656 247.166 144.192 249.182 144.192ZM249.182 142.192C248.254 142.192 247.822 141.344 247.822 140.016C247.822 138.704 248.254 137.84 249.182 137.84C250.11 137.84 250.542 138.704 250.542 140.016C250.542 141.344 250.11 142.192 249.182 142.192ZM254.649 146.912H257.113V144.608L257.033 143.376C257.593 143.904 258.217 144.192 258.905 144.192C260.617 144.192 262.233 142.624 262.233 139.888C262.233 137.44 261.049 135.856 259.129 135.856C258.313 135.856 257.513 136.256 256.905 136.816H256.841L256.665 136.048H254.649V146.912ZM258.313 142.16C257.929 142.16 257.513 142.048 257.113 141.696V138.544C257.545 138.08 257.929 137.872 258.393 137.872C259.273 137.872 259.689 138.528 259.689 139.92C259.689 141.536 259.081 142.16 258.313 142.16ZM263.852 144H266.316V136.048H263.852V144ZM264.444 134.848L267.964 132.336L266.556 130.688L263.212 133.632L264.444 134.848ZM270.352 144.192C271.248 144.192 271.968 143.792 272.624 143.2H272.688L272.864 144H274.88V139.488C274.88 136.992 273.728 135.856 271.68 135.856C270.432 135.856 269.296 136.256 268.256 136.896L269.12 138.496C269.92 138.048 270.56 137.824 271.2 137.824C272.016 137.824 272.352 138.208 272.416 138.864C269.28 139.184 267.984 140.096 267.984 141.776C267.984 143.104 268.896 144.192 270.352 144.192ZM271.2 142.272C270.656 142.272 270.352 142.048 270.352 141.584C270.352 141.024 270.832 140.592 272.416 140.384V141.648C272.032 142.032 271.696 142.272 271.2 142.272ZM277.812 144.192C277.546 144.192 277.317 144.101 277.125 143.92C276.943 143.728 276.853 143.488 276.853 143.2C276.853 142.891 276.943 142.645 277.125 142.464C277.317 142.272 277.546 142.176 277.812 142.176C278.069 142.176 278.287 142.272 278.469 142.464C278.661 142.645 278.757 142.891 278.757 143.2C278.757 143.488 278.661 143.728 278.469 143.92C278.287 144.101 278.069 144.192 277.812 144.192ZM280.629 137.68V137.088C281.6 136.213 282.336 135.504 282.837 134.96C283.338 134.405 283.589 133.893 283.589 133.424C283.589 133.019 283.482 132.699 283.269 132.464C283.056 132.229 282.762 132.112 282.389 132.112C282.122 132.112 281.877 132.203 281.653 132.384C281.429 132.555 281.226 132.768 281.045 133.024L280.437 132.464C280.682 132.101 280.981 131.808 281.333 131.584C281.696 131.36 282.09 131.248 282.517 131.248C283.146 131.248 283.648 131.419 284.021 131.76C284.405 132.101 284.597 132.603 284.597 133.264C284.597 133.659 284.496 134.043 284.293 134.416C284.09 134.779 283.813 135.152 283.461 135.536C283.12 135.92 282.725 136.341 282.277 136.8H284.917V137.68H280.629Z" fill="#091663"/>
<path d="M34.869 48.4H44.373L43.749 51.616H38.037L37.509 54.352H42.357L41.733 57.568H36.885L36.213 60.784H42.117L41.493 64H31.749L34.869 48.4ZM50.1362 55.6H51.5282C52.5682 55.6 53.3362 55.376 53.8322 54.928C54.3442 54.464 54.6002 53.856 54.6002 53.104C54.6002 52.528 54.4002 52.104 54.0002 51.832C53.6162 51.56 53.0642 51.424 52.3442 51.424H50.9522L50.1362 55.6ZM52.8722 48.4C53.6562 48.4 54.3842 48.472 55.0562 48.616C55.7282 48.76 56.3122 49 56.8082 49.336C57.3042 49.656 57.6882 50.08 57.9602 50.608C58.2482 51.136 58.3922 51.776 58.3922 52.528C58.3922 53.248 58.2962 53.904 58.1042 54.496C57.9282 55.072 57.6722 55.592 57.3362 56.056C57.0002 56.504 56.6002 56.896 56.1362 57.232C55.6722 57.552 55.1682 57.816 54.6242 58.024L56.9522 64H52.9202L51.1202 58.624H49.5122L48.4562 64H44.6162L47.7362 48.4H52.8722ZM60.0315 57.664C60.0315 56.272 60.2555 54.992 60.7035 53.824C61.1515 52.656 61.7595 51.648 62.5275 50.8C63.3115 49.952 64.2235 49.296 65.2635 48.832C66.3195 48.352 67.4555 48.112 68.6715 48.112C69.7115 48.112 70.6075 48.336 71.3595 48.784C72.1115 49.216 72.7195 49.84 73.1835 50.656L70.5915 52.672C70.3035 52.24 69.9915 51.928 69.6555 51.736C69.3355 51.528 68.9435 51.424 68.4795 51.424C67.8555 51.424 67.2635 51.584 66.7035 51.904C66.1595 52.208 65.6795 52.632 65.2635 53.176C64.8635 53.704 64.5435 54.336 64.3035 55.072C64.0795 55.808 63.9675 56.592 63.9675 57.424C63.9675 58.56 64.1995 59.448 64.6635 60.088C65.1435 60.712 65.9355 61.024 67.0395 61.024C67.2635 61.024 67.4955 60.992 67.7355 60.928C67.9915 60.864 68.2075 60.768 68.3835 60.64L68.9595 58.048H66.6555L67.2315 54.928H72.8955L71.4075 62.656C70.7995 63.12 70.0555 63.512 69.1755 63.832C68.3115 64.136 67.3755 64.288 66.3675 64.288C65.3915 64.288 64.5115 64.144 63.7275 63.856C62.9595 63.552 62.2955 63.12 61.7355 62.56C61.1915 62 60.7675 61.312 60.4635 60.496C60.1755 59.664 60.0315 58.72 60.0315 57.664ZM77.3143 48.4H86.8183L86.1943 51.616H80.4823L79.9543 54.352H84.8023L84.1783 57.568H79.3303L78.6583 60.784H84.5623L83.9383 64H74.1943L77.3143 48.4ZM93.7862 52H96.9062V53.536H97.0022C97.5622 53.056 98.1702 52.632 98.8262 52.264C99.4982 51.896 100.218 51.712 100.986 51.712C101.978 51.712 102.698 51.976 103.146 52.504C103.594 53.016 103.818 53.792 103.818 54.832C103.818 55.376 103.754 55.952 103.626 56.56L102.138 64H98.2982L99.6902 57.04C99.7382 56.816 99.7782 56.624 99.8102 56.464C99.8582 56.288 99.8822 56.128 99.8822 55.984C99.8822 55.648 99.7942 55.4 99.6182 55.24C99.4422 55.064 99.1942 54.976 98.8742 54.976C98.5382 54.976 98.2102 55.088 97.8902 55.312C97.5702 55.52 97.1942 55.856 96.7622 56.32L95.2742 64H91.4342L93.7862 52ZM110.143 64.288C109.423 64.288 108.767 64.168 108.175 63.928C107.583 63.688 107.079 63.352 106.663 62.92C106.247 62.472 105.919 61.944 105.679 61.336C105.455 60.728 105.343 60.048 105.343 59.296C105.343 58.128 105.543 57.08 105.943 56.152C106.343 55.208 106.863 54.408 107.503 53.752C108.159 53.096 108.887 52.592 109.687 52.24C110.503 51.888 111.327 51.712 112.159 51.712C112.879 51.712 113.535 51.832 114.127 52.072C114.719 52.312 115.223 52.656 115.639 53.104C116.055 53.536 116.375 54.064 116.599 54.688C116.839 55.296 116.959 55.968 116.959 56.704C116.959 57.872 116.759 58.928 116.359 59.872C115.959 60.8 115.431 61.592 114.775 62.248C114.135 62.904 113.407 63.408 112.591 63.76C111.791 64.112 110.975 64.288 110.143 64.288ZM111.727 54.784C111.375 54.784 111.047 54.896 110.743 55.12C110.439 55.344 110.175 55.656 109.951 56.056C109.727 56.44 109.551 56.912 109.423 57.472C109.295 58.016 109.231 58.608 109.231 59.248C109.231 59.856 109.335 60.336 109.543 60.688C109.767 61.04 110.111 61.216 110.575 61.216C110.927 61.216 111.255 61.104 111.559 60.88C111.863 60.656 112.127 60.352 112.351 59.968C112.575 59.568 112.751 59.096 112.879 58.552C113.007 58.008 113.071 57.408 113.071 56.752C113.071 56.144 112.959 55.664 112.735 55.312C112.527 54.96 112.191 54.784 111.727 54.784ZM123.108 59.104C123.108 58 123.308 57 123.708 56.104C124.108 55.192 124.628 54.416 125.268 53.776C125.924 53.12 126.652 52.616 127.452 52.264C128.268 51.896 129.076 51.712 129.876 51.712C130.612 51.712 131.228 51.832 131.724 52.072C132.236 52.312 132.644 52.64 132.948 53.056C133.268 53.472 133.5 53.96 133.644 54.52C133.788 55.064 133.86 55.648 133.86 56.272C133.86 56.576 133.828 56.88 133.764 57.184C133.716 57.488 133.652 57.776 133.572 58.048C133.508 58.304 133.436 58.536 133.356 58.744C133.292 58.936 133.236 59.072 133.188 59.152H126.708C126.74 59.952 126.988 60.528 127.452 60.88C127.916 61.232 128.5 61.408 129.204 61.408C129.54 61.408 129.892 61.328 130.26 61.168C130.628 61.008 130.948 60.832 131.22 60.64L132.564 63.04C132.084 63.376 131.468 63.672 130.716 63.928C129.964 64.168 129.092 64.288 128.1 64.288C127.364 64.288 126.692 64.168 126.084 63.928C125.476 63.688 124.948 63.344 124.5 62.896C124.068 62.448 123.724 61.904 123.468 61.264C123.228 60.624 123.108 59.904 123.108 59.104ZM130.644 56.848C130.676 56.752 130.7 56.64 130.716 56.512C130.732 56.368 130.74 56.224 130.74 56.08C130.74 55.664 130.644 55.32 130.452 55.048C130.26 54.776 129.908 54.64 129.396 54.64C128.932 54.64 128.484 54.816 128.052 55.168C127.62 55.52 127.268 56.08 126.996 56.848H130.644ZM137.075 52H140.195L140.099 54.352H140.195C140.659 53.584 141.211 52.952 141.851 52.456C142.507 51.96 143.171 51.712 143.843 51.712C144.179 51.712 144.443 51.736 144.635 51.784C144.843 51.816 145.011 51.872 145.139 51.952L143.891 55.264C143.715 55.168 143.507 55.112 143.267 55.096C143.043 55.08 142.835 55.072 142.643 55.072C142.131 55.072 141.651 55.24 141.203 55.576C140.771 55.912 140.323 56.48 139.859 57.28L138.563 64H134.723L137.075 52ZM149.33 64.288C148.61 64.288 147.954 64.168 147.362 63.928C146.77 63.688 146.266 63.352 145.85 62.92C145.434 62.472 145.106 61.944 144.866 61.336C144.642 60.728 144.53 60.048 144.53 59.296C144.53 58.128 144.73 57.08 145.13 56.152C145.53 55.208 146.05 54.408 146.69 53.752C147.346 53.096 148.074 52.592 148.874 52.24C149.69 51.888 150.514 51.712 151.346 51.712C152.066 51.712 152.722 51.832 153.314 52.072C153.906 52.312 154.41 52.656 154.826 53.104C155.242 53.536 155.562 54.064 155.786 54.688C156.026 55.296 156.146 55.968 156.146 56.704C156.146 57.872 155.946 58.928 155.546 59.872C155.146 60.8 154.618 61.592 153.962 62.248C153.322 62.904 152.594 63.408 151.778 63.76C150.978 64.112 150.162 64.288 149.33 64.288ZM150.914 54.784C150.562 54.784 150.234 54.896 149.93 55.12C149.626 55.344 149.362 55.656 149.138 56.056C148.914 56.44 148.738 56.912 148.61 57.472C148.482 58.016 148.418 58.608 148.418 59.248C148.418 59.856 148.522 60.336 148.73 60.688C148.954 61.04 149.298 61.216 149.762 61.216C150.114 61.216 150.442 61.104 150.746 60.88C151.05 60.656 151.314 60.352 151.538 59.968C151.762 59.568 151.938 59.096 152.066 58.552C152.194 58.008 152.258 57.408 152.258 56.752C152.258 56.144 152.146 55.664 151.922 55.312C151.714 54.96 151.378 54.784 150.914 54.784ZM158.835 60.112C159.267 60.624 159.683 60.984 160.083 61.192C160.483 61.4 160.867 61.504 161.235 61.504C161.603 61.504 161.915 61.432 162.171 61.288C162.443 61.128 162.579 60.928 162.579 60.688C162.579 60.528 162.531 60.392 162.435 60.28C162.339 60.168 162.203 60.056 162.027 59.944C161.867 59.816 161.659 59.688 161.403 59.56C161.147 59.432 160.867 59.28 160.563 59.104C160.275 58.944 159.987 58.752 159.699 58.528C159.427 58.304 159.179 58.056 158.955 57.784C158.747 57.496 158.579 57.184 158.451 56.848C158.323 56.512 158.259 56.144 158.259 55.744C158.259 55.168 158.387 54.64 158.643 54.16C158.899 53.664 159.243 53.24 159.675 52.888C160.107 52.52 160.619 52.232 161.211 52.024C161.803 51.816 162.435 51.712 163.107 51.712C163.971 51.712 164.739 51.904 165.411 52.288C166.083 52.656 166.675 53.104 167.187 53.632L165.123 55.6C164.835 55.312 164.523 55.064 164.187 54.856C163.851 54.648 163.491 54.544 163.107 54.544C162.723 54.544 162.419 54.632 162.195 54.808C161.971 54.968 161.859 55.168 161.859 55.408C161.859 55.584 161.915 55.736 162.027 55.864C162.139 55.976 162.283 56.088 162.459 56.2C162.651 56.312 162.859 56.424 163.083 56.536C163.323 56.648 163.555 56.768 163.779 56.896C164.067 57.056 164.355 57.24 164.643 57.448C164.931 57.64 165.187 57.872 165.411 58.144C165.635 58.416 165.819 58.728 165.963 59.08C166.107 59.416 166.179 59.808 166.179 60.256C166.179 60.864 166.051 61.416 165.795 61.912C165.539 62.392 165.179 62.816 164.715 63.184C164.267 63.536 163.723 63.808 163.083 64C162.443 64.192 161.747 64.288 160.995 64.288C160.643 64.288 160.267 64.24 159.867 64.144C159.467 64.048 159.067 63.904 158.667 63.712C158.283 63.52 157.907 63.28 157.539 62.992C157.187 62.688 156.883 62.336 156.627 61.936L158.835 60.112ZM169.819 52H173.659L171.259 64H167.419L169.819 52ZM172.363 50.464C172.107 50.464 171.859 50.432 171.619 50.368C171.379 50.288 171.163 50.176 170.971 50.032C170.779 49.888 170.627 49.704 170.515 49.48C170.403 49.256 170.347 48.992 170.347 48.688C170.347 48.4 170.403 48.128 170.515 47.872C170.643 47.6 170.811 47.368 171.019 47.176C171.227 46.984 171.467 46.832 171.739 46.72C172.027 46.592 172.331 46.528 172.651 46.528C172.907 46.528 173.155 46.568 173.395 46.648C173.635 46.728 173.851 46.84 174.043 46.984C174.235 47.128 174.387 47.312 174.499 47.536C174.611 47.76 174.667 48.016 174.667 48.304C174.667 48.928 174.443 49.448 173.995 49.864C173.563 50.264 173.019 50.464 172.363 50.464ZM175.299 52H179.139L179.379 57.472C179.411 58.08 179.427 58.688 179.427 59.296C179.427 59.904 179.427 60.528 179.427 61.168H179.523C179.795 60.544 180.051 59.928 180.291 59.32C180.531 58.712 180.787 58.096 181.059 57.472L183.411 52H187.155L181.155 64H176.739L175.299 52ZM191.471 64.288C190.751 64.288 190.095 64.168 189.503 63.928C188.911 63.688 188.407 63.352 187.991 62.92C187.575 62.472 187.247 61.944 187.007 61.336C186.783 60.728 186.671 60.048 186.671 59.296C186.671 58.128 186.871 57.08 187.271 56.152C187.671 55.208 188.191 54.408 188.831 53.752C189.487 53.096 190.215 52.592 191.015 52.24C191.831 51.888 192.655 51.712 193.487 51.712C194.207 51.712 194.863 51.832 195.455 52.072C196.047 52.312 196.551 52.656 196.967 53.104C197.383 53.536 197.703 54.064 197.927 54.688C198.167 55.296 198.287 55.968 198.287 56.704C198.287 57.872 198.087 58.928 197.687 59.872C197.287 60.8 196.759 61.592 196.103 62.248C195.463 62.904 194.735 63.408 193.919 63.76C193.119 64.112 192.303 64.288 191.471 64.288ZM193.055 54.784C192.703 54.784 192.375 54.896 192.071 55.12C191.767 55.344 191.503 55.656 191.279 56.056C191.055 56.44 190.879 56.912 190.751 57.472C190.623 58.016 190.559 58.608 190.559 59.248C190.559 59.856 190.663 60.336 190.871 60.688C191.095 61.04 191.439 61.216 191.903 61.216C192.255 61.216 192.583 61.104 192.887 60.88C193.191 60.656 193.455 60.352 193.679 59.968C193.903 59.568 194.079 59.096 194.207 58.552C194.335 58.008 194.399 57.408 194.399 56.752C194.399 56.144 194.287 55.664 194.063 55.312C193.855 54.96 193.519 54.784 193.055 54.784ZM206.501 68.32C206.325 67.824 206.149 67.272 205.973 66.664C205.797 66.072 205.637 65.456 205.493 64.816C205.365 64.176 205.261 63.528 205.181 62.872C205.101 62.2 205.061 61.536 205.061 60.88C205.061 59.488 205.181 58.168 205.421 56.92C205.661 55.672 206.021 54.464 206.501 53.296C206.981 52.112 207.573 50.96 208.277 49.84C208.981 48.704 209.797 47.552 210.725 46.384L212.933 47.488C211.237 49.776 210.013 52.056 209.261 54.328C208.509 56.584 208.133 58.848 208.133 61.12C208.133 61.616 208.149 62.136 208.181 62.68C208.213 63.224 208.261 63.768 208.325 64.312C208.389 64.872 208.469 65.408 208.565 65.92C208.677 66.432 208.805 66.896 208.949 67.312L206.501 68.32ZM215.807 48.4H225.311L224.687 51.616H218.975L218.447 54.352H223.295L222.671 57.568H217.823L217.151 60.784H223.055L222.431 64H212.687L215.807 48.4ZM231.074 55.6H232.466C233.506 55.6 234.274 55.376 234.77 54.928C235.282 54.464 235.538 53.856 235.538 53.104C235.538 52.528 235.338 52.104 234.938 51.832C234.554 51.56 234.002 51.424 233.282 51.424H231.89L231.074 55.6ZM233.81 48.4C234.594 48.4 235.322 48.472 235.994 48.616C236.666 48.76 237.25 49 237.746 49.336C238.242 49.656 238.626 50.08 238.898 50.608C239.186 51.136 239.33 51.776 239.33 52.528C239.33 53.248 239.234 53.904 239.042 54.496C238.866 55.072 238.61 55.592 238.274 56.056C237.938 56.504 237.538 56.896 237.074 57.232C236.61 57.552 236.106 57.816 235.562 58.024L237.89 64H233.858L232.058 58.624H230.45L229.394 64H225.554L228.674 48.4H233.81ZM243.369 48.4H247.065L249.225 55.792L249.993 59.296H250.089C250.121 58.88 250.153 58.424 250.185 57.928C250.217 57.432 250.257 56.928 250.305 56.416C250.353 55.904 250.409 55.392 250.473 54.88C250.537 54.352 250.617 53.856 250.713 53.392L251.721 48.4H255.369L252.249 64H248.553L246.393 56.608L245.673 53.104H245.577C245.497 54 245.409 54.968 245.313 56.008C245.233 57.032 245.097 58.016 244.905 58.96L243.897 64H240.249L243.369 48.4ZM259.025 48.4H268.529L267.905 51.616H262.193L261.665 54.352H266.513L265.889 57.568H261.041L260.369 60.784H266.273L265.649 64H255.905L259.025 48.4ZM273.908 46.384C274.084 46.896 274.26 47.448 274.436 48.04C274.612 48.632 274.764 49.248 274.892 49.888C275.036 50.528 275.148 51.184 275.228 51.856C275.308 52.528 275.348 53.184 275.348 53.824C275.348 55.216 275.228 56.536 274.988 57.784C274.748 59.032 274.388 60.248 273.908 61.432C273.428 62.6 272.836 63.744 272.132 64.864C271.428 66 270.612 67.152 269.684 68.32L267.476 67.216C269.172 64.928 270.396 62.656 271.148 60.4C271.9 58.128 272.276 55.856 272.276 53.584C272.276 53.088 272.26 52.568 272.228 52.024C272.196 51.48 272.148 50.936 272.084 50.392C272.02 49.832 271.932 49.296 271.82 48.784C271.724 48.272 271.604 47.808 271.46 47.392L273.908 46.384ZM280.237 56.608C279.661 56.608 279.197 56.424 278.845 56.056C278.493 55.688 278.317 55.2 278.317 54.592C278.317 54.272 278.381 53.952 278.509 53.632C278.637 53.312 278.813 53.024 279.037 52.768C279.277 52.512 279.557 52.304 279.877 52.144C280.197 51.984 280.557 51.904 280.957 51.904C281.533 51.904 281.997 52.096 282.349 52.48C282.701 52.864 282.877 53.344 282.877 53.92C282.877 54.256 282.813 54.584 282.685 54.904C282.557 55.224 282.373 55.512 282.133 55.768C281.909 56.024 281.637 56.232 281.317 56.392C280.997 56.536 280.637 56.608 280.237 56.608ZM278.941 64.288C278.365 64.288 277.901 64.104 277.549 63.736C277.197 63.368 277.021 62.88 277.021 62.272C277.021 61.952 277.085 61.632 277.213 61.312C277.341 60.992 277.517 60.704 277.741 60.448C277.981 60.192 278.261 59.984 278.581 59.824C278.901 59.664 279.261 59.584 279.661 59.584C280.237 59.584 280.701 59.776 281.053 60.16C281.405 60.544 281.581 61.024 281.581 61.6C281.581 61.936 281.517 62.264 281.389 62.584C281.261 62.904 281.077 63.192 280.837 63.448C280.613 63.704 280.341 63.904 280.021 64.048C279.701 64.208 279.341 64.288 278.941 64.288Z" fill="#0386D7"/>
</svg>
