<svg width="314" height="202" viewBox="0 0 314 202" fill="none" xmlns="http://www.w3.org/2000/svg">
<rect width="314" height="202" rx="9" fill="white"/>
<path d="M30.44 101V90.504H36.488V91.64H31.784V94.92H35.752V96.056H31.784V99.864H36.648V101H30.44ZM40.7815 101.192C39.6455 101.192 38.6055 100.776 37.8855 100.072L38.4935 99.304C39.1655 99.864 39.8695 100.152 40.8295 100.152C41.8535 100.152 42.3495 99.624 42.3495 98.952C42.3495 98.152 41.4855 97.816 40.6055 97.496C39.4375 97.08 38.3175 96.52 38.3175 95.24C38.3175 93.992 39.3095 93.032 41.0055 93.032C41.9815 93.032 42.8135 93.4 43.4215 93.912L42.8135 94.68C42.2695 94.28 41.7095 94.056 41.0215 94.056C40.0295 94.056 39.5975 94.6 39.5975 95.176C39.5975 95.88 40.2695 96.168 41.2455 96.504C42.4615 96.936 43.6295 97.464 43.6295 98.872C43.6295 100.136 42.6215 101.192 40.7815 101.192ZM50.4478 101.192C49.1518 101.192 48.1758 100.392 48.1758 98.984C48.1758 97.256 49.6158 96.424 52.9438 96.056C52.9278 95.08 52.6078 94.136 51.3438 94.136C50.4478 94.136 49.6318 94.536 49.0238 94.936L48.5118 94.04C49.2318 93.56 50.3198 93.032 51.5677 93.032C53.4558 93.032 54.2718 94.296 54.2718 96.216V101H53.1838L53.0558 100.072H53.0078C52.2718 100.696 51.4238 101.192 50.4478 101.192ZM50.8158 100.104C51.5677 100.104 52.1918 99.768 52.9438 99.112V97C50.3198 97.304 49.4718 97.896 49.4718 98.904C49.4718 99.768 50.0638 100.104 50.8158 100.104ZM61.6463 104.28V101.512L61.7103 100.104C61.0863 100.712 60.2703 101.192 59.3743 101.192C57.4223 101.192 56.1583 99.72 56.1583 97.128C56.1583 94.6 57.7582 93.032 59.5343 93.032C60.4303 93.032 61.0543 93.352 61.7423 93.96H61.7903L61.9183 93.224H62.9743V104.28H61.6463ZM59.6623 100.072C60.3823 100.072 61.0063 99.72 61.6463 99.016V94.952C60.9903 94.36 60.3983 94.152 59.7583 94.152C58.5263 94.152 57.5343 95.336 57.5343 97.112C57.5343 98.968 58.3023 100.072 59.6623 100.072ZM67.8653 101.192C66.2173 101.192 65.4813 100.136 65.4813 98.152V93.224H66.8093V97.976C66.8093 99.416 67.2573 100.04 68.2812 100.04C69.0653 100.04 69.6253 99.64 70.3453 98.728V93.224H71.6733V101H70.5853L70.4733 99.784H70.4253C69.7053 100.632 68.9373 101.192 67.8653 101.192ZM77.4324 101.192C75.3524 101.192 73.7204 99.688 73.7204 97.112C73.7204 94.584 75.4324 93.032 77.2084 93.032C79.1924 93.032 80.3284 94.44 80.3284 96.68C80.3284 96.968 80.3124 97.208 80.2644 97.464H75.0324C75.1444 99.064 76.1204 100.12 77.5924 100.12C78.3444 100.12 79.0004 99.912 79.5444 99.544L80.0084 100.392C79.3364 100.872 78.5044 101.192 77.4324 101.192ZM75.0324 96.44H79.1444C79.1444 94.904 78.4244 94.088 77.2404 94.088C76.1524 94.088 75.1924 94.952 75.0324 96.44ZM83.6259 101.192C82.6339 101.192 82.2339 100.552 82.2339 99.432V89.608H83.5619V99.528C83.5619 99.944 83.7379 100.088 83.9459 100.088C84.0259 100.088 84.0899 100.088 84.2179 100.056L84.3939 101.048C84.2019 101.144 83.9619 101.192 83.6259 101.192ZM87.704 101.192C86.712 101.192 86.312 100.552 86.312 99.432V89.608H87.64V99.528C87.64 99.944 87.816 100.088 88.024 100.088C88.104 100.088 88.168 100.088 88.296 100.056L88.472 101.048C88.28 101.144 88.04 101.192 87.704 101.192ZM92.1821 101.192C90.8861 101.192 89.9101 100.392 89.9101 98.984C89.9101 97.256 91.3501 96.424 94.6781 96.056C94.6621 95.08 94.3421 94.136 93.0781 94.136C92.1821 94.136 91.3661 94.536 90.7581 94.936L90.2461 94.04C90.9661 93.56 92.0541 93.032 93.3021 93.032C95.1901 93.032 96.0061 94.296 96.0061 96.216V101H94.9181L94.7901 100.072H94.7421C94.0061 100.696 93.1581 101.192 92.1821 101.192ZM92.5501 100.104C93.3021 100.104 93.9261 99.768 94.6781 99.112V97C92.0541 97.304 91.2061 97.896 91.2061 98.904C91.2061 99.768 91.7981 100.104 92.5501 100.104ZM104.728 101.192C102.664 101.192 101.08 99.704 101.08 97.128C101.08 94.52 102.824 93.032 104.824 93.032C105.848 93.032 106.552 93.432 107.096 93.944L106.44 94.776C106.008 94.376 105.512 94.136 104.888 94.136C103.48 94.136 102.456 95.336 102.456 97.128C102.456 98.904 103.416 100.088 104.84 100.088C105.56 100.088 106.2 99.768 106.664 99.352L107.24 100.2C106.536 100.84 105.656 101.192 104.728 101.192ZM111.633 101.192C109.729 101.192 108.033 99.704 108.033 97.128C108.033 94.52 109.729 93.032 111.633 93.032C113.537 93.032 115.249 94.52 115.249 97.128C115.249 99.704 113.537 101.192 111.633 101.192ZM111.633 100.088C112.977 100.088 113.873 98.904 113.873 97.128C113.873 95.336 112.977 94.136 111.633 94.136C110.305 94.136 109.409 95.336 109.409 97.128C109.409 98.904 110.305 100.088 111.633 100.088ZM117.281 101V93.224H118.369L118.481 94.344H118.529C119.265 93.608 120.065 93.032 121.137 93.032C122.785 93.032 123.521 94.088 123.521 96.072V101H122.193V96.248C122.193 94.792 121.745 94.184 120.721 94.184C119.937 94.184 119.377 94.584 118.609 95.368V101H117.281ZM129.234 101V93.224H130.322L130.434 94.344H130.482C131.17 93.608 131.97 93.032 132.898 93.032C134.098 93.032 134.738 93.592 135.058 94.504C135.858 93.64 136.674 93.032 137.618 93.032C139.218 93.032 139.986 94.088 139.986 96.072V101H138.658V96.248C138.658 94.792 138.194 94.184 137.218 94.184C136.61 94.184 135.986 94.568 135.266 95.368V101H133.938V96.248C133.938 94.792 133.49 94.184 132.498 94.184C131.922 94.184 131.282 94.568 130.562 95.368V101H129.234ZM144.292 101.192C142.996 101.192 142.02 100.392 142.02 98.984C142.02 97.256 143.46 96.424 146.788 96.056C146.772 95.08 146.452 94.136 145.188 94.136C144.292 94.136 143.476 94.536 142.868 94.936L142.356 94.04C143.076 93.56 144.164 93.032 145.411 93.032C147.3 93.032 148.116 94.296 148.116 96.216V101H147.028L146.9 100.072H146.852C146.116 100.696 145.268 101.192 144.292 101.192ZM144.66 100.104C145.411 100.104 146.036 99.768 146.788 99.112V97C144.164 97.304 143.316 97.896 143.316 98.904C143.316 99.768 143.908 100.104 144.66 100.104ZM150.562 101V93.224H151.65L151.762 94.344H151.81C152.546 93.608 153.346 93.032 154.418 93.032C156.066 93.032 156.802 94.088 156.802 96.072V101H155.474V96.248C155.474 94.792 155.026 94.184 154.002 94.184C153.218 94.184 152.658 94.584 151.89 95.368V101H150.562ZM159.312 101V93.224H160.64V101H159.312ZM159.984 91.624C159.472 91.624 159.104 91.288 159.104 90.76C159.104 90.248 159.472 89.896 159.984 89.896C160.496 89.896 160.864 90.248 160.864 90.76C160.864 91.288 160.496 91.624 159.984 91.624ZM163.489 101V94.296H162.433V93.304L163.489 93.224V92.008C163.489 90.424 164.209 89.416 165.761 89.416C166.241 89.416 166.737 89.528 167.057 89.672L166.769 90.648C166.465 90.552 166.177 90.488 165.905 90.488C165.169 90.488 164.817 91.016 164.817 92.008V93.224H166.449V94.296H164.817V101H163.489ZM170.917 101.192C168.837 101.192 167.205 99.688 167.205 97.112C167.205 94.584 168.917 93.032 170.693 93.032C172.677 93.032 173.813 94.44 173.813 96.68C173.813 96.968 173.797 97.208 173.749 97.464H168.517C168.629 99.064 169.605 100.12 171.077 100.12C171.829 100.12 172.485 99.912 173.029 99.544L173.493 100.392C172.821 100.872 171.989 101.192 170.917 101.192ZM168.517 96.44H172.629C172.629 94.904 171.909 94.088 170.725 94.088C169.637 94.088 168.677 94.952 168.517 96.44ZM177.75 101.192C176.614 101.192 175.574 100.776 174.854 100.072L175.462 99.304C176.134 99.864 176.838 100.152 177.798 100.152C178.822 100.152 179.318 99.624 179.318 98.952C179.318 98.152 178.454 97.816 177.574 97.496C176.406 97.08 175.286 96.52 175.286 95.24C175.286 93.992 176.278 93.032 177.974 93.032C178.95 93.032 179.782 93.4 180.39 93.912L179.782 94.68C179.238 94.28 178.678 94.056 177.99 94.056C176.998 94.056 176.566 94.6 176.566 95.176C176.566 95.88 177.238 96.168 178.214 96.504C179.43 96.936 180.598 97.464 180.598 98.872C180.598 100.136 179.59 101.192 177.75 101.192ZM184.557 101.192C182.893 101.192 182.333 100.136 182.333 98.584V94.296H181.181V93.304L182.397 93.224L182.557 90.728H183.661V93.224H185.773V94.296H183.661V98.616C183.661 99.56 183.981 100.104 184.861 100.104C185.149 100.104 185.437 100.056 185.757 99.912L186.029 100.856C185.613 101.048 185.085 101.192 184.557 101.192ZM188.979 101.192C187.683 101.192 186.707 100.392 186.707 98.984C186.707 97.256 188.147 96.424 191.475 96.056C191.459 95.08 191.139 94.136 189.875 94.136C188.979 94.136 188.163 94.536 187.555 94.936L187.043 94.04C187.763 93.56 188.851 93.032 190.099 93.032C191.987 93.032 192.803 94.296 192.803 96.216V101H191.715L191.587 100.072H191.539C190.803 100.696 189.955 101.192 188.979 101.192ZM189.347 100.104C190.099 100.104 190.723 99.768 191.475 99.112V97C188.851 97.304 188.003 97.896 188.003 98.904C188.003 99.768 188.595 100.104 189.347 100.104ZM198.322 101.192C196.258 101.192 194.674 99.704 194.674 97.128C194.674 94.52 196.418 93.032 198.418 93.032C199.442 93.032 200.146 93.432 200.69 93.944L200.034 94.776C199.602 94.376 199.106 94.136 198.482 94.136C197.074 94.136 196.049 95.336 196.049 97.128C196.049 98.904 197.01 100.088 198.434 100.088C199.154 100.088 199.794 99.768 200.258 99.352L200.834 100.2C200.13 100.84 199.25 101.192 198.322 101.192ZM202.546 101V93.224H203.874V101H202.546ZM203.218 91.624C202.706 91.624 202.338 91.288 202.338 90.76C202.338 90.248 202.706 89.896 203.218 89.896C203.73 89.896 204.098 90.248 204.098 90.76C204.098 91.288 203.73 91.624 203.218 91.624ZM209.524 101.192C207.62 101.192 205.924 99.704 205.924 97.128C205.924 94.52 207.62 93.032 209.524 93.032C211.428 93.032 213.14 94.52 213.14 97.128C213.14 99.704 211.428 101.192 209.524 101.192ZM209.524 100.088C210.868 100.088 211.764 98.904 211.764 97.128C211.764 95.336 210.868 94.136 209.524 94.136C208.196 94.136 207.299 95.336 207.299 97.128C207.299 98.904 208.196 100.088 209.524 100.088ZM215.171 101V93.224H216.259L216.371 94.344H216.419C217.155 93.608 217.955 93.032 219.027 93.032C220.675 93.032 221.411 94.088 221.411 96.072V101H220.083V96.248C220.083 94.792 219.635 94.184 218.611 94.184C217.827 94.184 217.267 94.584 216.499 95.368V101H215.171ZM227.057 101.192C224.977 101.192 223.345 99.688 223.345 97.112C223.345 94.584 225.057 93.032 226.833 93.032C228.817 93.032 229.953 94.44 229.953 96.68C229.953 96.968 229.937 97.208 229.889 97.464H224.657C224.769 99.064 225.745 100.12 227.217 100.12C227.969 100.12 228.625 99.912 229.169 99.544L229.633 100.392C228.961 100.872 228.129 101.192 227.057 101.192ZM224.657 96.44H228.769C228.769 94.904 228.049 94.088 226.865 94.088C225.777 94.088 224.817 94.952 224.657 96.44ZM233.891 101.192C232.755 101.192 231.715 100.776 230.995 100.072L231.603 99.304C232.275 99.864 232.979 100.152 233.939 100.152C234.963 100.152 235.459 99.624 235.459 98.952C235.459 98.152 234.595 97.816 233.715 97.496C232.547 97.08 231.427 96.52 231.427 95.24C231.427 93.992 232.419 93.032 234.115 93.032C235.091 93.032 235.923 93.4 236.531 93.912L235.923 94.68C235.379 94.28 234.819 94.056 234.131 94.056C233.139 94.056 232.707 94.6 232.707 95.176C232.707 95.88 233.379 96.168 234.355 96.504C235.571 96.936 236.739 97.464 236.739 98.872C236.739 100.136 235.731 101.192 233.891 101.192ZM33.384 124.192C31.32 124.192 29.736 122.704 29.736 120.128C29.736 117.52 31.48 116.032 33.48 116.032C34.504 116.032 35.208 116.432 35.752 116.944L35.096 117.776C34.664 117.376 34.168 117.136 33.544 117.136C32.136 117.136 31.112 118.336 31.112 120.128C31.112 121.904 32.072 123.088 33.496 123.088C34.216 123.088 34.856 122.768 35.32 122.352L35.896 123.2C35.192 123.84 34.312 124.192 33.384 124.192ZM39.0009 124.192C38.0089 124.192 37.6089 123.552 37.6089 122.432V112.608H38.9369V122.528C38.9369 122.944 39.1129 123.088 39.3209 123.088C39.4009 123.088 39.4649 123.088 39.5929 123.056L39.7689 124.048C39.5769 124.144 39.3369 124.192 39.0009 124.192ZM41.687 124V116.224H43.015V124H41.687ZM41.671 114.832L40.999 114.16L43.719 111.504L44.535 112.384L41.671 114.832ZM45.6401 124V116.224H46.7281L46.8401 117.344H46.8881C47.6241 116.608 48.4241 116.032 49.4961 116.032C51.1441 116.032 51.8801 117.088 51.8801 119.072V124H50.5521V119.248C50.5521 117.792 50.1041 117.184 49.0801 117.184C48.2961 117.184 47.7361 117.584 46.9681 118.368V124H45.6401ZM54.3901 124V116.224H55.7181V124H54.3901ZM55.0621 114.624C54.5501 114.624 54.1821 114.288 54.1821 113.76C54.1821 113.248 54.5501 112.896 55.0621 112.896C55.5741 112.896 55.9421 113.248 55.9421 113.76C55.9421 114.288 55.5741 114.624 55.0621 114.624ZM61.4153 124.192C59.3513 124.192 57.7673 122.704 57.7673 120.128C57.7673 117.52 59.5113 116.032 61.5113 116.032C62.5353 116.032 63.2393 116.432 63.7833 116.944L63.1273 117.776C62.6953 117.376 62.1993 117.136 61.5753 117.136C60.1673 117.136 59.1432 118.336 59.1432 120.128C59.1432 121.904 60.1033 123.088 61.5273 123.088C62.2473 123.088 62.8873 122.768 63.3513 122.352L63.9273 123.2C63.2233 123.84 62.3433 124.192 61.4153 124.192ZM67.2759 124.192C65.9799 124.192 65.0039 123.392 65.0039 121.984C65.0039 120.256 66.4439 119.424 69.7719 119.056C69.7559 118.08 69.4359 117.136 68.1719 117.136C67.2759 117.136 66.4599 117.536 65.8519 117.936L65.3399 117.04C66.0599 116.56 67.1479 116.032 68.3959 116.032C70.2839 116.032 71.0999 117.296 71.0999 119.216V124H70.0119L69.8839 123.072H69.8359C69.0999 123.696 68.2519 124.192 67.2759 124.192ZM67.6439 123.104C68.3959 123.104 69.0199 122.768 69.7719 122.112V120C67.1479 120.304 66.2999 120.896 66.2999 121.904C66.2999 122.768 66.8919 123.104 67.6439 123.104ZM75.5784 124.192C74.4424 124.192 73.4024 123.776 72.6824 123.072L73.2904 122.304C73.9624 122.864 74.6664 123.152 75.6264 123.152C76.6504 123.152 77.1464 122.624 77.1464 121.952C77.1464 121.152 76.2824 120.816 75.4024 120.496C74.2344 120.08 73.1144 119.52 73.1144 118.24C73.1144 116.992 74.1064 116.032 75.8024 116.032C76.7784 116.032 77.6104 116.4 78.2184 116.912L77.6104 117.68C77.0664 117.28 76.5064 117.056 75.8184 117.056C74.8264 117.056 74.3944 117.6 74.3944 118.176C74.3944 118.88 75.0664 119.168 76.0424 119.504C77.2584 119.936 78.4264 120.464 78.4264 121.872C78.4264 123.136 77.4184 124.192 75.5784 124.192ZM83.5966 127.344C83.2286 127.344 82.9246 127.28 82.6686 127.184L82.9566 126.144C83.1486 126.208 83.3406 126.24 83.5326 126.24C84.3966 126.24 84.9566 125.552 85.2766 124.592L85.4526 124.016L82.3326 116.224H83.7086L85.2766 120.512C85.5326 121.184 85.7886 121.984 86.0446 122.704H86.1086C86.3166 122 86.5406 121.2 86.7486 120.512L88.1406 116.224H89.4366L86.5086 124.64C85.9646 126.176 85.1486 127.344 83.5966 127.344ZM94.1401 127.28V116.224H95.2281L95.3401 117.12H95.3881C96.0921 116.528 96.9721 116.032 97.8681 116.032C99.8681 116.032 100.956 117.584 100.956 120C100.956 122.64 99.3561 124.192 97.5801 124.192C96.8761 124.192 96.1401 123.856 95.4361 123.296L95.4681 124.656V127.28H94.1401ZM97.3561 123.072C98.6361 123.072 99.5801 121.92 99.5801 120C99.5801 118.288 98.9881 117.152 97.5321 117.152C96.8761 117.152 96.2201 117.504 95.4681 118.208V122.272C96.1721 122.864 96.8441 123.072 97.3561 123.072ZM103.015 124V116.224H104.103L104.215 117.632H104.263C104.807 116.656 105.607 116.032 106.471 116.032C106.823 116.032 107.063 116.08 107.303 116.192L107.015 117.328C106.791 117.264 106.615 117.232 106.311 117.232C105.655 117.232 104.871 117.696 104.343 119.008V124H103.015ZM111.557 124.192C109.477 124.192 107.845 122.688 107.845 120.112C107.845 117.584 109.557 116.032 111.333 116.032C113.317 116.032 114.453 117.44 114.453 119.68C114.453 119.968 114.437 120.208 114.389 120.464H109.157C109.269 122.064 110.245 123.12 111.717 123.12C112.469 123.12 113.125 122.912 113.669 122.544L114.133 123.392C113.461 123.872 112.629 124.192 111.557 124.192ZM109.157 119.44H113.269C113.269 117.904 112.549 117.088 111.365 117.088C110.277 117.088 109.317 117.952 109.157 119.44ZM118.391 124.192C117.255 124.192 116.215 123.776 115.495 123.072L116.103 122.304C116.775 122.864 117.479 123.152 118.439 123.152C119.463 123.152 119.959 122.624 119.959 121.952C119.959 121.152 119.095 120.816 118.215 120.496C117.047 120.08 115.927 119.52 115.927 118.24C115.927 116.992 116.919 116.032 118.615 116.032C119.591 116.032 120.423 116.4 121.031 116.912L120.423 117.68C119.879 117.28 119.319 117.056 118.631 117.056C117.639 117.056 117.207 117.6 117.207 118.176C117.207 118.88 117.879 119.168 118.855 119.504C120.071 119.936 121.239 120.464 121.239 121.872C121.239 123.136 120.231 124.192 118.391 124.192ZM126.198 124.192C124.118 124.192 122.486 122.688 122.486 120.112C122.486 117.584 124.198 116.032 125.974 116.032C127.958 116.032 129.094 117.44 129.094 119.68C129.094 119.968 129.078 120.208 129.03 120.464H123.798C123.91 122.064 124.886 123.12 126.358 123.12C127.11 123.12 127.766 122.912 128.31 122.544L128.774 123.392C128.102 123.872 127.27 124.192 126.198 124.192ZM123.798 119.44H127.91C127.91 117.904 127.19 117.088 126.006 117.088C124.918 117.088 123.958 117.952 123.798 119.44ZM131 124V116.224H132.088L132.2 117.344H132.248C132.984 116.608 133.784 116.032 134.856 116.032C136.504 116.032 137.24 117.088 137.24 119.072V124H135.912V119.248C135.912 117.792 135.464 117.184 134.44 117.184C133.656 117.184 133.096 117.584 132.328 118.368V124H131ZM142.822 124.192C140.758 124.192 139.174 122.704 139.174 120.128C139.174 117.52 140.918 116.032 142.918 116.032C143.942 116.032 144.646 116.432 145.19 116.944L144.534 117.776C144.102 117.376 143.606 117.136 142.982 117.136C141.574 117.136 140.549 118.336 140.549 120.128C140.549 121.904 141.51 123.088 142.934 123.088C143.654 123.088 144.294 122.768 144.758 122.352L145.334 123.2C144.63 123.84 143.75 124.192 142.822 124.192ZM147.046 124V116.224H148.374V124H147.046ZM147.718 114.624C147.206 114.624 146.838 114.288 146.838 113.76C146.838 113.248 147.206 112.896 147.718 112.896C148.23 112.896 148.598 113.248 148.598 113.76C148.598 114.288 148.23 114.624 147.718 114.624ZM152.792 124.192C151.496 124.192 150.52 123.392 150.52 121.984C150.52 120.256 151.96 119.424 155.288 119.056C155.272 118.08 154.952 117.136 153.688 117.136C152.792 117.136 151.976 117.536 151.368 117.936L150.856 117.04C151.576 116.56 152.664 116.032 153.911 116.032C155.8 116.032 156.616 117.296 156.616 119.216V124H155.528L155.4 123.072H155.352C154.616 123.696 153.768 124.192 152.792 124.192ZM153.16 123.104C153.911 123.104 154.536 122.768 155.288 122.112V120C152.664 120.304 151.816 120.896 151.816 121.904C151.816 122.768 152.408 123.104 153.16 123.104ZM164.921 124.192C162.969 124.192 161.705 122.72 161.705 120.128C161.705 117.6 163.305 116.032 165.081 116.032C165.977 116.032 166.569 116.368 167.257 116.928L167.193 115.6V112.608H168.521V124H167.433L167.321 123.088H167.273C166.665 123.68 165.833 124.192 164.921 124.192ZM165.209 123.072C165.929 123.072 166.553 122.72 167.193 122.016V117.952C166.537 117.36 165.945 117.152 165.305 117.152C164.073 117.152 163.081 118.336 163.081 120.112C163.081 121.968 163.849 123.072 165.209 123.072ZM174.276 124.192C172.196 124.192 170.564 122.688 170.564 120.112C170.564 117.584 172.276 116.032 174.052 116.032C176.036 116.032 177.172 117.44 177.172 119.68C177.172 119.968 177.156 120.208 177.108 120.464H171.876C171.988 122.064 172.964 123.12 174.436 123.12C175.188 123.12 175.844 122.912 176.388 122.544L176.852 123.392C176.18 123.872 175.348 124.192 174.276 124.192ZM171.876 119.44H175.988C175.988 117.904 175.268 117.088 174.084 117.088C172.996 117.088 172.036 117.952 171.876 119.44ZM185.417 124.192C183.337 124.192 181.705 122.688 181.705 120.112C181.705 117.584 183.417 116.032 185.193 116.032C187.177 116.032 188.313 117.44 188.313 119.68C188.313 119.968 188.297 120.208 188.249 120.464H183.017C183.129 122.064 184.105 123.12 185.577 123.12C186.329 123.12 186.985 122.912 187.529 122.544L187.993 123.392C187.321 123.872 186.489 124.192 185.417 124.192ZM183.017 119.44H187.129C187.129 117.904 186.409 117.088 185.225 117.088C184.137 117.088 183.177 117.952 183.017 119.44ZM190.218 124V116.224H191.306L191.418 117.632H191.466C192.01 116.656 192.81 116.032 193.674 116.032C194.026 116.032 194.266 116.08 194.506 116.192L194.218 117.328C193.994 117.264 193.818 117.232 193.514 117.232C192.858 117.232 192.074 117.696 191.546 119.008V124H190.218ZM198.649 124.192C196.745 124.192 195.049 122.704 195.049 120.128C195.049 117.52 196.745 116.032 198.649 116.032C200.553 116.032 202.265 117.52 202.265 120.128C202.265 122.704 200.553 124.192 198.649 124.192ZM198.649 123.088C199.993 123.088 200.889 121.904 200.889 120.128C200.889 118.336 199.993 117.136 198.649 117.136C197.321 117.136 196.424 118.336 196.424 120.128C196.424 121.904 197.321 123.088 198.649 123.088ZM206.328 124.192C205.192 124.192 204.152 123.776 203.432 123.072L204.04 122.304C204.712 122.864 205.416 123.152 206.376 123.152C207.4 123.152 207.896 122.624 207.896 121.952C207.896 121.152 207.032 120.816 206.152 120.496C204.984 120.08 203.864 119.52 203.864 118.24C203.864 116.992 204.856 116.032 206.552 116.032C207.528 116.032 208.36 116.4 208.968 116.912L208.36 117.68C207.816 117.28 207.256 117.056 206.568 117.056C205.576 117.056 205.144 117.6 205.144 118.176C205.144 118.88 205.816 119.168 206.792 119.504C208.008 119.936 209.176 120.464 209.176 121.872C209.176 123.136 208.168 124.192 206.328 124.192ZM211 124V116.224H212.328V124H211ZM211.672 114.624C211.16 114.624 210.792 114.288 210.792 113.76C210.792 113.248 211.16 112.896 211.672 112.896C212.184 112.896 212.552 113.248 212.552 113.76C212.552 114.288 212.184 114.624 211.672 114.624ZM217.977 124.192C216.073 124.192 214.377 122.704 214.377 120.128C214.377 117.52 216.073 116.032 217.977 116.032C219.881 116.032 221.593 117.52 221.593 120.128C221.593 122.704 219.881 124.192 217.977 124.192ZM217.977 123.088C219.321 123.088 220.217 121.904 220.217 120.128C220.217 118.336 219.321 117.136 217.977 117.136C216.649 117.136 215.753 118.336 215.753 120.128C215.753 121.904 216.649 123.088 217.977 123.088ZM223.625 124V116.224H224.713L224.825 117.344H224.873C225.609 116.608 226.409 116.032 227.481 116.032C229.129 116.032 229.865 117.088 229.865 119.072V124H228.537V119.248C228.537 117.792 228.089 117.184 227.065 117.184C226.281 117.184 225.721 117.584 224.953 118.368V124H223.625ZM235.511 124.192C233.431 124.192 231.799 122.688 231.799 120.112C231.799 117.584 233.511 116.032 235.286 116.032C237.271 116.032 238.407 117.44 238.407 119.68C238.407 119.968 238.391 120.208 238.343 120.464H233.111C233.223 122.064 234.199 123.12 235.671 123.12C236.423 123.12 237.079 122.912 237.623 122.544L238.087 123.392C237.415 123.872 236.583 124.192 235.511 124.192ZM233.111 119.44H237.223C237.223 117.904 236.503 117.088 235.319 117.088C234.231 117.088 233.271 117.952 233.111 119.44ZM242.344 124.192C241.208 124.192 240.168 123.776 239.448 123.072L240.056 122.304C240.728 122.864 241.432 123.152 242.392 123.152C243.416 123.152 243.912 122.624 243.912 121.952C243.912 121.152 243.048 120.816 242.168 120.496C241 120.08 239.88 119.52 239.88 118.24C239.88 116.992 240.872 116.032 242.568 116.032C243.544 116.032 244.376 116.4 244.984 116.912L244.376 117.68C243.832 117.28 243.272 117.056 242.584 117.056C241.592 117.056 241.16 117.6 241.16 118.176C241.16 118.88 241.832 119.168 242.808 119.504C244.024 119.936 245.192 120.464 245.192 121.872C245.192 123.136 244.184 124.192 242.344 124.192ZM252.49 124.192C250.842 124.192 250.106 123.136 250.106 121.152V116.224H251.434V120.976C251.434 122.416 251.882 123.04 252.906 123.04C253.69 123.04 254.25 122.64 254.97 121.728V116.224H256.298V124H255.21L255.098 122.784H255.05C254.33 123.632 253.562 124.192 252.49 124.192ZM33.336 147.192C31.432 147.192 29.736 145.704 29.736 143.128C29.736 140.52 31.432 139.032 33.336 139.032C35.24 139.032 36.952 140.52 36.952 143.128C36.952 145.704 35.24 147.192 33.336 147.192ZM33.336 146.088C34.68 146.088 35.576 144.904 35.576 143.128C35.576 141.336 34.68 140.136 33.336 140.136C32.008 140.136 31.112 141.336 31.112 143.128C31.112 144.904 32.008 146.088 33.336 146.088ZM41.1663 147.192C39.5023 147.192 38.9423 146.136 38.9423 144.584V140.296H37.7903V139.304L39.0063 139.224L39.1663 136.728H40.2703V139.224H42.3823V140.296H40.2703V144.616C40.2703 145.56 40.5903 146.104 41.4703 146.104C41.7583 146.104 42.0463 146.056 42.3663 145.912L42.6383 146.856C42.2223 147.048 41.6943 147.192 41.1663 147.192ZM44.1401 147V139.224H45.2281L45.3401 140.632H45.3881C45.9321 139.656 46.7321 139.032 47.5961 139.032C47.9481 139.032 48.1881 139.08 48.4281 139.192L48.1401 140.328C47.9161 140.264 47.7401 140.232 47.4361 140.232C46.7801 140.232 45.9961 140.696 45.4681 142.008V147H44.1401ZM51.104 147.192C49.808 147.192 48.832 146.392 48.832 144.984C48.832 143.256 50.272 142.424 53.6 142.056C53.584 141.08 53.264 140.136 52 140.136C51.104 140.136 50.288 140.536 49.68 140.936L49.168 140.04C49.888 139.56 50.976 139.032 52.224 139.032C54.112 139.032 54.928 140.296 54.928 142.216V147H53.84L53.712 146.072H53.664C52.928 146.696 52.08 147.192 51.104 147.192ZM51.472 146.104C52.224 146.104 52.848 145.768 53.6 145.112V143C50.976 143.304 50.128 143.896 50.128 144.904C50.128 145.768 50.72 146.104 51.472 146.104ZM59.4065 147.192C58.2705 147.192 57.2305 146.776 56.5105 146.072L57.1185 145.304C57.7905 145.864 58.4945 146.152 59.4545 146.152C60.4785 146.152 60.9745 145.624 60.9745 144.952C60.9745 144.152 60.1105 143.816 59.2305 143.496C58.0625 143.08 56.9425 142.52 56.9425 141.24C56.9425 139.992 57.9345 139.032 59.6305 139.032C60.6065 139.032 61.4385 139.4 62.0465 139.912L61.4385 140.68C60.8945 140.28 60.3345 140.056 59.6465 140.056C58.6545 140.056 58.2225 140.6 58.2225 141.176C58.2225 141.88 58.8945 142.168 59.8705 142.504C61.0865 142.936 62.2545 143.464 62.2545 144.872C62.2545 146.136 61.2465 147.192 59.4065 147.192ZM68.6728 147.192C67.6808 147.192 67.2808 146.552 67.2808 145.432V135.608H68.6088V145.528C68.6088 145.944 68.7848 146.088 68.9928 146.088C69.0728 146.088 69.1368 146.088 69.2648 146.056L69.4408 147.048C69.2488 147.144 69.0088 147.192 68.6728 147.192ZM74.4949 147.192C72.4149 147.192 70.7829 145.688 70.7829 143.112C70.7829 140.584 72.4949 139.032 74.2709 139.032C76.2549 139.032 77.3909 140.44 77.3909 142.68C77.3909 142.968 77.3749 143.208 77.3269 143.464H72.0949C72.2069 145.064 73.1829 146.12 74.6549 146.12C75.4069 146.12 76.0629 145.912 76.6069 145.544L77.0709 146.392C76.3989 146.872 75.5669 147.192 74.4949 147.192ZM72.0949 142.44H76.2069C76.2069 140.904 75.4869 140.088 74.3029 140.088C73.2149 140.088 72.2549 140.952 72.0949 142.44ZM81.3284 147.192C80.1924 147.192 79.1524 146.776 78.4324 146.072L79.0404 145.304C79.7124 145.864 80.4164 146.152 81.3764 146.152C82.4004 146.152 82.8964 145.624 82.8964 144.952C82.8964 144.152 82.0324 143.816 81.1524 143.496C79.9844 143.08 78.8644 142.52 78.8644 141.24C78.8644 139.992 79.8564 139.032 81.5524 139.032C82.5284 139.032 83.3604 139.4 83.9684 139.912L83.3604 140.68C82.8164 140.28 82.2564 140.056 81.5684 140.056C80.5764 140.056 80.1444 140.6 80.1444 141.176C80.1444 141.88 80.8164 142.168 81.7924 142.504C83.0084 142.936 84.1764 143.464 84.1764 144.872C84.1764 146.136 83.1684 147.192 81.3284 147.192ZM85.9995 147V139.224H87.3275V147H85.9995ZM86.6715 137.624C86.1595 137.624 85.7915 137.288 85.7915 136.76C85.7915 136.248 86.1595 135.896 86.6715 135.896C87.1835 135.896 87.5515 136.248 87.5515 136.76C87.5515 137.288 87.1835 137.624 86.6715 137.624ZM92.9766 147.192C91.0726 147.192 89.3766 145.704 89.3766 143.128C89.3766 140.52 91.0726 139.032 92.9766 139.032C94.8806 139.032 96.5926 140.52 96.5926 143.128C96.5926 145.704 94.8806 147.192 92.9766 147.192ZM92.9766 146.088C94.3206 146.088 95.2166 144.904 95.2166 143.128C95.2166 141.336 94.3206 140.136 92.9766 140.136C91.6486 140.136 90.7526 141.336 90.7526 143.128C90.7526 144.904 91.6486 146.088 92.9766 146.088ZM98.6245 147V139.224H99.7125L99.8245 140.344H99.8725C100.609 139.608 101.409 139.032 102.481 139.032C104.129 139.032 104.865 140.088 104.865 142.072V147H103.537V142.248C103.537 140.792 103.089 140.184 102.065 140.184C101.281 140.184 100.721 140.584 99.9525 141.368V147H98.6245ZM110.511 147.192C108.431 147.192 106.799 145.688 106.799 143.112C106.799 140.584 108.511 139.032 110.286 139.032C112.271 139.032 113.407 140.44 113.407 142.68C113.407 142.968 113.391 143.208 113.343 143.464H108.111C108.223 145.064 109.199 146.12 110.671 146.12C111.423 146.12 112.079 145.912 112.623 145.544L113.087 146.392C112.415 146.872 111.583 147.192 110.511 147.192ZM108.111 142.44H112.223C112.223 140.904 111.503 140.088 110.319 140.088C109.231 140.088 108.271 140.952 108.111 142.44ZM117.344 147.192C116.208 147.192 115.168 146.776 114.448 146.072L115.056 145.304C115.728 145.864 116.432 146.152 117.392 146.152C118.416 146.152 118.912 145.624 118.912 144.952C118.912 144.152 118.048 143.816 117.168 143.496C116 143.08 114.88 142.52 114.88 141.24C114.88 139.992 115.872 139.032 117.568 139.032C118.544 139.032 119.376 139.4 119.984 139.912L119.376 140.68C118.832 140.28 118.272 140.056 117.584 140.056C116.592 140.056 116.16 140.6 116.16 141.176C116.16 141.88 116.832 142.168 117.808 142.504C119.024 142.936 120.192 143.464 120.192 144.872C120.192 146.136 119.184 147.192 117.344 147.192ZM128.354 147.192C126.274 147.192 124.642 145.688 124.642 143.112C124.642 140.584 126.354 139.032 128.13 139.032C130.114 139.032 131.25 140.44 131.25 142.68C131.25 142.968 131.234 143.208 131.186 143.464H125.954C126.066 145.064 127.042 146.12 128.514 146.12C129.266 146.12 129.922 145.912 130.466 145.544L130.93 146.392C130.258 146.872 129.426 147.192 128.354 147.192ZM125.954 142.44H130.066C130.066 140.904 129.346 140.088 128.162 140.088C127.074 140.088 126.114 140.952 125.954 142.44ZM133.156 147V139.224H134.244L134.356 140.344H134.404C135.14 139.608 135.94 139.032 137.012 139.032C138.66 139.032 139.396 140.088 139.396 142.072V147H138.068V142.248C138.068 140.792 137.62 140.184 136.596 140.184C135.812 140.184 135.252 140.584 134.484 141.368V147H133.156ZM146.501 147.192C145.509 147.192 145.109 146.552 145.109 145.432V135.608H146.437V145.528C146.437 145.944 146.613 146.088 146.821 146.088C146.901 146.088 146.965 146.088 147.093 146.056L147.269 147.048C147.077 147.144 146.837 147.192 146.501 147.192ZM150.979 147.192C149.683 147.192 148.707 146.392 148.707 144.984C148.707 143.256 150.147 142.424 153.475 142.056C153.459 141.08 153.139 140.136 151.875 140.136C150.979 140.136 150.163 140.536 149.555 140.936L149.043 140.04C149.763 139.56 150.851 139.032 152.099 139.032C153.987 139.032 154.803 140.296 154.803 142.216V147H153.715L153.587 146.072H153.539C152.803 146.696 151.955 147.192 150.979 147.192ZM151.347 146.104C152.099 146.104 152.723 145.768 153.475 145.112V143C150.851 143.304 150.003 143.896 150.003 144.904C150.003 145.768 150.595 146.104 151.347 146.104ZM163.589 147.192C161.509 147.192 159.877 145.688 159.877 143.112C159.877 140.584 161.589 139.032 163.365 139.032C165.349 139.032 166.485 140.44 166.485 142.68C166.485 142.968 166.469 143.208 166.421 143.464H161.189C161.301 145.064 162.277 146.12 163.749 146.12C164.501 146.12 165.157 145.912 165.701 145.544L166.165 146.392C165.493 146.872 164.661 147.192 163.589 147.192ZM161.189 142.44H165.301C165.301 140.904 164.581 140.088 163.397 140.088C162.309 140.088 161.349 140.952 161.189 142.44ZM168.39 147V139.224H169.478L169.59 140.344H169.638C170.374 139.608 171.174 139.032 172.246 139.032C173.894 139.032 174.63 140.088 174.63 142.072V147H173.302V142.248C173.302 140.792 172.854 140.184 171.83 140.184C171.046 140.184 170.486 140.584 169.718 141.368V147H168.39ZM179.796 147.192C177.844 147.192 176.58 145.72 176.58 143.128C176.58 140.6 178.18 139.032 179.956 139.032C180.852 139.032 181.444 139.368 182.132 139.928L182.068 138.6V135.608H183.396V147H182.308L182.196 146.088H182.148C181.54 146.68 180.708 147.192 179.796 147.192ZM180.084 146.072C180.804 146.072 181.428 145.72 182.068 145.016V140.952C181.412 140.36 180.82 140.152 180.18 140.152C178.948 140.152 177.956 141.336 177.956 143.112C177.956 144.968 178.724 146.072 180.084 146.072ZM189.039 147.192C187.135 147.192 185.439 145.704 185.439 143.128C185.439 140.52 187.135 139.032 189.039 139.032C190.943 139.032 192.655 140.52 192.655 143.128C192.655 145.704 190.943 147.192 189.039 147.192ZM189.039 146.088C190.383 146.088 191.279 144.904 191.279 143.128C191.279 141.336 190.383 140.136 189.039 140.136C187.711 140.136 186.815 141.336 186.815 143.128C186.815 144.904 187.711 146.088 189.039 146.088ZM196.719 147.192C195.583 147.192 194.543 146.776 193.823 146.072L194.431 145.304C195.103 145.864 195.807 146.152 196.767 146.152C197.791 146.152 198.287 145.624 198.287 144.952C198.287 144.152 197.423 143.816 196.543 143.496C195.375 143.08 194.255 142.52 194.255 141.24C194.255 139.992 195.247 139.032 196.943 139.032C197.919 139.032 198.751 139.4 199.359 139.912L198.751 140.68C198.207 140.28 197.647 140.056 196.959 140.056C195.967 140.056 195.535 140.6 195.535 141.176C195.535 141.88 196.207 142.168 197.183 142.504C198.399 142.936 199.567 143.464 199.567 144.872C199.567 146.136 198.559 147.192 196.719 147.192ZM204.462 147.192C202.398 147.192 200.814 145.704 200.814 143.128C200.814 140.52 202.558 139.032 204.558 139.032C205.582 139.032 206.286 139.432 206.83 139.944L206.174 140.776C205.742 140.376 205.246 140.136 204.622 140.136C203.214 140.136 202.19 141.336 202.19 143.128C202.19 144.904 203.15 146.088 204.574 146.088C205.294 146.088 205.934 145.768 206.398 145.352L206.974 146.2C206.27 146.84 205.39 147.192 204.462 147.192ZM211.367 147.192C209.463 147.192 207.767 145.704 207.767 143.128C207.767 140.52 209.463 139.032 211.367 139.032C213.271 139.032 214.983 140.52 214.983 143.128C214.983 145.704 213.271 147.192 211.367 147.192ZM211.367 146.088C212.711 146.088 213.607 144.904 213.607 143.128C213.607 141.336 212.711 140.136 211.367 140.136C210.039 140.136 209.143 141.336 209.143 143.128C209.143 144.904 210.039 146.088 211.367 146.088ZM217.015 150.28V139.224H218.103L218.215 140.12H218.263C218.967 139.528 219.847 139.032 220.743 139.032C222.743 139.032 223.831 140.584 223.831 143C223.831 145.64 222.231 147.192 220.455 147.192C219.751 147.192 219.015 146.856 218.311 146.296L218.343 147.656V150.28H217.015ZM220.231 146.072C221.511 146.072 222.455 144.92 222.455 143C222.455 141.288 221.863 140.152 220.407 140.152C219.751 140.152 219.095 140.504 218.343 141.208V145.272C219.047 145.864 219.719 146.072 220.231 146.072ZM225.89 147V139.224H227.218V147H225.89ZM225.874 137.832L225.202 137.16L227.922 134.504L228.738 135.384L225.874 137.832ZM231.635 147.192C230.339 147.192 229.363 146.392 229.363 144.984C229.363 143.256 230.803 142.424 234.131 142.056C234.115 141.08 233.795 140.136 232.531 140.136C231.635 140.136 230.819 140.536 230.211 140.936L229.699 140.04C230.419 139.56 231.507 139.032 232.755 139.032C234.643 139.032 235.459 140.296 235.459 142.216V147H234.371L234.243 146.072H234.195C233.459 146.696 232.611 147.192 231.635 147.192ZM232.003 146.104C232.755 146.104 233.379 145.768 234.131 145.112V143C231.507 143.304 230.659 143.896 230.659 144.904C230.659 145.768 231.251 146.104 232.003 146.104ZM238.594 147.192C238.066 147.192 237.634 146.776 237.634 146.184C237.634 145.576 238.066 145.16 238.594 145.16C239.122 145.16 239.554 145.576 239.554 146.184C239.554 146.776 239.122 147.192 238.594 147.192ZM241.426 140.696V140.104C243.362 138.36 244.386 137.384 244.386 136.44C244.386 135.64 243.922 135.128 243.186 135.128C242.658 135.128 242.194 135.528 241.842 136.04L241.234 135.48C241.714 134.76 242.466 134.264 243.314 134.264C244.562 134.264 245.394 134.968 245.394 136.28C245.394 137.48 244.418 138.456 243.09 139.816H245.714V140.696H241.426Z" fill="#091663"/>
<path d="M89.2088 48.4H98.7128L98.0888 51.616H92.3768L91.8488 54.352H96.6968L96.0728 57.568H91.2248L90.5528 60.784H96.4568L95.8328 64H86.0888L89.2088 48.4ZM104.476 55.6H105.868C106.908 55.6 107.676 55.376 108.172 54.928C108.684 54.464 108.94 53.856 108.94 53.104C108.94 52.528 108.74 52.104 108.34 51.832C107.956 51.56 107.404 51.424 106.684 51.424H105.292L104.476 55.6ZM107.212 48.4C107.996 48.4 108.724 48.472 109.396 48.616C110.068 48.76 110.652 49 111.148 49.336C111.644 49.656 112.028 50.08 112.3 50.608C112.588 51.136 112.732 51.776 112.732 52.528C112.732 53.248 112.636 53.904 112.444 54.496C112.268 55.072 112.012 55.592 111.676 56.056C111.34 56.504 110.94 56.896 110.476 57.232C110.012 57.552 109.508 57.816 108.964 58.024L111.292 64H107.26L105.46 58.624H103.852L102.796 64H98.956L102.076 48.4H107.212ZM114.371 57.664C114.371 56.272 114.595 54.992 115.043 53.824C115.491 52.656 116.099 51.648 116.867 50.8C117.651 49.952 118.563 49.296 119.603 48.832C120.659 48.352 121.795 48.112 123.011 48.112C124.051 48.112 124.947 48.336 125.699 48.784C126.451 49.216 127.059 49.84 127.523 50.656L124.931 52.672C124.643 52.24 124.331 51.928 123.995 51.736C123.675 51.528 123.283 51.424 122.819 51.424C122.195 51.424 121.603 51.584 121.043 51.904C120.499 52.208 120.019 52.632 119.603 53.176C119.203 53.704 118.883 54.336 118.643 55.072C118.419 55.808 118.307 56.592 118.307 57.424C118.307 58.56 118.539 59.448 119.003 60.088C119.483 60.712 120.275 61.024 121.379 61.024C121.603 61.024 121.835 60.992 122.075 60.928C122.331 60.864 122.547 60.768 122.723 60.64L123.299 58.048H120.995L121.571 54.928H127.235L125.747 62.656C125.139 63.12 124.395 63.512 123.515 63.832C122.651 64.136 121.715 64.288 120.707 64.288C119.731 64.288 118.851 64.144 118.067 63.856C117.299 63.552 116.635 63.12 116.075 62.56C115.531 62 115.107 61.312 114.803 60.496C114.515 59.664 114.371 58.72 114.371 57.664ZM131.654 48.4H141.158L140.534 51.616H134.822L134.294 54.352H139.142L138.518 57.568H133.67L132.998 60.784H138.902L138.278 64H128.534L131.654 48.4ZM146.206 59.104C146.206 58 146.406 57 146.806 56.104C147.206 55.192 147.726 54.416 148.366 53.776C149.022 53.12 149.75 52.616 150.55 52.264C151.366 51.896 152.174 51.712 152.974 51.712C153.71 51.712 154.326 51.832 154.822 52.072C155.334 52.312 155.742 52.64 156.046 53.056C156.366 53.472 156.598 53.96 156.742 54.52C156.886 55.064 156.958 55.648 156.958 56.272C156.958 56.576 156.926 56.88 156.862 57.184C156.814 57.488 156.75 57.776 156.67 58.048C156.606 58.304 156.534 58.536 156.454 58.744C156.39 58.936 156.334 59.072 156.286 59.152H149.806C149.838 59.952 150.086 60.528 150.55 60.88C151.014 61.232 151.598 61.408 152.302 61.408C152.638 61.408 152.99 61.328 153.358 61.168C153.726 61.008 154.046 60.832 154.318 60.64L155.662 63.04C155.182 63.376 154.566 63.672 153.814 63.928C153.062 64.168 152.19 64.288 151.198 64.288C150.462 64.288 149.79 64.168 149.182 63.928C148.574 63.688 148.046 63.344 147.598 62.896C147.166 62.448 146.822 61.904 146.566 61.264C146.326 60.624 146.206 59.904 146.206 59.104ZM153.742 56.848C153.774 56.752 153.798 56.64 153.814 56.512C153.83 56.368 153.838 56.224 153.838 56.08C153.838 55.664 153.742 55.32 153.55 55.048C153.358 54.776 153.006 54.64 152.494 54.64C152.03 54.64 151.582 54.816 151.15 55.168C150.718 55.52 150.366 56.08 150.094 56.848H153.742ZM160.173 52H163.293L163.197 54.352H163.293C163.757 53.584 164.309 52.952 164.949 52.456C165.605 51.96 166.269 51.712 166.941 51.712C167.277 51.712 167.541 51.736 167.733 51.784C167.941 51.816 168.109 51.872 168.237 51.952L166.989 55.264C166.813 55.168 166.605 55.112 166.365 55.096C166.141 55.08 165.933 55.072 165.741 55.072C165.229 55.072 164.749 55.24 164.301 55.576C163.869 55.912 163.421 56.48 162.957 57.28L161.661 64H157.821L160.173 52ZM172.428 64.288C171.708 64.288 171.052 64.168 170.46 63.928C169.868 63.688 169.364 63.352 168.948 62.92C168.532 62.472 168.204 61.944 167.964 61.336C167.74 60.728 167.628 60.048 167.628 59.296C167.628 58.128 167.828 57.08 168.228 56.152C168.628 55.208 169.148 54.408 169.788 53.752C170.444 53.096 171.172 52.592 171.972 52.24C172.788 51.888 173.612 51.712 174.444 51.712C175.164 51.712 175.82 51.832 176.412 52.072C177.004 52.312 177.508 52.656 177.924 53.104C178.34 53.536 178.66 54.064 178.884 54.688C179.124 55.296 179.244 55.968 179.244 56.704C179.244 57.872 179.044 58.928 178.644 59.872C178.244 60.8 177.716 61.592 177.06 62.248C176.42 62.904 175.692 63.408 174.876 63.76C174.076 64.112 173.26 64.288 172.428 64.288ZM174.012 54.784C173.66 54.784 173.332 54.896 173.028 55.12C172.724 55.344 172.46 55.656 172.236 56.056C172.012 56.44 171.836 56.912 171.708 57.472C171.58 58.016 171.516 58.608 171.516 59.248C171.516 59.856 171.62 60.336 171.828 60.688C172.052 61.04 172.396 61.216 172.86 61.216C173.212 61.216 173.54 61.104 173.844 60.88C174.148 60.656 174.412 60.352 174.636 59.968C174.86 59.568 175.036 59.096 175.164 58.552C175.292 58.008 175.356 57.408 175.356 56.752C175.356 56.144 175.244 55.664 175.02 55.312C174.812 54.96 174.476 54.784 174.012 54.784ZM181.933 60.112C182.365 60.624 182.781 60.984 183.181 61.192C183.581 61.4 183.965 61.504 184.333 61.504C184.701 61.504 185.013 61.432 185.269 61.288C185.541 61.128 185.677 60.928 185.677 60.688C185.677 60.528 185.629 60.392 185.533 60.28C185.437 60.168 185.301 60.056 185.125 59.944C184.965 59.816 184.757 59.688 184.501 59.56C184.245 59.432 183.965 59.28 183.661 59.104C183.373 58.944 183.085 58.752 182.797 58.528C182.525 58.304 182.277 58.056 182.053 57.784C181.845 57.496 181.677 57.184 181.549 56.848C181.421 56.512 181.357 56.144 181.357 55.744C181.357 55.168 181.485 54.64 181.741 54.16C181.997 53.664 182.341 53.24 182.773 52.888C183.205 52.52 183.717 52.232 184.309 52.024C184.901 51.816 185.533 51.712 186.205 51.712C187.069 51.712 187.837 51.904 188.509 52.288C189.181 52.656 189.773 53.104 190.285 53.632L188.221 55.6C187.933 55.312 187.621 55.064 187.285 54.856C186.949 54.648 186.589 54.544 186.205 54.544C185.821 54.544 185.517 54.632 185.293 54.808C185.069 54.968 184.957 55.168 184.957 55.408C184.957 55.584 185.013 55.736 185.125 55.864C185.237 55.976 185.381 56.088 185.557 56.2C185.749 56.312 185.957 56.424 186.181 56.536C186.421 56.648 186.653 56.768 186.877 56.896C187.165 57.056 187.453 57.24 187.741 57.448C188.029 57.64 188.285 57.872 188.509 58.144C188.733 58.416 188.917 58.728 189.061 59.08C189.205 59.416 189.277 59.808 189.277 60.256C189.277 60.864 189.149 61.416 188.893 61.912C188.637 62.392 188.277 62.816 187.813 63.184C187.365 63.536 186.821 63.808 186.181 64C185.541 64.192 184.845 64.288 184.093 64.288C183.741 64.288 183.365 64.24 182.965 64.144C182.565 64.048 182.165 63.904 181.765 63.712C181.381 63.52 181.005 63.28 180.637 62.992C180.285 62.688 179.981 62.336 179.725 61.936L181.933 60.112ZM192.916 52H196.756L194.356 64H190.516L192.916 52ZM195.46 50.464C195.204 50.464 194.956 50.432 194.716 50.368C194.476 50.288 194.26 50.176 194.068 50.032C193.876 49.888 193.724 49.704 193.612 49.48C193.5 49.256 193.444 48.992 193.444 48.688C193.444 48.4 193.5 48.128 193.612 47.872C193.74 47.6 193.908 47.368 194.116 47.176C194.324 46.984 194.564 46.832 194.836 46.72C195.124 46.592 195.428 46.528 195.748 46.528C196.004 46.528 196.252 46.568 196.492 46.648C196.732 46.728 196.948 46.84 197.14 46.984C197.332 47.128 197.484 47.312 197.596 47.536C197.708 47.76 197.764 48.016 197.764 48.304C197.764 48.928 197.54 49.448 197.092 49.864C196.66 50.264 196.116 50.464 195.46 50.464ZM198.397 52H202.237L202.477 57.472C202.509 58.08 202.525 58.688 202.525 59.296C202.525 59.904 202.525 60.528 202.525 61.168H202.621C202.893 60.544 203.149 59.928 203.389 59.32C203.629 58.712 203.885 58.096 204.157 57.472L206.509 52H210.253L204.253 64H199.837L198.397 52ZM214.569 64.288C213.849 64.288 213.193 64.168 212.601 63.928C212.009 63.688 211.505 63.352 211.089 62.92C210.673 62.472 210.345 61.944 210.105 61.336C209.881 60.728 209.769 60.048 209.769 59.296C209.769 58.128 209.969 57.08 210.369 56.152C210.769 55.208 211.289 54.408 211.929 53.752C212.585 53.096 213.313 52.592 214.113 52.24C214.929 51.888 215.753 51.712 216.585 51.712C217.305 51.712 217.961 51.832 218.553 52.072C219.145 52.312 219.649 52.656 220.065 53.104C220.481 53.536 220.801 54.064 221.025 54.688C221.265 55.296 221.385 55.968 221.385 56.704C221.385 57.872 221.185 58.928 220.785 59.872C220.385 60.8 219.857 61.592 219.201 62.248C218.561 62.904 217.833 63.408 217.017 63.76C216.217 64.112 215.401 64.288 214.569 64.288ZM216.153 54.784C215.801 54.784 215.473 54.896 215.169 55.12C214.865 55.344 214.601 55.656 214.377 56.056C214.153 56.44 213.977 56.912 213.849 57.472C213.721 58.016 213.657 58.608 213.657 59.248C213.657 59.856 213.761 60.336 213.969 60.688C214.193 61.04 214.537 61.216 215.001 61.216C215.353 61.216 215.681 61.104 215.985 60.88C216.289 60.656 216.553 60.352 216.777 59.968C217.001 59.568 217.177 59.096 217.305 58.552C217.433 58.008 217.497 57.408 217.497 56.752C217.497 56.144 217.385 55.664 217.161 55.312C216.953 54.96 216.617 54.784 216.153 54.784ZM225.897 56.608C225.321 56.608 224.857 56.424 224.505 56.056C224.153 55.688 223.977 55.2 223.977 54.592C223.977 54.272 224.041 53.952 224.169 53.632C224.297 53.312 224.473 53.024 224.697 52.768C224.937 52.512 225.217 52.304 225.537 52.144C225.857 51.984 226.217 51.904 226.617 51.904C227.193 51.904 227.657 52.096 228.009 52.48C228.361 52.864 228.537 53.344 228.537 53.92C228.537 54.256 228.473 54.584 228.345 54.904C228.217 55.224 228.033 55.512 227.793 55.768C227.569 56.024 227.297 56.232 226.977 56.392C226.657 56.536 226.297 56.608 225.897 56.608ZM224.601 64.288C224.025 64.288 223.561 64.104 223.209 63.736C222.857 63.368 222.681 62.88 222.681 62.272C222.681 61.952 222.745 61.632 222.873 61.312C223.001 60.992 223.177 60.704 223.401 60.448C223.641 60.192 223.921 59.984 224.241 59.824C224.561 59.664 224.921 59.584 225.321 59.584C225.897 59.584 226.361 59.776 226.713 60.16C227.065 60.544 227.241 61.024 227.241 61.6C227.241 61.936 227.177 62.264 227.049 62.584C226.921 62.904 226.737 63.192 226.497 63.448C226.273 63.704 226.001 63.904 225.681 64.048C225.361 64.208 225.001 64.288 224.601 64.288Z" fill="#0386D7"/>
</svg>
