<svg xmlns="http://www.w3.org/2000/svg" width="201.218" height="148.785" viewBox="0 0 201.218 148.785">
  <defs>
    <style>
      .cls-1 {
        fill: #a0a0a0;
        stroke: #a0a0a0;
      }
    </style>
  </defs>
  <g id="Grupo_2348" data-name="Grupo 2348" transform="translate(0.5 0.5)">
    <g id="Grupo_2347" data-name="Grupo 2347">
      <path id="Trazado_1195" data-name="Trazado 1195" class="cls-1" d="M-43.385,615.776H-58.806a10.808,10.808,0,0,0-10.8,10.8v15.421a10.807,10.807,0,0,0,10.8,10.794h5.14v4.627h-50.889v-4.627h5.142A10.8,10.8,0,0,0-88.62,641.992V626.572a10.807,10.807,0,0,0-10.794-10.8h-15.421a10.808,10.808,0,0,0-10.8,10.8v15.421a10.807,10.807,0,0,0,10.8,10.794h4.11V660.5a3.085,3.085,0,0,0,3.085,3.083h11.567v5.654h-5.142a10.808,10.808,0,0,0-10.8,10.794v15.423a10.807,10.807,0,0,0,10.8,10.794h5.268v4.627h-74.279v-4.627h5.27a10.807,10.807,0,0,0,10.8-10.794V680.03a10.808,10.808,0,0,0-10.8-10.794h-4.369v-5.654h11.565a3.085,3.085,0,0,0,3.085-3.083v-7.712h4.112a10.8,10.8,0,0,0,10.794-10.794V626.572a10.807,10.807,0,0,0-10.794-10.8h-15.423a10.808,10.808,0,0,0-10.794,10.8v15.421a10.806,10.806,0,0,0,10.794,10.794h5.142v4.627h-50.889v-4.627h5.14a10.807,10.807,0,0,0,10.8-10.794V626.572a10.808,10.808,0,0,0-10.8-10.8h-15.421a10.807,10.807,0,0,0-10.794,10.8v15.421a10.8,10.8,0,0,0,10.794,10.794h4.112V660.5a3.085,3.085,0,0,0,3.083,3.083h39.325v5.654h-4.883A10.806,10.806,0,0,0-191.17,680.03v15.423a10.8,10.8,0,0,0,10.794,10.794h3.984v7.71a3.084,3.084,0,0,0,3.083,3.085h37.138V724.5h-25.958a10.8,10.8,0,0,0-10.794,10.794v17.477a10.8,10.8,0,0,0,10.794,10.794h58.085a10.807,10.807,0,0,0,10.8-10.794V735.29a10.807,10.807,0,0,0-10.8-10.794H-130v-7.454h37.14a3.084,3.084,0,0,0,3.083-3.085v-7.71h3.984A10.8,10.8,0,0,0-75,695.453V680.03a10.806,10.806,0,0,0-10.794-10.794h-4.112v-5.654h39.325A3.083,3.083,0,0,0-47.5,660.5v-7.712h4.112a10.807,10.807,0,0,0,10.8-10.794V626.572A10.808,10.808,0,0,0-43.385,615.776Zm-76.077,26.217V626.572a4.632,4.632,0,0,1,4.627-4.627h15.421a4.631,4.631,0,0,1,4.625,4.627v15.421a4.631,4.631,0,0,1-4.625,4.627h-15.421A4.632,4.632,0,0,1-119.462,641.992Zm-51.148,0V626.572a4.631,4.631,0,0,1,4.625-4.627h15.423a4.631,4.631,0,0,1,4.625,4.627v15.421a4.631,4.631,0,0,1-4.625,4.627h-15.423A4.631,4.631,0,0,1-170.609,641.992Zm-56.029,0V626.572a4.631,4.631,0,0,1,4.625-4.627h15.421a4.632,4.632,0,0,1,4.627,4.627v15.421a4.632,4.632,0,0,1-4.627,4.627h-15.421A4.631,4.631,0,0,1-226.638,641.992ZM-185,695.453V680.03a4.631,4.631,0,0,1,4.627-4.625h15.421a4.631,4.631,0,0,1,4.627,4.625v15.423a4.631,4.631,0,0,1-4.627,4.625h-15.421A4.631,4.631,0,0,1-185,695.453Zm85.587,39.837v17.477a4.632,4.632,0,0,1-4.627,4.627h-58.085a4.631,4.631,0,0,1-4.625-4.627V735.29a4.631,4.631,0,0,1,4.625-4.627h58.085A4.632,4.632,0,0,1-99.416,735.29Zm18.248-55.26v15.423a4.63,4.63,0,0,1-4.625,4.625h-15.421a4.63,4.63,0,0,1-4.627-4.625V680.03a4.63,4.63,0,0,1,4.627-4.625h15.421A4.63,4.63,0,0,1-81.168,680.03Zm42.41-38.037a4.633,4.633,0,0,1-4.627,4.627H-58.806a4.633,4.633,0,0,1-4.627-4.627V626.572a4.633,4.633,0,0,1,4.627-4.627h15.421a4.633,4.633,0,0,1,4.627,4.627Z" transform="translate(232.807 -615.776)"/>
    </g>
  </g>
</svg>
