<svg xmlns="http://www.w3.org/2000/svg" width="113.899" height="173.399" viewBox="0 0 113.899 173.399">
  <defs>
    <style>
      .cls-1 {
        fill: #a0a0a0;
        stroke: #a0a0a0;
        stroke-miterlimit: 10;
        stroke-width: 2px;
      }
    </style>
  </defs>
  <g id="Grupo_2366" data-name="Grupo 2366" transform="translate(1 1.005)">
    <path id="Trazado_1206" data-name="Trazado 1206" class="cls-1" d="M190.525,616.549a12.7,12.7,0,0,1,.376-3.228,1.453,1.453,0,1,0-2.811-.739,15.6,15.6,0,0,0-.473,3.958,14.4,14.4,0,0,0,2.026,7.71,11.456,11.456,0,0,1,1.684,6.337,11.608,11.608,0,0,1-1.718,6.365,14.566,14.566,0,0,0-2.058,7.724,1.453,1.453,0,0,0,1.45,1.458h0a1.454,1.454,0,0,0,1.454-1.45,11.6,11.6,0,0,1,1.716-6.365,14.529,14.529,0,0,0,2.058-7.724,14.377,14.377,0,0,0-2.024-7.71A11.456,11.456,0,0,1,190.525,616.549Z" transform="translate(-82.334 -607.342)"/>
    <path id="Trazado_1207" data-name="Trazado 1207" class="cls-1" d="M183.639,641.749a1.452,1.452,0,0,0,1.45,1.456h0a1.451,1.451,0,0,0,1.452-1.45,9.062,9.062,0,0,1,1.676-5.436,11.871,11.871,0,0,0,2.1-6.934,11.739,11.739,0,0,0-2.066-6.92,8.916,8.916,0,0,1-1.648-5.406,9.058,9.058,0,0,1,1.676-5.432,1.453,1.453,0,0,0-2.485-1.508,11.869,11.869,0,0,0-2.1,6.932,11.728,11.728,0,0,0,2.068,6.92,8.936,8.936,0,0,1,1.646,5.408,9.056,9.056,0,0,1-1.676,5.434A11.878,11.878,0,0,0,183.639,641.749Z" transform="translate(-86.256 -609.422)"/>
    <path id="Trazado_1208" data-name="Trazado 1208" class="cls-1" d="M240.857,640.836H188.005V629.814a8.2,8.2,0,0,0-8.189-8.191h-.535a8.207,8.207,0,0,0-7.883,5.964,8.183,8.183,0,0,0-6.571-2.116c-3.97.5-7.152,4.082-6.95,7.745l-.022,7.62h-4.779a3.421,3.421,0,0,0-3.384,3.452V651.9a3.421,3.421,0,0,0,3.384,3.452h4.737l-.08,27.78a61.681,61.681,0,0,1-.851,10.017c-.571,3.392-1.085,6.4-1.516,8.894l-2.387-12.329C151.275,673.277,143.329,672,140.932,672a6.689,6.689,0,0,0-4.769,1.856A3.9,3.9,0,0,0,135,676.763c.116,1.343,2.887,32.982,4.235,39.195,1.88,8.669,7.943,14.93,12.812,19.958,3.246,3.352,6.049,6.245,7.038,9.062a4.412,4.412,0,0,1,.232,1.47v15.307a3.645,3.645,0,0,0,2.511,3.472,73.247,73.247,0,0,0,22.124,3.364h0a70.719,70.719,0,0,0,21.75-3.372,3.659,3.659,0,0,0,2.509-3.584c-.1-3.189-.292-10.948.04-14.091.354-3.34,1.484-5.442,2.913-8.107a45.622,45.622,0,0,0,5.1-13.665c2.571-12.276,1.107-27.025.965-28.373a25.166,25.166,0,0,0-.34-4.283,8.152,8.152,0,0,0,.34-2.321v-23.46A8.144,8.144,0,0,0,209.1,659.2h-1.249a8.126,8.126,0,0,0-6.681,3.508,8.133,8.133,0,0,0-6.683-3.508h-1.249a8.1,8.1,0,0,0-5.23,1.912v-5.758h52.851a3.7,3.7,0,0,0,3.7-3.7v-7.118A3.7,3.7,0,0,0,240.857,640.836Zm.8,10.818a.8.8,0,0,1-.8.795H238.77v-8.707h2.086a.8.8,0,0,1,.8.795ZM194.484,662.1a5.236,5.236,0,0,1,5.23,5.23v23.46a5.236,5.236,0,0,1-5.23,5.23h-1.249a5.236,5.236,0,0,1-5.23-5.23v-23.46a5.236,5.236,0,0,1,5.23-5.23Zm13.365,0H209.1a5.236,5.236,0,0,1,5.23,5.23v23.46a5.236,5.236,0,0,1-5.23,5.23h-1.249a5.236,5.236,0,0,1-5.23-5.23v-23.46A5.236,5.236,0,0,1,207.849,662.1ZM185.1,687.142v3.652a8.145,8.145,0,0,0,8.135,8.135h1.249a8.132,8.132,0,0,0,6.683-3.508,8.126,8.126,0,0,0,6.681,3.508H209.1a8.1,8.1,0,0,0,5.22-1.9c0,.154.01.292.01.45a1.371,1.371,0,0,0,.008.158c.068.623,1.632,15.387-.913,27.54a42.489,42.489,0,0,1-4.815,12.888c-1.518,2.827-2.829,5.268-3.242,9.174-.34,3.2-.18,10.453-.054,14.488a.738.738,0,0,1-.5.729,67.768,67.768,0,0,1-20.857,3.232h0a70.17,70.17,0,0,1-21.219-3.219.745.745,0,0,1-.513-.711V746.447a7.276,7.276,0,0,0-.4-2.433c-1.2-3.418-4.209-6.523-7.69-10.121-4.853-5.012-10.355-10.69-12.059-18.55-1.309-6.035-4.152-38.506-4.177-38.762a1.052,1.052,0,0,1,.352-.711,3.775,3.775,0,0,1,2.677-.965c3.678,0,8.015,3.982,9.164,15.165v.006c0,.044.012.086.02.13l3.131,16.172a2.2,2.2,0,0,0,4.325-.036c.513-2.933,1.273-7.34,2.176-12.708a64.582,64.582,0,0,0,.891-10.491l.142-50a5.053,5.053,0,0,1,4.409-4.785,5.233,5.233,0,0,1,5.886,4.9l0,.042v53.875a1.453,1.453,0,1,0,2.905,0V655.354H185.1v31.789ZM152.6,651.9v-7.614a.518.518,0,0,1,.479-.547h4.771l-.026,8.707h-4.745A.517.517,0,0,1,152.6,651.9Zm27.218-27.372a5.29,5.29,0,0,1,5.284,5.284v11.022H173.978v-7.1a1.555,1.555,0,0,0,.02-.2v-3.728a5.29,5.29,0,0,1,5.284-5.284Zm-5.838,19.211h4.052v8.707h-4.052Zm6.96,8.707v-8.707h54.926v8.707Z" transform="translate(-135 -597.195)"/>
  </g>
</svg>
