<svg xmlns="http://www.w3.org/2000/svg" width="144.336" height="133.737" viewBox="0 0 144.336 133.737">
  <defs>
    <style>
      .cls-1 {
        fill: #a0a0a0;
        stroke: #a0a0a0;
        stroke-miterlimit: 10;
        stroke-width: 2px;
      }
    </style>
  </defs>
  <g id="Libra_Icon" data-name="Libra Icon" transform="translate(1.02 1)">
    <g id="Grupo_2349" data-name="Grupo 2349">
      <path id="Trazado_1196" data-name="Trazado 1196" class="cls-1" d="M27.321,751.069H-60.134a18.8,18.8,0,0,1-18.774-17.015l-8.523-86.544a25.71,25.71,0,0,1,6.525-19.751,25.707,25.707,0,0,1,19.015-8.427H29.079a25.665,25.665,0,0,1,25.54,28.179l-8.525,86.544A18.8,18.8,0,0,1,27.321,751.069ZM-61.892,622.754a22.275,22.275,0,0,0-16.48,7.3,22.287,22.287,0,0,0-5.656,17.117l8.525,86.544a15.392,15.392,0,0,0,15.369,13.929H27.321A15.392,15.392,0,0,0,42.69,733.718l8.523-86.544a22.242,22.242,0,0,0-22.134-24.421Z" transform="translate(87.554 -619.332)"/>
      <path id="Trazado_1197" data-name="Trazado 1197" class="cls-1" d="M-38.316,660.754a70.391,70.391,0,0,1-18.1-2.08c-6.153-1.718-9.272-4.307-9.272-7.7A27.407,27.407,0,0,1-38.316,623.6a27.405,27.405,0,0,1,27.374,27.374C-10.942,658.194-25.688,660.754-38.316,660.754Zm0-33.729a23.979,23.979,0,0,0-23.952,23.952c0,3.057,9.156,6.355,23.952,6.355s23.952-3.3,23.952-6.355A23.98,23.98,0,0,0-38.316,627.026Z" transform="translate(109.464 -615.051)"/>
      <path id="Trazado_1198" data-name="Trazado 1198" class="cls-1" d="M-51.163,645.9a1.707,1.707,0,0,1-1.209-.5,1.711,1.711,0,0,1,0-2.421l12.1-12.1a1.709,1.709,0,0,1,2.419,0,1.709,1.709,0,0,1,0,2.419l-12.1,12.1A1.714,1.714,0,0,1-51.163,645.9Z" transform="translate(122.311 -608.26)"/>
    </g>
  </g>
</svg>
