<svg xmlns="http://www.w3.org/2000/svg" width="77.273" height="165.507" viewBox="0 0 77.273 165.507">
  <defs>
    <style>
      .cls-1, .cls-2 {
        fill: #a0a0a0;
        stroke: #a0a0a0;
      }

      .cls-2 {
        stroke-miterlimit: 10;
        stroke-width: 0.5px;
      }
    </style>
  </defs>
  <g id="Grupo_2367" data-name="Grupo 2367" transform="translate(0.309 0.25)">
    <path id="Trazado_1209" data-name="Trazado 1209" class="cls-1" d="M369.754,670.721V706.49a3.637,3.637,0,0,1-3.666,3.6h-1.071a3.639,3.639,0,0,1-3.668-3.6V670.721H354.66V706.49A10.3,10.3,0,0,0,365.017,716.7h1.071a10.294,10.294,0,0,0,10.355-10.209V670.721Z" transform="translate(-330.994 -551.942)"/>
    <path id="Trazado_1210" data-name="Trazado 1210" class="cls-2" d="M411.979,670.06a26.626,26.626,0,0,0-13.867-21.836l-.909-4.283a19.928,19.928,0,0,0-7.046-11.384,20.48,20.48,0,0,0-25.52,0,19.939,19.939,0,0,0-7.046,11.384l-14.752,69.5h76.667ZM381.6,708.345H349.209l13.449-63.361a14.686,14.686,0,0,1,3.938-7.256,15.127,15.127,0,0,1,21.6,0,14.671,14.671,0,0,1,3.938,7.256l1.416,6.665,1.125.551a21.551,21.551,0,0,1,12.139,18.262l.008.154,6.547,37.729H381.6Z" transform="translate(-342.84 -594.66)"/>
    <path id="Trazado_1211" data-name="Trazado 1211" class="cls-2" d="M368,644.3a16.455,16.455,0,1,1,16.71-16.454A16.6,16.6,0,0,1,368,644.3Zm0-27.812a11.36,11.36,0,1,0,11.535,11.358A11.462,11.462,0,0,0,368,616.49Z" transform="translate(-334.373 -611.396)"/>
    <path id="Trazado_1212" data-name="Trazado 1212" class="cls-2" d="M364.021,680.632h-.7a7.148,7.148,0,0,1-7.2-7.084V641.86a7.148,7.148,0,0,1,7.2-7.084h.7a7.148,7.148,0,0,1,7.2,7.084v31.688A7.148,7.148,0,0,1,364.021,680.632Zm-.7-40.76a2.005,2.005,0,0,0-2.02,1.988v31.688a2.005,2.005,0,0,0,2.02,1.988h.7a2.005,2.005,0,0,0,2.02-1.988V641.86a2.005,2.005,0,0,0-2.02-1.988Z" transform="translate(-329.529 -587.965)"/>
  </g>
</svg>
