<svg xmlns="http://www.w3.org/2000/svg" width="133.082" height="160.113" viewBox="0 0 133.082 160.113">
  <defs>
    <style>
      .cls-1 {
        fill: #a0a0a0;
        stroke: #a0a0a0;
      }
    </style>
  </defs>
  <g id="Grupo_2365" data-name="Grupo 2365" transform="translate(0.5 0.5)">
    <g id="Grupo_2364" data-name="Grupo 2364" transform="translate(0)">
      <g id="Grupo_2351" data-name="Grupo 2351" transform="translate(86.116 99.733)">
        <g id="Grupo_2350" data-name="Grupo 2350">
          <path id="Trazado_1199" data-name="Trazado 1199" class="cls-1" d="M279.49,662.073a2.325,2.325,0,0,0-2.325,2.325v33.61a2.324,2.324,0,1,0,4.647,0V664.4A2.323,2.323,0,0,0,279.49,662.073Z" transform="translate(-277.165 -662.073)"/>
        </g>
      </g>
      <g id="Grupo_2353" data-name="Grupo 2353" transform="translate(100.109 99.733)">
        <g id="Grupo_2352" data-name="Grupo 2352">
          <path id="Trazado_1200" data-name="Trazado 1200" class="cls-1" d="M286.477,662.073a2.323,2.323,0,0,0-2.323,2.325v33.61a2.324,2.324,0,1,0,4.647,0V664.4A2.325,2.325,0,0,0,286.477,662.073Z" transform="translate(-284.154 -662.073)"/>
        </g>
      </g>
      <g id="Grupo_2355" data-name="Grupo 2355" transform="translate(72.703 99.734)">
        <g id="Grupo_2354" data-name="Grupo 2354">
          <path id="Trazado_1201" data-name="Trazado 1201" class="cls-1" d="M272.791,662.074a2.323,2.323,0,0,0-2.325,2.323v23.546a2.324,2.324,0,1,0,4.647,0V664.4A2.322,2.322,0,0,0,272.791,662.074Z" transform="translate(-270.466 -662.074)"/>
        </g>
      </g>
      <g id="Grupo_2357" data-name="Grupo 2357" transform="translate(72.703 117.862)">
        <g id="Grupo_2356" data-name="Grupo 2356">
          <path id="Trazado_1202" data-name="Trazado 1202" class="cls-1" d="M272.791,671.128a2.323,2.323,0,0,0-2.325,2.323v15.483a2.324,2.324,0,1,0,4.647,0V673.451A2.322,2.322,0,0,0,272.791,671.128Z" transform="translate(-270.466 -671.128)"/>
        </g>
      </g>
      <g id="Grupo_2359" data-name="Grupo 2359">
        <g id="Grupo_2358" data-name="Grupo 2358">
          <path id="Trazado_1203" data-name="Trazado 1203" class="cls-1" d="M280.783,674.1a26.472,26.472,0,0,1-5.468-13.931l-2.721-35.232a3.416,3.416,0,0,0,2.413-3.26v-6.011a3.414,3.414,0,0,0-3.41-3.41h-21.71a3.412,3.412,0,0,0-3.408,3.41v6.011a3.417,3.417,0,0,0,2.411,3.26l-2.719,35.208A26.474,26.474,0,0,1,240.7,674.1a31.333,31.333,0,0,0-6.547,19.113v18.8a2.324,2.324,0,1,0,4.647,0v-6.99h12.776a2.333,2.333,0,0,0,1.452-.508,12.056,12.056,0,0,1,15.429,0,2.329,2.329,0,0,0,1.452.508h12.774v25.32H269.909a2.32,2.32,0,0,0-1.452.51,12.063,12.063,0,0,1-15.429,0,2.32,2.32,0,0,0-1.452-.51H238.8V708.338a2.323,2.323,0,1,0-4.645,0v52.515a10.533,10.533,0,0,0,10.519,10.521h32.133a10.534,10.534,0,0,0,10.521-10.521V693.217A31.32,31.32,0,0,0,280.783,674.1Zm-29.656-57.2h19.233v3.534H251.126Zm18.4,28.613.485,6.275h-18.53l.485-6.275Zm-17.2-4.647,1.217-15.785h14.408l1.217,15.785Zm18.372,59.5a16.654,16.654,0,0,0-19.9,0H238.8v-7.16a26.657,26.657,0,0,1,5.572-16.264A31.135,31.135,0,0,0,250.8,660.53l.316-4.087h19.249l.316,4.11a31.135,31.135,0,0,0,6.429,16.4,26.656,26.656,0,0,1,5.57,16.264v7.16Zm11.991,60.476h0a5.885,5.885,0,0,1-5.876,5.874H244.675a5.883,5.883,0,0,1-5.874-5.874V734.99h11.991a16.655,16.655,0,0,0,19.9,0h11.991v25.862Z" transform="translate(-234.154 -612.261)"/>
        </g>
      </g>
      <g id="Grupo_2361" data-name="Grupo 2361" transform="translate(14.772 91.43)">
        <g id="Grupo_2360" data-name="Grupo 2360">
          <path id="Trazado_1204" data-name="Trazado 1204" class="cls-1" d="M253.349,657.926c-6.517,0-11.817,6.227-11.817,13.879s5.3,13.879,11.817,13.879,11.817-6.225,11.817-13.879S259.864,657.926,253.349,657.926Zm0,23.111c-3.954,0-7.172-4.141-7.172-9.232s3.217-9.232,7.172-9.232,7.17,4.142,7.17,9.232S257.3,681.037,253.349,681.037Z" transform="translate(-241.532 -657.926)"/>
        </g>
      </g>
      <g id="Grupo_2363" data-name="Grupo 2363" transform="translate(57.669 60.426)">
        <g id="Grupo_2362" data-name="Grupo 2362">
          <path id="Trazado_1205" data-name="Trazado 1205" class="cls-1" d="M329.353,676.894h-8.237v-3.906a7.519,7.519,0,0,0,4.885-6.1,7.364,7.364,0,0,0,.058-.911,12.721,12.721,0,0,0-7.362-11.487,14.933,14.933,0,0,0-18.024-6.015,17.452,17.452,0,0,0-29.688,5.688c-3.754,1.231-8.029,3.67-8.029,9.809,0,5.354,2.533,7.9,4.943,8.922v57.521a9.116,9.116,0,0,0,9.106,9.106h35a9.117,9.117,0,0,0,9.106-9.106v-8.954h8.237a8.025,8.025,0,0,0,8.017-8.017V684.911A8.029,8.029,0,0,0,329.353,676.894ZM312.01,734.878H277a4.464,4.464,0,0,1-4.459-4.459v-3.53a12.536,12.536,0,0,0,7.947,2.829h28.03a12.54,12.54,0,0,0,7.947-2.829v3.53h0A4.464,4.464,0,0,1,312.01,734.878Zm4.459-17.751h0a7.954,7.954,0,0,1-7.947,7.947h-28.03a7.956,7.956,0,0,1-7.947-7.947V673.475h43.924v43.651Zm2.222-48.311c-.024,0-.046,0-.068,0-.074.006-.146.012-.22.012H270.619l-.1-.01c-.06-.008-.12-.01-.18-.014-.715-.114-2.733-.8-2.733-4.829,0-2.519.979-4.353,5.858-5.7a2.323,2.323,0,0,0,1.63-1.65,12.8,12.8,0,0,1,22.957-3.95,2.325,2.325,0,0,0,3.039.723,10.287,10.287,0,0,1,13.963,4.058,2.313,2.313,0,0,0,1.207,1.049,8.041,8.041,0,0,1,5.152,7.474,2.8,2.8,0,0,1-.02.34A2.931,2.931,0,0,1,318.692,668.816Zm14.031,44.633a3.374,3.374,0,0,1-3.37,3.37h-8.239V681.541h8.239a3.374,3.374,0,0,1,3.37,3.37Z" transform="translate(-262.957 -642.441)"/>
        </g>
      </g>
    </g>
  </g>
</svg>
