<svg xmlns="http://www.w3.org/2000/svg" width="137.525" height="139.612" viewBox="0 0 137.525 139.612">
  <defs>
    <style>
      .cls-1 {
        fill: #a0a0a0;
        stroke: #a0a0a0;
        stroke-miterlimit: 10;
        stroke-width: 2px;
      }
    </style>
  </defs>
  <path id="Overweight_body_Icon" data-name="Overweight body Icon" class="cls-1" d="M144.348,667.649a30.985,30.985,0,0,0,4.859-17.117c0-11.014-4.044-20.979-8.185-30.241a1.62,1.62,0,0,0-2.957,1.322c4,8.944,7.9,18.544,7.9,28.919,0,32.437-45.125,35.939-64.524,35.939s-64.526-3.5-64.526-35.939c0-10.373,3.9-19.974,7.9-28.919a1.619,1.619,0,0,0-2.955-1.322c-4.143,9.264-8.187,19.229-8.187,30.241a30.972,30.972,0,0,0,4.861,17.119,272.7,272.7,0,0,0-2.28,28.471c-.467,15.345.08,38.137,5.332,59.581a1.621,1.621,0,0,0,1.57,1.233,1.692,1.692,0,0,0,.386-.046,1.619,1.619,0,0,0,1.187-1.96c-4.991-20.38-5.654-42.04-5.278-57.144,27.582.016,55.693,22.39,60.258,26.184-.541,3.726-2.861,18.668-7.026,30.822a1.618,1.618,0,0,0,1.007,2.056,1.647,1.647,0,0,0,.525.088,1.615,1.615,0,0,0,1.53-1.1,169.447,169.447,0,0,0,5.692-22.6,169.423,169.423,0,0,0,5.69,22.6,1.62,1.62,0,0,0,1.532,1.1,1.656,1.656,0,0,0,.525-.088,1.622,1.622,0,0,0,1.007-2.056c-4.167-12.153-6.489-27.1-7.028-30.822,4.557-3.794,32.581-26.132,60.26-26.182.376,15.1-.288,36.762-5.28,57.142a1.621,1.621,0,0,0,1.187,1.96,1.692,1.692,0,0,0,.386.046,1.621,1.621,0,0,0,1.57-1.233c5.254-21.441,5.8-44.236,5.334-59.581A273.87,273.87,0,0,0,144.348,667.649Zm-62.9,53.54c-5.79-4.809-33.546-26.535-61.887-26.639.376-10.379,1.223-18.688,1.77-23.215C31.722,683.2,52.4,689.709,81.446,689.709s49.724-6.505,60.115-18.376c.549,4.529,1.4,12.838,1.772,23.219C114.984,694.684,87.236,716.384,81.446,721.189Zm-1.62-55.835V660.5a1.619,1.619,0,1,1,3.238,0v4.857a1.619,1.619,0,0,1-3.238,0Z" transform="translate(-12.682 -618.324)"/>
</svg>
