<?xml version="1.0" encoding="UTF-8" standalone="no"?>
<!DOCTYPE svg PUBLIC "-//W3C//DTD SVG 1.1//EN" "http://www.w3.org/Graphics/SVG/1.1/DTD/svg11.dtd">
<svg width="100%" height="100%" viewBox="0 0 148 148" version="1.1" xmlns="http://www.w3.org/2000/svg" xmlns:xlink="http://www.w3.org/1999/xlink" xml:space="preserve" xmlns:serif="http://www.serif.com/" style="fill-rule:evenodd;clip-rule:evenodd;stroke-linejoin:round;stroke-miterlimit:2;">
    <g transform="matrix(1,0,0,1,-634.056,-2497.9)">
        <g id="Grupo_2421">
            <g id="Grupo_2413">
                <g id="Grupo_2412" transform="matrix(1,0,0,1,700.107,2519.9)">
                    <g id="Trazado_1283" transform="matrix(1,0,0,1,-1616.76,-2519.9)">
                        <path d="M1648.6,2569.69C1647.67,2569.68 1646.91,2568.92 1646.91,2567.99C1646.91,2567.58 1647.07,2567.17 1647.35,2566.86C1649.19,2564.97 1651.53,2563.63 1654.1,2563C1654.84,2562.81 1655.56,2562.53 1656.24,2562.16C1657.15,2561.54 1657.73,2560.54 1657.82,2559.44C1657.91,2558.31 1657.49,2557.19 1656.66,2556.41C1655.27,2555.24 1654.55,2553.43 1654.77,2551.62C1655.36,2548.15 1659.77,2546.05 1660.27,2545.83C1660.39,2545.77 1660.52,2545.73 1660.64,2545.71C1661.6,2545.52 1664.3,2544.96 1665.33,2544.64C1667.51,2543.97 1668.87,2543.01 1669.36,2541.78C1670,2540.18 1669.16,2538.06 1668.33,2536.55C1667.84,2535.83 1663.66,2529.62 1659.69,2522.4C1659.56,2522.16 1659.5,2521.89 1659.5,2521.62C1659.5,2520.69 1660.26,2519.93 1661.19,2519.93C1661.79,2519.93 1662.35,2520.25 1662.65,2520.77C1666.77,2528.26 1671.12,2534.64 1671.17,2534.71C1671.2,2534.75 1671.23,2534.79 1671.25,2534.84C1673,2537.99 1673.42,2540.75 1672.5,2543.04C1671.61,2545.26 1669.53,2546.88 1666.33,2547.87C1665.1,2548.25 1662.31,2548.82 1661.51,2548.98C1660.39,2549.53 1658.33,2550.9 1658.11,2552.18C1658.08,2552.38 1657.98,2552.98 1659,2553.96C1660.57,2555.44 1661.37,2557.56 1661.19,2559.71C1661.02,2561.82 1659.9,2563.75 1658.15,2564.95C1657.2,2565.51 1656.19,2565.94 1655.12,2566.22C1653.13,2566.68 1651.31,2567.68 1649.86,2569.12C1649.54,2569.48 1649.08,2569.68 1648.6,2569.69Z" style="fill:rgb(39,39,144);fill-rule:nonzero;"/>
                    </g>
                    <g id="Trazado_1284" transform="matrix(1,0,0,1,-1261.81,-3095.76)">
                        <path d="M1285.2,3175.49C1283.59,3175.49 1281.98,3175.3 1280.41,3174.93C1271.16,3172.78 1267.38,3172.74 1267.34,3172.74C1266.41,3172.74 1265.65,3171.98 1265.65,3171.05C1265.65,3170.12 1266.41,3169.36 1267.34,3169.36C1267.54,3169.36 1271.49,3169.39 1281.17,3171.64C1284.84,3172.6 1288.75,3172.18 1292.12,3170.43C1294.47,3169.31 1296.28,3167.3 1297.16,3164.85C1298.12,3161.24 1297.92,3156.79 1297.8,3154.13C1297.77,3153.45 1297.74,3152.91 1297.74,3152.5C1297.74,3150.88 1299.07,3149.8 1300.36,3148.74C1301.6,3147.73 1302.88,3146.68 1302.88,3145.46C1302.86,3143.74 1302.26,3142.07 1301.18,3140.71L1301.19,3140.72L1303.7,3138.45C1305.33,3140.42 1306.24,3142.9 1306.27,3145.46C1306.27,3148.29 1304.09,3150.06 1302.5,3151.36C1302,3151.74 1301.54,3152.16 1301.13,3152.62C1301.13,3152.95 1301.15,3153.43 1301.18,3153.97C1301.31,3156.83 1301.53,3161.61 1300.42,3165.73C1299.62,3168.73 1297.12,3171.6 1293.73,3173.41C1291.85,3174.41 1289.82,3175.06 1287.71,3175.33C1286.88,3175.44 1286.04,3175.49 1285.2,3175.49Z" style="fill:rgb(39,39,144);fill-rule:nonzero;"/>
                    </g>
                    <g id="Trazado_1285" transform="matrix(1,0,0,1,-1210.01,-3519.64)">
                        <path d="M1213.88,3619.64C1213.18,3619.64 1212.54,3619.2 1212.3,3618.54C1210.98,3615.11 1210.22,3611.49 1210.03,3607.81C1209.91,3605.2 1210.24,3602.59 1210.98,3600.09C1211.64,3597.73 1212.84,3595.56 1214.48,3593.76L1216.83,3596.18L1216.84,3596.18C1215.57,3597.66 1214.65,3599.41 1214.15,3601.3C1213.55,3603.43 1213.3,3605.64 1213.42,3607.86C1213.61,3611.11 1214.3,3614.32 1215.47,3617.37C1215.54,3617.56 1215.58,3617.75 1215.58,3617.95C1215.58,3618.88 1214.81,3619.64 1213.88,3619.64Z" style="fill:rgb(39,39,144);fill-rule:nonzero;"/>
                    </g>
                </g>
                <g id="Trazado_1286" transform="matrix(1,0,0,1,-403.608,-519.828)">
                    <path d="M1097.53,3087.18C1097.53,3087.18 1097.53,3087.18 1097.53,3087.18C1096.6,3087.18 1095.84,3086.42 1095.84,3085.49C1095.84,3084.83 1096.23,3084.22 1096.84,3083.95C1099.55,3082.75 1102.36,3081.79 1105.24,3081.1C1112.32,3079.32 1119.58,3078.37 1126.88,3078.26L1127.03,3078.26C1129.65,3078.21 1132.27,3078.4 1134.86,3078.82C1135.67,3078.96 1136.26,3079.67 1136.26,3080.49C1136.26,3081.42 1135.5,3082.18 1134.57,3082.18C1134.44,3082.18 1134.32,3082.16 1134.19,3082.14C1131.73,3081.75 1129.24,3081.58 1126.75,3081.64C1119.77,3081.74 1112.81,3082.66 1106.04,3084.38C1103.36,3085.03 1100.74,3085.91 1098.22,3087.03C1098,3087.13 1097.77,3087.18 1097.53,3087.18Z" style="fill:rgb(39,39,144);fill-rule:nonzero;"/>
                </g>
                <g id="Trazado_1287" transform="matrix(1,0,0,1,0,-816.31)">
                    <path d="M664,3436.09L663.995,3436.09C663.069,3436.09 662.309,3435.33 662.309,3434.4C662.309,3434.4 662.309,3434.4 662.309,3434.4C662.421,3430.29 662.89,3426.19 663.709,3422.16C664.486,3418.12 665.583,3414.16 666.989,3410.29C668.616,3405.78 670.764,3401.48 673.389,3397.47C673.705,3397.02 674.223,3396.75 674.774,3396.75C675.702,3396.75 676.465,3397.52 676.465,3398.45C676.465,3398.76 676.376,3399.07 676.207,3399.34C673.737,3403.12 671.715,3407.17 670.181,3411.41C668.838,3415.09 667.789,3418.88 667.044,3422.73C666.264,3426.58 665.811,3430.48 665.692,3434.41C665.689,3435.33 664.926,3436.09 664,3436.09Z" style="fill:rgb(39,39,144);fill-rule:nonzero;"/>
                </g>
                <g id="Trazado_1288" transform="matrix(1,0,0,1,-403.609,-754.846)">
                    <path d="M1098.3,3374.63C1097.49,3374.63 1096.79,3374.05 1096.64,3373.25C1095.97,3369.25 1095.72,3365.19 1095.88,3361.14C1095.98,3357.52 1096.54,3353.93 1097.54,3350.46C1098.57,3346.75 1100.46,3343.34 1103.06,3340.51C1105.76,3337.8 1108.99,3335.68 1112.56,3334.29C1115.87,3332.97 1119.33,3332.03 1122.86,3331.49C1126.74,3330.86 1130.68,3330.61 1134.62,3330.74C1135.49,3330.81 1136.18,3331.55 1136.18,3332.42C1136.18,3333.35 1135.41,3334.12 1134.49,3334.12C1134.47,3334.12 1134.45,3334.12 1134.43,3334.11C1130.71,3334 1127,3334.24 1123.33,3334.84C1120.07,3335.34 1116.87,3336.21 1113.81,3337.43C1110.69,3338.64 1107.87,3340.49 1105.51,3342.85C1103.28,3345.29 1101.67,3348.22 1100.79,3351.39C1099.87,3354.59 1099.36,3357.88 1099.26,3361.2C1099.11,3365.02 1099.35,3368.85 1099.96,3372.62C1099.98,3372.72 1099.99,3372.83 1099.99,3372.93C1099.99,3373.86 1099.23,3374.62 1098.3,3374.62L1098.3,3374.63Z" style="fill:rgb(39,39,144);fill-rule:nonzero;"/>
                </g>
                <g id="Trazado_1289" transform="matrix(1,0,0,1,-135.487,-590.94)">
                    <path d="M821.717,3179.24C819.964,3177.96 817.753,3177.47 815.623,3177.89C812.789,3177.88 810.171,3176.34 808.803,3173.86C808.17,3172.71 807.838,3171.41 807.838,3170.1C807.833,3168.4 808.387,3166.75 809.416,3165.4C813.171,3162.4 816.681,3159.1 819.911,3155.54C822.252,3156.38 824.857,3156.04 826.911,3154.64C830.891,3157.05 833.33,3161.38 833.33,3166.04C833.33,3172.7 828.329,3178.39 821.72,3179.24L821.717,3179.24ZM817.536,3174.2C817.968,3174.2 818.383,3174.36 818.697,3174.66C819.512,3175.43 820.594,3175.86 821.717,3175.86C823.539,3175.85 825.178,3174.72 825.832,3173.02C826.082,3172.36 826.713,3171.93 827.413,3171.93C827.741,3171.93 828.063,3172.03 828.338,3172.2C829.049,3172.66 829.877,3172.91 830.722,3172.91C833.136,3172.91 835.122,3170.92 835.122,3168.51C835.122,3166.71 834.026,3165.09 832.362,3164.42C831.679,3164.15 831.246,3163.47 831.297,3162.74C831.306,3162.61 831.31,3162.51 831.31,3162.42C831.31,3162.42 831.31,3162.42 831.31,3162.42C831.31,3160 829.324,3158.02 826.91,3158.02C825.802,3158.02 824.734,3158.44 823.921,3159.19C823.394,3159.68 822.611,3159.78 821.978,3159.44C821.342,3159.1 820.631,3158.92 819.91,3158.92C817.498,3158.93 815.514,3160.91 815.51,3163.32C815.51,3163.55 815.527,3163.77 815.561,3164C815.688,3164.83 815.177,3165.64 814.37,3165.87C812.54,3166.45 811.286,3168.16 811.286,3170.07C811.286,3172.49 813.274,3174.48 815.688,3174.48C816.136,3174.48 816.58,3174.41 817.007,3174.27C817.179,3174.22 817.358,3174.2 817.537,3174.2L817.536,3174.2Z" style="fill:rgb(39,39,144);fill-rule:nonzero;"/>
                </g>
                <g id="Trazado_1290" transform="matrix(1,0,0,1,-230.329,-675.298)">
                    <path d="M915.851,3258.73C915.847,3258.73 915.843,3258.73 915.839,3258.73C912.471,3258.73 909.7,3255.96 909.7,3252.59C909.7,3249.45 912.103,3246.8 915.223,3246.48C916.098,3245.69 917.235,3245.26 918.413,3245.26C921.029,3245.26 923.182,3247.41 923.182,3250.03C923.182,3251.2 922.746,3252.34 921.958,3253.22C921.634,3256.33 918.981,3258.72 915.851,3258.73ZM915.851,3249.83C914.34,3249.83 913.097,3251.08 913.097,3252.59C913.097,3254.1 914.342,3255.34 915.854,3255.34C917.366,3255.34 918.611,3254.1 918.611,3252.59L918.611,3252.5C918.596,3251.96 918.841,3251.45 919.268,3251.12C919.609,3250.86 919.809,3250.45 919.809,3250.02C919.809,3249.26 919.184,3248.63 918.423,3248.63C917.993,3248.63 917.586,3248.83 917.324,3249.18C916.994,3249.6 916.478,3249.85 915.938,3249.83L915.853,3249.83L915.851,3249.83Z" style="fill:rgb(39,39,144);fill-rule:nonzero;"/>
                </g>
                <g id="Trazado_1291" transform="matrix(1,0,0,1,-57.849,-1158.77)">
                    <path d="M730.2,3776.07C730.2,3776.07 730.2,3776.07 730.199,3776.07C727.043,3776.07 724.446,3773.47 724.446,3770.32C724.446,3767.16 727.043,3764.56 730.199,3764.56C731.433,3764.56 732.634,3764.96 733.625,3765.69C736.045,3765.77 737.995,3767.78 737.995,3770.2C737.995,3772.51 736.223,3774.47 733.925,3774.69C732.886,3775.58 731.565,3776.07 730.2,3776.07ZM730.2,3767.94C730.184,3767.94 730.168,3767.94 730.151,3767.94C728.85,3767.94 727.779,3769.01 727.779,3770.32C727.779,3771.62 728.85,3772.69 730.151,3772.69C730.168,3772.69 730.184,3772.69 730.2,3772.69C730.878,3772.69 731.524,3772.4 731.97,3771.89C732.324,3771.49 732.845,3771.28 733.375,3771.33C733.423,3771.33 733.456,3771.33 733.475,3771.33C734.095,3771.33 734.606,3770.82 734.606,3770.2C734.606,3769.58 734.095,3769.07 733.475,3769.07C733.417,3769.07 733.359,3769.08 733.302,3769.09C732.776,3769.17 732.242,3768.99 731.862,3768.62C731.419,3768.18 730.822,3767.94 730.2,3767.94Z" style="fill:rgb(39,39,144);fill-rule:nonzero;"/>
                </g>
                <g id="Trazado_1292" transform="matrix(1,0,0,1,-91.339,-1058.29)">
                    <path d="M764.48,3664.76C762.252,3664.76 760.419,3662.93 760.419,3660.7C760.419,3658.47 762.252,3656.64 764.48,3656.64C766.708,3656.64 768.541,3658.47 768.541,3660.7C768.539,3662.93 766.707,3664.76 764.48,3664.76ZM764.48,3660.02C764.108,3660.02 763.801,3660.33 763.801,3660.7C763.801,3661.07 764.108,3661.38 764.48,3661.38C764.852,3661.38 765.159,3661.07 765.159,3660.7C765.158,3660.33 764.852,3660.02 764.48,3660.02L764.48,3660.02Z" style="fill:rgb(39,39,144);fill-rule:nonzero;"/>
                </g>
                <g id="Trazado_1293" transform="matrix(1,0,0,1,-267.929,-994.356)">
                    <path d="M955.288,3600.82C953.185,3600.82 951.455,3599.09 951.453,3596.99C951.453,3596.83 951.463,3596.68 951.482,3596.52C950.59,3595.58 950.094,3594.33 950.099,3593.04C950.099,3593.04 950.099,3593.04 950.099,3593.04C950.099,3590.25 952.39,3587.96 955.175,3587.96C957.96,3587.96 960.251,3590.25 960.251,3593.04C960.251,3594.23 959.829,3595.39 959.061,3596.3C959.102,3596.53 959.123,3596.76 959.123,3596.99C959.123,3599.09 957.392,3600.82 955.288,3600.82ZM955.176,3591.34L955.173,3591.34C954.245,3591.34 953.481,3592.11 953.481,3593.04C953.481,3593.63 953.793,3594.18 954.301,3594.49C955.078,3594.96 955.343,3595.98 954.894,3596.77C954.855,3596.83 954.835,3596.91 954.835,3596.99C954.835,3597.24 955.04,3597.44 955.289,3597.44C955.537,3597.44 955.742,3597.24 955.742,3596.99C955.742,3596.9 955.717,3596.82 955.67,3596.74C955.178,3595.98 955.385,3594.95 956.133,3594.44C956.594,3594.12 956.87,3593.6 956.87,3593.04C956.87,3592.11 956.106,3591.34 955.176,3591.34Z" style="fill:rgb(39,39,144);fill-rule:nonzero;"/>
                </g>
            </g>
        </g>
    </g>
</svg>
