<?xml version="1.0" encoding="UTF-8" standalone="no"?>
<!DOCTYPE svg PUBLIC "-//W3C//DTD SVG 1.1//EN" "http://www.w3.org/Graphics/SVG/1.1/DTD/svg11.dtd">
<svg width="100%" height="100%" viewBox="0 0 148 148" version="1.1" xmlns="http://www.w3.org/2000/svg" xmlns:xlink="http://www.w3.org/1999/xlink" xml:space="preserve" xmlns:serif="http://www.serif.com/" style="fill-rule:evenodd;clip-rule:evenodd;stroke-linejoin:round;stroke-miterlimit:2;">
    <g transform="matrix(1,0,0,1,824.538,-5030.75)">
        <g id="Grupo_2422">
            <g id="Grupo_2397">
                <g id="Grupo_2397-2">
                    <path id="Trazado_1257" d="M-741.5,5161.74C-742.341,5161.74 -743.119,5161.28 -743.521,5160.54C-743.998,5159.66 -743.85,5158.57 -743.155,5157.85C-734.663,5149.04 -735.264,5139.94 -736.632,5134.8C-738.716,5136.88 -741.36,5138.32 -744.242,5138.92C-744.999,5139.06 -745.777,5138.81 -746.311,5138.25C-746.845,5137.7 -747.067,5136.91 -746.9,5136.16C-745.599,5130.48 -746.531,5124.52 -749.5,5119.51C-750.082,5122.43 -751.351,5125.18 -753.2,5127.52C-753.6,5127.99 -754.069,5128.52 -754.595,5129.1C-759.527,5134.58 -767.784,5143.75 -757.663,5158.04C-757.117,5158.81 -757.1,5159.85 -757.62,5160.63C-758.139,5161.43 -759.096,5161.82 -760.02,5161.62C-779.927,5157.35 -790.199,5145.64 -792.341,5124.77C-794.205,5106.6 -782.189,5085.34 -781.677,5084.44C-781.124,5083.48 -779.953,5083.05 -778.908,5083.42C-777.862,5083.79 -777.227,5084.87 -777.408,5085.96C-778.074,5090.79 -777.522,5095.71 -775.8,5100.26C-773.572,5091.68 -767.024,5081.74 -760.574,5074.24C-751.3,5063.47 -753.674,5049.59 -753.696,5049.45C-753.859,5048.56 -753.474,5047.64 -752.717,5047.13C-751.96,5046.63 -750.971,5046.61 -750.201,5047.1C-749.574,5047.5 -734.829,5057.03 -733.582,5072.99C-732.682,5084.51 -732.153,5089.74 -729.539,5094.11C-728.539,5089.23 -726.031,5082.43 -719.784,5078.42C-719.062,5077.95 -718.138,5077.93 -717.394,5078.36C-716.649,5078.79 -716.204,5079.6 -716.244,5080.46C-716.43,5084.64 -716.379,5096.52 -713.928,5101.2C-711.628,5105.59 -705.979,5126.19 -713.775,5142.39C-718.714,5152.65 -727.894,5159.15 -741.058,5161.7C-741.204,5161.73 -741.352,5161.74 -741.5,5161.74ZM-781.845,5095.39C-785.052,5102.99 -788.783,5114.35 -787.763,5124.29C-786.031,5141.16 -778.763,5151.04 -764.424,5155.69C-771.607,5141.12 -762.582,5131.1 -758.009,5126.02C-757.524,5125.48 -757.086,5124.99 -756.722,5124.56C-753.856,5121.14 -753.391,5115.5 -753.452,5113.62C-753.483,5112.69 -752.948,5111.83 -752.102,5111.45C-751.255,5111.07 -750.254,5111.23 -749.577,5111.87C-744.096,5117.51 -741.266,5125.23 -741.801,5133.08C-740.174,5132.18 -738.967,5130.67 -738.445,5128.89C-738.208,5127.99 -737.445,5127.32 -736.522,5127.19C-735.598,5127.07 -734.686,5127.52 -734.222,5128.33C-734.137,5128.48 -726.828,5141.61 -735.446,5155.45C-727.23,5152.56 -721.346,5147.52 -717.917,5140.39C-710.981,5125.98 -716.026,5107.11 -718,5103.33C-720.3,5098.93 -720.83,5090.95 -720.9,5085.59C-725.538,5091.46 -725.6,5099.77 -725.6,5099.87C-725.6,5100.81 -726.172,5101.65 -727.04,5102.01C-727.908,5102.36 -728.906,5102.14 -729.556,5101.47C-736.528,5094.24 -737.004,5088.12 -738.156,5073.35C-738.85,5064.45 -744.715,5057.7 -748.769,5054.05C-748.695,5062.52 -751.641,5070.75 -757.075,5077.25C-766.015,5087.63 -774.325,5102.03 -771.443,5109.11C-771.004,5110.19 -771.451,5111.44 -772.474,5112C-773.497,5112.56 -774.791,5112.25 -775.459,5111.3C-778.628,5106.48 -780.8,5101.07 -781.846,5095.39L-781.845,5095.39Z" style="fill:rgb(39,39,144);fill-rule:nonzero;"/>
                </g>
            </g>
        </g>
    </g>
</svg>
