<?xml version="1.0" encoding="UTF-8" standalone="no"?>
<!DOCTYPE svg PUBLIC "-//W3C//DTD SVG 1.1//EN" "http://www.w3.org/Graphics/SVG/1.1/DTD/svg11.dtd">
<svg width="100%" height="100%" viewBox="0 0 148 148" version="1.1" xmlns="http://www.w3.org/2000/svg" xmlns:xlink="http://www.w3.org/1999/xlink" xml:space="preserve" xmlns:serif="http://www.serif.com/" style="fill-rule:evenodd;clip-rule:evenodd;stroke-linejoin:round;stroke-miterlimit:2;">
    <g transform="matrix(1,0,0,1,184.914,-3003.76)">
        <g id="Grupo_2418">
            <g id="Grupo_2417">
                <g id="Trazado_1300" transform="matrix(1,0,0,1,-154.212,0)">
                    <path d="M78.713,3037.81C78.676,3037.79 78.634,3037.79 78.595,3037.77C78.556,3037.75 78.536,3037.72 78.495,3037.71C78.408,3037.68 78.32,3037.66 78.231,3037.65C78.103,3037.61 77.971,3037.58 77.837,3037.57C77.711,3037.57 77.586,3037.58 77.462,3037.6C77.337,3037.61 77.213,3037.63 77.093,3037.67C76.974,3037.71 76.86,3037.77 76.753,3037.84C76.642,3037.89 76.536,3037.96 76.438,3038.03C76.341,3038.13 76.253,3038.23 76.176,3038.34C76.11,3038.4 76.049,3038.47 75.993,3038.54C75.972,3038.58 75.972,3038.62 75.954,3038.66C75.936,3038.7 75.902,3038.72 75.886,3038.76L68.666,3055.71C68.561,3055.96 68.506,3056.22 68.506,3056.49C68.506,3057.49 69.262,3058.35 70.255,3058.47L78.355,3059.45L63.83,3077.78L67.13,3063.57C67.164,3063.42 67.181,3063.27 67.181,3063.12C67.181,3062.12 66.425,3061.26 65.43,3061.14L55.43,3059.93L63.241,3038.22C63.254,3038.16 63.263,3038.1 63.268,3038.03C63.302,3037.9 63.321,3037.77 63.326,3037.64C63.333,3037.5 63.325,3037.37 63.305,3037.24C63.293,3037.17 63.311,3037.11 63.293,3037.05C63.275,3036.98 63.235,3036.95 63.215,3036.89C63.168,3036.76 63.108,3036.64 63.036,3036.52C62.973,3036.41 62.9,3036.31 62.818,3036.22C62.732,3036.13 62.639,3036.05 62.538,3035.97C62.43,3035.89 62.313,3035.82 62.19,3035.76C62.136,3035.74 62.097,3035.69 62.04,3035.67C61.983,3035.65 61.914,3035.66 61.852,3035.64C61.59,3035.58 61.318,3035.57 61.052,3035.61C60.99,3035.61 60.928,3035.61 60.867,3035.62C57.825,3036.49 54.908,3037.75 52.19,3039.36C49.607,3040.78 47.566,3041.9 45.336,3041.9C41.661,3041.9 38.288,3033.76 37.231,3029.81C36.992,3028.95 36.205,3028.35 35.314,3028.35C34.222,3028.35 33.324,3029.25 33.324,3030.34C33.324,3030.51 33.345,3030.68 33.386,3030.84C33.797,3032.38 37.623,3045.88 45.337,3045.88C48.587,3045.88 51.268,3044.41 54.106,3042.85C55.367,3042.16 56.665,3041.46 58.074,3040.83L50.845,3060.93C50.767,3061.14 50.727,3061.37 50.727,3061.6C50.727,3062.6 51.484,3063.46 52.478,3063.58L62.757,3064.82L57.963,3085.51C57.929,3085.65 57.912,3085.8 57.912,3085.95C57.912,3087.05 58.811,3087.94 59.903,3087.94C60.51,3087.94 61.086,3087.67 61.463,3087.19L83.687,3059.14C83.965,3058.79 84.116,3058.35 84.116,3057.9C84.116,3056.9 83.361,3056.05 82.368,3055.93L73.376,3054.83L78.628,3042.5C86.897,3048.51 91.597,3060.67 91.597,3076.37C91.597,3105.83 69.587,3117.36 55.714,3117.71C48.169,3117.89 42.147,3114.5 36.847,3111.5C32.454,3109.01 28.304,3106.67 23.889,3106.67C11.295,3106.67 11.295,3118.09 11.295,3121.85C11.319,3122.92 12.21,3123.79 13.284,3123.79C14.359,3123.79 15.25,3122.92 15.274,3121.85C15.274,3113.89 17.774,3110.65 23.889,3110.65C27.256,3110.65 30.789,3112.65 34.889,3114.96C40.64,3118.22 47.169,3121.95 55.817,3121.69C75.091,3121.2 95.578,3105.15 95.578,3076.37C95.567,3058.05 89.423,3044 78.713,3037.81Z" style="fill:rgb(39,39,144);fill-rule:nonzero;"/>
                </g>
                <g id="Trazado_1301" transform="matrix(1,0,0,1,0,-6.938)">
                    <path d="M-108.6,3092.58C-104.736,3082.16 -107.156,3068.75 -113.995,3062.7C-121.402,3056 -126.582,3047.19 -128.835,3037.46C-129.024,3036.39 -130.061,3035.66 -131.135,3035.84C-132.209,3036.03 -132.939,3037.07 -132.752,3038.14C-130.394,3048.78 -124.754,3058.41 -116.631,3065.68C-111.014,3070.65 -109.043,3082.34 -112.331,3091.2C-113.991,3095.68 -117.602,3101.04 -125.371,3101.16C-144.145,3101.43 -154.913,3111.5 -154.913,3128.79C-154.913,3129.88 -154.015,3130.78 -152.923,3130.78C-151.831,3130.78 -150.933,3129.88 -150.933,3128.79C-150.933,3108.53 -134.881,3105.27 -125.312,3105.13C-117.608,3105.02 -111.516,3100.44 -108.6,3092.58Z" style="fill:rgb(39,39,144);fill-rule:nonzero;"/>
                </g>
            </g>
        </g>
    </g>
</svg>
