<?xml version="1.0" encoding="UTF-8" standalone="no"?>
<!DOCTYPE svg PUBLIC "-//W3C//DTD SVG 1.1//EN" "http://www.w3.org/Graphics/SVG/1.1/DTD/svg11.dtd">
<svg width="100%" height="100%" viewBox="0 0 148 148" version="1.1" xmlns="http://www.w3.org/2000/svg" xmlns:xlink="http://www.w3.org/1999/xlink" xml:space="preserve" xmlns:serif="http://www.serif.com/" style="fill-rule:evenodd;clip-rule:evenodd;stroke-linejoin:round;stroke-miterlimit:2;">
    <g transform="matrix(1,0,0,1,195.968,-1174.48)">
        <g id="Grupo_2419">
            <g id="Grupo_1155">
                <g id="Grupo_2384">
                    <path id="Trazado_1213" d="M-120.245,1201.62C-120.56,1200.56 -121.522,1199.82 -122.624,1199.79C-123.727,1199.75 -124.735,1200.43 -125.115,1201.46C-127.144,1206.96 -131.841,1214.37 -136.815,1222.22C-145.669,1236.19 -155.704,1252.03 -155.704,1264.64C-155.683,1283.08 -140.52,1298.24 -122.085,1298.26C-103.65,1298.24 -88.487,1283.08 -88.466,1264.64C-88.466,1252.29 -97.897,1238.3 -107.017,1224.76C-112.851,1216.1 -118.362,1207.93 -120.245,1201.62ZM-122.085,1293.12C-137.703,1293.11 -150.549,1280.26 -150.567,1264.64C-150.567,1253.52 -140.956,1238.35 -132.475,1224.97C-128.844,1219.24 -125.356,1213.74 -122.843,1208.88C-120.056,1214.6 -115.758,1220.98 -111.276,1227.63C-102.991,1239.92 -93.602,1253.86 -93.602,1264.64C-93.619,1280.26 -106.466,1293.11 -122.085,1293.13L-122.085,1293.12Z" style="fill:rgb(39,39,144);fill-rule:nonzero;"/>
                    <g id="Trazado_1214" transform="matrix(1,0,0,1,-35.501,-194.63)">
                        <path d="M-109.583,1454.11C-109.384,1454.17 -109.176,1454.2 -108.967,1454.2C-108.072,1454.2 -107.275,1453.62 -107.007,1452.77C-106.447,1451.02 -105.795,1449.3 -105.052,1447.63C-104.601,1446.59 -105.079,1445.37 -106.112,1444.92C-106.372,1444.81 -106.652,1444.75 -106.936,1444.75C-107.751,1444.75 -108.492,1445.23 -108.818,1445.98C-109.62,1447.79 -110.324,1449.65 -110.928,1451.53C-110.991,1451.73 -111.023,1451.94 -111.023,1452.15C-111.023,1453.05 -110.437,1453.84 -109.583,1454.11Z" style="fill:rgb(39,39,144);fill-rule:nonzero;"/>
                    </g>
                    <g id="Trazado_1215" transform="matrix(1,0,0,1,-30.568,-242.858)">
                        <path d="M-97.534,1528.25C-106.72,1525.55 -113.085,1517.08 -113.122,1507.5C-113.122,1506.38 -114.05,1505.45 -115.177,1505.45C-116.304,1505.45 -117.232,1506.38 -117.232,1507.5C-117.247,1513.13 -115.396,1518.61 -111.97,1523.07C-108.622,1527.45 -103.966,1530.65 -98.68,1532.2C-98.494,1532.25 -98.3,1532.28 -98.106,1532.28C-97.195,1532.28 -96.388,1531.67 -96.134,1530.8C-96.08,1530.61 -96.052,1530.42 -96.052,1530.23C-96.052,1529.32 -96.659,1528.51 -97.534,1528.25Z" style="fill:rgb(39,39,144);fill-rule:nonzero;"/>
                    </g>
                </g>
            </g>
        </g>
    </g>
</svg>
