<?xml version="1.0" encoding="UTF-8" standalone="no"?>
<!DOCTYPE svg PUBLIC "-//W3C//DTD SVG 1.1//EN" "http://www.w3.org/Graphics/SVG/1.1/DTD/svg11.dtd">
<svg width="100%" height="100%" viewBox="0 0 148 148" version="1.1" xmlns="http://www.w3.org/2000/svg" xmlns:xlink="http://www.w3.org/1999/xlink" xml:space="preserve" xmlns:serif="http://www.serif.com/" style="fill-rule:evenodd;clip-rule:evenodd;stroke-linejoin:round;stroke-miterlimit:2;">
    <g transform="matrix(1,0,0,1,-1648.22,-2841.66)">
        <g id="Grupo_2420">
            <g id="Grupo_2416">
                <g id="Grupo_2414" transform="matrix(1,0,0,1,1700.52,2860)">
                    <g id="Trazado_1294" transform="matrix(1,0,0,1,-1779.5,-2863.48)">
                        <path d="M1796.25,2879.47L1796.25,2866.39C1796.12,2865.04 1794.97,2863.99 1793.61,2863.99C1792.25,2863.99 1791.1,2865.04 1790.97,2866.39L1790.97,2879.47C1791.1,2880.83 1792.25,2881.88 1793.61,2881.88C1794.97,2881.88 1796.12,2880.83 1796.25,2879.47" style="fill:rgb(39,39,144);fill-rule:nonzero;"/>
                    </g>
                    <g id="Trazado_1295" transform="matrix(1,0,0,1,-1845.59,-2860)">
                        <path d="M1871.95,2874.66L1871.95,2862.91C1871.96,2862.83 1871.96,2862.74 1871.96,2862.66C1871.96,2861.2 1870.77,2860 1869.31,2860C1867.95,2860 1866.8,2861.05 1866.66,2862.4C1866.65,2862.57 1866.65,2862.74 1866.66,2862.91L1866.66,2874.66C1866.66,2874.75 1866.65,2874.83 1866.65,2874.92C1866.65,2876.37 1867.85,2877.57 1869.31,2877.57C1870.76,2877.57 1871.96,2876.37 1871.96,2874.92C1871.96,2874.83 1871.96,2874.75 1871.95,2874.66" style="fill:rgb(39,39,144);fill-rule:nonzero;"/>
                    </g>
                    <g id="Trazado_1296" transform="matrix(1,0,0,1,-1700.52,-3114.55)">
                        <path d="M1705.71,3224.11C1705.71,3222.28 1705.82,3220.45 1706.05,3218.63C1706.31,3216.15 1706.89,3213.71 1707.79,3211.39C1708.12,3210.53 1708.56,3209.72 1709.09,3208.97C1709.42,3208.48 1709.86,3208.06 1710.36,3207.74C1710.97,3207.39 1711.62,3207.13 1712.3,3206.97C1712.96,3206.81 1713.64,3206.73 1714.32,3206.73C1715.52,3206.74 1716.7,3206.92 1717.85,3207.26C1718.7,3207.5 1719.59,3207.62 1720.48,3207.62C1721.87,3207.61 1723.26,3207.35 1724.56,3206.85C1725.91,3206.33 1727.12,3205.5 1728.11,3204.43C1729.48,3202.95 1730.6,3201.23 1731.39,3199.37C1732.08,3197.7 1732.55,3195.96 1732.79,3194.18C1733.05,3192.44 1733.18,3190.69 1733.2,3188.94C1733.2,3187.68 1733.2,3186.53 1733.08,3185.25C1732.95,3183.27 1732.34,3181.35 1731.29,3179.67C1730.23,3177.96 1728.74,3176.56 1726.97,3175.62C1725.97,3175.08 1725.03,3174.45 1724.15,3173.73C1722.08,3171.94 1720.5,3169.66 1719.54,3167.09C1717.94,3162.89 1717.18,3158.41 1717.29,3153.91C1717.16,3152.56 1716.01,3151.51 1714.65,3151.51C1713.29,3151.51 1712.13,3152.56 1712,3153.91C1711.89,3159.1 1712.8,3164.26 1714.66,3169.1C1715.95,3172.48 1718.07,3175.48 1720.82,3177.84C1721.96,3178.75 1723.19,3179.56 1724.48,3180.25C1725.47,3180.75 1726.31,3181.51 1726.9,3182.45C1727.49,3183.4 1727.84,3184.47 1727.91,3185.59L1727.91,3188.92C1727.92,3190.49 1727.82,3192.07 1727.6,3193.62C1727.42,3194.95 1727.07,3196.25 1726.56,3197.49C1726.01,3198.79 1725.23,3199.99 1724.27,3201.03C1723.82,3201.48 1723.29,3201.81 1722.7,3202.03C1722,3202.29 1721.25,3202.43 1720.5,3202.43C1720.11,3202.44 1719.72,3202.39 1719.34,3202.29C1717.72,3201.81 1716.03,3201.56 1714.34,3201.54C1713.23,3201.54 1712.13,3201.67 1711.06,3201.93C1709.89,3202.21 1708.77,3202.66 1707.73,3203.26C1706.96,3203.7 1706.27,3204.25 1705.67,3204.9C1704.66,3206.06 1703.85,3207.37 1703.26,3208.78C1702.26,3211.1 1701.55,3213.53 1701.16,3216.03C1700.72,3218.68 1700.5,3221.36 1700.51,3224.04C1700.64,3225.39 1701.79,3226.44 1703.15,3226.44C1704.51,3226.44 1705.66,3225.39 1705.79,3224.04L1705.71,3224.11Z" style="fill:rgb(39,39,144);fill-rule:nonzero;"/>
                    </g>
                    <g id="Trazado_1297" transform="matrix(1,0,0,1,-1765.53,-3110.07)">
                        <path d="M1780.21,3219.62C1780.21,3218.12 1780.21,3216.79 1780.33,3215.64C1780.45,3214.48 1780.48,3213.99 1780.57,3213.22C1780.67,3212.47 1780.86,3211.73 1781.13,3211.02C1781.18,3210.91 1781.25,3210.81 1781.32,3210.71L1780.88,3210.3L1781.2,3210.8L1780.76,3210.39L1781.08,3210.9L1780.69,3210.3L1780.88,3211L1781.1,3211L1780.72,3210.4L1780.91,3211.1L1781.37,3211.1C1782.05,3211.32 1782.72,3211.58 1783.37,3211.9C1784.65,3212.48 1786.24,3213.28 1788.2,3213.98C1790.22,3214.78 1792.35,3215.27 1794.52,3215.45L1796.93,3215.45C1799.82,3215.45 1802.69,3215.02 1805.45,3214.17C1809.07,3213.04 1812.41,3211.14 1815.23,3208.62C1817.75,3206.34 1819.97,3203.74 1821.82,3200.89C1823.66,3198.1 1825.12,3195.07 1826.17,3191.89C1827.32,3188.51 1827.93,3184.97 1827.98,3181.39C1828,3178.73 1827.55,3176.09 1826.65,3173.59C1825.69,3171 1824.13,3168.67 1822.09,3166.81C1820.32,3165.18 1818.23,3163.92 1815.96,3163.12C1813.93,3162.42 1811.8,3162.07 1809.66,3162.08C1806.45,3162.13 1803.28,3162.74 1800.29,3163.89C1799.78,3164.08 1799.24,3164.18 1798.7,3164.18C1797.84,3164.19 1796.99,3163.94 1796.28,3163.45L1795.8,3162.92C1795.13,3162.36 1794.59,3161.67 1794.18,3160.89C1793.32,3159.26 1792.73,3157.5 1792.42,3155.68C1792.05,3153.4 1791.87,3151.09 1791.89,3148.78C1791.76,3147.43 1790.61,3146.38 1789.25,3146.38C1787.88,3146.38 1786.73,3147.43 1786.6,3148.78C1786.55,3152.23 1786.93,3155.66 1787.74,3159.01C1788.13,3160.56 1788.7,3162.05 1789.45,3163.46C1790.18,3164.83 1791.18,3166.06 1792.37,3167.06C1792.71,3167.35 1793.07,3167.59 1793.41,3167.83C1794.99,3168.89 1796.85,3169.45 1798.75,3169.45C1799.92,3169.44 1801.08,3169.23 1802.17,3168.82C1804.57,3167.89 1807.11,3167.4 1809.68,3167.35C1811.23,3167.33 1812.78,3167.59 1814.24,3168.09C1815.85,3168.66 1817.32,3169.55 1818.56,3170.7C1819.99,3172.03 1821.08,3173.69 1821.73,3175.53C1822.41,3177.43 1822.74,3179.44 1822.71,3181.47C1822.67,3184.47 1822.15,3187.46 1821.17,3190.3C1820.29,3193 1819.07,3195.57 1817.52,3197.95C1816.44,3199.59 1815.24,3201.14 1813.92,3202.59C1811.94,3204.81 1809.56,3206.64 1806.9,3207.97C1803.78,3209.46 1800.36,3210.2 1796.91,3210.14L1794.91,3210.14C1793.65,3210.05 1792.41,3209.8 1791.21,3209.4C1789.47,3208.79 1787.76,3208.07 1786.1,3207.25C1785.31,3206.87 1784.51,3206.53 1783.68,3206.23C1783.27,3206.09 1782.85,3205.97 1782.43,3205.87C1781.97,3205.77 1781.5,3205.71 1781.03,3205.7C1780.59,3205.7 1780.15,3205.76 1779.73,3205.87C1779.27,3206 1778.83,3206.19 1778.43,3206.45C1777.97,3206.75 1777.56,3207.12 1777.22,3207.56C1776.69,3208.29 1776.29,3209.11 1776.04,3209.97C1775.61,3211.37 1775.33,3212.8 1775.22,3214.25C1775.04,3216.09 1774.96,3217.95 1774.98,3219.8C1775.1,3221.15 1776.26,3222.2 1777.62,3222.2C1778.98,3222.2 1780.13,3221.15 1780.26,3219.8L1780.21,3219.62Z" style="fill:rgb(39,39,144);fill-rule:nonzero;"/>
                    </g>
                    <g id="Trazado_1298" transform="matrix(1,0,0,1,-1922.9,-3394.19)">
                        <path d="M1957.85,3490.27C1960.12,3489.77 1962.27,3488.83 1964.17,3487.5C1966.15,3486.17 1967.91,3484.54 1969.39,3482.67C1971.34,3480.16 1972.86,3477.35 1973.88,3474.34C1973.91,3474.18 1973.93,3474.03 1973.93,3473.86C1973.93,3472.7 1972.97,3471.74 1971.81,3471.74C1970.99,3471.74 1970.25,3472.21 1969.89,3472.94C1969.03,3475.51 1967.74,3477.91 1966.08,3480.04C1964.43,3482.16 1962.33,3483.88 1959.92,3485.09C1959.25,3485.43 1958.55,3485.71 1957.82,3485.93L1957.27,3486.08L1957.12,3486.08L1957.29,3487.02L1957.12,3486.08L1957.29,3487.02L1957.12,3486.08C1956.03,3486.17 1955.18,3487.1 1955.18,3488.19C1955.18,3489.36 1956.14,3490.32 1957.3,3490.32C1957.36,3490.32 1957.42,3490.32 1957.48,3490.31C1957.6,3490.3 1957.71,3490.28 1957.82,3490.25L1957.85,3490.27Z" style="fill:rgb(39,39,144);fill-rule:nonzero;"/>
                    </g>
                </g>
                <g transform="matrix(1,0,0,1,-34.027,-73.341)">
                    <g id="Grupo_2415">
                        <path id="Trazado_1299" d="M1764.82,2958.82C1764.82,2957.59 1765.83,2956.41 1765.9,2955.25C1766.07,2952.25 1761.39,2950.64 1760.9,2947.67C1760.93,2946.85 1760.82,2946.03 1760.56,2945.25C1759.29,2943.03 1755.42,2945.15 1753.39,2945.15C1751.37,2945.15 1749.19,2943.44 1747.63,2944.16C1745.5,2945.15 1746.71,2947.88 1745.5,2949.4C1744.3,2950.92 1742.03,2951.24 1741.9,2953.02C1742.07,2953.84 1742.29,2954.65 1742.58,2955.44C1742.99,2958.02 1738.96,2960.02 1739.54,2962.68C1739.92,2964.44 1742.31,2965.38 1742.82,2967.1C1742.97,2968.05 1742.9,2969.03 1742.6,2969.94C1742.3,2970.85 1742.48,2971.86 1743.09,2972.6C1743.82,2973.06 1744.64,2973.36 1745.5,2973.47C1746.32,2973.68 1747.19,2974.17 1747.29,2974.92C1747.26,2975.25 1747.26,2975.59 1747.29,2975.93C1747.29,2976.39 1747.91,2976.68 1748.37,2976.92C1749.44,2977.56 1750.62,2978 1751.85,2978.22C1753.09,2978.45 1754.35,2977.98 1755.15,2977.01C1755.35,2976.7 1755.47,2976.34 1755.68,2976.05C1757.09,2974.16 1761.04,2976.05 1762.79,2974.36C1764.53,2972.67 1761.84,2969.7 1763.12,2967.7C1763.75,2966.71 1765.2,2966.3 1765.85,2965.28C1767.23,2963.36 1764.57,2961.06 1764.82,2958.82Z" style="fill:rgb(39,39,144);fill-rule:nonzero;"/>
                    </g>
                </g>
            </g>
        </g>
    </g>
</svg>
