<svg xmlns="http://www.w3.org/2000/svg" xmlns:xlink="http://www.w3.org/1999/xlink" width="1920" height="2386" viewBox="0 0 1920 2386">
  <defs>
    <style>
      .cls-1 {
        fill: #fff;
      }

      .cls-2 {
        fill: none;
      }

      .cls-3 {
        clip-path: url(#clip-path);
      }

      .cls-4 {
        fill: #ecf5ef;
      }

      .cls-5 {
        opacity: 0.83;
      }

      .cls-6 {
        clip-path: url(#clip-path-2);
      }

      .cls-7 {
        opacity: 0.62;
      }

      .cls-8 {
        opacity: 0.28;
      }

      .cls-9 {
        fill: #b1d5c7;
      }

      .cls-10 {
        opacity: 0.701;
      }

      .cls-11 {
        clip-path: url(#clip-path-6);
      }

      .cls-12 {
        opacity: 0.231;
      }

      .cls-13 {
        clip-path: url(#clip-path-10);
      }

      .cls-14 {
        opacity: 0.41;
      }
    </style>
    <clipPath id="clip-path">
      <rect id="Rectángulo_76" data-name="Rectángulo 76" class="cls-1" width="1920" height="2386"/>
    </clipPath>
    <clipPath id="clip-path-2">
      <rect id="Rectángulo_35" data-name="Rectángulo 35" class="cls-2" width="1684.027" height="2001.923"/>
    </clipPath>
    <clipPath id="clip-path-6">
      <path id="Trazado_27241" data-name="Trazado 27241" class="cls-2" d="M0,0,1692.037-34.694l-37.7,1993.219L-37.7,1993.219Z"/>
    </clipPath>
    <clipPath id="clip-path-10">
      <rect id="Rectángulo_41" data-name="Rectángulo 41" class="cls-2" width="526" height="347.829"/>
    </clipPath>
  </defs>
  <g id="Enmascarar_grupo_1" data-name="Enmascarar grupo 1" class="cls-3">
    <g id="Grupo_104" data-name="Grupo 104" transform="translate(-415.013)">
      <rect id="Rectángulo_2" data-name="Rectángulo 2" class="cls-4" width="1920" height="2425" transform="translate(415.013)"/>
      <g id="Grupo_78" data-name="Grupo 78" class="cls-5" transform="translate(0 713.973)">
        <g id="Grupo_77" data-name="Grupo 77" class="cls-6">
          <g id="Grupo_76" data-name="Grupo 76">
            <g id="Grupo_75" data-name="Grupo 75" class="cls-6">
              <g id="Grupo_74" data-name="Grupo 74" class="cls-7">
                <g id="Grupo_73" data-name="Grupo 73">
                  <g id="Grupo_72" data-name="Grupo 72" class="cls-6">
                    <g id="Grupo_71" data-name="Grupo 71" class="cls-8">
                      <g id="Grupo_70" data-name="Grupo 70">
                        <g id="Grupo_69" data-name="Grupo 69" class="cls-6">
                          <path id="Trazado_1921" data-name="Trazado 1921" class="cls-9" d="M99.809,686.907c17.828-10.152,51.427-25.666,81.766-47.09,59.275-41.851,86.326-101.459,90.011-196.781,1.135-29.334-.849-71.079,8.414-99.513,9.066-27.824,29.887-45.429,42.927-71.323,44.2-87.772,26.082-199.9-37.315-272.2,53.545,107.195,35.808,191.711-2.136,239.942-19.169,24.368-45.735,43.124-56.942,72.784-7.685,20.339-7,43.052-8.923,64.934-5.469,62.125-33.9,121.538-77.558,162.063-33.107,30.733-74.79,53.527-94.871,95.529C8.588,711.79,38.993,754.984,0,797.348c64.781.416,49.834-81.986,99.809-110.441M393.469,260.1c20.476,52.216,44.914,52.858,58.88,71.311,20.356,26.9,27.623,68.815,47.573,96.07s48.988,50.424,80.983,48.432c11.2-.7,22.257-4.466,33.45-3.591,33.29,2.612,53.943,43.553,86.383,52.044,59.872,15.67,114.078-74.945,168.912-60.211-17.768-29.585-53.291-58.084-85.457-46.471-13.171,4.754-24.047,15.6-37.5,19.3-38.261,10.537-41.458-40.419-81.4-62.5C629.938,354.932,603.161,390.3,557.2,365.26c-44.522-24.255-47.6-52.783-70.079-78.451-22.909-26.16-46.4-23.148-68.792-75.027C388.831,143.449,398.618,74.727,317.521,23.2c78.57,103.388,33.41,128.413,75.948,236.9M174.956,958.457c26.414-46.471,23.443-81.288,85.626-133.17,16.325-13.624,36.214-21.224,53.568-33.241,75.056-51.973,96.5-117.05,79.9-212.062-10.95-62.672-35.3-64.546-41.409-134.94-8.643-99.554,48.514-125.87,3.974-239.7,7.559,129.611-51.444,128-50.866,260.191.266,60.965,48.136,144.911-1.052,202.154-25.01,29.112-65.624,34.479-95.738,57.158-45.777,34.476-59.5,100.011-72.171,158.986s-33.075,124.475-83.733,149.587c48.208,15.038,95.486-28.5,121.9-74.964m212.56-678.173c30.737,106.15-56.287,234.247,84.293,317.674,39.616,23.511,83.224,14.6,116.3,47.991,39.779,40.166,14.555,89.476,48.1,135.632,40.177,55.269,105.189,18.541,130.934,61.18a149.5,149.5,0,0,1,14.841,33.829c-56.547,7.829-112.474,12.964-160.3-23.082-101.155-76.234-22.9-188.267-167.926-230.081,119.2,73-2.087,282.532,160.993,360.733,67.182,32.215,137.1-2.633,204.755-22.522,23.369,27.821,54.709,49.567,86.532,61.124a242.225,242.225,0,0,1-37.927-71.771c23.177-2.746,45.929-1.239,68.04,8.044,66.688,28,79.487,95.65,151.925,93.458C1024.853,1011.7,1022.6,936.72,965.035,895.047c-32.932-23.839-69.481-28.825-107.285-27.117,2.567-22.488,5.3-51.469-12.225-85-26.2-50.118-65.367-25.844-115.093-85.6-45.023-54.1-22.554-98.522-91.229-145.862-48.03-33.11-95.523-.8-148.648-22.86C374.1,480.246,459.59,385.283,387.516,280.284M318.221,1339c.963-1.576,2.087-2.921,3.131-4.382,5.152,3.781,10.335,7.469,15.5,10.978,46.015,31.245,97.227,62.538,118.658,116.772,9.552-36.2-1.57-75.7-20.69-107.042-10.627-17.418-35.159-37.05-57.791-58.822,30.216-12.858,63.3-25.187,85.543-61.662,38.035-62.369-10.269-134.925-21.188-199.758-17.54-104.164,110.781-110.01,46.355-269.261,18,184.927-126.243,175.081-115.419,265.355,6.744,56.251,47.533,97.84,21.385,152.468-9.826,20.521-34.691,31.618-62.794,45.273-9.64-37.182,12.173-48.813,22.048-90.727,16-67.917-42.787-100.273-14.8-163.44,14.6-32.95,43.1-55.482,65.656-82.617,63.906-76.888,94.311-192.893-3.688-340.96,50.412,161.7-3.957,228.007-59.638,266.043-83.65,57.139-129.2,101.778-122.735,183.41,4.4,55.479,30.6,68.183,34.482,116.653,3.374,42.155-18.5,69.319-15.564,96.642,2.473,23.02,11.479,43.362,24.13,61.562a143.464,143.464,0,0,0-22.66,30.285c-33.37,60.092,24.344,147.088,20.6,196.656,70.776-37.313,27-110.363,59.469-163.424m471.346-323.395c-74.01-6.437-96.175,33.535-129.968,37.244-64.175,7.047-107.065-47.825-141.587-162.417,12.013,219.309,91.907,272.386,157.966,268.711,53.277-2.962,72.323-20.962,111.856-23.051,44.317-2.339,59.48,50.668,100.2,58.7,73.8,14.547,111.147-61.011,181.781-47.76-65.021-49.852-94.671-14.275-141.615-27.755-71.082-20.411-57.511-96.611-138.63-103.67M593.649,1427.58c-9.272-49.561-49.837-77.8-50.186-115.777-.443-48.1,26.863-73.785,22.508-121.641-9.1-99.989-73.892-83.559-61.282-250.2-39.128,127.906,21.608,165.4,18.732,247.308-1.541,43.887-47.493,66.432-52.184,123.75-4.752,58.043,27.712,76.124,34.562,119.806,16.216,103.363-63.812,145.358-12.525,256.35,1.827-133.536,122.014-143.889,100.375-259.6m326.869-160.622c-56.616-51.578-91.461-76.972-151.253-76-54.014.882-149.314,53.446-206.51-75.977,36.86,179.156,166.171,148.7,212.074,158.376,74.824,15.77,75.782,93.455,141.406,107.17,141.323,29.531,175.451-162.151,282.944-153-107.385-80.644-205.338,106.225-278.662,39.427M813.851,1921.543C830.6,1853.3,818.6,1802.519,770.8,1761.894c6.916-13.324,12.825-27.311,14.744-43.756,3.768-32.293-10.853-49.993-10.421-82.367.7-53.017,47.57-91.976,21.585-161.36-16.19-43.231-41.192-82.752-102.822-121.013,83.075,92.06,60.618,172.019,31.774,216.394-14.8,22.763-30.228,40.544-39.891,62.385-.675-3.165-1.358-6.312-1.956-9.649-14.22-79.565,79.307-161.569-5.458-251.512-76.94-81.642-30.554-83.844-95.912-157.147,28.764,94.9-6.333,114.635,36.071,169.451,81.326,105.121-27.878,155.354-27.878,261.386,0,59.81,34.1,100.264,77.921,133.592a97.721,97.721,0,0,0-2.6,9.818c-6.924,36.344,12.777,72.13,34.61,100.586s49.105,50.049,56.287,91.622c17.9-65.719-19.592-94.431-16.142-143.382a93.32,93.32,0,0,1,1.415-10.531c31.937,19.019,61.5,38.83,71.722,95.131m332.336-539.864c-33.367,34.545-68.469,16.6-111.936,33.116-37.338,14.181-60.387,47.828-101.973,39C859.652,1438.367,857.2,1353.148,795.2,1321.2c-89.211-45.97-102.176,5.861-162.168-62.375,40.165,91.078,93.565,62.028,146.581,125.495,61.419,73.525,48.991,107.288,108.2,149.318,59.56,42.277,95.446,9.321,126.168,13.493s66.862-3.181,82.446-32.331c7.193-13.452,9.14-30.154,18.575-41.858,7.765-9.627,34.473-20.327,44.966-26.132,36.695-20.3,49.025-53.3,57.476-97.127,6.353-32.947,2.747-66.066,31.886-91.272-59.763,13.368-65.547,84.344-103.145,123.271M957.8,1739.656c-25.093-34.911-76.005-57.19-86.02-100.1-13.2-56.58,24.944-78.264-57.128-165.573,49.631,97.583,8.777,130.671,11.816,173.248,4.354,60.971,51.538,58.037,50.952,135.022-.337,44.338,22.834,86.987,52.951,116.793s74.244,46.9,113.091,33.475c52.293-18.065,69.521-19.363,88.347,1.539,37.727,41.88,38.479,58.644,111.536,67.864-68.094-51.2-46.647-135.857-112.211-173.307-43.467-24.831-105.472.989-140.84-36.053-14.086-14.75-20.45-36.15-32.495-52.9m59.852-98.462c42.878,48.958,87.166,47.106,113.692,34.066,39.365-19.351,39.188-66.579,72.251-90.218,25.793-18.434,50.826,6.968,74.227-7.585,42.864-26.66,35.505-81.3,72.234-100.067,26.234-13.405,56.484.607,84.453,8.739s56.367-.945,75.514-24.828c-35.323,8.1-61.467-33-91.692-54.4-41.8-29.6-92.378-29.334-134.193,25.306-13.143,17.174-21.434,41.054-40.68,48.829-11.284,4.557-43.7-5-71.276,19.538-26.885,23.917-24.324,78.376-67.022,102.922-22.651,13.023-40.363,15.45-71.946-5.849-57.225-38.589-80.828,13.311-138.63-40.86,44.156,69.553,79.945,35.168,123.069,84.406m384.58,140.558c-88.622,26.879-93.4-97.8-181.732-101.111-39.179-1.47-75.139,31.614-112.994,42.783-70.87,20.909-81.529-34.029-119.6-66.66-30.711-26.316-59.523-1.783-89.708-58.1,10.835,63.426,49.946,54.4,74.221,79.868,34.985,36.7,26.977,73,61.808,92.61,38.121,21.462,88.15-11.569,130.923-7.375,48.788,4.785,64.112,59.282,92.333,102.816,45.863,70.754,114.5,64.558,161.722,22.716,14.864-13.171,29.493-26.51,45.16-38.53,26.551-20.365,62.391-25.509,92.836-13.337-22.306-42.424-75.45-75.133-121.843-65.293-11.221,2.38-22.105,6.274-33.121,9.611M1540.8,1562.83c-25.553,4.347-56.135-20.646-94.94-7.106-39.322,13.724-41.286,64.239-86.146,79.305-25.793,8.661-51.564-15.128-71.465-19.542-31.92-7.081-73.532-10.863-110.378,50.465,55.018-45.93,101.947-.3,124.936,23.445,46.478,48,95.492,52.495,126.491,11.272,20.076-26.7,22.191-55.3,52.364-65.834,28-9.777,43.27,1.767,81.938-10.95,41.663-13.706,54.266-87.306,120.43-106.954-98.8-31.74-85.134,36.015-143.231,45.9" transform="translate(0 0.002)"/>
                        </g>
                      </g>
                    </g>
                  </g>
                </g>
              </g>
            </g>
          </g>
        </g>
      </g>
      <g id="Grupo_79" data-name="Grupo 79" class="cls-10" transform="translate(3154.022 2147.617) rotate(167)">
        <g id="Grupo_77-2" data-name="Grupo 77" class="cls-11">
          <g id="Grupo_76-2" data-name="Grupo 76">
            <g id="Grupo_75-2" data-name="Grupo 75" class="cls-11">
              <g id="Grupo_74-2" data-name="Grupo 74" class="cls-7">
                <g id="Grupo_73-2" data-name="Grupo 73">
                  <g id="Grupo_72-2" data-name="Grupo 72" class="cls-11">
                    <g id="Grupo_71-2" data-name="Grupo 71" class="cls-8">
                      <g id="Grupo_70-2" data-name="Grupo 70">
                        <g id="Grupo_69-2" data-name="Grupo 69" class="cls-11">
                          <path id="Trazado_1921-2" data-name="Trazado 1921" class="cls-9" d="M87.348,681.863c18.1-10.476,52.155-26.614,83.042-48.57,60.345-42.891,88.647-102.8,94.145-197.78,1.693-29.23.485-70.753,10.328-99.254,9.633-27.89,30.885-45.848,44.474-71.9C365.4,176.061,349.308,64.795,286.97-5.884c51.781,105.625,32.368,190.139-6.664,238.943-19.719,24.657-46.764,43.879-58.583,73.641-8.1,20.409-7.84,43.009-10.188,64.835-6.665,61.967-36.351,121.708-80.978,162.957C96.713,565.773,54.4,589.327,33.435,631.559-4.775,708.518,24.961,750.9-15.016,793.88c65.081-.92,51.615-82.656,102.363-112.017m303.094-431c19.59,51.568,44.132,51.7,57.817,69.788,19.946,26.362,26.459,67.947,45.99,94.672s48.271,49.2,80.456,46.553c11.271-.928,22.447-4.905,33.676-4.264,33.4,1.914,53.379,42.252,85.814,50.039,59.862,14.368,116.032-76.97,170.85-63.429-17.3-29.09-52.45-56.734-84.988-44.508-13.323,5-24.455,16.025-38.037,19.989-38.642,11.28-40.894-39.389-80.613-60.555-35.157-18.738-62.727,17.025-108.434-6.956-44.277-23.232-46.834-51.572-68.934-76.667-22.525-25.574-46.183-22.091-67.706-73.283-28.352-67.429-17.225-136.053-97.738-185.686,77,101.32,31.15,127.166,71.848,234.308m-232.7,699.822c27.415-46.813,25.086-81.418,88.541-134.355,16.659-13.9,36.786-21.878,54.449-34.2C377.12,728.837,399.893,663.6,385,569.343c-9.822-62.174-34.252-63.538-39.065-133.5C339.13,336.9,397.054,309.52,354.446,197.1,359.6,326,300.347,325.6,298.438,457.212c-.881,60.694,45.636,143.29-4.864,201.3-25.677,29.5-66.586,35.682-97.269,58.882-46.644,35.27-61.67,100.8-75.509,159.781s-35.577,124.615-86.948,150.662c48.154,13.979,96.477-30.34,123.891-77.149m226.342-679.6c28.884,105.055-60.966,234.388,78.712,314.557,39.362,22.592,83.345,12.819,115.946,45.386,39.212,39.171,12.939,88.788,45.779,134.051,39.327,54.2,105.34,16.293,130.4,58.217A141.909,141.909,0,0,1,769.2,856.668c-56.964,8.96-113.253,15.225-160.626-19.679C508.37,763.17,589.1,650.012,444.179,611.367c118.39,70.23-7.418,281.347,154.966,355.848,66.9,30.691,137.806-5.447,206.153-26.643,22.956,27.218,54.036,48.225,85.792,59.076a229.071,229.071,0,0,1-36.756-70.677c23.339-3.212,46.171-2.18,68.212,6.608,66.478,26.5,78.064,93.6,150.887,89.922-62.758-39.311-63.613-113.922-120.664-154.228C920.13,848.216,883.5,844,845.485,846.484c3-22.443,6.295-51.354-10.682-84.376-25.377-49.36-65.191-24.385-114.028-82.852-44.218-52.933-20.806-97.629-88.916-143.348-47.635-31.976-95.963,1.174-148.925-19.7-116.1-45.76-28.413-142.071-98.853-245.128M294.519,1326.623c1-1.589,2.152-2.951,3.228-4.427,5.105,3.659,10.244,7.224,15.368,10.611,45.645,30.162,96.512,60.263,117.023,113.819,10.279-36.239-.151-75.341-18.773-106.15-10.349-17.123-34.629-36.165-56.958-57.376,30.6-13.425,64.073-26.382,87.111-63.156,39.391-62.881-7.777-134.126-17.527-198.453-15.661-103.35,113.38-111.814,51.646-269.046C490.243,936.2,345.5,929.366,354.673,1019.024c5.717,55.867,45.917,96.435,18.615,151.364-10.259,20.634-35.451,32.195-63.945,46.37-8.986-36.822,13.151-48.852,23.862-90.787,17.351-67.952-41.1-98.956-11.788-162.424,15.291-33.107,44.354-56.129,67.524-83.611,65.658-77.87,98.392-194,2.715-339.4,47.607,159.956-8.269,227.1-64.931,266.115-85.124,58.614-131.733,104-126.772,185.141,3.373,55.147,29.464,67.256,32.449,115.435,2.6,41.9-19.894,69.4-17.458,96.542,2.051,22.869,10.717,42.937,23.085,60.8a151.26,151.26,0,0,0-23.338,30.62c-34.66,60.518,21.69,145.947,17,195.376,71.816-38.609,29.207-110.44,62.829-163.939M774.2,994.923c-74.24-4.884-97.264,35.371-131.287,39.76-64.613,8.338-106.673-45.412-139.2-158.794,7.94,218.108,87.214,269.308,153.656,264.288,53.586-4.047,73.062-22.361,112.823-25.255,44.571-3.242,58.809,49.223,99.569,56.378,73.872,12.963,112.825-63.036,183.545-51.3-64.392-48.3-94.853-12.262-141.766-24.717C840.5,1076.428,855.57,1000.28,774.2,994.923M569.589,1409.142c-8.382-49.155-48.609-76.439-48.244-114.24.46-47.879,28.38-74.018,24.906-121.576-7.26-99.366-72.67-81.673-56.861-247.845-41.722,128.156,18.6,164.236,14.164,245.847-2.375,43.728-48.97,67.121-54.763,124.286-5.867,57.889,26.41,75.223,32.47,118.573,14.346,102.58-66.853,146.041-17.412,255.494,4.35-132.993,125.3-145.777,105.741-260.539m331.449-166.658c-55.914-50.188-90.446-74.753-150.541-72.55-54.288,1.991-151.031,56.29-206.062-71.392,33.662,177.618,164.161,144.632,210.1,153.318,74.883,14.16,74.383,91.487,140.061,103.79,141.44,26.491,179.339-165.061,287.172-158.164-106.377-78.081-208.315,109.994-280.73,45m-119.5,653.936c18.118-68.291,7.016-118.6-40.245-158.068,7.2-13.408,13.4-27.456,15.638-43.87,4.394-32.23-9.963-49.552-8.919-81.794,1.705-52.8,49.528-92.556,24.727-161.1-15.453-42.709-39.829-81.544-101.032-118.368,81.737,89.948,57.667,170.022,27.85,214.8-15.3,22.969-31.135,40.99-41.255,62.935-.618-3.138-1.246-6.256-1.783-9.567-12.79-78.926,82.727-162.5-.747-250.306-75.769-79.7-29.12-82.85-93.409-154.488,27.114,93.892-8.522,114.268,33.052,167.971,79.733,102.989-30.936,155.253-32.933,260.824-1.123,59.55,32.378,99.125,75.776,131.406a99.546,99.546,0,0,0-2.8,9.829c-7.642,36.328,11.479,71.554,32.881,99.436s48.4,48.819,54.829,90.064c19.223-65.8-17.907-93.616-13.518-142.426a93.663,93.663,0,0,1,1.62-10.514c31.731,18.279,61.057,37.394,70.272,93.24m344.083-544.364c-34.176,35.082-69.107,17.94-113.093,35.278-37.783,14.888-61.575,48.865-103.192,40.927C836.653,1414.4,835.8,1329.6,774.1,1299.068c-88.769-43.933-102.772,7.941-161.765-58.763,38.641,89.854,92.842,59.831,144.915,121.929,60.326,71.94,47.2,105.813,105.905,146.44,59.048,40.866,95.724,7.314,126.514,10.835s67.24-4.544,83.447-33.889c7.481-13.542,9.751-30.211,19.451-42.058,7.983-9.745,35.02-20.949,45.672-26.944,37.252-20.973,50.262-54.074,59.579-97.889,7-32.935,4-65.835,33.756-91.532-60.3,14.541-67.447,85.328-105.957,124.86m-196.025,360.3c-24.555-34.243-75.29-55.375-84.544-97.9-12.2-56.062,26.537-78.437-54.281-163.676,48.03,96.137,6.358,129.922,8.61,172.251,3.227,60.616,50.69,56.723,48.652,133.385-1.174,44.152,21.3,86.138,51,115.195s73.714,45.163,113,31c52.882-19.064,70.216-20.711,88.739-.288,37.118,40.92,37.557,57.6,110.789,65.271-67.454-49.578-44.31-134.305-109.481-170.242-43.206-23.827-105.992,3.157-140.831-32.994-13.875-14.4-19.867-35.571-31.653-52.005m61.991-99.267c42.16,47.861,86.694,45.105,113.591,31.576,39.917-20.078,40.628-67.1,74.294-91.314,26.263-18.886,50.937,5.891,74.723-9.081,43.57-27.427,37.205-81.682,74.462-101.12,26.611-13.887,56.741-.56,84.69,6.961s56.653-2.1,76.34-26.275c-35.643,8.79-61.138-31.593-91.1-52.277-41.445-28.61-92.265-27.3-135.308,27.961-13.529,17.37-22.309,41.317-41.793,49.455-11.424,4.77-43.81-4.076-71.984,20.922-27.464,24.367-25.916,78.537-69.279,103.856-23,13.434-40.846,16.215-72.177-4.341-56.77-37.242-81.463,14.919-138.52-37.826,43.057,68.341,79.663,33.367,122.065,81.5m383.762,132.023c-89.549,28.588-92-95.447-180.692-96.928-39.338-.657-76.092,33.025-114.337,44.925-71.6,22.278-81.276-32.2-118.918-63.906-30.361-25.569-59.773-.549-89.041-56,9.693,62.927,49.159,53.138,73.07,77.992,34.46,35.82,25.731,72.127,60.358,90.934,37.9,20.583,88.787-13.335,131.684-10.04,48.93,3.759,63.3,57.7,90.835,100.467,44.749,69.5,113.833,61.919,162.064,19.286,15.182-13.42,30.132-27,46.1-39.293,27.061-20.823,63.168-26.684,93.528-15.191-21.613-41.78-74.394-73.252-121.193-62.5-11.319,2.6-22.328,6.7-33.459,10.252m143.346-220.824c-25.757,4.855-56.014-19.4-95.258-5.119-39.767,14.475-42.692,64.81-88.049,80.735-26.079,9.154-51.524-14-71.437-17.984-31.939-6.393-73.677-9.3-111.854,52.52,56.144-46.864,102.438-2.4,125.089,20.769,45.8,46.837,94.958,50.3,126.881,8.617,20.674-27,23.338-55.514,53.853-66.627,28.315-10.311,43.443.868,82.534-12.59,42.12-14.5,56.168-88.044,123.017-108.97-98.675-29.566-86.217,37.612-144.776,48.65" transform="translate(0 0.003)"/>
                        </g>
                      </g>
                    </g>
                  </g>
                </g>
              </g>
            </g>
          </g>
        </g>
      </g>
      <g id="Grupo_91" data-name="Grupo 91" class="cls-12" transform="translate(481.013 240.74)">
        <g id="Grupo_90" data-name="Grupo 90" class="cls-13">
          <g id="Grupo_89" data-name="Grupo 89">
            <g id="Grupo_88" data-name="Grupo 88" class="cls-13">
              <g id="Grupo_87" data-name="Grupo 87" class="cls-14">
                <g id="Grupo_86" data-name="Grupo 86">
                  <g id="Grupo_85" data-name="Grupo 85" class="cls-13">
                    <path id="Trazado_3017" data-name="Trazado 3017" class="cls-9" d="M104.859,215.063c28.076,16.056,54.929,9.983,74.353,14.2,32.373,7.031,50.385,14.436,76.3,36.814,18.718,16.162,32.253,39.483,51.033,57.2,18.058,17.037,42.682,27.545,66.279,23.789,27.417-4.364,72.71-11.539,131.09-68.141,24.739-23.987,25.287-41.67,18.048-53.646-8.365-13.837-21.527-17.637-43.852-14.107-43.76,6.921-65.188,30.376-106.492,41.369-17.408,4.631-28.792-.757-37.911-17.294-6.36-11.528-5.845-26.4-.094-38.3s15.08-21.153,23.7-30.763a321.033,321.033,0,0,0,34.665-46.556c11.129-18.148,19.879-44.565,5.672-59.928-14.235-15.393-38.545-5.329-54.195,8.319a191.974,191.974,0,0,0-45.519,59.489c-5.552,11.223-10.3,23.355-18.922,31.955s-22.694,12.435-31.906,4.607c-10.07-8.558-10.923-22.479-9.243-34.808,4.093-30.08,17.317-51.148,11.561-86.54C245.618,19.3,231.984.288,214.98,0c-17.9-.3-31.543,28.168-35.628,46.852-7.981,36.494-1.966,62.95-10.357,87.631-3.05,8.969-9.073,18.113-17.771,19.149-10.07,1.2-18.469-8.642-23.35-18.352C104.267,88.324,77.708,54.969,51.992,36.54c-13.128-9.408-31.075-13.449-41.141-5.11C-4,43.735-1.8,69.021,6.679,87.172c11.88,25.436,41.047,67.419,60.441,90.254,10.694,12.588,24.141,29.861,37.738,37.637" transform="translate(0 0)"/>
                  </g>
                </g>
              </g>
            </g>
          </g>
        </g>
      </g>
      <g id="Grupo_103" data-name="Grupo 103" class="cls-12" transform="translate(1720.013 1975.266)">
        <g id="Grupo_90-2" data-name="Grupo 90" class="cls-13">
          <g id="Grupo_89-2" data-name="Grupo 89">
            <g id="Grupo_88-2" data-name="Grupo 88" class="cls-13">
              <g id="Grupo_87-2" data-name="Grupo 87" class="cls-14">
                <g id="Grupo_86-2" data-name="Grupo 86">
                  <g id="Grupo_85-2" data-name="Grupo 85" class="cls-13">
                    <path id="Trazado_3017-2" data-name="Trazado 3017" class="cls-9" d="M104.859,215.063c28.076,16.056,54.929,9.983,74.353,14.2,32.373,7.031,50.385,14.436,76.3,36.814,18.718,16.162,32.253,39.483,51.033,57.2,18.058,17.037,42.682,27.545,66.279,23.789,27.417-4.364,72.71-11.539,131.09-68.141,24.739-23.987,25.287-41.67,18.048-53.646-8.365-13.837-21.527-17.637-43.852-14.107-43.76,6.921-65.188,30.376-106.492,41.369-17.408,4.631-28.792-.757-37.911-17.294-6.36-11.528-5.845-26.4-.094-38.3s15.08-21.153,23.7-30.763a321.033,321.033,0,0,0,34.665-46.556c11.129-18.148,19.879-44.565,5.672-59.928-14.235-15.393-38.545-5.329-54.195,8.319a191.974,191.974,0,0,0-45.519,59.489c-5.552,11.223-10.3,23.355-18.922,31.955s-22.694,12.435-31.906,4.607c-10.07-8.558-10.923-22.479-9.243-34.808,4.093-30.08,17.317-51.148,11.561-86.54C245.618,19.3,231.984.288,214.98,0c-17.9-.3-31.543,28.168-35.628,46.852-7.981,36.494-1.966,62.95-10.357,87.631-3.05,8.969-9.073,18.113-17.771,19.149-10.07,1.2-18.469-8.642-23.35-18.352C104.267,88.324,77.708,54.969,51.992,36.54c-13.128-9.408-31.075-13.449-41.141-5.11C-4,43.735-1.8,69.021,6.679,87.172c11.88,25.436,41.047,67.419,60.441,90.254,10.694,12.588,24.141,29.861,37.738,37.637" transform="translate(0 0)"/>
                  </g>
                </g>
              </g>
            </g>
          </g>
        </g>
      </g>
    </g>
  </g>
</svg>
