<svg xmlns="http://www.w3.org/2000/svg" xmlns:xlink="http://www.w3.org/1999/xlink" width="562.64" height="96.79" viewBox="0 0 562.64 96.79">
  <defs>
    <style>
      .cls-1, .cls-4 {
        fill: none;
      }

      .cls-2 {
        clip-path: url(#clip-path);
      }

      .cls-3 {
        fill: #c8bf00;
      }

      .cls-4 {
        stroke: #040506;
        stroke-miterlimit: 10;
        stroke-width: 0.5px;
      }

      .cls-5 {
        fill: #fff;
      }

      .cls-6 {
        fill: #0d9f87;
      }
    </style>
    <clipPath id="clip-path">
      <rect id="Rect치ngulo_289" data-name="Rect치ngulo 289" class="cls-1" width="562.64" height="96.79"/>
    </clipPath>
  </defs>
  <g id="Grupo_494" data-name="Grupo 494" transform="translate(38.68 22)">
    <g id="Grupo_493" data-name="Grupo 493" class="cls-2" transform="translate(-38.68 -22)">
      <path id="Trazado_27242" data-name="Trazado 27242" class="cls-3" d="M549.034,96.214H13.28A13.029,13.029,0,0,1,.25,83.184V13.28A13.029,13.029,0,0,1,13.28.25H549.034a13.029,13.029,0,0,1,13.03,13.03v69.9a13.029,13.029,0,0,1-13.03,13.03" transform="translate(0.163 0.163)"/>
      <rect id="Rect치ngulo_288" data-name="Rect치ngulo 288" class="cls-4" width="561.814" height="95.964" rx="7.887" transform="translate(0.413 0.413)"/>
      <path id="Trazado_27243" data-name="Trazado 27243" class="cls-5" d="M38.8,23.717a10.208,10.208,0,0,1-.046-1.156,11,11,0,0,0-.093-1.525,4.2,4.2,0,0,0-.416-1.3,2.062,2.062,0,0,0-1.48-.416,12.183,12.183,0,0,0-2.172.231,19.922,19.922,0,0,1-2.08.185,4.972,4.972,0,0,0-.416,2.217,15.422,15.422,0,0,0,.231,2.5,19.813,19.813,0,0,1,.185,2.08V54.462a12.2,12.2,0,0,1-.139,1.9q-.092,1.016-.093,1.523a3.385,3.385,0,0,0,.231,1.389.561.561,0,0,0,.37.324c.185.059.347.106.484.137a1.583,1.583,0,0,0,.3.048,3.423,3.423,0,0,1,1.247.345,1.078,1.078,0,0,1,.464,1.041c-.063.063-.185.169-.37.322a3.421,3.421,0,0,1-.717.441,2,2,0,0,1-.854.208H24.747a.747.747,0,0,1-.81-.487,4.915,4.915,0,0,1-.162-1.457,3.555,3.555,0,0,0,1.432-.461,3.576,3.576,0,0,1,1.434-.461l.046-8.093c0-1.662-.015-2.835-.046-3.512q-.047-1.341-.045-3.886l.045-7.628V29.4q0-3.606-.162-5.642a17.508,17.508,0,0,0-.808-4.021,8.544,8.544,0,0,0-2.405-.324h-.231a6.489,6.489,0,0,0-3.722.993,3.42,3.42,0,0,0-1.455,3.028A5.69,5.69,0,0,0,18,24.6a.915.915,0,0,1-.345.253,1.3,1.3,0,0,1-.623.164A1.281,1.281,0,0,1,16.1,24.6a20.012,20.012,0,0,0-.185-2.035c-.154-1.386-.233-2.234-.233-2.544A4.95,4.95,0,0,1,16.1,17.8a16.781,16.781,0,0,1,3.1-1.251,12.933,12.933,0,0,1,3.466-.415q1.435,0,4.763-.094,2.634-.136,5.087-.137a42.341,42.341,0,0,1,5.709.322q2.29.325,2.889,1.574a9.976,9.976,0,0,1,.6,3.327,4.67,4.67,0,0,1-.6,2.5,2.064,2.064,0,0,1-1.895.973,2.08,2.08,0,0,1-.416-.879" transform="translate(10.227 10.37)"/>
      <path id="Trazado_27244" data-name="Trazado 27244" class="cls-5" d="M40.974,21.951a18.744,18.744,0,0,0,.231,2.775c.031.216.076.654.139,1.318a11.639,11.639,0,0,1,.046,1.779q-.092,2.818-.37,9.017-.23,5.268-.416,10.956t-.185,10.449a5.876,5.876,0,0,0,1.48.971,5.217,5.217,0,0,1,1.341.879.919.919,0,0,1-.185.623,4.133,4.133,0,0,1-.648.532,5.02,5.02,0,0,0-1.018.786,7.274,7.274,0,0,0-1.756-.416q-.649-.047-2.172-.048c-1.051,0-1.921-.028-2.614-.091a8.855,8.855,0,0,1-2.012-.416.89.89,0,0,1-.253-.324,1.251,1.251,0,0,1-.162-.646,1.138,1.138,0,0,1,.415-.879c0-.216.048-.349.14-.393a1.107,1.107,0,0,1,.461-.069,2.727,2.727,0,0,0,.6-.048,1.339,1.339,0,0,0,.646-.461,1.621,1.621,0,0,0,.416-1.2,4.712,4.712,0,0,0-.093-.857c-.063-.324-.107-.547-.139-.669a6.907,6.907,0,0,1-.185-1.064q0-1.435.094-4.208l.045-4.067a7.9,7.9,0,0,1-.093-.856q-.047-.624-.046-1.365V19.27a4.453,4.453,0,0,1-1.363-.162.746.746,0,0,1-.487-.81V16.4c0-.276.109-.416.325-.416a6.484,6.484,0,0,1,.924.208,6.187,6.187,0,0,0,1.573.208q.508,0,2.174-.185c.245-.031.692-.076,1.34-.139s1.216-.093,1.712-.093a5.229,5.229,0,0,1,2.357.416,1.266,1.266,0,0,1,.37.925,1.824,1.824,0,0,1-.624,1.34,2.207,2.207,0,0,1-1.6.6,7.657,7.657,0,0,0-.416,2.681" transform="translate(21.14 10.424)"/>
      <path id="Trazado_27245" data-name="Trazado 27245" class="cls-5" d="M53.592,58.979q1.016.394,1.018,1.133a2.193,2.193,0,0,1-.74,1.386q-1.2,0-4.578.231-2.4.186-3.421.185a14.958,14.958,0,0,1-3.653-.416c-.061-.059-.17-.182-.324-.367a4.53,4.53,0,0,1-.461-.7,1.758,1.758,0,0,1-.231-.879,3.421,3.421,0,0,1,1.11-.854,8,8,0,0,1,1.8-.116,2.458,2.458,0,0,0,.555-1.85c0-.339-.031-.849-.094-1.527-.063-.615-.091-1.047-.091-1.292V52.483q0-4.344.139-8,.092-4.347.093-6.428c0-.8.013-1.416.045-1.847l.048-2.729q0-1.849-.093-2.866c-.061-.8-.093-1.327-.093-1.574v-.182c0-.649.015-1.173.046-1.574q.089-2.079.046-4.019l.045-1.48a3.2,3.2,0,0,0-.137-1.041.838.838,0,0,0-.555-.534,3.023,3.023,0,0,0-1.249-.23,4.316,4.316,0,0,1-.808-.137,2.115,2.115,0,0,1-.719-.464c-.615-.339-.924-.677-.924-1.016a1,1,0,0,1,.278-.649,7.287,7.287,0,0,1,.669-.669c.263-.233.472-.41.626-.532a50.38,50.38,0,0,1,8.83-.646l4.992.043a3.562,3.562,0,0,0,.626-.043,2.442,2.442,0,0,1,.438-.048,4.891,4.891,0,0,1,.925.091q2.681.419,4.809,3.583a19.478,19.478,0,0,1,2.911,7.1c0,1.941-.051,3.5-.162,4.669a8.928,8.928,0,0,1-.808,3.1,8.159,8.159,0,0,1-1.594,2.774,25.738,25.738,0,0,1-2.845,2.726L58.677,41.11a7.865,7.865,0,0,1-2.7.856,37.816,37.816,0,0,1-4.044.162,1.539,1.539,0,0,0-.3.046.949.949,0,0,0-.438.276.872.872,0,0,0-.231.649,10.739,10.739,0,0,0-.023,1.34q.022.924.023,1.432v1.064a37.266,37.266,0,0,1-.231,3.884c-.031.339-.076.907-.139,1.71s-.094,1.526-.094,2.174a16.013,16.013,0,0,0,.464,3.884,7.442,7.442,0,0,1,2.635.392M50.957,38.2a2.562,2.562,0,0,0,1.064.694,3.963,3.963,0,0,0,1.341.231A2.609,2.609,0,0,0,54.7,38.8a9.359,9.359,0,0,0,2.5-2.379,8.485,8.485,0,0,0,1.479-3.032q.094-.461.347-1.409a8.872,8.872,0,0,0,.3-1.895c.031-.633.046-1.409.046-2.334a20.38,20.38,0,0,0-.461-4.279,17.152,17.152,0,0,0-1.156-3.626,2.139,2.139,0,0,1-.785-.165c-.279-.106-.464-.173-.555-.2a5.657,5.657,0,0,0-2.544-.649H50.957a24.8,24.8,0,0,0-.464,4.854q0,1.251.094,2.775c.063,1.016.107,1.725.139,2.126q.23,2.681.231,4.807Z" transform="translate(26.323 10.315)"/>
      <path id="Trazado_27246" data-name="Trazado 27246" class="cls-5" d="M77.428,59.235a7.739,7.739,0,0,1-1.388,1.2,10.756,10.756,0,0,1-15.072-3.791A45.183,45.183,0,0,1,58.1,49.989a28.554,28.554,0,0,1-.763-4.973q-.161-2.518-.162-6.311c0-.4-.031-.97-.091-1.71-.063-.8-.094-1.4-.094-1.8a13.339,13.339,0,0,1,.185-2.174c.031-.185.122-.692.279-1.526a11.79,11.79,0,0,0,.228-2.08q.094-.461.324-1.756a17.427,17.427,0,0,1,.393-1.987,2.393,2.393,0,0,1,.672-1.158q.508-.691,1.525-2.263a38,38,0,0,1,2.381-3.331,9.338,9.338,0,0,1,2.5-2.08,6.877,6.877,0,0,1,3.537-.877,8.457,8.457,0,0,1,1.436.091,9.89,9.89,0,0,1,4.414.831,8.548,8.548,0,0,1,3.074,2.96,11.12,11.12,0,0,1,3.677,4.437,18.328,18.328,0,0,1,1.824,6.613q.186,1.9.185,4.992v2.035a34.893,34.893,0,0,1-.785,8,42.377,42.377,0,0,1-4.208,11.7,8.265,8.265,0,0,1-1.2,1.617m-1.55-6.149q.766-2.362,1.133-3.976a17.445,17.445,0,0,0,.763-3.791q.161-1.9.162-4.717a20.682,20.682,0,0,1,.185-2.452c0-.185.023-.514.071-.993s.068-.933.068-1.363-.017-.933-.048-1.5-.059-1.008-.091-1.318q-.183-1.849-.185-2.772a14.39,14.39,0,0,1-.925-2.775,13.108,13.108,0,0,0-.971-2.914L75.531,23.4a25.128,25.128,0,0,0-1.477-2.82,4.189,4.189,0,0,0-1.665-1.526,18.211,18.211,0,0,1-1.85-.093c-.677-.061-1.341-.093-1.987-.093a13.077,13.077,0,0,0-2.22,2.889,22.783,22.783,0,0,0-1.571,3.676,7.446,7.446,0,0,0-.808,2.521,25.446,25.446,0,0,0-.165,3.165,53.68,53.68,0,0,0-.37,6.567A82.867,82.867,0,0,0,64.76,51.882a7.658,7.658,0,0,1,.53,1.389c.139.492.241.816.3.97q.278.971.487,1.5a2.574,2.574,0,0,0,.578.9.636.636,0,0,1,.484.137,1.553,1.553,0,0,1,.21.6,1.39,1.39,0,0,0,.37.738,3.29,3.29,0,0,0,2.4.74,7.323,7.323,0,0,0,2.751-.53,2.7,2.7,0,0,0,1.642-1.366q.6-1.524,1.363-3.882" transform="translate(37.162 10.407)"/>
      <path id="Trazado_27247" data-name="Trazado 27247" class="cls-5" d="M89.709,17.177c.122-.245.4-.37.831-.37a4.627,4.627,0,0,1,1.434.164c.307.107.461.392.461.856a1.629,1.629,0,0,1,.464,1.2A6.471,6.471,0,0,1,92.62,20.6a6.849,6.849,0,0,0-.185,1.066c-.091.213-.316.732-.671,1.548a7.078,7.078,0,0,1-1.153,1.918,1.783,1.783,0,0,1-1.318.692,1.712,1.712,0,0,1-.788-.185,1.7,1.7,0,0,1-.416-1.247,13.5,13.5,0,0,1,.185-1.619,19.5,19.5,0,0,0,.231-2.032,6.357,6.357,0,0,0-2.126-1.389,6.973,6.973,0,0,0-2.775-.6,10.115,10.115,0,0,0-.74,4.437,10.443,10.443,0,0,0,.74,4.484,6.8,6.8,0,0,0,1.69,2.2,32.394,32.394,0,0,0,2.98,2.243,37.73,37.73,0,0,1,3.377,2.564,10.581,10.581,0,0,1,2.217,2.752q1.157,1.99,1.9,3.514a12.733,12.733,0,0,1,1.11,3.144,15.867,15.867,0,0,1,.37,3.329A21.412,21.412,0,0,1,96.8,52.11,22.421,22.421,0,0,1,95.4,56.2a9.524,9.524,0,0,1-2.96,3.768,13.573,13.573,0,0,1-4.855,2.1H83.6a5.229,5.229,0,0,1-2.98-1.34,23.437,23.437,0,0,1-2.889-2.589A11.8,11.8,0,0,1,76.3,52.5a13.883,13.883,0,0,1,.418-3.19,1.465,1.465,0,0,0-1.019.509,1.189,1.189,0,0,1-.925.51,2.981,2.981,0,0,1-.854-1.366,6.691,6.691,0,0,1-.162-1.594,20.518,20.518,0,0,1,3.653-.879q1.016-.183,2.126-.463a15.316,15.316,0,0,0,2.126-.694,2.243,2.243,0,0,1,1.713.694,2.424,2.424,0,0,1,.646,1.712,3.312,3.312,0,0,1-.418,1.571,6.842,6.842,0,0,0-1.617.162,3.011,3.011,0,0,0-1.34.857,4.276,4.276,0,0,0-1.019,3.142,8.081,8.081,0,0,0,.811,3.535,3.858,3.858,0,0,0,2.149,2.153,1.267,1.267,0,0,0,1.016-.51c.031-.031.142-.122.327-.276a1.043,1.043,0,0,1,.692-.231,10.773,10.773,0,0,0,4.923-5.064,17.578,17.578,0,0,0,1.688-7.836,24.939,24.939,0,0,0-.694-5.779,8.3,8.3,0,0,0-3.976-3.976,11.3,11.3,0,0,1-2.172-1.32,21.845,21.845,0,0,1-1.8-1.64A6.344,6.344,0,0,0,81.34,31.6,8.822,8.822,0,0,1,79.3,30.032q-.278-.325-1.34-1.386A10.944,10.944,0,0,1,76.3,26.587a3.647,3.647,0,0,1-.6-1.872,5.147,5.147,0,0,1-.231-1.617q0-3.1,3.192-6.291a2.136,2.136,0,0,0,.783-.162c.279-.106.464-.177.555-.2a5.741,5.741,0,0,1,2.59-.649,8.267,8.267,0,0,1,1.48.114,14.271,14.271,0,0,1,1.48.393l2.032.509c.063.063.185.172.37.325a4.589,4.589,0,0,0,.694.461,1.8,1.8,0,0,0,.881.233,1.471,1.471,0,0,1,.185-.649" transform="translate(48.093 10.297)"/>
      <path id="Trazado_27248" data-name="Trazado 27248" class="cls-5" d="M106.549,59.215a1.421,1.421,0,0,0,1.019-.461,1.357,1.357,0,0,1,.968-.464V47.424a41.762,41.762,0,0,0-.253-4.67q-.253-2.262-.3-2.681a36.1,36.1,0,0,1-.413-4.437q0-3.928-.162-6.38a16.094,16.094,0,0,0-.857-4.391V20.887a5.853,5.853,0,0,0-1.71.37,5.483,5.483,0,0,1-1.246.276q-.927,0-.927-1.665a.781.781,0,0,1,.208-.578,5.27,5.27,0,0,1,.669-.532,5.162,5.162,0,0,0,1.11-.785l.97-1.018a8.033,8.033,0,0,1,2.614-.808,28.013,28.013,0,0,1,3.306-.162c.463,0,1-.031,1.621-.094l1.29-.045a13.251,13.251,0,0,1,2.083.185,2.171,2.171,0,0,1,.345-.117.724.724,0,0,1,.532.071,21.559,21.559,0,0,0,1.991,1.48c.183.154.491.378.923.669a7.37,7.37,0,0,1,1.016.808,5.171,5.171,0,0,1,2.172,1.8,23.8,23.8,0,0,1,1.756,3.1,42.386,42.386,0,0,1,1.921,4.441,21.752,21.752,0,0,1,.995,4.484l.14,1.155q.04.325.23,1.9a26.678,26.678,0,0,1,.183,3.051,18.615,18.615,0,0,1-.553,4.622,14.234,14.234,0,0,1-1.019,5.295,25.119,25.119,0,0,1-2.286,4.508q-1.276,1.943-3.539,4.992a14.452,14.452,0,0,0-1.525.879,21.133,21.133,0,0,1-3.051,1.5,9.335,9.335,0,0,1-3.329.532h-1.9a8.489,8.489,0,0,1-3.007.81q-1.707.161-3.882.162a17.152,17.152,0,0,1-1.457-1.619,2.228,2.228,0,0,1-.53-1.341Zm6.245-37.5.043,2.126q0,2.315.142,4.115c.058,1.3.091,2.219.091,2.774q0,.88.185,2.914c.121,1.54.185,2.866.185,3.976v9.8a7.733,7.733,0,0,0,.231,1.873c.155.633.244,1.011.276,1.133a11.154,11.154,0,0,1,.507,2.866,7.226,7.226,0,0,1-.276,1.895,7.123,7.123,0,0,0-.185,1.062,1.431,1.431,0,0,0,.461,1.019,4.211,4.211,0,0,0,1.48-.464,3.355,3.355,0,0,1,1.48-.507.939.939,0,0,1,.231-.694.923.923,0,0,1,.463-.276,1.921,1.921,0,0,1,.322-.046c.4,0,.658-.126.765-.37a1.654,1.654,0,0,0,.162-.6,9.927,9.927,0,0,0,1.664-4.414,50.763,50.763,0,0,0,.324-6.4,19.928,19.928,0,0,1,.185-2.032c.154-1.543.231-2.511.231-2.913a9.219,9.219,0,0,0-.416-2.914v-2.96q-.183-.969-.6-3.512a47.092,47.092,0,0,0-1.226-5.711,8.722,8.722,0,0,0-2.1-3.583,2.683,2.683,0,0,0-1.431-.785,16.337,16.337,0,0,0-2.544-.14,4.107,4.107,0,0,0-.646,2.775" transform="translate(66.944 10.333)"/>
      <path id="Trazado_27249" data-name="Trazado 27249" class="cls-5" d="M139.268,22.532a7.834,7.834,0,0,1-.046-1.016,5.655,5.655,0,0,0-.093-1.156,1.241,1.241,0,0,0-.416-.694c-.618-.339-1.247-.662-1.895-.97a37.075,37.075,0,0,0-3.724.162,7.857,7.857,0,0,0-2.842.808,2.223,2.223,0,0,0-.671,1.18,9.265,9.265,0,0,0-.162,1.966q0,2.173-.093,4.484l-.048,2.681c0,.464.079,1.386.233,2.775a17.51,17.51,0,0,1,.185,1.941,4.264,4.264,0,0,1-.418,1.941,3.906,3.906,0,0,0,2.106.717,32.383,32.383,0,0,0,3.535.162,10.236,10.236,0,0,1,.162-1.964c.107-.54.378-.808.81-.808a2.442,2.442,0,0,1,.925.114,6.132,6.132,0,0,1,.97.811,2.24,2.24,0,0,0-.231,1.016,4.557,4.557,0,0,0-.045.786,15.707,15.707,0,0,0,.137,2.032c.061.866.093,1.48.093,1.85a3.71,3.71,0,0,1-.207,1.409.732.732,0,0,1-.717.487c-.093-.061-.294-.185-.6-.37a4.454,4.454,0,0,1-.879-.7,1.2,1.2,0,0,1-.416-.831v-.971h-4.669a12.432,12.432,0,0,0-.509,3.932q0,1.571.139,3.1.092,1.851.091,2.543,0,.188.14,5.04.136,2.035.139,3.329a15.064,15.064,0,0,0,3.4.788q1.5.136,4.138.137a1.373,1.373,0,0,0,.834-.971,4.7,4.7,0,0,0,.137-1.34,5.378,5.378,0,0,1,.162-1.5,1.452,1.452,0,0,1,.763-.854,1.494,1.494,0,0,1,1.571,1.272,14.232,14.232,0,0,1,.324,3.4,2,2,0,0,1-.438,1.226,21.8,21.8,0,0,1-1.457,1.64h-4.763q-4.718,0-8.021-.16a58.569,58.569,0,0,1-7.051-.811V59.244h3.791a32.282,32.282,0,0,0,.415-5.363q0-1.621-.185-5.042-.23-3-.23-5.592V19.665H119.85V17.771a47.035,47.035,0,0,1,5.823-.971,47.5,47.5,0,0,0,5.5-.925h9.43c.063.063.169.18.325.347a2.89,2.89,0,0,1,.438.7,2.007,2.007,0,0,1,.208.854,7.556,7.556,0,0,0,.231,1.571c.154,1.079.233,1.728.233,1.941a2.248,2.248,0,0,1-.51,1.574,2.451,2.451,0,0,1-1.849.555,3.3,3.3,0,0,1-.416-.881" transform="translate(78.148 10.351)"/>
      <path id="Trazado_27250" data-name="Trazado 27250" class="cls-5" d="M168.777,59.235a7.739,7.739,0,0,1-1.388,1.2,10.756,10.756,0,0,1-15.072-3.791,45.183,45.183,0,0,1-2.866-6.658,28.556,28.556,0,0,1-.763-4.973q-.161-2.518-.162-6.311c0-.4-.031-.97-.091-1.71-.063-.8-.094-1.4-.094-1.8a13.337,13.337,0,0,1,.185-2.174c.031-.185.122-.692.279-1.526a11.791,11.791,0,0,0,.228-2.08q.094-.461.324-1.756a17.429,17.429,0,0,1,.393-1.987,2.393,2.393,0,0,1,.672-1.158q.508-.691,1.525-2.263a38,38,0,0,1,2.381-3.331,9.338,9.338,0,0,1,2.5-2.08,6.877,6.877,0,0,1,3.537-.877,8.457,8.457,0,0,1,1.436.091,9.89,9.89,0,0,1,4.414.831,8.548,8.548,0,0,1,3.074,2.96,11.119,11.119,0,0,1,3.677,4.437,18.327,18.327,0,0,1,1.824,6.613q.186,1.9.185,4.992v2.035a34.893,34.893,0,0,1-.785,8,42.377,42.377,0,0,1-4.208,11.7,8.266,8.266,0,0,1-1.2,1.617m-1.55-6.149q.766-2.362,1.133-3.976a17.445,17.445,0,0,0,.763-3.791q.161-1.9.162-4.717a20.685,20.685,0,0,1,.185-2.452c0-.185.023-.514.071-.993s.068-.933.068-1.363-.017-.933-.048-1.5-.059-1.008-.091-1.318q-.183-1.849-.185-2.772a14.392,14.392,0,0,1-.925-2.775,13.108,13.108,0,0,0-.971-2.914L166.88,23.4a25.132,25.132,0,0,0-1.477-2.82,4.189,4.189,0,0,0-1.665-1.526,18.211,18.211,0,0,1-1.85-.093c-.677-.061-1.341-.093-1.987-.093a13.077,13.077,0,0,0-2.22,2.889,22.784,22.784,0,0,0-1.571,3.676,7.447,7.447,0,0,0-.808,2.521,25.449,25.449,0,0,0-.165,3.165,53.683,53.683,0,0,0-.37,6.567,82.868,82.868,0,0,0,1.343,14.193,7.659,7.659,0,0,1,.53,1.389c.139.492.241.816.3.97q.278.971.487,1.5a2.574,2.574,0,0,0,.578.9.636.636,0,0,1,.484.137,1.552,1.552,0,0,1,.21.6,1.39,1.39,0,0,0,.37.738,3.29,3.29,0,0,0,2.4.74,7.323,7.323,0,0,0,2.751-.53,2.7,2.7,0,0,0,1.642-1.366q.6-1.524,1.363-3.882" transform="translate(96.725 10.407)"/>
      <path id="Trazado_27251" data-name="Trazado 27251" class="cls-5" d="M180.254,19.212a32.165,32.165,0,0,0-.555,6.567q0,2.587.208,5.477t.253,3.677l.094.971q.089,1.063.091,3.051l-.045,2.82c-.031.461-.046,1.11-.046,1.941q0,1.157.185,4.208.23,2.681.231,5.04a18.126,18.126,0,0,1-.715,5.523,4.408,4.408,0,0,1-2.614,2.937,5.023,5.023,0,0,1-2.22.416,15.629,15.629,0,0,1-2.544-.231q-1.571-.183-2.126-.185a2.069,2.069,0,0,1-1.178-.393,8.645,8.645,0,0,1-1.11-.9c-.354-.339-.593-.555-.715-.646a6.541,6.541,0,0,1-1.48-2.519,9.994,9.994,0,0,1-.555-3.307,7.026,7.026,0,0,1,1.11-4.067,5.163,5.163,0,0,0,1.016-.185c.154-.031.4-.078.74-.14a5.422,5.422,0,0,1,.925-.091,1.683,1.683,0,0,1,1.247.416,17.683,17.683,0,0,0-1.062,2.334,6.615,6.615,0,0,0-.37,2.242,7.289,7.289,0,0,0,.416,2.311,1.71,1.71,0,0,0,.785,1.412,3.708,3.708,0,0,0,2.22.575l.925-.97q0-2.867.507-7.86.461-5.452.464-7.859,0-1.2-.279-3.791-.183-1.2-.231-2.126-.089-1.016-.091-2.96c0-.213-.031-.6-.093-1.155a9.761,9.761,0,0,1-.14-2.082,16.606,16.606,0,0,0-.045-2.035c-.061-.737-.093-1.247-.093-1.525a10.46,10.46,0,0,0-.278-2.357,9.372,9.372,0,0,1-.185-1.571,4,4,0,0,1,.068-.74,3.873,3.873,0,0,0,.071-.74,2.01,2.01,0,0,0-.6-1.48,2.042,2.042,0,0,1-.785.416,4.9,4.9,0,0,1-.834.048,6.4,6.4,0,0,0-1.155.091,5.128,5.128,0,0,0-1.2.416,5.433,5.433,0,0,1-.347,2.08,1.531,1.531,0,0,1-1.594.834,3.614,3.614,0,0,1-.831-2.151,30.821,30.821,0,0,1-.185-3.722.744.744,0,0,1,.484-.808,4.813,4.813,0,0,1,1.457-.162q1.016,0,2.5-.094c.985-.063,1.712-.107,2.172-.139q.786-.047,2.752-.137t3.4-.094a21.374,21.374,0,0,1,4.945.464,4.216,4.216,0,0,1,1.688,1.409,3.365,3.365,0,0,1,.626,1.964,3.489,3.489,0,0,1-.37,1.571,1.53,1.53,0,0,1-.117.811,1.858,1.858,0,0,1-.9.114c-.524,0-.862-.122-1.016-.37a2.786,2.786,0,0,1-.324-1.109,2.761,2.761,0,0,0-.555-1.434Z" transform="translate(107.857 10.297)"/>
      <path id="Trazado_27252" data-name="Trazado 27252" class="cls-5" d="M199.086,59.235a7.739,7.739,0,0,1-1.388,1.2,10.756,10.756,0,0,1-15.072-3.791,45.182,45.182,0,0,1-2.866-6.658A28.551,28.551,0,0,1,179,45.016q-.161-2.518-.162-6.311c0-.4-.031-.97-.091-1.71-.063-.8-.094-1.4-.094-1.8a13.34,13.34,0,0,1,.185-2.174c.031-.185.122-.692.279-1.526a11.791,11.791,0,0,0,.228-2.08q.094-.461.324-1.756a17.429,17.429,0,0,1,.393-1.987,2.393,2.393,0,0,1,.672-1.158q.508-.691,1.525-2.263a38,38,0,0,1,2.381-3.331,9.338,9.338,0,0,1,2.5-2.08,6.877,6.877,0,0,1,3.537-.877,8.457,8.457,0,0,1,1.436.091,9.89,9.89,0,0,1,4.414.831,8.549,8.549,0,0,1,3.074,2.96,11.12,11.12,0,0,1,3.677,4.437,18.328,18.328,0,0,1,1.824,6.613q.186,1.9.185,4.992v2.035a34.892,34.892,0,0,1-.785,8,42.378,42.378,0,0,1-4.208,11.7,8.266,8.266,0,0,1-1.2,1.617m-1.55-6.149q.766-2.362,1.133-3.976a17.444,17.444,0,0,0,.763-3.791q.161-1.9.162-4.717a20.679,20.679,0,0,1,.185-2.452c0-.185.023-.514.071-.993s.068-.933.068-1.363-.017-.933-.048-1.5-.059-1.008-.091-1.318q-.183-1.849-.185-2.772a14.387,14.387,0,0,1-.925-2.775,13.107,13.107,0,0,0-.971-2.914l-.509-1.109a25.127,25.127,0,0,0-1.477-2.82,4.189,4.189,0,0,0-1.665-1.526,18.211,18.211,0,0,1-1.85-.093c-.677-.061-1.341-.093-1.987-.093a13.078,13.078,0,0,0-2.22,2.889,22.781,22.781,0,0,0-1.571,3.676,7.446,7.446,0,0,0-.808,2.521,25.443,25.443,0,0,0-.165,3.165,53.68,53.68,0,0,0-.37,6.567,82.869,82.869,0,0,0,1.343,14.193,7.658,7.658,0,0,1,.53,1.389c.139.492.241.816.3.97q.278.971.487,1.5a2.574,2.574,0,0,0,.578.9.636.636,0,0,1,.484.137,1.553,1.553,0,0,1,.21.6,1.39,1.39,0,0,0,.37.738,3.29,3.29,0,0,0,2.4.74,7.323,7.323,0,0,0,2.751-.53,2.7,2.7,0,0,0,1.642-1.366q.6-1.524,1.363-3.882" transform="translate(116.488 10.407)"/>
      <path id="Trazado_27253" data-name="Trazado 27253" class="cls-5" d="M225.359,17.177c.122-.245.4-.37.831-.37a4.628,4.628,0,0,1,1.434.164c.307.107.461.392.461.856a1.629,1.629,0,0,1,.464,1.2,6.471,6.471,0,0,1-.279,1.571,6.852,6.852,0,0,0-.185,1.066c-.091.213-.316.732-.671,1.548a7.078,7.078,0,0,1-1.153,1.918,1.783,1.783,0,0,1-1.318.692,1.712,1.712,0,0,1-.788-.185,1.7,1.7,0,0,1-.416-1.247,13.494,13.494,0,0,1,.185-1.619,19.507,19.507,0,0,0,.231-2.032,6.358,6.358,0,0,0-2.126-1.389,6.973,6.973,0,0,0-2.775-.6,10.115,10.115,0,0,0-.74,4.437,10.443,10.443,0,0,0,.74,4.484,6.819,6.819,0,0,0,1.688,2.2,32.678,32.678,0,0,0,2.982,2.243,37.737,37.737,0,0,1,3.377,2.564,10.582,10.582,0,0,1,2.217,2.752q1.157,1.99,1.9,3.514a12.732,12.732,0,0,1,1.11,3.144,15.868,15.868,0,0,1,.37,3.329,21.413,21.413,0,0,1-.441,4.693,22.422,22.422,0,0,1-1.409,4.09,9.524,9.524,0,0,1-2.96,3.768,13.573,13.573,0,0,1-4.855,2.1h-3.976a5.229,5.229,0,0,1-2.98-1.34,23.442,23.442,0,0,1-2.889-2.589A11.8,11.8,0,0,1,211.95,52.5a13.884,13.884,0,0,1,.418-3.19,1.465,1.465,0,0,0-1.019.509,1.189,1.189,0,0,1-.925.51,2.98,2.98,0,0,1-.854-1.366,6.69,6.69,0,0,1-.162-1.594,20.518,20.518,0,0,1,3.653-.879q1.016-.183,2.126-.463a15.317,15.317,0,0,0,2.126-.694,2.243,2.243,0,0,1,1.713.694,2.424,2.424,0,0,1,.646,1.712,3.313,3.313,0,0,1-.418,1.571,6.841,6.841,0,0,0-1.617.162,3.011,3.011,0,0,0-1.34.857,4.276,4.276,0,0,0-1.019,3.142,8.081,8.081,0,0,0,.811,3.535,3.858,3.858,0,0,0,2.149,2.153,1.267,1.267,0,0,0,1.016-.51c.031-.031.142-.122.327-.276a1.043,1.043,0,0,1,.692-.231,10.773,10.773,0,0,0,4.923-5.064,17.578,17.578,0,0,0,1.688-7.836,24.94,24.94,0,0,0-.694-5.779,8.3,8.3,0,0,0-3.976-3.976,11.3,11.3,0,0,1-2.172-1.32,21.847,21.847,0,0,1-1.8-1.64,6.345,6.345,0,0,0-1.247-.925,8.823,8.823,0,0,1-2.035-1.571q-.278-.325-1.34-1.386a10.945,10.945,0,0,1-1.665-2.058,3.647,3.647,0,0,1-.6-1.872,5.147,5.147,0,0,1-.231-1.617q0-3.1,3.192-6.291a2.136,2.136,0,0,0,.783-.162c.279-.106.464-.177.555-.2a5.741,5.741,0,0,1,2.59-.649,8.266,8.266,0,0,1,1.48.114,14.38,14.38,0,0,1,1.48.393l2.032.509c.063.063.185.172.37.325a4.589,4.589,0,0,0,.694.461,1.8,1.8,0,0,0,.881.233,1.471,1.471,0,0,1,.185-.649" transform="translate(136.543 10.297)"/>
      <path id="Trazado_27254" data-name="Trazado 27254" class="cls-5" d="M243.658,22.532a7.831,7.831,0,0,1-.046-1.016,5.66,5.66,0,0,0-.092-1.156,1.242,1.242,0,0,0-.416-.694c-.618-.339-1.247-.662-1.895-.97a37.075,37.075,0,0,0-3.724.162,7.857,7.857,0,0,0-2.842.808,2.223,2.223,0,0,0-.671,1.18,9.266,9.266,0,0,0-.162,1.966q0,2.173-.092,4.484l-.048,2.681c0,.464.079,1.386.233,2.775a17.516,17.516,0,0,1,.185,1.941,4.264,4.264,0,0,1-.418,1.941,3.905,3.905,0,0,0,2.106.717,32.383,32.383,0,0,0,3.535.162,10.236,10.236,0,0,1,.162-1.964c.107-.54.378-.808.81-.808a2.441,2.441,0,0,1,.925.114,6.13,6.13,0,0,1,.97.811,2.24,2.24,0,0,0-.231,1.016,4.556,4.556,0,0,0-.045.786,15.423,15.423,0,0,0,.139,2.032c.059.866.091,1.48.091,1.85a3.711,3.711,0,0,1-.207,1.409.732.732,0,0,1-.717.487c-.092-.061-.294-.185-.6-.37a4.455,4.455,0,0,1-.879-.7,1.2,1.2,0,0,1-.416-.831v-.971h-4.669a12.432,12.432,0,0,0-.509,3.932q0,1.571.139,3.1.092,1.851.091,2.543,0,.188.14,5.04.136,2.035.139,3.329a15.063,15.063,0,0,0,3.4.788q1.5.136,4.138.137a1.373,1.373,0,0,0,.834-.971,4.7,4.7,0,0,0,.137-1.34,5.378,5.378,0,0,1,.162-1.5,1.452,1.452,0,0,1,.763-.854,1.494,1.494,0,0,1,1.571,1.272,14.233,14.233,0,0,1,.324,3.4,2,2,0,0,1-.438,1.226,21.81,21.81,0,0,1-1.457,1.64h-4.763q-4.718,0-8.021-.16a58.568,58.568,0,0,1-7.051-.811V59.244h3.791a32.285,32.285,0,0,0,.415-5.363q0-1.621-.185-5.042-.23-3-.23-5.592V19.665H224.24V17.771a47.034,47.034,0,0,1,5.823-.971,47.5,47.5,0,0,0,5.5-.925H245c.063.063.169.18.325.347a2.891,2.891,0,0,1,.438.7,2.008,2.008,0,0,1,.208.854,7.558,7.558,0,0,0,.231,1.571c.154,1.079.233,1.728.233,1.941a2.248,2.248,0,0,1-.51,1.574,2.451,2.451,0,0,1-1.849.555,3.3,3.3,0,0,1-.416-.881" transform="translate(146.215 10.351)"/>
      <path id="Trazado_27255" data-name="Trazado 27255" class="cls-5" d="M260.942,19.29a3.957,3.957,0,0,0,.347.393,1.194,1.194,0,0,1,.507.925,25.868,25.868,0,0,1-.185,3.492c-.122.877-.4,1.318-.831,1.318a.963.963,0,0,1-1.016-.649,9.041,9.041,0,0,1-.37-2.035,3.719,3.719,0,0,0-.507-2.126,13.584,13.584,0,0,0-4.209-.692,7.923,7.923,0,0,0-3.468.692,9.689,9.689,0,0,0-1.48,2.452,9.133,9.133,0,0,1-1.434,2.359,2.919,2.919,0,0,1-.185.785,3.288,3.288,0,0,1-.74,1.156,26.97,26.97,0,0,0-.854,4.921q-.161,2.292-.162,6.638v5.733q2.126,12.066,6.752,14.472a3.69,3.69,0,0,0,1.662.37,5.635,5.635,0,0,0,1.9-.349,15.05,15.05,0,0,0,2.22-1.041,3.75,3.75,0,0,0,.413-1.571q.047-.555.048-1.8,0-1.2.069-1.966a3.926,3.926,0,0,1,.392-1.409,3.458,3.458,0,0,1,1.2.162,3.283,3.283,0,0,1,.831.484,2.567,2.567,0,0,0,.3.208,1.039,1.039,0,0,0,.575.162v6.752q-1.294,3.1-6.564,3.1a25.044,25.044,0,0,1-4-.324q-2.012-.325-4.788-.925-1.152-1.063-1.756-1.523a26.3,26.3,0,0,1-2.24-1.966,13.312,13.312,0,0,1-1.783-2.29q-.461-2.173-.97-4.067-.971-3.928-1.455-6.681a31.742,31.742,0,0,1-.486-5.524q.277-1.482.74-4.441.553-3.42,1.016-5.662a37.738,37.738,0,0,1,1.155-4.323,6.543,6.543,0,0,0,.834-1.341,3.481,3.481,0,0,1,1.016-1.573,14.612,14.612,0,0,1,4.461-4.046,11.666,11.666,0,0,1,6.129-1.687q1.2.369,2.032.555a20.791,20.791,0,0,1,2.775.947,6.76,6.76,0,0,1,1.941,1.409.843.843,0,0,0,.162.532" transform="translate(155.632 10.333)"/>
      <path id="Trazado_27256" data-name="Trazado 27256" class="cls-5" d="M274.7,59.235a7.74,7.74,0,0,1-1.388,1.2,10.756,10.756,0,0,1-15.072-3.791,45.183,45.183,0,0,1-2.866-6.658,28.556,28.556,0,0,1-.763-4.973q-.161-2.518-.162-6.311c0-.4-.031-.97-.091-1.71-.063-.8-.094-1.4-.094-1.8a13.335,13.335,0,0,1,.185-2.174c.031-.185.122-.692.279-1.526a11.79,11.79,0,0,0,.228-2.08q.094-.461.324-1.756a17.419,17.419,0,0,1,.393-1.987,2.392,2.392,0,0,1,.672-1.158q.508-.691,1.525-2.263a37.995,37.995,0,0,1,2.381-3.331,9.338,9.338,0,0,1,2.5-2.08,6.877,6.877,0,0,1,3.537-.877,8.456,8.456,0,0,1,1.436.091,9.89,9.89,0,0,1,4.414.831,8.548,8.548,0,0,1,3.075,2.96,11.12,11.12,0,0,1,3.677,4.437,18.327,18.327,0,0,1,1.824,6.613q.186,1.9.185,4.992v2.035a34.892,34.892,0,0,1-.785,8,42.377,42.377,0,0,1-4.208,11.7,8.265,8.265,0,0,1-1.2,1.617m-1.55-6.149q.766-2.362,1.133-3.976a17.442,17.442,0,0,0,.763-3.791q.161-1.9.162-4.717a20.682,20.682,0,0,1,.185-2.452c0-.185.023-.514.071-.993s.068-.933.068-1.363-.017-.933-.048-1.5-.06-1.008-.091-1.318q-.183-1.849-.185-2.772a14.39,14.39,0,0,1-.925-2.775,13.109,13.109,0,0,0-.971-2.914l-.509-1.109a25.145,25.145,0,0,0-1.477-2.82,4.189,4.189,0,0,0-1.665-1.526,18.212,18.212,0,0,1-1.85-.093c-.677-.061-1.341-.093-1.987-.093a13.078,13.078,0,0,0-2.22,2.889,22.788,22.788,0,0,0-1.571,3.676,7.446,7.446,0,0,0-.808,2.521,25.446,25.446,0,0,0-.165,3.165,53.68,53.68,0,0,0-.37,6.567,82.866,82.866,0,0,0,1.343,14.193,7.654,7.654,0,0,1,.53,1.389c.139.492.241.816.3.97q.278.971.487,1.5a2.573,2.573,0,0,0,.578.9.636.636,0,0,1,.484.137,1.553,1.553,0,0,1,.21.6,1.4,1.4,0,0,0,.368.738,3.3,3.3,0,0,0,2.4.74,7.323,7.323,0,0,0,2.751-.53,2.7,2.7,0,0,0,1.642-1.366q.6-1.524,1.363-3.882" transform="translate(165.795 10.407)"/>
      <path id="Trazado_27257" data-name="Trazado 27257" class="cls-6" d="M334.026,26.331l-1.4,1.5,5.62,5.224H283.783v3.3h54.468l-5.624,5.225,1.4,1.5,9.009-8.378Z" transform="translate(185.041 17.169)"/>
      <path id="Trazado_27258" data-name="Trazado 27258" class="cls-4" d="M334.026,26.331l-1.4,1.5,5.62,5.224H283.783v3.3h54.468l-5.624,5.225,1.4,1.5,9.009-8.378Z" transform="translate(185.041 17.169)"/>
    </g>
  </g>
</svg>
