<svg xmlns="http://www.w3.org/2000/svg" xmlns:xlink="http://www.w3.org/1999/xlink" width="172" height="77.216" viewBox="0 0 172 77.216">
  <defs>
    <style>
      .cls-1, .cls-6 {
        fill: none;
      }

      .cls-2 {
        clip-path: url(#clip-path);
      }

      .cls-3 {
        fill: #4db2aa;
      }

      .cls-4 {
        fill: #e1eede;
      }

      .cls-5 {
        fill: #1c1c1c;
      }

      .cls-6 {
        stroke: #dc0c19;
        stroke-miterlimit: 10;
      }
    </style>
    <clipPath id="clip-path">
      <rect id="Rectángulo_6" data-name="Rectángulo 6" class="cls-1" width="172" height="77.216"/>
    </clipPath>
  </defs>
  <g id="Grupo_6" data-name="Grupo 6" transform="translate(0 0)">
    <g id="Grupo_5" data-name="Grupo 5" class="cls-2" transform="translate(0 0.001)">
      <path id="Trazado_603" data-name="Trazado 603" class="cls-3" d="M0,38.927C-.371,38.3,29.8-8,103.067,1.211c0,0,51.252,3.077,68.933,37.716,0,0-12.743,35.72-83.587,38.246,0,0-63.763,2.886-88.41-38.246" transform="translate(0 -0.001)"/>
      <path id="Trazado_604" data-name="Trazado 604" class="cls-4" d="M100.812,37.194A35.046,35.046,0,1,1,65.767,2.147a35.046,35.046,0,0,1,35.045,35.047" transform="translate(20.233 1.413)"/>
      <path id="Trazado_605" data-name="Trazado 605" class="cls-5" d="M70.238,28.5A13.162,13.162,0,1,1,57.075,15.341,13.163,13.163,0,0,1,70.238,28.5" transform="translate(28.923 10.103)"/>
      <path id="Trazado_606" data-name="Trazado 606" class="cls-6" d="M70.238,28.5A13.162,13.162,0,1,1,57.075,15.341,13.163,13.163,0,0,1,70.238,28.5Z" transform="translate(28.923 10.103)"/>
    </g>
  </g>
</svg>
