<svg id="Grupo_19" data-name="Grupo 19" xmlns="http://www.w3.org/2000/svg" xmlns:xlink="http://www.w3.org/1999/xlink" width="181.73" height="76.408" viewBox="0 0 181.73 76.408">
  <defs>
    <style>
      .cls-1 {
        fill: none;
      }

      .cls-2 {
        clip-path: url(#clip-path);
      }

      .cls-3 {
        fill: #4db2aa;
      }

      .cls-4 {
        fill: #e1eede;
      }

      .cls-5 {
        fill: #c8bf00;
      }
    </style>
    <clipPath id="clip-path">
      <path id="Rectángulo_8" data-name="Rectángulo 8" class="cls-1" d="M0,0H181.73l-2.776,76.408H2.776Z"/>
    </clipPath>
  </defs>
  <g id="Grupo_11" data-name="Grupo 11" class="cls-2" transform="translate(0 0)">
    <path id="Trazado_616" data-name="Trazado 616" class="cls-3" d="M1.425,39.11c-.1-.155,1.679-3.137,5.618-7.393A89.059,89.059,0,0,1,25.71,16.608a109.632,109.632,0,0,1,33.5-13.416C73.04.077,89.545-1.114,108.889,1.236c0,0,2.894.178,7.643,1A119.776,119.776,0,0,1,135.259,7.1a105.279,105.279,0,0,1,23.415,11.443A82.23,82.23,0,0,1,180.309,39.11a28.5,28.5,0,0,1-3.416,5.547,58.061,58.061,0,0,1-12.954,12.3,92.871,92.871,0,0,1-26.48,12.634c-11.511,3.568-25.974,6.168-44.12,6.774,0,0-4.082.173-10.6-.184a162.392,162.392,0,0,1-25.261-3.369A115.149,115.149,0,0,1,27.2,61.969C17.311,56.6,8.175,49.239,1.425,39.11" transform="translate(0 0.002)"/>
    <path id="Trazado_617" data-name="Trazado 617" class="cls-4" d="M73.43,35.165a33.145,33.145,0,0,1-3.048,13.421A34.751,34.751,0,0,1,62.5,59.439,36.714,36.714,0,0,1,50.983,66.7a38.315,38.315,0,0,1-28.016,0,36.717,36.717,0,0,1-11.515-7.263A34.753,34.753,0,0,1,3.569,48.587,33.226,33.226,0,0,1,3.2,21.6,34.637,34.637,0,0,1,10.939,10.4,36.635,36.635,0,0,1,22.6,2.8a38.308,38.308,0,0,1,28.752,0,36.633,36.633,0,0,1,11.66,7.6A34.635,34.635,0,0,1,70.75,21.6a33.091,33.091,0,0,1,2.68,13.569" transform="translate(53.891 3.632)"/>
    <path id="Trazado_618" data-name="Trazado 618" class="cls-5" d="M.393,29.674A17.357,17.357,0,0,1,.785,27.6a10.316,10.316,0,0,1,.61-1.727,11.469,11.469,0,0,1,.921-1.619c.369-.549.8-1.121,1.323-1.756a8.712,8.712,0,0,0,1.591-2.811A6.892,6.892,0,0,0,5.555,17.1a9.431,9.431,0,0,0-.472-2.335c-.238-.733-.531-1.419-.8-2.053a11.085,11.085,0,0,0-.48-1,7.863,7.863,0,0,0-.618-.966,6.59,6.59,0,0,0-.805-.891,6.509,6.509,0,0,0-1.04-.779s.489.108,1.252.356a19.931,19.931,0,0,1,2.893,1.2A14.083,14.083,0,0,1,8.724,12.85,8.473,8.473,0,0,1,11.012,16.3a14.973,14.973,0,0,1,.329-2,21.412,21.412,0,0,1,1.649-4.7,18.721,18.721,0,0,1,3.97-5.432A18.461,18.461,0,0,1,24.253,0a12.721,12.721,0,0,0-.9,1.721,16.09,16.09,0,0,0-1.249,4.4,12.833,12.833,0,0,0,.586,5.941,14.748,14.748,0,0,0,4.577,6.349,4.232,4.232,0,0,1,.487.423,6.548,6.548,0,0,1,1,1.276,6.614,6.614,0,0,1,.825,2.141,7.64,7.64,0,0,1-.039,3.015,3.728,3.728,0,0,0,.6-.382,5.674,5.674,0,0,0,1.22-1.284,6.337,6.337,0,0,0,1-2.4,9.426,9.426,0,0,0-.078-3.723,19.8,19.8,0,0,1,1.338,2.19,26.149,26.149,0,0,1,2.252,5.7,20.192,20.192,0,0,1,.536,7.883,18.323,18.323,0,0,1-3.77,8.768,10.115,10.115,0,0,1-.931,1.146,16.43,16.43,0,0,1-2.86,2.456,17.3,17.3,0,0,1-4.893,2.3,19.7,19.7,0,0,1-7.038.681,19.5,19.5,0,0,1-6.763-1.768,18.217,18.217,0,0,1-5.561-3.987A15.923,15.923,0,0,1,1.05,37a16.088,16.088,0,0,1-.657-7.33" transform="translate(72.465 14.224)"/>
  </g>
</svg>
