<svg xmlns="http://www.w3.org/2000/svg" xmlns:xlink="http://www.w3.org/1999/xlink" width="126.613" height="126.613" viewBox="0 0 126.613 126.613">
  <defs>
    <style>
      .cls-1, .cls-5 {
        fill: none;
      }

      .cls-2 {
        fill: #1268f8;
      }

      .cls-3 {
        clip-path: url(#clip-path);
      }

      .cls-4 {
        fill: #fff;
      }

      .cls-5 {
        stroke: #fff;
        stroke-miterlimit: 10;
        stroke-width: 1.108px;
      }
    </style>
    <clipPath id="clip-path">
      <rect id="Rectángulo_1432" data-name="Rectángulo 1432" class="cls-1" width="81.344" height="81.342" transform="translate(0 0)"/>
    </clipPath>
  </defs>
  <g id="Grupo_4043" data-name="Grupo 4043" transform="translate(-214 -2698.92)">
    <g id="Grupo_3449" data-name="Grupo 3449" transform="translate(-10.718 452.92)">
      <path id="Trazado_542" data-name="Trazado 542" class="cls-2" d="M129.613,66.306A63.306,63.306,0,1,1,66.306,3a63.306,63.306,0,0,1,63.306,63.306Z" transform="translate(221.718 2243)"/>
    </g>
    <g id="Grupo_4038" data-name="Grupo 4038" transform="translate(236.635 2721.555)">
      <g id="Grupo_4037" data-name="Grupo 4037" class="cls-3">
        <path id="Trazado_2489" data-name="Trazado 2489" class="cls-4" d="M8.232,24.91l13.159.631a.5.5,0,0,0,.319-.893L11.137,16.789a.5.5,0,0,0-.763.231L7.789,24.248a.5.5,0,0,0,.443.662"/>
        <path id="Trazado_2490" data-name="Trazado 2490" class="cls-4" d="M27.428,18.93a.5.5,0,0,0,.893-.319L27.69,5.452a.5.5,0,0,0-.662-.443L19.8,7.594a.5.5,0,0,0-.23.763Z"/>
        <path id="Trazado_2491" data-name="Trazado 2491" class="cls-4" d="M72.38,55.851,59.221,55.22a.5.5,0,0,0-.319.893l10.572,7.859a.5.5,0,0,0,.763-.231l2.585-7.228a.5.5,0,0,0-.442-.662"/>
        <path id="Trazado_2492" data-name="Trazado 2492" class="cls-4" d="M53.183,61.831a.5.5,0,0,0-.893.319l.631,13.159a.5.5,0,0,0,.662.443l7.228-2.585a.5.5,0,0,0,.23-.763Z"/>
        <path id="Trazado_2493" data-name="Trazado 2493" class="cls-4" d="M2.788,80.788a2.234,2.234,0,0,1-1.58-3.814L20.169,58.013l-1.1-1.528a13.9,13.9,0,0,1,1.45-18.012l5.76-5.761,2.05.432.254,2.783.578.224-5.482,5.482A9.553,9.553,0,0,0,21.724,52.2l1.309,2.952,6.421-6.423a2.235,2.235,0,0,1,3.161,3.16l-6.422,6.424,2.951,1.307a9.506,9.506,0,0,0,10.565-1.955L43.67,53.7l.137,2.861,2.975.348-3.913,3.913A13.833,13.833,0,0,1,33.022,64.9h0a13.9,13.9,0,0,1-8.163-2.622l-1.528-1.1L4.368,80.135a2.218,2.218,0,0,1-1.58.653"/>
        <path id="Trazado_2494" data-name="Trazado 2494" class="cls-5" d="M2.788,80.788a2.234,2.234,0,0,1-1.58-3.814L20.169,58.013l-1.1-1.528a13.9,13.9,0,0,1,1.45-18.012l5.76-5.761,2.05.432.254,2.783.578.224-5.482,5.482A9.553,9.553,0,0,0,21.724,52.2l1.309,2.952,6.421-6.423a2.235,2.235,0,0,1,3.161,3.16l-6.422,6.424,2.951,1.307a9.506,9.506,0,0,0,10.565-1.955L43.67,53.7l.137,2.861,2.975.348-3.913,3.913A13.833,13.833,0,0,1,33.022,64.9h0a13.9,13.9,0,0,1-8.163-2.622l-1.528-1.1L4.368,80.135A2.218,2.218,0,0,1,2.788,80.788Z"/>
        <path id="Trazado_2495" data-name="Trazado 2495" class="cls-4" d="M54.524,48.947l-2.472-.291L51.9,45.472l5.764-5.764a9.552,9.552,0,0,0,1.953-10.565L58.31,26.192l-6.421,6.422a2.235,2.235,0,0,1-3.161-3.16l6.422-6.423L52.2,21.723a9.51,9.51,0,0,0-10.564,1.955L36.692,28.62,36.415,25.6l-2.5-.528,4.558-4.558a13.978,13.978,0,0,1,18.011-1.449l1.528,1.1L76.974,1.207a2.235,2.235,0,1,1,3.161,3.16L61.173,23.329l1.1,1.528a13.9,13.9,0,0,1-1.448,18.011L54.589,49.1Z"/>
        <path id="Trazado_2496" data-name="Trazado 2496" class="cls-5" d="M54.524,48.947l-2.472-.291L51.9,45.472l5.764-5.764a9.552,9.552,0,0,0,1.953-10.565L58.31,26.192l-6.421,6.422a2.235,2.235,0,0,1-3.161-3.16l6.422-6.423L52.2,21.723a9.51,9.51,0,0,0-10.564,1.955L36.692,28.62,36.415,25.6l-2.5-.528,4.558-4.558a13.978,13.978,0,0,1,18.011-1.449l1.528,1.1L76.974,1.207a2.235,2.235,0,1,1,3.161,3.16L61.173,23.329l1.1,1.528a13.9,13.9,0,0,1-1.448,18.011L54.589,49.1Z"/>
      </g>
    </g>
  </g>
</svg>
