<svg xmlns="http://www.w3.org/2000/svg" width="126.613" height="126.613" viewBox="0 0 126.613 126.613">
  <defs>
    <style>
      .cls-1 {
        fill: #1268f8;
      }

      .cls-2 {
        fill: #fff;
      }
    </style>
  </defs>
  <g id="Grupo_4041" data-name="Grupo 4041" transform="translate(-214 -2318.307)">
    <path id="Trazado_542" data-name="Trazado 542" class="cls-1" d="M129.613,66.306A63.306,63.306,0,1,1,66.306,3a63.306,63.306,0,0,1,63.306,63.306Z" transform="translate(211 2315.307)"/>
    <g id="Grupo_2405" data-name="Grupo 2405" transform="translate(233.106 2337.566)">
      <g id="Grupo_2402" data-name="Grupo 2402" transform="translate(0 4.106)">
        <path id="Trazado_1273" data-name="Trazado 1273" class="cls-2" d="M3637.306,913.094a42.041,42.041,0,0,1-2.9-83.982,2.1,2.1,0,0,1,1.8,3.381,35.588,35.588,0,0,0-7.582,22.068,35.921,35.921,0,0,0,42.328,35.374,2.1,2.1,0,0,1,2.154,3.165A41.81,41.81,0,0,1,3637.306,913.094Zm-7.142-79.212a37.849,37.849,0,1,0,36.751,60.752q-1.177.07-2.342.071a40.189,40.189,0,0,1-40.143-40.144A39.691,39.691,0,0,1,3630.164,833.883Z" transform="translate(-3595.26 -829.108)"/>
      </g>
      <g id="Grupo_2403" data-name="Grupo 2403" transform="translate(66.298 7.623)">
        <path id="Trazado_1274" data-name="Trazado 1274" class="cls-2" d="M3890.025,866.137a2.1,2.1,0,0,1-2.032-1.579,10.092,10.092,0,0,0-7.234-7.258,2.072,2.072,0,0,1-1.178-.587l-.035-.035a2.1,2.1,0,0,1,.994-3.522,10.091,10.091,0,0,0,7.431-7.4,2.1,2.1,0,0,1,4.074,0,10.089,10.089,0,0,0,7.389,7.39,2.1,2.1,0,0,1,0,4.074,10.091,10.091,0,0,0-7.375,7.33,2.1,2.1,0,0,1-2.03,1.588Zm-3.866-10.947a2.934,2.934,0,1,0,5.583,1.728,14.287,14.287,0,0,1,2.1-1.735,2.931,2.931,0,1,0-5.572-1.735A14.292,14.292,0,0,1,3886.159,855.19Z" transform="translate(-3878.932 -844.156)"/>
      </g>
      <g id="Grupo_2404" data-name="Grupo 2404" transform="translate(56.158 0)">
        <path id="Trazado_1275" data-name="Trazado 1275" class="cls-2" d="M3841.534,823.448a2.1,2.1,0,0,1-2.032-1.579,3.19,3.19,0,0,0-2.237-2.28,2.079,2.079,0,0,1-1.1-.577,2.106,2.106,0,0,1,.979-3.537,3.193,3.193,0,0,0,2.347-2.338,2.1,2.1,0,0,1,2.037-1.6h0a2.1,2.1,0,0,1,2.037,1.6,3.189,3.189,0,0,0,2.334,2.335,2.1,2.1,0,0,1,0,4.074,3.188,3.188,0,0,0-2.329,2.315,2.1,2.1,0,0,1-2.03,1.588Z" transform="translate(-3835.543 -811.538)"/>
      </g>
    </g>
  </g>
</svg>
