<svg xmlns="http://www.w3.org/2000/svg" xmlns:xlink="http://www.w3.org/1999/xlink" width="126.613" height="126.613" viewBox="0 0 126.613 126.613">
  <defs>
    <style>
      .cls-1, .cls-5 {
        fill: none;
      }

      .cls-2 {
        fill: #1268f8;
      }

      .cls-3 {
        clip-path: url(#clip-path);
      }

      .cls-4 {
        fill: #fff;
      }

      .cls-5 {
        stroke: #fff;
        stroke-miterlimit: 10;
        stroke-width: 2px;
      }
    </style>
    <clipPath id="clip-path">
      <rect id="Rectángulo_1431" data-name="Rectángulo 1431" class="cls-1" width="95.853" height="95.861" transform="translate(0 0)"/>
    </clipPath>
  </defs>
  <g id="Grupo_4042" data-name="Grupo 4042" transform="translate(-214 -2497.92)">
    <g id="Grupo_3446" data-name="Grupo 3446" transform="translate(-10.718 251.92)">
      <path id="Trazado_542" data-name="Trazado 542" class="cls-2" d="M129.613,66.306A63.306,63.306,0,1,1,66.306,3a63.306,63.306,0,0,1,63.306,63.306Z" transform="translate(221.718 2243)"/>
    </g>
    <g id="Grupo_4036" data-name="Grupo 4036" transform="translate(229.38 2513.297)">
      <g id="Grupo_4035" data-name="Grupo 4035" class="cls-3">
        <path id="Trazado_2487" data-name="Trazado 2487" class="cls-4" d="M94.854,47.982c-.013,1.091-.032,2.252-.133,3.41-.046.528-.078,1.056-.134,1.582-.083.775-.178,1.548-.308,2.316-.113.667-.241,1.331-.366,1.995-.185.983-.431,1.952-.688,2.918a46.088,46.088,0,0,1-4.851,11.5c-.418.71-.848,1.412-1.305,2.1-.76,1.137-1.568,2.24-2.412,3.317-.608.776-1.262,1.512-1.916,2.249-1.016,1.145-2.111,2.212-3.235,3.25a45.823,45.823,0,0,1-4.313,3.5c-.68.49-1.382.948-2.089,1.4a47.022,47.022,0,0,1-8.448,4.271c-1.031.394-2.077.739-3.135,1.05-.944.278-1.892.546-2.851.77-.816.19-1.634.371-2.462.5-.422.065-.84.15-1.261.211-.975.141-1.95.282-2.932.364-.659.055-1.32.085-1.981.123-1.41.081-2.821.059-4.233.016-.794-.024-1.585-.081-2.374-.176-.379-.046-.76-.078-1.139-.125-.554-.069-1.109-.137-1.661-.22a45.327,45.327,0,0,1-8.239-2.078c-1.305-.457-2.58-.988-3.846-1.544-1.294-.568-2.54-1.229-3.771-1.92-1.014-.569-1.993-1.194-2.964-1.83-.271-.177-.532-.369-.794-.559-.63-.458-1.263-.913-1.886-1.381-.364-.274-.718-.562-1.065-.857-.818-.7-1.631-1.4-2.41-2.135-.6-.567-1.17-1.158-1.741-1.752-.968-1.009-1.874-2.071-2.75-3.16C10.616,76.409,10.1,75.711,9.6,75a46.361,46.361,0,0,1-3.884-6.557q-.89-1.824-1.615-3.721A46.487,46.487,0,0,1,2.176,58.4c-.255-1.119-.475-2.244-.641-3.378-.127-.873-.238-1.749-.324-2.626-.071-.717-.114-1.436-.15-2.156q-.081-1.587-.053-3.175c.008-.441.036-.881.052-1.322a43.61,43.61,0,0,1,.417-4.477,46.907,46.907,0,0,1,1.038-5.185,45.709,45.709,0,0,1,2.639-7.476A47.72,47.72,0,0,1,8,23.283c.742-1.2,1.545-2.362,2.387-3.5.9-1.217,1.883-2.371,2.9-3.5q1.108-1.23,2.315-2.362a47.81,47.81,0,0,1,4.876-4.063c.633-.455,1.279-.89,1.933-1.314a47.851,47.851,0,0,1,5.779-3.21c.493-.23,1-.438,1.5-.648A48.839,48.839,0,0,1,35.13,2.777c1.117-.318,2.243-.6,3.38-.837.792-.162,1.59-.3,2.389-.419s1.573-.211,2.361-.3c.423-.049.85-.075,1.275-.1A43.217,43.217,0,0,1,48.9,1.019c.764.025,1.529.035,2.291.089.425.029.85.073,1.274.117.526.054,1.052.108,1.577.175s1.079.14,1.614.239,1.044.176,1.563.278c.461.09.92.192,1.377.3,1.4.337,2.788.725,4.154,1.184,1.325.445,2.63.939,3.908,1.5.74.327,1.484.643,2.206,1.008.906.457,1.792.951,2.672,1.457A41.987,41.987,0,0,1,75.3,9.83c.833.605,1.646,1.237,2.452,1.876.254.2.5.417.739.629,1.1.954,2.17,1.94,3.171,3,.576.609,1.157,1.214,1.7,1.85.775.9,1.535,1.822,2.24,2.782.522.711,1.035,1.429,1.52,2.167q1.115,1.7,2.084,3.48a45.946,45.946,0,0,1,2.76,6.1,47.049,47.049,0,0,1,1.514,4.929c.323,1.3.58,2.612.8,3.932.1.594.176,1.192.243,1.791.078.686.142,1.374.2,2.063.091,1.159.12,2.319.133,3.552M60.418,58.5V75.312c0,.22,0,.441,0,.661a2.8,2.8,0,0,0,.038.439,1.587,1.587,0,0,0,3,.347,1.231,1.231,0,0,0,.127-.51c.006-.265.015-.529.015-.794q0-16.917,0-33.834c0-.176,0-.353,0-.529a2.883,2.883,0,0,1,.033-.4,1.472,1.472,0,0,1,.781-1.112c.169-.089.337-.181.5-.271a5.221,5.221,0,0,0,.882-.583,9.551,9.551,0,0,0,1.43-1.434A10.581,10.581,0,0,0,68.6,35.04c.089-.2.181-.4.283-.6a1.493,1.493,0,0,1,1.7-.8,1.522,1.522,0,0,1,1.173,1.795,2.908,2.908,0,0,1-.138.417,17.541,17.541,0,0,1-.8,1.623,12.778,12.778,0,0,1-2.106,2.761,11.389,11.389,0,0,1-1.6,1.319c-.1.067-.192.136-.287.205a.316.316,0,0,0-.138.263c0,.191-.006.382-.006.573V75.507c0,.161,0,.323,0,.485a6.123,6.123,0,0,1-.122,1.137,5.107,5.107,0,0,1-.54,1.347,4.558,4.558,0,0,1-1.9,1.788,4.509,4.509,0,0,1-1.639.484,4.638,4.638,0,0,1-1.874-.191,4.375,4.375,0,0,1-1.54-.839,4.6,4.6,0,0,1-1.71-3.448c-.01-.22-.007-.441-.007-.661V42.48c0-.161,0-.323-.006-.485a.273.273,0,0,0-.117-.227c-.157-.107-.319-.209-.481-.308a.143.143,0,0,0-.166.018c-.122.106-.239.217-.354.331L42.565,55.471,34.238,63.8c-.115.115-.227.231-.338.348a.3.3,0,0,0-.083.2c-.005.161-.009.323-.009.485V75.64c0,.132,0,.265,0,.4a2.568,2.568,0,0,0,.028.351,1.458,1.458,0,0,0,.567.965,1.634,1.634,0,0,0,1.939.039,1.334,1.334,0,0,0,.459-.526,1.818,1.818,0,0,0,.183-.722c.009-.176.007-.353.008-.529V67.322c0-.162,0-.324,0-.485a2.91,2.91,0,0,1,.034-.439,1.339,1.339,0,0,1,.949-1.112,2.717,2.717,0,0,1,.428-.1,1.455,1.455,0,0,1,1.654,1.384c.008.176.008.353.008.529q0,3.552,0,7.1,0,.926,0,1.852a4.314,4.314,0,0,1-.072.833,4.607,4.607,0,0,1-2.829,3.523,4.073,4.073,0,0,1-1.1.309,5.008,5.008,0,0,1-1.536-.06,3.848,3.848,0,0,1-.6-.15,4.819,4.819,0,0,1-1.284-.673A4.643,4.643,0,0,1,30.9,77.26a4.989,4.989,0,0,1-.158-1.222c-.006-.22,0-.441,0-.661V68.1c0-.147,0-.294,0-.441a.73.73,0,0,0-.027-.128c-.007-.029-.084-.057-.111-.045a1.261,1.261,0,0,0-.362.316q-4.137,4.128-8.271,8.261-1.794,1.792-3.589,3.585c-.083.083-.16.171-.239.259a.15.15,0,0,0,0,.165c.081.085.162.171.249.249.659.587,1.324,1.165,2.008,1.724.843.689,1.71,1.347,2.609,1.959a46.025,46.025,0,0,0,5.23,3.105,43.029,43.029,0,0,0,5.069,2.156c.805.281,1.613.552,2.433.787,1.046.3,2.1.551,3.166.787.631.14,1.267.26,1.907.351.757.109,1.509.242,2.272.306.483.04.965.1,1.448.147.16.015.322.017.484.025s.294.009.44.02a44.24,44.24,0,0,0,4.762.046c.1,0,.205-.014.308-.022.527-.045,1.054-.1,1.582-.135.7-.051,1.4-.147,2.1-.244.714-.1,1.422-.228,2.13-.362,1.258-.237,2.5-.536,3.731-.886a40.586,40.586,0,0,0,4.617-1.616c1.4-.586,2.767-1.228,4.1-1.946.376-.2.748-.41,1.118-.621a42.432,42.432,0,0,0,3.656-2.385q1.634-1.17,3.15-2.485c1.045-.9,2.029-1.877,2.993-2.868.718-.738,1.4-1.511,2.051-2.308s1.3-1.632,1.9-2.486a44.774,44.774,0,0,0,2.829-4.522,43.732,43.732,0,0,0,4.424-12.182c.24-1.181.419-2.373.563-3.57q.218-1.82.282-3.649a44.073,44.073,0,0,0-.1-4.849c-.075-1-.183-1.992-.33-2.98-.131-.887-.281-1.771-.466-2.649a43.534,43.534,0,0,0-1.771-6.183c-.308-.826-.628-1.648-.984-2.456-.487-1.1-1.025-2.182-1.6-3.245s-1.168-2.075-1.818-3.074c-.675-1.035-1.4-2.035-2.159-3.01q-1.031-1.322-2.156-2.565c-.079-.088-.161-.173-.244-.256a.176.176,0,0,0-.271-.014c-.118.111-.233.225-.347.339L59.366,38.65c-.094.094-.187.187-.28.282-.03.032-.057.067-.084.1a.139.139,0,0,0,.039.192c.048.033.1.064.149.095.187.116.38.224.561.349a1.411,1.411,0,0,1,.646,1.1c.016.234.02.47.02.705q0,8.514,0,17.027M26.037,26.294V17.119c0-.162,0-.324,0-.485a1.962,1.962,0,0,1,.089-.565,1.33,1.33,0,0,1,.732-.838,1.635,1.635,0,0,1,1.564.082,1.269,1.269,0,0,1,.463.46,1.745,1.745,0,0,1,.226.8c.011.176.007.352.007.529q0,5.624,0,11.248c0,.133,0,.265,0,.4.006.4.027.418.432.419q1.941,0,3.882,0c.088,0,.176-.008.263-.015A.175.175,0,0,0,33.844,29c.01-.175.021-.351.021-.527q0-5.646,0-11.293c0-.162,0-.323,0-.485a2.944,2.944,0,0,1,.022-.352,1.377,1.377,0,0,1,.775-1.107,1.544,1.544,0,0,1,.9-.158,1.442,1.442,0,0,1,1.293,1.039,1.291,1.291,0,0,1,.052.3q.018.33.018.661,0,5.669,0,11.336c0,.162,0,.324.006.485s.082.246.24.254c.088.005.176.005.265.005h3.749c.074,0,.147,0,.221,0,.2-.009.273-.073.281-.26.007-.162.006-.323.006-.485V17.169c0-.147,0-.294,0-.441a3.69,3.69,0,0,1,.044-.482,1.309,1.309,0,0,1,.73-.992A1.621,1.621,0,0,1,44,15.268a1.332,1.332,0,0,1,.655.741,1.5,1.5,0,0,1,.106.516c0,.191,0,.382,0,.573q0,9,0,18c0,.191,0,.382-.005.574a7.357,7.357,0,0,1-.307,1.954,7.745,7.745,0,0,1-2.578,3.816,7.263,7.263,0,0,1-1.48.954l-.119.057a.312.312,0,0,0-.205.309c.005.132,0,.264,0,.4v9.749c0,.1,0,.205,0,.308,0,.071-.017.159.057.2.1.055.159-.041.22-.1.1-.089.189-.185.283-.278l9.174-9.167Q59.2,34.485,68.586,25.1c.1-.1.208-.207.311-.312q.063-.063.12-.129a.225.225,0,0,0,.05-.206,1.643,1.643,0,0,0-.057-.167,11.731,11.731,0,0,0-1.519-2.926,8.551,8.551,0,0,0-1.869-1.919A6.282,6.282,0,0,0,63.5,18.392a5.62,5.62,0,0,0-2.224-.186,5.526,5.526,0,0,0-1.444.382,7,7,0,0,0-2,1.272,9.486,9.486,0,0,0-1.373,1.548,11.815,11.815,0,0,0-1.528,3.019,14.3,14.3,0,0,0-.764,4.679c0,.176,0,.353.005.529a13.8,13.8,0,0,0,.225,2.147,13.094,13.094,0,0,0,.437,1.753c.072.224.144.448.2.676A1.361,1.361,0,0,1,54.7,35.52a1.573,1.573,0,0,1-1.308.516,1.373,1.373,0,0,1-1.239-.851c-.056-.12-.1-.246-.142-.371a16.207,16.207,0,0,1-.664-2.6,15.8,15.8,0,0,1-.212-1.662,20.741,20.741,0,0,1-.032-2.116c.011-.279.011-.56.04-.837.052-.482.112-.964.189-1.443a16.2,16.2,0,0,1,1.443-4.566,13.9,13.9,0,0,1,2.3-3.323,10.393,10.393,0,0,1,1.741-1.486,10.1,10.1,0,0,1,1.9-1.024,8.871,8.871,0,0,1,3.265-.664,8.486,8.486,0,0,1,3.063.559,9.726,9.726,0,0,1,3.151,1.91,11.64,11.64,0,0,1,1.737,1.931,15.235,15.235,0,0,1,1.334,2.23c.051.105.111.206.17.308a.117.117,0,0,0,.158.024c.057-.046.115-.091.167-.142.221-.217.439-.435.658-.653q2.531-2.521,5.061-5.044c.073-.073.145-.147.214-.223a.168.168,0,0,0,0-.238c-.062-.064-.125-.126-.19-.184a43.717,43.717,0,0,0-3.471-2.859c-.357-.259-.705-.532-1.066-.784-.784-.547-1.594-1.055-2.412-1.55-.578-.351-1.157-.7-1.754-1.019-1.169-.62-2.348-1.222-3.572-1.727-.856-.354-1.707-.72-2.587-1.012-.321-.107-.64-.218-.96-.327q-1.251-.429-2.534-.756c-.669-.171-1.343-.324-2.016-.478-.387-.088-.776-.17-1.166-.24-.521-.093-1.043-.176-1.567-.255-.464-.07-.93-.144-1.4-.19-.864-.083-1.725-.186-2.593-.22-1.161-.045-2.321-.113-3.483-.063-.4.017-.794.019-1.191.029-.161,0-.323.009-.484.02a48.9,48.9,0,0,0-5.12.621q-1.824.323-3.615.8A42.779,42.779,0,0,0,32.12,7c-.726.282-1.441.592-2.153.908a42.034,42.034,0,0,0-4.955,2.6,43.239,43.239,0,0,0-4.774,3.4,41.021,41.021,0,0,0-3.179,2.861c-.258.261-.526.514-.777.782-.482.516-.969,1.028-1.429,1.562q-1.021,1.187-1.966,2.437a43.857,43.857,0,0,0-3.533,5.482,42.635,42.635,0,0,0-2.573,5.7c-.294.8-.574,1.6-.818,2.423-.428,1.437-.8,2.89-1.079,4.363-.172.9-.329,1.794-.439,2.7q-.144,1.181-.237,2.369c-.066.851-.091,1.7-.117,2.555-.033,1.074.013,2.146.057,3.219.009.22.025.44.044.66.042.5.082,1,.136,1.493.07.643.137,1.286.235,1.925.106.7.24,1.391.371,2.084a41.063,41.063,0,0,0,1.149,4.528,43.124,43.124,0,0,0,1.94,5.061,40.968,40.968,0,0,0,2.812,5.193c.492.767.993,1.528,1.531,2.265.876,1.2,1.8,2.366,2.782,3.478.2.22.4.433.6.647a.147.147,0,0,0,.2.011c.129-.12.258-.24.382-.365Q26.436,67.243,36.542,57.136l.156-.156c.292-.3.292-.3.295-.693,0-.2,0-.411,0-.617V42.083c0-.176,0-.353,0-.529a2.417,2.417,0,0,1,.025-.351,1.464,1.464,0,0,1,.987-1.2c.11-.041.225-.067.337-.1a4.746,4.746,0,0,0,2.443-1.727,4.557,4.557,0,0,0,.9-2.673c.016-.955.006-1.911.006-2.867a2.034,2.034,0,0,0-.016-.22.194.194,0,0,0-.147-.147c-.161-.012-.322-.023-.483-.023H29.492c-.044,0-.088,0-.132.005a.214.214,0,0,0-.23.215c-.006.117-.008.235-.008.352,0,.78,0,1.559,0,2.338,0,.206,0,.412.014.618a4.347,4.347,0,0,0,.056.481,4.609,4.609,0,0,0,.537,1.486,4.5,4.5,0,0,0,2.075,1.908,7.468,7.468,0,0,0,.952.347,1.471,1.471,0,0,1,.931.878,1.571,1.571,0,0,1,.116.6c0,.177,0,.353,0,.529V54.931c0,.294,0,.588,0,.882a1.936,1.936,0,0,1-.078.611,1.314,1.314,0,0,1-.61.778,1.474,1.474,0,0,1-.973.205,2.745,2.745,0,0,1-.43-.093,1.3,1.3,0,0,1-.921-.979,2.8,2.8,0,0,1-.06-.7q0-6.285,0-12.572c0-.117,0-.235-.007-.353a.259.259,0,0,0-.127-.219c-.113-.069-.231-.13-.346-.2a8.6,8.6,0,0,1-1.748-1.259,7.839,7.839,0,0,1-1.884-2.689,7.393,7.393,0,0,1-.524-2,11.424,11.424,0,0,1-.066-1.321V26.294"/>
        <path id="Trazado_2488" data-name="Trazado 2488" class="cls-5" d="M94.854,47.982c-.013,1.091-.032,2.252-.133,3.41-.046.528-.078,1.056-.134,1.582-.083.775-.178,1.548-.308,2.316-.113.667-.241,1.331-.366,1.995-.185.983-.431,1.952-.688,2.918a46.088,46.088,0,0,1-4.851,11.5c-.418.71-.848,1.412-1.305,2.1-.76,1.137-1.568,2.24-2.412,3.317-.608.776-1.262,1.512-1.916,2.249-1.016,1.145-2.111,2.212-3.235,3.25a45.823,45.823,0,0,1-4.313,3.5c-.68.49-1.382.948-2.089,1.4a47.022,47.022,0,0,1-8.448,4.271c-1.031.394-2.077.739-3.135,1.05-.944.278-1.892.546-2.851.77-.816.19-1.634.371-2.462.5-.422.065-.84.15-1.261.211-.975.141-1.95.282-2.932.364-.659.055-1.32.085-1.981.123-1.41.081-2.821.059-4.233.016-.794-.024-1.585-.081-2.374-.176-.379-.046-.76-.078-1.139-.125-.554-.069-1.109-.137-1.661-.22a45.327,45.327,0,0,1-8.239-2.078c-1.305-.457-2.58-.988-3.846-1.544-1.294-.568-2.54-1.229-3.771-1.92-1.014-.569-1.993-1.194-2.964-1.83-.271-.177-.532-.369-.794-.559-.63-.458-1.263-.913-1.886-1.381-.364-.274-.718-.562-1.065-.857-.818-.7-1.631-1.4-2.41-2.135-.6-.567-1.17-1.158-1.741-1.752-.968-1.009-1.874-2.071-2.75-3.16C10.616,76.409,10.1,75.711,9.6,75a46.361,46.361,0,0,1-3.884-6.557q-.89-1.824-1.615-3.721A46.487,46.487,0,0,1,2.176,58.4c-.255-1.119-.475-2.244-.641-3.378-.127-.873-.238-1.749-.324-2.626-.071-.717-.114-1.436-.15-2.156q-.081-1.587-.053-3.175c.008-.441.036-.881.052-1.322a43.61,43.61,0,0,1,.417-4.477,46.907,46.907,0,0,1,1.038-5.185,45.709,45.709,0,0,1,2.639-7.476A47.72,47.72,0,0,1,8,23.283c.742-1.2,1.545-2.362,2.387-3.5.9-1.217,1.883-2.371,2.9-3.5q1.108-1.23,2.315-2.362a47.81,47.81,0,0,1,4.876-4.063c.633-.455,1.279-.89,1.933-1.314a47.851,47.851,0,0,1,5.779-3.21c.493-.23,1-.438,1.5-.648A48.839,48.839,0,0,1,35.13,2.777c1.117-.318,2.243-.6,3.38-.837.792-.162,1.59-.3,2.389-.419s1.573-.211,2.361-.3c.423-.049.85-.075,1.275-.1A43.217,43.217,0,0,1,48.9,1.019c.764.025,1.529.035,2.291.089.425.029.85.073,1.274.117.526.054,1.052.108,1.577.175s1.079.14,1.614.239,1.044.176,1.563.278c.461.09.92.192,1.377.3,1.4.337,2.788.725,4.154,1.184,1.325.445,2.63.939,3.908,1.5.74.327,1.484.643,2.206,1.008.906.457,1.792.951,2.672,1.457A41.987,41.987,0,0,1,75.3,9.83c.833.605,1.646,1.237,2.452,1.876.254.2.5.417.739.629,1.1.954,2.17,1.94,3.171,3,.576.609,1.157,1.214,1.7,1.85.775.9,1.535,1.822,2.24,2.782.522.711,1.035,1.429,1.52,2.167q1.115,1.7,2.084,3.48a45.946,45.946,0,0,1,2.76,6.1,47.049,47.049,0,0,1,1.514,4.929c.323,1.3.58,2.612.8,3.932.1.594.176,1.192.243,1.791.078.686.142,1.374.2,2.063C94.812,45.589,94.841,46.749,94.854,47.982ZM60.418,58.5V75.312c0,.22,0,.441,0,.661a2.8,2.8,0,0,0,.038.439,1.587,1.587,0,0,0,3,.347,1.231,1.231,0,0,0,.127-.51c.006-.265.015-.529.015-.794q0-16.917,0-33.834c0-.176,0-.353,0-.529a2.883,2.883,0,0,1,.033-.4,1.472,1.472,0,0,1,.781-1.112c.169-.089.337-.181.5-.271a5.221,5.221,0,0,0,.882-.583,9.551,9.551,0,0,0,1.43-1.434A10.581,10.581,0,0,0,68.6,35.04c.089-.2.181-.4.283-.6a1.493,1.493,0,0,1,1.7-.8,1.522,1.522,0,0,1,1.173,1.795,2.908,2.908,0,0,1-.138.417,17.541,17.541,0,0,1-.8,1.623,12.778,12.778,0,0,1-2.106,2.761,11.389,11.389,0,0,1-1.6,1.319c-.1.067-.192.136-.287.205a.316.316,0,0,0-.138.263c0,.191-.006.382-.006.573V75.507c0,.161,0,.323,0,.485a6.123,6.123,0,0,1-.122,1.137,5.107,5.107,0,0,1-.54,1.347,4.558,4.558,0,0,1-1.9,1.788,4.509,4.509,0,0,1-1.639.484,4.638,4.638,0,0,1-1.874-.191,4.375,4.375,0,0,1-1.54-.839,4.6,4.6,0,0,1-1.71-3.448c-.01-.22-.007-.441-.007-.661V42.48c0-.161,0-.323-.006-.485a.273.273,0,0,0-.117-.227c-.157-.107-.319-.209-.481-.308a.143.143,0,0,0-.166.018c-.122.106-.239.217-.354.331L42.565,55.471,34.238,63.8c-.115.115-.227.231-.338.348a.3.3,0,0,0-.083.2c-.005.161-.009.323-.009.485V75.64c0,.132,0,.265,0,.4a2.568,2.568,0,0,0,.028.351,1.458,1.458,0,0,0,.567.965,1.634,1.634,0,0,0,1.939.039,1.334,1.334,0,0,0,.459-.526,1.818,1.818,0,0,0,.183-.722c.009-.176.007-.353.008-.529V67.322c0-.162,0-.324,0-.485a2.91,2.91,0,0,1,.034-.439,1.339,1.339,0,0,1,.949-1.112,2.717,2.717,0,0,1,.428-.1,1.455,1.455,0,0,1,1.654,1.384c.008.176.008.353.008.529q0,3.552,0,7.1,0,.926,0,1.852a4.314,4.314,0,0,1-.072.833,4.607,4.607,0,0,1-2.829,3.523,4.073,4.073,0,0,1-1.1.309,5.008,5.008,0,0,1-1.536-.06,3.848,3.848,0,0,1-.6-.15,4.819,4.819,0,0,1-1.284-.673A4.643,4.643,0,0,1,30.9,77.26a4.989,4.989,0,0,1-.158-1.222c-.006-.22,0-.441,0-.661V68.1c0-.147,0-.294,0-.441a.73.73,0,0,0-.027-.128c-.007-.029-.084-.057-.111-.045a1.261,1.261,0,0,0-.362.316q-4.137,4.128-8.271,8.261-1.794,1.792-3.589,3.585c-.083.083-.16.171-.239.259a.15.15,0,0,0,0,.165c.081.085.162.171.249.249.659.587,1.324,1.165,2.008,1.724.843.689,1.71,1.347,2.609,1.959a46.025,46.025,0,0,0,5.23,3.105,43.029,43.029,0,0,0,5.069,2.156c.805.281,1.613.552,2.433.787,1.046.3,2.1.551,3.166.787.631.14,1.267.26,1.907.351.757.109,1.509.242,2.272.306.483.04.965.1,1.448.147.16.015.322.017.484.025s.294.009.44.02a44.24,44.24,0,0,0,4.762.046c.1,0,.205-.014.308-.022.527-.045,1.054-.1,1.582-.135.7-.051,1.4-.147,2.1-.244.714-.1,1.422-.228,2.13-.362,1.258-.237,2.5-.536,3.731-.886a40.586,40.586,0,0,0,4.617-1.616c1.4-.586,2.767-1.228,4.1-1.946.376-.2.748-.41,1.118-.621a42.432,42.432,0,0,0,3.656-2.385q1.634-1.17,3.15-2.485c1.045-.9,2.029-1.877,2.993-2.868.718-.738,1.4-1.511,2.051-2.308s1.3-1.632,1.9-2.486a44.774,44.774,0,0,0,2.829-4.522,43.732,43.732,0,0,0,4.424-12.182c.24-1.181.419-2.373.563-3.57q.218-1.82.282-3.649a44.073,44.073,0,0,0-.1-4.849c-.075-1-.183-1.992-.33-2.98-.131-.887-.281-1.771-.466-2.649a43.534,43.534,0,0,0-1.771-6.183c-.308-.826-.628-1.648-.984-2.456-.487-1.1-1.025-2.182-1.6-3.245s-1.168-2.075-1.818-3.074c-.675-1.035-1.4-2.035-2.159-3.01q-1.031-1.322-2.156-2.565c-.079-.088-.161-.173-.244-.256a.176.176,0,0,0-.271-.014c-.118.111-.233.225-.347.339L59.366,38.65c-.094.094-.187.187-.28.282-.03.032-.057.067-.084.1a.139.139,0,0,0,.039.192c.048.033.1.064.149.095.187.116.38.224.561.349a1.411,1.411,0,0,1,.646,1.1c.016.234.02.47.02.705Q60.418,49.99,60.418,58.5ZM26.037,26.294V17.119c0-.162,0-.324,0-.485a1.962,1.962,0,0,1,.089-.565,1.33,1.33,0,0,1,.732-.838,1.635,1.635,0,0,1,1.564.082,1.269,1.269,0,0,1,.463.46,1.745,1.745,0,0,1,.226.8c.011.176.007.352.007.529q0,5.624,0,11.248c0,.133,0,.265,0,.4.006.4.027.418.432.419q1.941,0,3.882,0c.088,0,.176-.008.263-.015A.175.175,0,0,0,33.844,29c.01-.175.021-.351.021-.527q0-5.646,0-11.293c0-.162,0-.323,0-.485a2.944,2.944,0,0,1,.022-.352,1.377,1.377,0,0,1,.775-1.107,1.544,1.544,0,0,1,.9-.158,1.442,1.442,0,0,1,1.293,1.039,1.291,1.291,0,0,1,.052.3q.018.33.018.661,0,5.669,0,11.336c0,.162,0,.324.006.485s.082.246.24.254c.088.005.176.005.265.005h3.749c.074,0,.147,0,.221,0,.2-.009.273-.073.281-.26.007-.162.006-.323.006-.485V17.169c0-.147,0-.294,0-.441a3.69,3.69,0,0,1,.044-.482,1.309,1.309,0,0,1,.73-.992A1.621,1.621,0,0,1,44,15.268a1.332,1.332,0,0,1,.655.741,1.5,1.5,0,0,1,.106.516c0,.191,0,.382,0,.573q0,9,0,18c0,.191,0,.382-.005.574a7.357,7.357,0,0,1-.307,1.954,7.745,7.745,0,0,1-2.578,3.816,7.263,7.263,0,0,1-1.48.954l-.119.057a.312.312,0,0,0-.205.309c.005.132,0,.264,0,.4v9.749c0,.1,0,.205,0,.308,0,.071-.017.159.057.2.1.055.159-.041.22-.1.1-.089.189-.185.283-.278l9.174-9.167Q59.2,34.485,68.586,25.1c.1-.1.208-.207.311-.312q.063-.063.12-.129a.225.225,0,0,0,.05-.206,1.643,1.643,0,0,0-.057-.167,11.731,11.731,0,0,0-1.519-2.926,8.551,8.551,0,0,0-1.869-1.919A6.282,6.282,0,0,0,63.5,18.392a5.62,5.62,0,0,0-2.224-.186,5.526,5.526,0,0,0-1.444.382,7,7,0,0,0-2,1.272,9.486,9.486,0,0,0-1.373,1.548,11.815,11.815,0,0,0-1.528,3.019,14.3,14.3,0,0,0-.764,4.679c0,.176,0,.353.005.529a13.8,13.8,0,0,0,.225,2.147,13.094,13.094,0,0,0,.437,1.753c.072.224.144.448.2.676A1.361,1.361,0,0,1,54.7,35.52a1.573,1.573,0,0,1-1.308.516,1.373,1.373,0,0,1-1.239-.851c-.056-.12-.1-.246-.142-.371a16.207,16.207,0,0,1-.664-2.6,15.8,15.8,0,0,1-.212-1.662,20.741,20.741,0,0,1-.032-2.116c.011-.279.011-.56.04-.837.052-.482.112-.964.189-1.443a16.2,16.2,0,0,1,1.443-4.566,13.9,13.9,0,0,1,2.3-3.323,10.393,10.393,0,0,1,1.741-1.486,10.1,10.1,0,0,1,1.9-1.024,8.871,8.871,0,0,1,3.265-.664,8.486,8.486,0,0,1,3.063.559,9.726,9.726,0,0,1,3.151,1.91,11.64,11.64,0,0,1,1.737,1.931,15.235,15.235,0,0,1,1.334,2.23c.051.105.111.206.17.308a.117.117,0,0,0,.158.024c.057-.046.115-.091.167-.142.221-.217.439-.435.658-.653q2.531-2.521,5.061-5.044c.073-.073.145-.147.214-.223a.168.168,0,0,0,0-.238c-.062-.064-.125-.126-.19-.184a43.717,43.717,0,0,0-3.471-2.859c-.357-.259-.705-.532-1.066-.784-.784-.547-1.594-1.055-2.412-1.55-.578-.351-1.157-.7-1.754-1.019-1.169-.62-2.348-1.222-3.572-1.727-.856-.354-1.707-.72-2.587-1.012-.321-.107-.64-.218-.96-.327q-1.251-.429-2.534-.756c-.669-.171-1.343-.324-2.016-.478-.387-.088-.776-.17-1.166-.24-.521-.093-1.043-.176-1.567-.255-.464-.07-.93-.144-1.4-.19-.864-.083-1.725-.186-2.593-.22-1.161-.045-2.321-.113-3.483-.063-.4.017-.794.019-1.191.029-.161,0-.323.009-.484.02a48.9,48.9,0,0,0-5.12.621q-1.824.323-3.615.8A42.779,42.779,0,0,0,32.12,7c-.726.282-1.441.592-2.153.908a42.034,42.034,0,0,0-4.955,2.6,43.239,43.239,0,0,0-4.774,3.4,41.021,41.021,0,0,0-3.179,2.861c-.258.261-.526.514-.777.782-.482.516-.969,1.028-1.429,1.562q-1.021,1.187-1.966,2.437a43.857,43.857,0,0,0-3.533,5.482,42.635,42.635,0,0,0-2.573,5.7c-.294.8-.574,1.6-.818,2.423-.428,1.437-.8,2.89-1.079,4.363-.172.9-.329,1.794-.439,2.7q-.144,1.181-.237,2.369c-.066.851-.091,1.7-.117,2.555-.033,1.074.013,2.146.057,3.219.009.22.025.44.044.66.042.5.082,1,.136,1.493.07.643.137,1.286.235,1.925.106.7.24,1.391.371,2.084a41.063,41.063,0,0,0,1.149,4.528,43.124,43.124,0,0,0,1.94,5.061,40.968,40.968,0,0,0,2.812,5.193c.492.767.993,1.528,1.531,2.265.876,1.2,1.8,2.366,2.782,3.478.2.22.4.433.6.647a.147.147,0,0,0,.2.011c.129-.12.258-.24.382-.365Q26.436,67.243,36.542,57.136l.156-.156c.292-.3.292-.3.295-.693,0-.2,0-.411,0-.617V42.083c0-.176,0-.353,0-.529a2.417,2.417,0,0,1,.025-.351,1.464,1.464,0,0,1,.987-1.2c.11-.041.225-.067.337-.1a4.746,4.746,0,0,0,2.443-1.727,4.557,4.557,0,0,0,.9-2.673c.016-.955.006-1.911.006-2.867a2.034,2.034,0,0,0-.016-.22.194.194,0,0,0-.147-.147c-.161-.012-.322-.023-.483-.023H29.492c-.044,0-.088,0-.132.005a.214.214,0,0,0-.23.215c-.006.117-.008.235-.008.352,0,.78,0,1.559,0,2.338,0,.206,0,.412.014.618a4.347,4.347,0,0,0,.056.481,4.609,4.609,0,0,0,.537,1.486,4.5,4.5,0,0,0,2.075,1.908,7.468,7.468,0,0,0,.952.347,1.471,1.471,0,0,1,.931.878,1.571,1.571,0,0,1,.116.6c0,.177,0,.353,0,.529V54.931c0,.294,0,.588,0,.882a1.936,1.936,0,0,1-.078.611,1.314,1.314,0,0,1-.61.778,1.474,1.474,0,0,1-.973.205,2.745,2.745,0,0,1-.43-.093,1.3,1.3,0,0,1-.921-.979,2.8,2.8,0,0,1-.06-.7q0-6.285,0-12.572c0-.117,0-.235-.007-.353a.259.259,0,0,0-.127-.219c-.113-.069-.231-.13-.346-.2a8.6,8.6,0,0,1-1.748-1.259,7.839,7.839,0,0,1-1.884-2.689,7.393,7.393,0,0,1-.524-2,11.424,11.424,0,0,1-.066-1.321Z"/>
      </g>
    </g>
  </g>
</svg>
