<svg xmlns="http://www.w3.org/2000/svg" width="126.613" height="126.613" viewBox="0 0 126.613 126.613">
  <defs>
    <style>
      .cls-1 {
        fill: #1268f8;
      }

      .cls-2 {
        fill: #fff;
      }
    </style>
  </defs>
  <g id="Grupo_4039" data-name="Grupo 4039" transform="translate(-214 -1987)">
    <g id="Grupo_3456" data-name="Grupo 3456" transform="translate(9 58)">
      <path id="Trazado_60" data-name="Trazado 60" class="cls-1" d="M129.613,66.306A63.306,63.306,0,1,1,66.306,3a63.306,63.306,0,0,1,63.306,63.306Z" transform="translate(202 1926)"/>
      <g id="Grupo_2396" data-name="Grupo 2396" transform="translate(229.377 1947.266)">
        <path id="Trazado_1254" data-name="Trazado 1254" class="cls-2" d="M787.178,1770.414a2.045,2.045,0,0,1-2.031-1.819c-.05-.449-1.162-11.05,3.724-18.3,3.138-5.441,6.5-8.7,10.286-9.962,3.438-1.147,6.634-.5,9.455.079,1.025.209,1.993.406,2.926.512a16.725,16.725,0,0,0,8.928-1.185c3.106-1.493,5.215-4.284,6.27-8.295,2.115-8.042.023-10.987-1.658-13.353-.282-.4-.549-.772-.8-1.165a12.958,12.958,0,0,0-2.225-2.384,28.749,28.749,0,0,1-6.407-8.008l-.015-.028c-4.686-8.919-3-20.206-2.923-20.682a2.046,2.046,0,0,1,4.044.628h0c-.016.1-1.544,10.435,2.494,18.136a24.486,24.486,0,0,0,5.582,6.946,16.252,16.252,0,0,1,2.909,3.206c.189.3.424.63.673.98,1.944,2.736,4.882,6.872,2.28,16.764-1.374,5.224-4.219,8.905-8.455,10.942a20.772,20.772,0,0,1-11.163,1.563c-1.112-.126-2.215-.351-3.282-.569-2.542-.518-4.943-1.008-7.342-.207-2.8.936-5.444,3.613-8.071,8.185q-.039.068-.083.132c-4.077,5.988-3.094,15.517-3.084,15.613a2.047,2.047,0,0,1-1.81,2.257A2,2,0,0,1,787.178,1770.414Z" transform="translate(-785.004 -1684.093)"/>
        <path id="Trazado_1255" data-name="Trazado 1255" class="cls-2" d="M876.916,1770.416h0a2.045,2.045,0,0,1-2.044-2.045,32.1,32.1,0,0,1,1.053-7.548c1.493-5.509,4.389-8.919,8.375-9.861a12.918,12.918,0,0,1,10.485,1.813,13.165,13.165,0,0,1,3.561,3.506c.028.045.041.065.065.109a11.743,11.743,0,0,0,3.819,3.631c3.6,2.223,8.175,2.866,13.592,1.91a42.125,42.125,0,0,0,20.547-9.86A38.253,38.253,0,0,0,944.375,1742a43.8,43.8,0,0,0,4.756-14.076,47.541,47.541,0,0,0,.423-14.023,26.325,26.325,0,0,0-3.108-9.608,17.347,17.347,0,0,0-11.3-8.623,14.33,14.33,0,0,0-8.728.594,10.516,10.516,0,0,0-3.08,1.883,1.6,1.6,0,0,1-.168.151,31.174,31.174,0,0,1-4.6,2.985c-3.765,1.979-6.9,2.467-9.334,1.451l-.01,0c-8.078-3.433-6.292-16.335-6.212-16.883a2.046,2.046,0,0,1,4.05.589h0a24.625,24.625,0,0,0-.01,5.816c.454,3.579,1.722,5.837,3.768,6.709,1.2.5,3.326.023,5.844-1.3a27.424,27.424,0,0,0,3.869-2.5c.854-.807,6.328-5.525,15.5-3.49,10.33,2.292,21.016,13.335,17.136,36.913a47.876,47.876,0,0,1-5.21,15.386,42.336,42.336,0,0,1-8.864,11.146,44.527,44.527,0,0,1-10.974,7.193,46.906,46.906,0,0,1-11.592,3.648c-8.171,1.442-13.59-.624-16.7-2.611a15.387,15.387,0,0,1-4.96-4.9,9.063,9.063,0,0,0-9.634-3.507c-2.453.58-4.252,2.893-5.346,6.875a28.338,28.338,0,0,0-.93,6.554A2.047,2.047,0,0,1,876.916,1770.416Z" transform="translate(-866.317 -1684.095)"/>
        <path id="Trazado_1256" data-name="Trazado 1256" class="cls-2" d="M1165.416,2121.892a16.414,16.414,0,0,1,14.419,0c7.994,3.712,8.994,2.284,8.994,2.284s-4,20.272-21.985,24.84-19.986-3.569-19.986-3.569S1163.7,2141.45,1165.416,2121.892Z" transform="translate(-1112.417 -2078.731)"/>
        <circle id="Elipse_5" data-name="Elipse 5" class="cls-2" cx="2.978" cy="2.978" r="2.978" transform="translate(69.851 38.778) rotate(-76.717)"/>
        <circle id="Elipse_6" data-name="Elipse 6" class="cls-2" cx="1.904" cy="1.904" r="1.904" transform="translate(55.426 29.779)"/>
        <circle id="Elipse_7" data-name="Elipse 7" class="cls-2" cx="4.949" cy="4.949" r="4.949" transform="translate(63.222 21.785)"/>
        <circle id="Elipse_8" data-name="Elipse 8" class="cls-2" cx="1.664" cy="1.664" r="1.664" transform="matrix(0.16, -0.987, 0.987, 0.16, 57.084, 22.92)"/>
      </g>
    </g>
  </g>
</svg>
