<svg xmlns="http://www.w3.org/2000/svg" xmlns:xlink="http://www.w3.org/1999/xlink" width="126.613" height="126.613" viewBox="0 0 126.613 126.613">
  <defs>
    <style>
      .cls-1, .cls-5 {
        fill: none;
      }

      .cls-2 {
        fill: #1268f8;
      }

      .cls-3 {
        clip-path: url(#clip-path);
      }

      .cls-4 {
        fill: #fff;
      }

      .cls-5 {
        stroke: #fff;
        stroke-miterlimit: 10;
        stroke-width: 1.5px;
      }
    </style>
    <clipPath id="clip-path">
      <rect id="Rectángulo_1430" data-name="Rectángulo 1430" class="cls-1" width="93.046" height="93.046" transform="translate(0 0)"/>
    </clipPath>
  </defs>
  <g id="Grupo_4040" data-name="Grupo 4040" transform="translate(-214 -2149)">
    <path id="Trazado_2296" data-name="Trazado 2296" class="cls-2" d="M129.613,66.306A63.306,63.306,0,1,1,66.306,3a63.306,63.306,0,0,1,63.306,63.306Z" transform="translate(211 2146)"/>
    <g id="Grupo_4034" data-name="Grupo 4034" transform="translate(230.783 2165.783)">
      <g id="Grupo_4033" data-name="Grupo 4033" class="cls-3">
        <path id="Trazado_2481" data-name="Trazado 2481" class="cls-4" d="M46.523.75A45.773,45.773,0,1,0,92.3,46.523,45.826,45.826,0,0,0,46.523.75m0,88.2A42.428,42.428,0,1,1,88.951,46.523,42.477,42.477,0,0,1,46.523,88.951"/>
        <path id="Trazado_2482" data-name="Trazado 2482" class="cls-5" d="M46.523.75A45.773,45.773,0,1,0,92.3,46.523,45.826,45.826,0,0,0,46.523.75Zm0,88.2A42.428,42.428,0,1,1,88.951,46.523,42.477,42.477,0,0,1,46.523,88.951Z"/>
        <path id="Trazado_2483" data-name="Trazado 2483" class="cls-4" d="M46.523,12.8A33.766,33.766,0,0,0,12.846,44.736a1.685,1.685,0,0,0,1.673,1.787,1.66,1.66,0,0,0,1.665-1.56,30.379,30.379,0,0,1,60.678,0,1.66,1.66,0,0,0,1.665,1.56A1.685,1.685,0,0,0,80.2,44.736,33.766,33.766,0,0,0,46.523,12.8"/>
        <path id="Trazado_2484" data-name="Trazado 2484" class="cls-5" d="M46.523,12.8A33.766,33.766,0,0,0,12.846,44.736a1.685,1.685,0,0,0,1.673,1.787,1.66,1.66,0,0,0,1.665-1.56,30.379,30.379,0,0,1,60.678,0,1.66,1.66,0,0,0,1.665,1.56A1.685,1.685,0,0,0,80.2,44.736,33.766,33.766,0,0,0,46.523,12.8Z"/>
        <path id="Trazado_2485" data-name="Trazado 2485" class="cls-4" d="M46.169,38.608c-7.8-13.2-9.108-13.4-10.744-12.62s-2.307,1.918,2.966,16.306c2.5,6.811,5.421,14.006,5.937,15.092a5.4,5.4,0,1,0,9.764-4.625c-.514-1.088-4.23-7.907-7.923-14.153m4.98,17.158a2.058,2.058,0,0,1-3.8.188c-1.137-2.4-6.375-15.68-8.673-23.107,4.294,6.481,11.257,18.945,12.394,21.344a2.05,2.05,0,0,1,.078,1.575"/>
        <path id="Trazado_2486" data-name="Trazado 2486" class="cls-5" d="M46.169,38.608c-7.8-13.2-9.108-13.4-10.744-12.62s-2.307,1.918,2.966,16.306c2.5,6.811,5.421,14.006,5.937,15.092a5.4,5.4,0,1,0,9.764-4.625C53.578,51.673,49.862,44.854,46.169,38.608Zm4.98,17.158a2.058,2.058,0,0,1-3.8.188c-1.137-2.4-6.375-15.68-8.673-23.107,4.294,6.481,11.257,18.945,12.394,21.344A2.05,2.05,0,0,1,51.149,55.766Z"/>
      </g>
    </g>
  </g>
</svg>
