<svg width="181" height="89" viewBox="0 0 181 89" fill="none" xmlns="http://www.w3.org/2000/svg">
<g clip-path="url(#clip0_403_935)">
<path d="M3.64276 38.1343L0 51.0513H114.886L118.533 38.1343H3.64276Z" fill="#40B7B5"/>
<path d="M5.11624 34.0538H14.1623C14.5125 34 14.7995 33.7456 14.8821 33.3933L17.0804 23.7447L19.5171 22.0518L24.7259 33.178C24.935 33.7064 25.4457 34.0538 26.0147 34.0538H35.7466C36.4518 34.0538 36.9333 33.3297 36.6658 32.6741L28.8209 15.9064L38.3339 8.09265C38.8106 7.70122 39.1461 7.15812 39.2823 6.55142L39.8611 3.97291C39.9875 3.42002 39.5693 2.89649 39.0051 2.89649H31.0436C30.2508 2.89649 30.1535 3.42002 30.1535 3.42002L29.9249 4.26159H30.3238C31.6953 4.26159 32.0503 5.42118 30.5864 6.57588L18.8508 16.0337L21.6473 3.9778C21.7737 3.42492 21.3555 2.8916 20.7913 2.8916H11.9543C11.3902 2.8916 10.9038 3.28303 10.7774 3.83102L4.13867 32.5811C3.97818 33.2759 4.44508 33.9364 5.11624 34.0489" fill="white"/>
<path d="M151.663 38.1343L148.021 51.0513H159.066L162.708 38.1343H151.663Z" fill="#253080"/>
<path d="M140.618 38.1343L136.976 51.0513H148.021L151.663 38.1343H140.618Z" fill="#2659A5"/>
<path d="M129.573 38.1343L125.931 51.0513H136.976L140.618 38.1343H129.573Z" fill="#0074BC"/>
<path d="M118.533 38.1343L114.886 51.0513H125.931L129.574 38.1343H118.533Z" fill="#009DAB"/>
<path d="M159.873 18.0008V17.8246C164.566 16.8901 167.309 14.5709 167.309 9.98638C167.309 5.40183 163.457 2.90161 155.933 2.90161H143.186C142.384 2.90161 141.683 3.46428 141.508 4.25202L140.949 6.75714H142.452C142.982 6.75714 143.293 7.51552 143.162 8.0048L138.707 27.3118C138.619 27.8011 138.007 28.6035 137.204 28.6035H135.444C134.943 28.6035 134.315 28.0702 134.228 27.5809L132.302 3.71381C132.263 3.25389 131.883 2.90161 131.426 2.90161H116.889C116.101 2.90161 115.416 3.43982 115.221 4.21288L114.594 6.74246H117.132C117.711 6.74246 117.886 7.45681 117.575 7.94609L106.199 27.2237C105.757 28.0261 104.915 28.6035 104.205 28.6035H102.873C104.341 25.9222 105.815 21.5579 105.815 21.5579H97.1143C95.6358 21.5579 95.6601 22.0961 95.4851 22.8544L95.3683 23.4563L95.3246 23.6226C94.6729 26.069 93.2284 27.0622 90.3492 27.0476C88.6275 27.0378 87.436 26.7198 86.9837 26.1522C86.7697 25.8831 86.7162 25.5455 86.8134 25.1149L89.9698 11.3221C90.3152 9.81024 91.5894 9.20354 94.3713 9.21332C94.7798 9.21332 95.13 9.23289 95.4364 9.26225C96.093 9.33564 97.5326 9.63899 97.3186 10.8328L96.2535 15.1776C96.1076 15.7648 96.5502 16.3372 97.1532 16.3372H106.506L107.065 13.6022L107.43 11.8163H107.44L107.498 11.5129C107.512 11.4493 107.517 11.3906 107.527 11.327L107.566 11.1411C107.576 11.0922 107.576 11.0383 107.581 10.9894C107.945 8.66533 107.561 6.76203 106.413 5.34801C104.648 3.16582 101.17 2.06494 95.7817 2.06494C82.5044 2.06494 81.3809 4.83916 80.0434 10.6909L76.7168 25.2372C76.1964 27.5124 76.498 29.3814 77.6068 30.7906C79.3577 33.0119 83.0637 34.1079 88.9339 34.1372C89.6586 34.1372 90.3492 34.1128 91.0204 34.0736H108.3C109.268 34.0736 110.163 33.5452 110.63 32.689L113.665 27.1503H123.713L124.014 32.366C124.073 33.325 124.861 34.0736 125.814 34.0736H151.406C159.727 34.0736 165.485 30.4236 165.485 23.8721C165.485 20.4863 163.452 18.7053 159.863 17.991L159.873 18.0008ZM115.839 23.2067L122.764 10.5637L123.499 23.2067H115.844H115.839ZM150.661 28.3344H148.672L150.399 20.8044H151.994C154.119 20.8044 155.223 21.8318 155.223 23.6128C155.223 26.2843 153.983 28.3344 150.661 28.3344ZM153.317 15.5055H151.59L153.137 8.78275H154.377C156.415 8.78275 157.344 9.71728 157.344 11.4102C157.344 13.7685 156.279 15.5055 153.317 15.5055Z" fill="white"/>
<path d="M72.2086 20.3396H55.0161L55.8137 16.6406H73.0062L72.2086 20.3396Z" fill="white"/>
<path d="M180.805 5.06405C180.013 7.85783 177.017 10.1281 174.133 10.1281C171.249 10.1281 169.542 7.85783 170.334 5.06405C171.127 2.27026 174.123 0 177.007 0C179.891 0 181.598 2.27026 180.805 5.06405ZM180.022 5.06405C180.703 2.66168 179.278 0.709456 176.808 0.709456C174.337 0.709456 171.803 2.66168 171.117 5.06405C170.436 7.46641 171.861 9.41864 174.332 9.41864C176.803 9.41864 179.337 7.46641 180.022 5.06405ZM177.746 8.17587H176.326L175.232 5.60715H174.118L173.389 8.17587H172.236L174.084 1.66844H176.861C178.131 1.66844 178.909 2.51001 178.593 3.62067C178.335 4.53073 177.469 5.2989 176.56 5.52397L177.741 8.17587H177.746ZM177.362 3.62067C177.537 3.00418 177.09 2.68615 176.428 2.68615H174.95L174.429 4.52095H175.908C176.569 4.52095 177.182 4.25184 177.362 3.62067Z" fill="white"/>
<path d="M48.2849 34.142H39.9975C39.516 34.142 39.127 33.7506 39.127 33.2662L43.9905 13.0443C43.9905 12.5599 44.3795 12.1685 45.3474 12.1685H53.6348C53.6348 12.1685 54.019 12.5599 54.019 13.0443L49.1555 33.2662C49.1555 33.7506 48.7664 34.142 48.2849 34.142Z" fill="white"/>
<path d="M53.9797 8.77287H45.6923C45.2109 8.77287 44.8218 8.38145 44.8218 7.89706L46.4559 2.51009C46.4559 2.0257 46.845 1.63428 47.8128 1.63428H56.1002C56.1002 1.63428 56.4844 2.0257 56.4844 2.51009L54.8503 7.89706C54.8503 8.38145 54.4612 8.77287 53.9797 8.77287Z" fill="white"/>
<path d="M10.1648 42.3373H8.49173L7.48012 47.0687H6.70196L7.71357 42.3373H6.04053L6.18643 41.6523H10.3107L10.1648 42.3373Z" fill="white"/>
<path d="M12.3871 47.0003C12.0078 47.0933 11.6138 47.1618 11.2247 47.1618C10.2666 47.1618 9.41064 46.7752 9.41064 45.3759C9.41064 44.2799 10.1742 43.0176 11.5603 43.0176C12.5087 43.0176 13.0388 43.59 13.0388 44.5295C13.0388 44.7937 13.0096 45.0187 12.9707 45.2487H10.2034C10.1888 45.3368 10.1791 45.4102 10.1791 45.4982C10.1791 46.33 10.6897 46.5698 11.3901 46.5698C11.75 46.5698 12.1488 46.4768 12.499 46.33L12.3822 46.9954L12.3871 47.0003ZM12.2947 44.7105C12.3093 44.5931 12.319 44.5001 12.319 44.4071C12.319 43.9423 12.0321 43.6096 11.4874 43.6096C10.894 43.6096 10.4368 44.1282 10.2861 44.7105H12.2996H12.2947Z" fill="white"/>
<path d="M17.849 43.1156L16.9444 47.3576C16.7742 48.1405 16.0398 48.7912 14.8336 48.7912C14.5856 48.7912 13.9485 48.7227 13.5156 48.5025L13.6761 47.8518C14.0409 48.0475 14.5175 48.1992 14.9309 48.1992C15.7626 48.1992 16.1565 47.6561 16.3024 47.0445L16.3997 46.6188H16.3851C16.1468 46.9075 15.8452 47.069 15.213 47.069C14.5175 47.069 13.7491 46.5161 13.7491 45.4886C13.7491 44.0305 14.5953 43.0079 15.7285 43.0226C16.2586 43.0226 16.7936 43.2575 17.0173 43.8153H17.0319L17.1681 43.1156H17.8393H17.849ZM15.4027 46.4818C16.0349 46.4818 16.7547 45.9877 16.7547 44.6911C16.7547 44.099 16.4094 43.6146 15.7772 43.6146C14.9358 43.6146 14.5272 44.6911 14.5272 45.4543C14.5272 45.973 14.8045 46.4867 15.4075 46.4867L15.4027 46.4818Z" fill="white"/>
<path d="M20.66 43.0225C21.7154 43.0225 22.4012 43.6683 22.4012 44.7545C22.4012 46.0951 21.6133 47.1667 20.2029 47.1667C19.1232 47.1667 18.4131 46.5795 18.4131 45.4053C18.4131 44.0891 19.2156 43.0225 20.6552 43.0225H20.66ZM20.198 46.5746C21.0151 46.5746 21.6327 45.645 21.6327 44.7496C21.6327 44.1576 21.2874 43.6096 20.6308 43.6096C19.6679 43.6096 19.1912 44.6322 19.1912 45.4591C19.1912 46.0854 19.5171 46.5746 20.2029 46.5746H20.198Z" fill="white"/>
<path d="M23.5492 44.4267C23.627 43.9863 23.7048 43.5509 23.7583 43.1154H24.4392L24.3079 43.7221H24.3225C24.6045 43.2231 25.1687 43.0225 25.7183 43.0225C26.6034 43.0225 27.1238 43.6732 27.1238 44.5294C27.1238 45.9826 26.4527 47.1667 25.1395 47.1667C24.4538 47.1667 24.0452 46.9318 23.8604 46.4866H23.8458L23.3741 48.703H22.6494L23.554 44.4267H23.5492ZM25.0374 46.5746C25.8642 46.5746 26.3457 45.5765 26.3457 44.5882C26.3457 43.9227 25.9663 43.6096 25.4654 43.6096C24.6191 43.6096 24.055 44.5588 24.055 45.5325C24.055 46.0658 24.3711 46.5697 25.0325 46.5697L25.0374 46.5746Z" fill="white"/>
<path d="M28.4368 43.7221C28.4659 43.5607 28.5146 43.3503 28.5437 43.1154H29.2246L29.103 43.7417H29.1176C29.3511 43.3699 29.7742 43.0225 30.46 43.0225C30.5281 43.0225 30.6545 43.0371 30.7907 43.091L30.6302 43.7368C30.4891 43.683 30.3773 43.6585 30.3238 43.6585C29.4289 43.6585 28.9912 44.6371 28.8891 45.1264L28.4805 47.0737H27.7559L28.4416 43.7221H28.4368Z" fill="white"/>
<path d="M31.6028 43.2231C31.9481 43.1056 32.415 43.0225 32.6971 43.0225C33.4899 43.0225 34.2534 43.3307 34.2534 44.2799C34.2534 44.4561 34.2242 44.7154 34.1853 44.9013C34.0394 45.6401 33.8789 46.374 33.7768 47.0737H33.1056L33.2369 46.4132H33.2224C32.9743 46.8878 32.4685 47.1667 31.9433 47.1667C31.2818 47.1667 30.6885 46.8193 30.6885 46.0756C30.6885 44.9502 31.7001 44.6322 33.0181 44.6322C33.1737 44.6322 33.3634 44.6469 33.5434 44.6567C33.5579 44.5784 33.5823 44.4952 33.5823 44.4022C33.5823 43.8347 33.2126 43.6194 32.6776 43.6194C32.2545 43.6194 31.7974 43.7613 31.4764 43.9521L31.6077 43.2329L31.6028 43.2231ZM32.8284 45.1704C32.2788 45.1704 31.4569 45.3172 31.4569 46.0413C31.4569 46.3887 31.7584 46.5746 32.1038 46.5746C32.8381 46.5746 33.3002 45.8358 33.3829 45.1704H32.8284Z" fill="white"/>
<path d="M34.8521 46.4326L37.6535 43.7024H35.4697L35.5865 43.1104H38.704L38.5581 43.7464L35.7372 46.4766H38.0668L37.9355 47.0637H34.7354L34.8569 46.4277L34.8521 46.4326Z" fill="white"/>
<path d="M39.7493 43.2231C40.0946 43.1056 40.5615 43.0225 40.8436 43.0225C41.6363 43.0225 42.3999 43.3307 42.3999 44.2799C42.3999 44.4561 42.3707 44.7154 42.3318 44.9013C42.1859 45.6401 42.0205 46.374 41.9233 47.0737H41.2521L41.3834 46.4132H41.3688C41.1208 46.8878 40.615 47.1667 40.0897 47.1667C39.4283 47.1667 38.8301 46.8193 38.8301 46.0756C38.8301 44.9502 39.8417 44.6322 41.1597 44.6322C41.3153 44.6322 41.505 44.6469 41.685 44.6567C41.6995 44.5784 41.7239 44.4952 41.7239 44.4022C41.7239 43.8347 41.3542 43.6194 40.8241 43.6194C40.401 43.6194 39.9438 43.7613 39.6228 43.9521L39.7541 43.2329L39.7493 43.2231ZM40.9749 45.1704C40.4253 45.1704 39.6034 45.3172 39.6034 46.0413C39.6034 46.3887 39.9049 46.5746 40.2502 46.5746C40.9846 46.5746 41.4466 45.8358 41.5293 45.1704H40.9749Z" fill="white"/>
<path d="M43.8786 43.7221C43.9078 43.5607 43.9565 43.3503 43.9856 43.1154H44.6665L44.5449 43.7417H44.5595C44.793 43.3699 45.2161 43.0225 45.9019 43.0225C46.6654 43.0225 47.215 43.4237 47.215 44.2652C47.215 44.5001 47.1664 44.7594 47.1226 44.9894L46.6897 47.0786H45.9651L46.4514 44.7105C46.4758 44.5784 46.4903 44.4218 46.4903 44.3386C46.4903 43.9276 46.2229 43.6145 45.7754 43.6145C44.8805 43.6145 44.4428 44.593 44.3407 45.0823L43.9224 47.0737H43.1978L43.8835 43.7221H43.8786Z" fill="white"/>
<path d="M51.2759 41.6572H54.1697L54.0384 42.2933H51.8547L51.5288 43.7073C51.6747 43.6926 51.8206 43.6682 51.9665 43.6682C52.9149 43.6682 53.5764 44.133 53.5764 45.1409C53.5764 46.506 52.5647 47.1665 51.2808 47.1665C50.7701 47.1665 50.4248 47.0882 50.0552 46.9953L50.1865 46.3054C50.5172 46.4277 50.8722 46.5305 51.237 46.5305C52.0687 46.5305 52.8128 46.1097 52.8128 45.2094C52.8128 44.544 52.2438 44.2993 51.631 44.2993C51.2905 44.2993 50.9598 44.363 50.6388 44.4608L51.2808 41.6523L51.2759 41.6572Z" fill="white"/>
<path d="M56.8687 41.5645C57.9047 41.5645 58.3278 42.3033 58.3278 43.3161C58.3278 44.4267 57.8804 47.1618 55.8669 47.1618C54.8163 47.1618 54.4321 46.33 54.4321 45.3955C54.4321 43.9277 55.1276 41.5645 56.8687 41.5645ZM55.935 46.5306C57.146 46.5306 57.5545 44.0794 57.5545 43.272C57.5545 42.8464 57.4718 42.2005 56.7812 42.2005C55.6091 42.2005 55.2006 44.5588 55.2006 45.4444C55.2006 45.9239 55.3416 46.5306 55.935 46.5306Z" fill="white"/>
<path d="M59.3541 43.5656C59.3881 43.4286 59.4027 43.2867 59.4319 43.1154H60.1128L60.0204 43.6585H60.035C60.3122 43.2377 60.7694 43.0225 61.2849 43.0225C61.7469 43.0225 62.1944 43.2377 62.3257 43.7123C62.7148 43.2622 63.1184 43.0225 63.7215 43.0225C64.3586 43.0225 64.8158 43.4481 64.8158 44.0548C64.8158 44.2946 64.7623 44.6077 64.6991 44.8866L64.2419 47.0737H63.5172L64.0425 44.5686C64.0717 44.412 64.0911 44.2799 64.0911 44.1967C64.0911 43.8689 63.882 43.6145 63.5124 43.6145C62.778 43.6145 62.3694 44.4756 62.2381 45.0872L61.8004 47.0737H61.0758L61.601 44.5686C61.6302 44.412 61.6496 44.2799 61.6496 44.1967C61.6496 43.8689 61.4405 43.6145 61.0709 43.6145C60.3365 43.6145 59.928 44.4756 59.7967 45.0872L59.3589 47.0737H58.6343L59.3589 43.5656H59.3541Z" fill="white"/>
<path d="M69.7328 43.1156L68.8282 47.3576C68.658 48.1405 67.9236 48.7912 66.7174 48.7912C66.4694 48.7912 65.8323 48.7227 65.3994 48.5025L65.5599 47.8518C65.9247 48.0475 66.4013 48.1992 66.8196 48.1992C67.6512 48.1992 68.0452 47.6561 68.1911 47.0445L68.2932 46.6188H68.2786C68.0403 46.9075 67.7388 47.069 67.1065 47.069C66.411 47.069 65.6426 46.5161 65.6426 45.4886C65.6426 44.0305 66.4888 43.0079 67.622 43.0226C68.1522 43.0226 68.6871 43.2575 68.9109 43.8153H68.9255L69.0616 43.1156H69.7328ZM67.2865 46.4818C67.9187 46.4818 68.6385 45.9877 68.6385 44.6911C68.6385 44.099 68.2932 43.6146 67.6609 43.6146C66.8196 43.6146 66.411 44.6911 66.411 45.4543C66.411 45.973 66.6882 46.4867 67.2913 46.4867L67.2865 46.4818Z" fill="white"/>
<path d="M5.16494 59.521H7.73287L6.6094 65.1722C6.57535 65.3875 6.54617 65.593 6.52186 65.7838C6.49267 65.9795 6.48295 66.1703 6.48295 66.366C6.48295 66.9042 6.58022 67.3054 6.76989 67.5745C6.96443 67.8436 7.32433 67.9806 7.85932 67.9806C8.32135 67.9806 8.69098 67.7849 8.9682 67.3984C9.24542 67.0119 9.474 66.366 9.65881 65.4608L10.8455 59.521H13.3502L12.1635 65.3972C11.8425 67.0559 11.3319 68.2693 10.6364 69.0473C9.9409 69.8203 8.99251 70.2118 7.79609 70.2118C6.49267 70.2118 5.51511 69.9084 4.87313 69.3017C4.23115 68.695 3.91016 67.736 3.91016 66.4345C3.91016 66.185 3.93447 65.9012 3.98311 65.5685C4.03174 65.2407 4.08038 64.9373 4.13388 64.6584L5.16008 59.5259L5.16494 59.521Z" fill="white"/>
<path d="M14.9259 61.9428H17.0123V62.9752H17.0755C17.45 62.6522 17.8585 62.3685 18.3011 62.1189C18.7437 61.8694 19.2252 61.7471 19.7359 61.7471C20.3973 61.7471 20.8788 61.9232 21.1803 62.2706C21.4818 62.6229 21.6278 63.1464 21.6278 63.8461C21.6278 64.213 21.584 64.5996 21.5013 65.0106L20.5043 70.0159H17.9364L18.8653 65.3335C18.8993 65.1818 18.9285 65.0497 18.9528 64.9372C18.9771 64.8246 18.9917 64.717 18.9917 64.624C18.9917 64.399 18.9334 64.2277 18.8167 64.1152C18.6999 64.0026 18.5346 63.9439 18.3206 63.9439C18.0969 63.9439 17.878 64.0173 17.664 64.1641C17.45 64.3109 17.1971 64.536 16.9102 64.8491L15.9131 70.0159H13.3452L14.9161 61.9428H14.9259Z" fill="white"/>
<path d="M22.6929 67.2368C22.6929 66.4735 22.8096 65.7543 23.0479 65.0889C23.2814 64.4234 23.5975 63.8412 23.9963 63.347C24.3902 62.8528 24.8474 62.4614 25.3629 62.1776C25.8785 61.8939 26.4134 61.7471 26.9679 61.7471C27.3083 61.7471 27.6342 61.8351 27.9455 62.0113C28.2567 62.1874 28.4853 62.4321 28.6361 62.7452H28.6701L29.0251 61.9379H31.0775L29.4726 70.011H27.3861V69.008H27.3521C26.9971 69.3847 26.608 69.6783 26.1703 69.8887C25.7374 70.0991 25.3289 70.2018 24.9447 70.2018C24.2395 70.2018 23.6899 69.9474 23.2911 69.4337C22.8971 68.9248 22.6977 68.186 22.6977 67.2319L22.6929 67.2368ZM26.0973 68.1077C26.3113 68.1077 26.5448 68.0392 26.8025 67.9071C27.0603 67.775 27.2937 67.4863 27.5077 67.0411L28.0233 64.4577C27.926 64.2424 27.7947 64.0858 27.6293 63.988C27.464 63.8901 27.3035 63.8412 27.1576 63.8412C26.9241 63.8412 26.6955 63.9146 26.4815 64.0663C26.2675 64.2179 26.0779 64.4283 25.9125 64.6974C25.7471 64.9665 25.611 65.2895 25.5137 65.6662C25.4116 66.043 25.3629 66.4588 25.3629 66.909C25.3629 67.3298 25.431 67.6331 25.5623 67.819C25.6937 68.005 25.8736 68.1028 26.1022 68.1028L26.0973 68.1077Z" fill="white"/>
<path d="M36.1114 61.9428H38.1978V62.9752H38.2611C38.6356 62.6522 39.0441 62.3685 39.4867 62.1189C39.9292 61.8694 40.4107 61.7471 40.9214 61.7471C41.5828 61.7471 42.0643 61.9232 42.3659 62.2706C42.6674 62.6229 42.8133 63.1464 42.8133 63.8461C42.8133 64.213 42.7695 64.5996 42.6868 65.0106L41.6898 70.0159H39.1219L40.0508 65.3335C40.0849 65.1818 40.1141 65.0497 40.1384 64.9372C40.1627 64.8246 40.1773 64.717 40.1773 64.624C40.1773 64.399 40.1189 64.2277 40.0022 64.1152C39.8855 64.0026 39.7201 63.9439 39.5061 63.9439C39.2824 63.9439 39.0635 64.0173 38.8495 64.1641C38.6356 64.3109 38.3827 64.536 38.0957 64.8491L37.0987 70.0159H34.5308L36.1017 61.9428H36.1114Z" fill="white"/>
<path d="M50.5563 70.016H48.4698V68.9836H48.4066C48.0613 69.3065 47.6722 69.5903 47.2248 69.8399C46.7822 70.0894 46.3202 70.2117 45.8387 70.2117C45.1772 70.2117 44.6958 70.0356 44.3942 69.6882C44.0927 69.3408 43.9468 68.8124 43.9468 68.1127C43.9468 67.7457 43.9905 67.3592 44.0732 66.9482L45.0702 61.9429H47.6382L46.7092 66.6253C46.6752 66.777 46.646 66.9091 46.6217 67.0216C46.5925 67.1341 46.5828 67.2418 46.5828 67.3347C46.5828 67.5598 46.6412 67.7311 46.7579 67.8436C46.8746 67.9561 47.04 68.0148 47.254 68.0148C47.468 68.0148 47.6771 67.9414 47.8813 67.7947C48.0856 67.6479 48.3142 67.4228 48.572 67.1097L49.569 61.9429H52.1369L50.566 70.016H50.5563Z" fill="white"/>
<path d="M52.7055 66.7182C52.7055 65.9745 52.8369 65.2992 53.1044 64.6925C53.3718 64.0858 53.722 63.5623 54.1549 63.1268C54.5877 62.6914 55.0741 62.3538 55.6139 62.1091C56.1538 61.8645 56.6936 61.7471 57.2286 61.7471C57.7198 61.7471 58.1332 61.8302 58.4737 61.9917C58.8092 62.1532 59.0816 62.3734 59.2907 62.6522C59.4999 62.9311 59.6506 63.2589 59.7479 63.6308C59.8452 64.0027 59.8938 64.399 59.8938 64.8197C59.8938 65.0252 59.8743 65.2307 59.8354 65.4313C59.7965 65.632 59.7528 65.8277 59.709 66.0038C59.6603 66.1799 59.6117 66.3365 59.5631 66.4735C59.5144 66.6105 59.4755 66.7035 59.4415 66.7573H55.1081C55.1276 67.2955 55.2929 67.682 55.6042 67.9218C55.9155 68.1566 56.3045 68.279 56.7763 68.279C57 68.279 57.2383 68.2251 57.4815 68.1175C57.7295 68.0099 57.9435 67.8924 58.1235 67.7603L59.0232 69.3749C58.7022 69.6 58.2888 69.7957 57.7879 69.9621C57.2821 70.1284 56.7033 70.2116 56.037 70.2116C55.5458 70.2116 55.0935 70.1284 54.6899 69.967C54.2813 69.8055 53.9311 69.5756 53.6393 69.2722C53.3475 68.9688 53.1141 68.6068 52.9487 68.1762C52.7834 67.7456 52.7007 67.2613 52.7007 66.723L52.7055 66.7182ZM57.7441 65.2014C57.7636 65.1378 57.783 65.0595 57.7928 64.9665C57.8025 64.8736 57.8074 64.7806 57.8074 64.6827C57.8074 64.4039 57.7441 64.1739 57.6128 63.988C57.4864 63.8069 57.2481 63.714 56.9076 63.714C56.5963 63.714 56.2997 63.8314 56.0079 64.0711C55.7209 64.306 55.4826 64.6827 55.3027 65.2014H57.7441Z" fill="white"/>
<path d="M60.9883 61.9429H63.5562L63.7167 65.6223C63.7362 66.0332 63.7507 66.4394 63.7507 66.8504V68.1078H63.814C63.9939 67.687 64.169 67.276 64.3295 66.865C64.49 66.454 64.6602 66.043 64.845 65.6223L66.4159 61.9429H68.9207L64.9083 70.016H61.9561L60.9931 61.9429H60.9883Z" fill="white"/>
<path d="M68.6289 67.2368C68.6289 66.4735 68.7456 65.7543 68.9839 65.0889C69.2174 64.4234 69.5335 63.8412 69.9323 63.347C70.3263 62.8528 70.7834 62.4614 71.299 62.1776C71.8145 61.8939 72.3495 61.7471 72.9039 61.7471C73.2444 61.7471 73.5702 61.8351 73.8815 62.0113C74.1928 62.1874 74.4213 62.4321 74.5721 62.7452H74.6061L74.9612 61.9379H77.0136L75.4086 70.011H73.3222V69.008H73.2881C72.9331 69.3847 72.544 69.6783 72.1063 69.8887C71.6735 70.0991 71.2649 70.2018 70.8807 70.2018C70.1755 70.2018 69.6259 69.9474 69.2271 69.4337C68.8332 68.9248 68.6338 68.186 68.6338 67.2319L68.6289 67.2368ZM72.0334 68.1077C72.2473 68.1077 72.4808 68.0392 72.7386 67.9071C72.9963 67.775 73.2298 67.4863 73.4438 67.0411L73.9593 64.4577C73.862 64.2424 73.7307 64.0858 73.5654 63.988C73.4 63.8901 73.2395 63.8412 73.0936 63.8412C72.8601 63.8412 72.6316 63.9146 72.4176 64.0663C72.2036 64.2179 72.0139 64.4283 71.8485 64.6974C71.6832 64.9665 71.547 65.2895 71.4497 65.6662C71.3476 66.043 71.299 66.4588 71.299 66.909C71.299 67.3298 71.3671 67.6331 71.4984 67.819C71.6297 68.005 71.8096 68.1028 72.0382 68.1028L72.0334 68.1077Z" fill="white"/>
<path d="M86.794 61.1357L87.2415 58.7773H89.8094L87.5624 70.0161H85.476V69.0131H85.442C85.0869 69.3898 84.6979 69.6834 84.2601 69.8938C83.8273 70.1042 83.4187 70.2069 83.0345 70.2069C82.3293 70.2069 81.7798 69.9525 81.3809 69.4388C80.987 68.9299 80.7876 68.1911 80.7876 67.237C80.7876 66.4737 80.9043 65.7545 81.1426 65.0891C81.3761 64.4236 81.6922 63.8414 82.091 63.3472C82.485 62.853 82.9421 62.4616 83.4577 62.1778C83.9732 61.8941 84.5082 61.7473 85.0626 61.7473C85.4031 61.7473 85.7095 61.8304 85.977 61.9919C86.2444 62.1534 86.4536 62.3736 86.6043 62.6524H86.6384L86.7989 61.1357H86.794ZM84.192 68.1128C84.3963 68.1128 84.6249 68.0443 84.8827 67.9122C85.1404 67.7801 85.3787 67.4914 85.6073 67.0462L86.1229 64.4628C86.0256 64.2475 85.8943 64.0909 85.7289 63.9931C85.5636 63.8952 85.4031 63.8463 85.2572 63.8463C85.0237 63.8463 84.7951 63.9197 84.5811 64.0714C84.3671 64.223 84.1775 64.4334 84.0121 64.7025C83.8467 64.9716 83.7106 65.2946 83.6133 65.6713C83.5112 66.048 83.4625 66.4639 83.4625 66.9141C83.4625 67.3348 83.5306 67.6382 83.6619 67.8241C83.7932 68.0101 83.9732 68.1079 84.2018 68.1079L84.192 68.1128Z" fill="white"/>
<path d="M90.9038 61.9431H93.4717L91.8668 70.0162H89.2988L90.9038 61.9431ZM92.606 60.9107C92.4358 60.9107 92.2704 60.8862 92.1099 60.8373C91.9494 60.7884 91.8035 60.715 91.6771 60.6171C91.5506 60.5193 91.4485 60.3969 91.3707 60.2453C91.2977 60.0936 91.2588 59.9174 91.2588 59.712C91.2588 59.5162 91.2977 59.3303 91.3804 59.1542C91.4631 58.978 91.5701 58.8215 91.7111 58.6942C91.8522 58.567 92.0127 58.4594 92.2023 58.3811C92.3872 58.2979 92.5914 58.2588 92.8054 58.2588C92.9756 58.2588 93.141 58.2881 93.3015 58.342C93.462 58.3958 93.6079 58.4692 93.7343 58.567C93.8608 58.6649 93.9629 58.7872 94.0407 58.9389C94.1137 59.0906 94.1526 59.2618 94.1526 59.4575C94.1526 59.8783 94.0067 60.2257 93.71 60.4997C93.4133 60.7737 93.0486 60.9107 92.6109 60.9107H92.606Z" fill="white"/>
<path d="M95.3004 61.9428H97.3868V62.9752H97.45C97.8245 62.6522 98.2282 62.3685 98.661 62.1189C99.0939 61.8694 99.5462 61.7471 100.018 61.7471C100.597 61.7471 101.02 61.8694 101.287 62.1091C101.555 62.3489 101.754 62.6816 101.881 63.1024C102.299 62.7158 102.727 62.3929 103.174 62.1336C103.617 61.8743 104.074 61.7471 104.546 61.7471C105.207 61.7471 105.689 61.9232 105.99 62.2706C106.292 62.6229 106.438 63.1464 106.438 63.8461C106.438 64.213 106.394 64.5996 106.311 65.0106L105.314 70.0159H102.746L103.675 65.3335C103.709 65.1818 103.739 65.0497 103.763 64.9372C103.787 64.8246 103.802 64.717 103.802 64.624C103.802 64.399 103.743 64.2277 103.627 64.1152C103.51 64.0026 103.345 63.9439 103.131 63.9439C102.819 63.9439 102.382 64.2473 101.813 64.8491L100.786 70.0159H98.2185L99.1474 65.3335C99.1814 65.1818 99.2106 65.0497 99.2349 64.9372C99.2593 64.8246 99.2738 64.717 99.2738 64.624C99.2738 64.399 99.2155 64.2277 99.0988 64.1152C98.982 64.0026 98.8264 63.9439 98.6319 63.9439C98.3011 63.9439 97.8488 64.2473 97.2847 64.8491L96.2877 70.0159H93.7197L95.2906 61.9428H95.3004Z" fill="white"/>
<path d="M107.464 66.7182C107.464 65.9745 107.595 65.2992 107.863 64.6925C108.13 64.0858 108.48 63.5623 108.913 63.1268C109.346 62.6914 109.832 62.3538 110.372 62.1091C110.912 61.8645 111.452 61.7471 111.987 61.7471C112.478 61.7471 112.892 61.8302 113.232 61.9917C113.568 62.1532 113.84 62.3734 114.049 62.6522C114.258 62.9311 114.409 63.2589 114.506 63.6308C114.603 64.0027 114.652 64.399 114.652 64.8197C114.652 65.0252 114.633 65.2307 114.594 65.4313C114.555 65.632 114.511 65.8277 114.467 66.0038C114.419 66.1799 114.37 66.3365 114.321 66.4735C114.273 66.6105 114.234 66.7035 114.2 66.7573H109.866C109.886 67.2955 110.051 67.682 110.362 67.9218C110.674 68.1566 111.063 68.279 111.535 68.279C111.758 68.279 111.997 68.2251 112.24 68.1175C112.488 68.0099 112.702 67.8924 112.882 67.7603L113.782 69.3749C113.461 69.6 113.047 69.7957 112.546 69.9621C112.04 70.1284 111.462 70.2116 110.795 70.2116C110.304 70.2116 109.852 70.1284 109.448 69.967C109.04 69.8055 108.689 69.5756 108.398 69.2722C108.106 68.9688 107.872 68.6068 107.707 68.1762C107.542 67.7456 107.459 67.2613 107.459 66.723L107.464 66.7182ZM112.502 65.2014C112.522 65.1378 112.541 65.0595 112.551 64.9665C112.561 64.8736 112.566 64.7806 112.566 64.6827C112.566 64.4039 112.502 64.1739 112.371 63.988C112.245 63.8069 112.006 63.714 111.666 63.714C111.355 63.714 111.058 63.8314 110.766 64.0711C110.479 64.306 110.241 64.6827 110.061 65.2014H112.502Z" fill="white"/>
<path d="M116.807 61.9428H118.893V62.9752H118.956C119.331 62.6522 119.739 62.3685 120.182 62.1189C120.625 61.8694 121.106 61.7471 121.617 61.7471C122.278 61.7471 122.76 61.9232 123.061 62.2706C123.363 62.6229 123.509 63.1464 123.509 63.8461C123.509 64.213 123.465 64.5996 123.382 65.0106L122.385 70.0159H119.817L120.746 65.3335C120.78 65.1818 120.809 65.0497 120.834 64.9372C120.858 64.8246 120.873 64.717 120.873 64.624C120.873 64.399 120.814 64.2277 120.698 64.1152C120.581 64.0026 120.415 63.9439 120.201 63.9439C119.978 63.9439 119.759 64.0173 119.545 64.1641C119.331 64.3109 119.078 64.536 118.791 64.8491L117.794 70.0159H115.226L116.797 61.9428H116.807Z" fill="white"/>
<path d="M125.439 67.3982C125.726 67.7456 126.009 67.9854 126.276 68.1273C126.544 68.2692 126.801 68.3377 127.044 68.3377C127.288 68.3377 127.502 68.2887 127.677 68.186C127.852 68.0832 127.939 67.9511 127.939 67.7897C127.939 67.682 127.905 67.5891 127.842 67.5157C127.779 67.4423 127.691 67.364 127.579 67.2808C127.468 67.1976 127.327 67.1194 127.156 67.0313C126.986 66.9432 126.796 66.8454 126.592 66.723C126.398 66.6154 126.208 66.4882 126.023 66.3365C125.838 66.1848 125.668 66.0185 125.527 65.8277C125.386 65.6368 125.269 65.4313 125.182 65.2063C125.094 64.9812 125.055 64.7317 125.055 64.4626C125.055 64.076 125.143 63.7189 125.313 63.391C125.483 63.0632 125.712 62.7794 126.004 62.5348C126.291 62.2902 126.636 62.1042 127.03 61.9623C127.424 61.8205 127.847 61.752 128.299 61.752C128.878 61.752 129.389 61.8792 129.841 62.1336C130.288 62.388 130.687 62.6914 131.028 63.0485L129.646 64.3745C129.452 64.1788 129.248 64.0124 129.019 63.8754C128.795 63.7335 128.552 63.665 128.294 63.665C128.037 63.665 127.832 63.7238 127.686 63.8363C127.536 63.9488 127.463 64.0858 127.463 64.2473C127.463 64.3647 127.502 64.4675 127.575 64.5457C127.648 64.624 127.75 64.7072 127.871 64.7806C127.993 64.854 128.134 64.9323 128.289 65.0057C128.445 65.0791 128.596 65.1622 128.747 65.2503C128.941 65.3579 129.131 65.4803 129.325 65.6124C129.52 65.7494 129.69 65.9059 129.841 66.087C129.992 66.268 130.113 66.4784 130.211 66.7084C130.308 66.9383 130.356 67.2074 130.356 67.5059C130.356 67.9169 130.269 68.2838 130.099 68.6117C129.928 68.9395 129.69 69.2233 129.384 69.4679C129.077 69.7125 128.713 69.8936 128.285 70.0257C127.857 70.1529 127.39 70.2214 126.889 70.2214C126.655 70.2214 126.402 70.1871 126.135 70.1235C125.867 70.0599 125.605 69.9621 125.342 69.8349C125.08 69.7076 124.827 69.5413 124.588 69.3407C124.35 69.1401 124.141 68.9052 123.971 68.6361L125.449 67.408L125.439 67.3982Z" fill="white"/>
<path d="M132.793 61.9431H135.361L133.756 70.0162H131.188L132.793 61.9431ZM134.495 60.9107C134.325 60.9107 134.16 60.8862 133.999 60.8373C133.839 60.7884 133.693 60.715 133.566 60.6171C133.44 60.5193 133.338 60.3969 133.26 60.2453C133.187 60.0936 133.148 59.9174 133.148 59.712C133.148 59.5162 133.187 59.3303 133.27 59.1542C133.352 58.978 133.459 58.8215 133.6 58.6942C133.741 58.567 133.902 58.4594 134.091 58.3811C134.276 58.2979 134.481 58.2588 134.695 58.2588C134.865 58.2588 135.03 58.2881 135.191 58.342C135.351 58.3958 135.497 58.4692 135.623 58.567C135.75 58.6649 135.852 58.7872 135.93 58.9389C136.003 59.0906 136.042 59.2618 136.042 59.4575C136.042 59.8783 135.896 60.2257 135.599 60.4997C135.303 60.7737 134.938 60.9107 134.5 60.9107H134.495Z" fill="white"/>
<path d="M139.116 70.2069C138.634 70.2069 138.196 70.1238 137.798 69.9623C137.404 69.8008 137.063 69.5709 136.786 69.2773C136.509 68.9837 136.29 68.6266 136.134 68.2205C135.979 67.8095 135.901 67.3544 135.901 66.8505C135.901 66.0627 136.032 65.3582 136.3 64.727C136.567 64.0958 136.917 63.5625 137.35 63.1222C137.783 62.6818 138.269 62.3393 138.809 62.1045C139.349 61.8696 139.899 61.7473 140.453 61.7473C140.935 61.7473 141.372 61.8305 141.771 61.9919C142.165 62.1534 142.506 62.3834 142.783 62.6769C143.06 62.9754 143.279 63.3277 143.434 63.7436C143.59 64.1594 143.668 64.6145 143.668 65.1087C143.668 65.8964 143.532 66.601 143.264 67.2321C142.997 67.8633 142.647 68.3966 142.214 68.837C141.781 69.2773 141.295 69.6198 140.755 69.8547C140.215 70.0895 139.665 70.2118 139.111 70.2118L139.116 70.2069ZM140.176 63.8121C139.942 63.8121 139.719 63.8855 139.519 64.0371C139.315 64.1888 139.14 64.3943 138.989 64.6585C138.838 64.9227 138.722 65.2408 138.634 65.6126C138.547 65.9845 138.508 66.3857 138.508 66.8162C138.508 67.2468 138.581 67.5502 138.727 67.785C138.872 68.0199 139.096 68.1422 139.407 68.1422C139.641 68.1422 139.865 68.0688 140.064 67.9171C140.268 67.7654 140.443 67.5599 140.594 67.2957C140.745 67.0315 140.862 66.7184 140.949 66.3514C141.037 65.9845 141.076 65.5832 141.076 65.1429C141.076 64.7319 141.003 64.409 140.857 64.1741C140.711 63.9393 140.487 63.8169 140.176 63.8169V63.8121ZM141.265 58.2881H143.799L141.329 60.7443H139.403L141.265 58.2881Z" fill="white"/>
<path d="M145.857 61.9428H147.943V62.9752H148.006C148.381 62.6522 148.789 62.3685 149.232 62.1189C149.674 61.8694 150.156 61.7471 150.667 61.7471C151.328 61.7471 151.809 61.9232 152.111 62.2706C152.413 62.6229 152.558 63.1464 152.558 63.8461C152.558 64.213 152.515 64.5996 152.432 65.0106L151.435 70.0159H148.867L149.796 65.3335C149.83 65.1818 149.859 65.0497 149.883 64.9372C149.908 64.8246 149.922 64.717 149.922 64.624C149.922 64.399 149.864 64.2277 149.747 64.1152C149.631 64.0026 149.465 63.9439 149.251 63.9439C149.028 63.9439 148.809 64.0173 148.595 64.1641C148.381 64.3109 148.128 64.536 147.841 64.8491L146.844 70.0159H144.276L145.847 61.9428H145.857Z" fill="white"/>
<path d="M3.14646 82.8646C3.14646 82.1209 3.27778 81.4457 3.54527 80.839C3.81276 80.2323 4.16294 79.7088 4.59579 79.2733C5.02864 78.8379 5.51499 78.5003 6.05484 78.2556C6.59469 78.011 7.13453 77.8936 7.66952 77.8936C8.16073 77.8936 8.57413 77.9767 8.91458 78.1382C9.25016 78.2997 9.52251 78.5198 9.73164 78.7987C9.94077 79.0776 10.0915 79.4054 10.1888 79.7773C10.2861 80.1491 10.3347 80.5455 10.3347 80.9662C10.3347 81.1717 10.3153 81.3772 10.2764 81.5778C10.2374 81.7784 10.1937 81.9741 10.1499 82.1503C10.1013 82.3264 10.0526 82.483 10.004 82.62C9.95536 82.757 9.91646 82.85 9.88241 82.9038H5.54903C5.56849 83.442 5.73385 83.8285 6.04511 84.0683C6.35637 84.3031 6.74545 84.4254 7.21721 84.4254C7.44094 84.4254 7.67925 84.3716 7.92242 84.264C8.17046 84.1563 8.38445 84.0389 8.5644 83.9068L9.46415 85.5214C9.14316 85.7465 8.72976 85.9422 8.22882 86.1086C7.72302 86.2749 7.14426 86.3581 6.47796 86.3581C5.98675 86.3581 5.53444 86.2749 5.13077 86.1135C4.72224 85.952 4.37207 85.722 4.08026 85.4187C3.78845 85.1153 3.555 84.7533 3.38964 84.3227C3.22428 83.8921 3.1416 83.4077 3.1416 82.8695L3.14646 82.8646ZM8.18505 81.3479C8.2045 81.2843 8.22396 81.206 8.23369 81.113C8.24341 81.0201 8.24828 80.9271 8.24828 80.8292C8.24828 80.5503 8.18505 80.3204 8.05374 80.1345C7.92728 79.9534 7.68897 79.8605 7.34853 79.8605C7.03726 79.8605 6.74059 79.9779 6.44878 80.2176C6.16183 80.4525 5.92352 80.8292 5.74357 81.3479H8.18505Z" fill="white"/>
<path d="M12.4844 78.0893H14.5709V79.1217H14.6341C15.0086 78.7987 15.4171 78.5149 15.8597 78.2654C16.3023 78.0159 16.7838 77.8936 17.2944 77.8936C17.9559 77.8936 18.4374 78.0697 18.7389 78.4171C19.0404 78.7694 19.1863 79.2929 19.1863 79.9926C19.1863 80.3595 19.1426 80.7461 19.0599 81.1571L18.0629 86.1624H15.495L16.4239 81.48C16.4579 81.3283 16.4871 81.1962 16.5114 81.0837C16.5357 80.9711 16.5503 80.8635 16.5503 80.7705C16.5503 80.5455 16.492 80.3742 16.3752 80.2617C16.2585 80.1491 16.0932 80.0904 15.8792 80.0904C15.6554 80.0904 15.4366 80.1638 15.2226 80.3106C15.0086 80.4574 14.7557 80.6824 14.4688 80.9956L13.4717 86.1624H10.9038L12.4747 78.0893H12.4844Z" fill="white"/>
<path d="M25.3873 74.9233H27.9552L26.2238 83.5787C26.2043 83.6668 26.1897 83.7255 26.1897 83.7646V83.8869C26.1897 84.0386 26.2238 84.1414 26.287 84.2001C26.3502 84.2588 26.428 84.2882 26.5107 84.2882H26.6469C26.6858 84.2882 26.7344 84.2784 26.7977 84.2539L26.7004 86.1572C26.5496 86.211 26.3648 86.2551 26.146 86.2942C25.9271 86.3333 25.6742 86.3529 25.3824 86.3529C24.721 86.3529 24.2492 86.1963 23.972 85.8783C23.6948 85.5603 23.5537 85.1297 23.5537 84.5768C23.5537 84.4154 23.5634 84.249 23.578 84.0778C23.5926 83.9065 23.6267 83.7059 23.6802 83.4808L25.3824 74.9233H25.3873Z" fill="white"/>
<path d="M28.0527 83.3833C28.0527 82.62 28.1695 81.9008 28.4078 81.2353C28.6412 80.5699 28.9573 79.9877 29.3562 79.4935C29.7501 78.9993 30.2073 78.6079 30.7228 78.3241C31.2383 78.0403 31.7733 77.8936 32.3278 77.8936C32.6682 77.8936 32.9941 77.9816 33.3053 78.1578C33.6166 78.3339 33.8452 78.5786 33.9959 78.8917H34.03L34.385 78.0844H36.4374L34.8325 86.1575H32.746V85.1545H32.712C32.3569 85.5312 31.9679 85.8248 31.5301 86.0352C31.0973 86.2456 30.6888 86.3483 30.3045 86.3483C29.5993 86.3483 29.0498 86.0939 28.6509 85.5801C28.257 85.0713 28.0576 84.3325 28.0576 83.3784L28.0527 83.3833ZM31.4572 84.2542C31.6712 84.2542 31.9046 84.1857 32.1624 84.0536C32.4202 83.9215 32.6536 83.6328 32.8676 83.1876L33.3831 80.6042C33.2859 80.3889 33.1545 80.2323 32.9892 80.1345C32.8238 80.0366 32.6633 79.9877 32.5174 79.9877C32.284 79.9877 32.0554 80.0611 31.8414 80.2127C31.6274 80.3644 31.4377 80.5748 31.2724 80.8439C31.107 81.113 30.9708 81.4359 30.8736 81.8127C30.7714 82.1894 30.7228 82.6053 30.7228 83.0555C30.7228 83.4762 30.7909 83.7796 30.9222 83.9655C31.0535 84.1514 31.2335 84.2493 31.462 84.2493L31.4572 84.2542Z" fill="white"/>
<path d="M41.4708 78.0893H43.5573L43.494 79.6696H43.5573C43.8685 79.151 44.2382 78.7302 44.671 78.3926C45.1039 78.0599 45.5464 77.8936 45.9939 77.8936C46.2176 77.8936 46.3976 77.9082 46.5337 77.9327C46.6699 77.9572 46.7769 78.0012 46.8645 78.055L46.0279 80.2812C45.9112 80.2176 45.775 80.1785 45.6194 80.1687C45.4638 80.1589 45.3227 80.154 45.1963 80.154C44.851 80.154 44.5348 80.2666 44.243 80.4916C43.9464 80.7167 43.6448 81.0983 43.3384 81.6365L42.4727 86.1575H39.9048L41.4757 78.0844L41.4708 78.0893Z" fill="white"/>
<path d="M46.4805 83.3833C46.4805 82.62 46.5972 81.9008 46.8355 81.2353C47.069 80.5699 47.3851 79.9877 47.7839 79.4935C48.1778 78.9993 48.635 78.6079 49.1505 78.3241C49.6661 78.0403 50.201 77.8936 50.7555 77.8936C51.0959 77.8936 51.4218 77.9816 51.733 78.1578C52.0443 78.3339 52.2729 78.5786 52.4237 78.8917H52.4577L52.8127 78.0844H54.8651L53.2602 86.1575H51.1737V85.1545H51.1397C50.7847 85.5312 50.3956 85.8248 49.9579 86.0352C49.525 86.2456 49.1165 86.3483 48.7323 86.3483C48.0271 86.3483 47.4775 86.0939 47.0787 85.5801C46.6847 85.0713 46.4853 84.3325 46.4853 83.3784L46.4805 83.3833ZM49.8849 84.2542C50.0989 84.2542 50.3324 84.1857 50.5901 84.0536C50.8479 83.9215 51.0813 83.6328 51.2953 83.1876L51.8109 80.6042C51.7136 80.3889 51.5823 80.2323 51.4169 80.1345C51.2516 80.0366 51.0911 79.9877 50.9452 79.9877C50.7117 79.9877 50.4831 80.0611 50.2691 80.2127C50.0551 80.3644 49.8655 80.5748 49.7001 80.8439C49.5347 81.113 49.3986 81.4359 49.3013 81.8127C49.1992 82.1894 49.1505 82.6053 49.1505 83.0555C49.1505 83.4762 49.2186 83.7796 49.3499 83.9655C49.4812 84.1514 49.6612 84.2493 49.8898 84.2493L49.8849 84.2542Z" fill="white"/>
<path d="M57.4863 86.9991L57.1021 89.0002H54.5342L56.7179 78.0844H58.8043L58.8676 78.9553H58.9016C59.2566 78.6324 59.636 78.373 60.0494 78.1822C60.4628 77.9865 60.8616 77.8936 61.2458 77.8936C61.951 77.8936 62.5006 78.148 62.8994 78.6617C63.2933 79.1755 63.4927 79.9094 63.4927 80.8635C63.4927 81.6268 63.376 82.346 63.1377 83.0114C62.9043 83.6768 62.5881 84.2591 62.1893 84.7533C61.7954 85.2474 61.3382 85.6389 60.8227 85.9226C60.3072 86.2064 59.7722 86.3483 59.2177 86.3483C58.9065 86.3483 58.6195 86.2749 58.352 86.1232C58.0845 85.9716 57.8705 85.7563 57.71 85.4774H57.676L57.4815 86.9942L57.4863 86.9991ZM60.0883 79.9926C59.8743 79.9926 59.6457 80.0562 59.3977 80.1785C59.1496 80.3008 58.9308 80.5406 58.7411 80.8977L58.1964 83.6426C58.2839 83.8579 58.4007 84.0144 58.5563 84.1123C58.7119 84.2102 58.8676 84.2591 59.0281 84.2591C59.2615 84.2591 59.4901 84.1857 59.7041 84.034C59.9181 83.8823 60.1078 83.672 60.2731 83.4029C60.4385 83.1337 60.5746 82.8108 60.6768 82.4341C60.7789 82.0573 60.8275 81.6414 60.8275 81.1913C60.8275 80.7705 60.7595 80.4672 60.6281 80.2812C60.492 80.0953 60.3169 79.9975 60.0883 79.9975V79.9926Z" fill="white"/>
<path d="M65.706 78.0891H68.274L66.669 86.1622H64.1011L65.706 78.0891ZM67.4083 77.0567C67.238 77.0567 67.0727 77.0322 66.9122 76.9833C66.7517 76.9344 66.6058 76.861 66.4793 76.7631C66.3529 76.6653 66.2507 76.5429 66.1729 76.3913C66.1 76.2396 66.0611 76.0634 66.0611 75.8579C66.0611 75.6622 66.1 75.4763 66.1827 75.3002C66.2653 75.124 66.3723 74.9675 66.5134 74.8402C66.6544 74.713 66.8149 74.6054 67.0046 74.5271C67.1894 74.4439 67.3937 74.4048 67.6077 74.4048C67.7779 74.4048 67.9432 74.4341 68.1037 74.488C68.2642 74.5418 68.4101 74.6152 68.5366 74.713C68.663 74.8109 68.7652 74.9332 68.843 75.0849C68.9159 75.2366 68.9548 75.4078 68.9548 75.6035C68.9548 76.0243 68.8089 76.3717 68.5123 76.6457C68.2156 76.9197 67.8508 77.0567 67.4131 77.0567H67.4083Z" fill="white"/>
<path d="M74.8541 77.2817L75.3015 74.9233H77.8694L75.6225 86.1621H73.5361V85.1591H73.502C73.147 85.5358 72.7579 85.8294 72.3202 86.0398C71.8873 86.2502 71.4788 86.3529 71.0946 86.3529C70.3894 86.3529 69.8398 86.0985 69.441 85.5847C69.0471 85.0759 68.8477 84.3371 68.8477 83.383C68.8477 82.6197 68.9644 81.9005 69.2027 81.235C69.4361 80.5696 69.7523 79.9874 70.1511 79.4932C70.545 78.999 71.0022 78.6076 71.5177 78.3238C72.0333 78.0401 72.5682 77.8933 73.1227 77.8933C73.4631 77.8933 73.7695 77.9764 74.037 78.1379C74.3045 78.2994 74.5136 78.5195 74.6644 78.7984H74.6984L74.8589 77.2817H74.8541ZM72.2521 84.2588C72.4564 84.2588 72.685 84.1903 72.9427 84.0582C73.2005 83.9261 73.4388 83.6374 73.6674 83.1922L74.1829 80.6088C74.0856 80.3935 73.9543 80.2369 73.789 80.1391C73.6236 80.0412 73.4631 79.9923 73.3172 79.9923C73.0838 79.9923 72.8552 80.0657 72.6412 80.2173C72.4272 80.369 72.2375 80.5794 72.0722 80.8485C71.9068 81.1176 71.7706 81.4405 71.6733 81.8173C71.5712 82.194 71.5226 82.6099 71.5226 83.0601C71.5226 83.4808 71.5907 83.7842 71.722 83.9701C71.8533 84.156 72.0333 84.2539 72.2618 84.2539L72.2521 84.2588Z" fill="white"/>
<path d="M77.646 82.8646C77.646 82.1209 77.7773 81.4457 78.0448 80.839C78.3123 80.2323 78.6625 79.7088 79.0953 79.2733C79.5282 78.8379 80.0145 78.5003 80.5544 78.2556C81.0942 78.011 81.634 77.8936 82.169 77.8936C82.6602 77.8936 83.0736 77.9767 83.4141 78.1382C83.7497 78.2997 84.022 78.5198 84.2312 78.7987C84.4403 79.0776 84.5911 79.4054 84.6883 79.7773C84.7856 80.1491 84.8342 80.5455 84.8342 80.9662C84.8342 81.1717 84.8148 81.3772 84.7759 81.5778C84.737 81.7784 84.6932 81.9741 84.6494 82.1503C84.6008 82.3264 84.5521 82.483 84.5035 82.62C84.4549 82.757 84.416 82.85 84.3819 82.9038H80.0485C80.068 83.442 80.2334 83.8285 80.5446 84.0683C80.8559 84.3031 81.245 84.4254 81.7167 84.4254C81.9404 84.4254 82.1788 84.3716 82.4219 84.264C82.67 84.1563 82.884 84.0389 83.0639 83.9068L83.9637 85.5214C83.6427 85.7465 83.2293 85.9422 82.7283 86.1086C82.2225 86.2749 81.6438 86.3581 80.9775 86.3581C80.4863 86.3581 80.034 86.2749 79.6303 86.1135C79.2217 85.952 78.8716 85.722 78.5798 85.4187C78.288 85.1153 78.0545 84.7533 77.8891 84.3227C77.7238 83.8921 77.6411 83.4077 77.6411 82.8695L77.646 82.8646ZM82.6846 81.3479C82.704 81.2843 82.7235 81.206 82.7332 81.113C82.7429 81.0201 82.7478 80.9271 82.7478 80.8292C82.7478 80.5503 82.6846 80.3204 82.5533 80.1345C82.4268 79.9534 82.1885 79.8605 81.848 79.8605C81.5368 79.8605 81.2401 79.9779 80.9483 80.2176C80.6613 80.4525 80.423 80.8292 80.2431 81.3479H82.6846Z" fill="white"/>
<path d="M85.4129 84.7088L89.2648 80.09H86.6337L87.0179 78.0889H92.8589L92.572 79.5763L88.7201 84.1608H91.7695L91.3853 86.162H85.126L85.4129 84.7088Z" fill="white"/>
<path d="M102.265 77.2817L102.712 74.9233H105.28L103.033 86.1621H100.947V85.1591H100.913C100.558 85.5358 100.169 85.8294 99.7308 86.0398C99.298 86.2502 98.8895 86.3529 98.5052 86.3529C97.8 86.3529 97.2505 86.0985 96.8516 85.5847C96.4577 85.0759 96.2583 84.3371 96.2583 83.383C96.2583 82.6197 96.375 81.9005 96.6133 81.235C96.8468 80.5696 97.1629 79.9874 97.5617 79.4932C97.9557 78.999 98.4128 78.6076 98.9284 78.3238C99.4439 78.0401 99.9789 77.8933 100.533 77.8933C100.874 77.8933 101.18 77.9764 101.448 78.1379C101.715 78.2994 101.924 78.5195 102.075 78.7984H102.109L102.27 77.2817H102.265ZM99.6628 84.2588C99.867 84.2588 100.096 84.1903 100.353 84.0582C100.611 83.9261 100.849 83.6374 101.078 83.1922L101.594 80.6088C101.496 80.3935 101.365 80.2369 101.2 80.1391C101.034 80.0412 100.874 79.9923 100.728 79.9923C100.494 79.9923 100.266 80.0657 100.052 80.2173C99.8378 80.369 99.6482 80.5794 99.4828 80.8485C99.3174 81.1176 99.1813 81.4405 99.084 81.8173C98.9819 82.194 98.9332 82.6099 98.9332 83.0601C98.9332 83.4808 99.0013 83.7842 99.1326 83.9701C99.2639 84.156 99.4439 84.2539 99.6725 84.2539L99.6628 84.2588Z" fill="white"/>
<path d="M105.057 82.8646C105.057 82.1209 105.188 81.4457 105.455 80.839C105.723 80.2323 106.073 79.7088 106.506 79.2733C106.939 78.8379 107.425 78.5003 107.965 78.2556C108.505 78.011 109.045 77.8936 109.58 77.8936C110.071 77.8936 110.484 77.9767 110.825 78.1382C111.16 78.2997 111.433 78.5198 111.642 78.7987C111.851 79.0776 112.002 79.4054 112.099 79.7773C112.196 80.1491 112.245 80.5455 112.245 80.9662C112.245 81.1717 112.225 81.3772 112.187 81.5778C112.148 81.7784 112.104 81.9741 112.06 82.1503C112.011 82.3264 111.963 82.483 111.914 82.62C111.866 82.757 111.827 82.85 111.793 82.9038H107.459C107.479 83.442 107.644 83.8285 107.955 84.0683C108.267 84.3031 108.656 84.4254 109.127 84.4254C109.351 84.4254 109.589 84.3716 109.833 84.264C110.081 84.1563 110.295 84.0389 110.475 83.9068L111.374 85.5214C111.053 85.7465 110.64 85.9422 110.139 86.1086C109.633 86.2749 109.054 86.3581 108.388 86.3581C107.897 86.3581 107.445 86.2749 107.041 86.1135C106.632 85.952 106.282 85.722 105.99 85.4187C105.699 85.1153 105.465 84.7533 105.3 84.3227C105.134 83.8921 105.052 83.4077 105.052 82.8695L105.057 82.8646ZM110.095 81.3479C110.115 81.2843 110.134 81.206 110.144 81.113C110.154 81.0201 110.158 80.9271 110.158 80.8292C110.158 80.5503 110.095 80.3204 109.964 80.1345C109.837 79.9534 109.599 79.8605 109.259 79.8605C108.947 79.8605 108.651 79.9779 108.359 80.2176C108.072 80.4525 107.834 80.8292 107.654 81.3479H110.095Z" fill="white"/>
<path d="M115.075 74.9233H117.643L115.912 83.5787C115.892 83.6668 115.878 83.7255 115.878 83.7646V83.8869C115.878 84.0386 115.912 84.1414 115.975 84.2001C116.038 84.2588 116.116 84.2882 116.199 84.2882H116.335C116.374 84.2882 116.422 84.2784 116.486 84.2539L116.388 86.1572C116.238 86.211 116.053 86.2551 115.834 86.2942C115.615 86.3333 115.362 86.3529 115.07 86.3529C114.409 86.3529 113.937 86.1963 113.66 85.8783C113.383 85.5603 113.242 85.1297 113.242 84.5768C113.242 84.4154 113.251 84.249 113.266 84.0778C113.281 83.9065 113.315 83.7059 113.368 83.4808L115.07 74.9233H115.075Z" fill="white"/>
<path d="M120.945 83.3833C120.945 82.62 121.062 81.9008 121.3 81.2353C121.534 80.5699 121.85 79.9877 122.249 79.4935C122.643 78.9993 123.1 78.6079 123.615 78.3241C124.131 78.0403 124.666 77.8936 125.22 77.8936C125.561 77.8936 125.887 77.9816 126.198 78.1578C126.509 78.3339 126.738 78.5786 126.889 78.8917H126.923L127.278 78.0844H129.33L127.725 86.1575H125.639V85.1545H125.605C125.25 85.5312 124.86 85.8248 124.423 86.0352C123.99 86.2456 123.581 86.3483 123.197 86.3483C122.492 86.3483 121.942 86.0939 121.544 85.5801C121.15 85.0713 120.95 84.3325 120.95 83.3784L120.945 83.3833ZM124.35 84.2542C124.564 84.2542 124.797 84.1857 125.055 84.0536C125.313 83.9215 125.546 83.6328 125.76 83.1876L126.276 80.6042C126.178 80.3889 126.047 80.2323 125.882 80.1345C125.716 80.0366 125.556 79.9877 125.41 79.9877C125.177 79.9877 124.948 80.0611 124.734 80.2127C124.52 80.3644 124.33 80.5748 124.165 80.8439C124 81.113 123.863 81.4359 123.766 81.8127C123.664 82.1894 123.615 82.6053 123.615 83.0555C123.615 83.4762 123.683 83.7796 123.815 83.9655C123.946 84.1514 124.126 84.2493 124.355 84.2493L124.35 84.2542Z" fill="white"/>
<path d="M131.83 74.9233H134.398L132.667 83.5787C132.647 83.6668 132.633 83.7255 132.633 83.7646V83.8869C132.633 84.0386 132.667 84.1414 132.73 84.2001C132.793 84.2588 132.871 84.2882 132.954 84.2882H133.09C133.129 84.2882 133.177 84.2784 133.241 84.2539L133.143 86.1572C132.992 86.211 132.808 86.2551 132.589 86.2942C132.37 86.3333 132.117 86.3529 131.825 86.3529C131.164 86.3529 130.692 86.1963 130.415 85.8783C130.138 85.5603 129.997 85.1297 129.997 84.5768C129.997 84.4154 130.006 84.249 130.021 84.0778C130.035 83.9065 130.07 83.7059 130.123 83.4808L131.825 74.9233H131.83Z" fill="white"/>
<path d="M135.779 78.0891H138.347L136.742 86.1622H134.174L135.779 78.0891ZM137.481 77.0567C137.311 77.0567 137.146 77.0322 136.985 76.9833C136.825 76.9344 136.679 76.861 136.553 76.7631C136.426 76.6653 136.324 76.5429 136.246 76.3913C136.173 76.2396 136.134 76.0634 136.134 75.8579C136.134 75.6622 136.173 75.4763 136.256 75.3002C136.339 75.124 136.446 74.9675 136.587 74.8402C136.728 74.713 136.888 74.6054 137.078 74.5271C137.263 74.4439 137.467 74.4048 137.681 74.4048C137.851 74.4048 138.016 74.4341 138.177 74.488C138.337 74.5418 138.483 74.6152 138.61 74.713C138.736 74.8109 138.838 74.9332 138.916 75.0849C138.989 75.2366 139.028 75.4078 139.028 75.6035C139.028 76.0243 138.882 76.3717 138.586 76.6457C138.289 76.9197 137.924 77.0567 137.486 77.0567H137.481Z" fill="white"/>
<path d="M139.437 78.0889H142.004L142.165 81.7682C142.184 82.1792 142.199 82.5853 142.199 82.9963V84.2538H142.262C142.442 83.833 142.617 83.422 142.778 83.011C142.938 82.6 143.108 82.189 143.293 81.7682L144.864 78.0889H147.369L143.357 86.162H140.404L139.441 78.0889H139.437Z" fill="white"/>
<path d="M148.521 78.0891H151.089L149.484 86.1622H146.917L148.521 78.0891ZM150.224 77.0567C150.053 77.0567 149.888 77.0322 149.728 76.9833C149.567 76.9344 149.421 76.861 149.295 76.7631C149.168 76.6653 149.066 76.5429 148.988 76.3913C148.915 76.2396 148.876 76.0634 148.876 75.8579C148.876 75.6622 148.915 75.4763 148.998 75.3002C149.081 75.124 149.188 74.9675 149.329 74.8402C149.47 74.713 149.63 74.6054 149.82 74.5271C150.005 74.4439 150.209 74.4048 150.423 74.4048C150.593 74.4048 150.759 74.4341 150.919 74.488C151.08 74.5418 151.226 74.6152 151.352 74.713C151.478 74.8109 151.581 74.9332 151.658 75.0849C151.731 75.2366 151.77 75.4078 151.77 75.6035C151.77 76.0243 151.624 76.3717 151.328 76.6457C151.031 76.9197 150.666 77.0567 150.229 77.0567H150.224Z" fill="white"/>
<path d="M154.844 86.3532C154.363 86.3532 153.925 86.27 153.526 86.1086C153.132 85.9471 152.792 85.7171 152.515 85.4236C152.237 85.13 152.018 84.7728 151.863 84.3667C151.707 83.9557 151.629 83.5007 151.629 82.9967C151.629 82.209 151.761 81.5044 152.028 80.8733C152.296 80.2421 152.646 79.7088 153.079 79.2684C153.512 78.8281 153.998 78.4856 154.538 78.2507C155.078 78.0159 155.627 77.8936 156.182 77.8936C156.663 77.8936 157.101 77.9767 157.5 78.1382C157.894 78.2997 158.234 78.5296 158.511 78.8232C158.788 79.1217 159.007 79.4739 159.163 79.8898C159.319 80.3057 159.396 80.7607 159.396 81.2549C159.396 82.0427 159.26 82.7472 158.993 83.3784C158.725 84.0096 158.375 84.5429 157.942 84.9832C157.509 85.4236 157.023 85.7661 156.483 86.0009C155.943 86.2358 155.394 86.3581 154.839 86.3581L154.844 86.3532ZM155.904 79.9583C155.671 79.9583 155.447 80.0317 155.248 80.1834C155.044 80.3351 154.868 80.5406 154.718 80.8048C154.567 81.069 154.45 81.387 154.363 81.7589C154.275 82.1307 154.236 82.5319 154.236 82.9625C154.236 83.3931 154.309 83.6964 154.455 83.9313C154.601 84.1661 154.825 84.2884 155.136 84.2884C155.369 84.2884 155.593 84.2151 155.793 84.0634C155.997 83.9117 156.172 83.7062 156.323 83.442C156.473 83.1778 156.59 82.8646 156.678 82.4977C156.765 82.1307 156.804 81.7295 156.804 81.2892C156.804 80.8782 156.731 80.5552 156.585 80.3204C156.439 80.0855 156.216 79.9632 155.904 79.9632V79.9583Z" fill="white"/>
</g>
<defs>
<clipPath id="clip0_403_935">
<rect width="181" height="89" fill="white"/>
</clipPath>
</defs>
</svg>
