<svg xmlns="http://www.w3.org/2000/svg" width="666.002" height="154.733" viewBox="0 0 666.002 154.733">
  <defs>
    <style>
      .cls-1 {
        fill: #5983b9;
      }

      .cls-2 {
        fill: #4dcec8;
      }

      .cls-3 {
        fill: #253aa0;
      }

      .cls-4 {
        fill: #2659a5;
      }

      .cls-5 {
        fill: #0285c6;
      }

      .cls-6 {
        fill: #02b6ba;
      }
    </style>
  </defs>
  <g id="Grupo_1102" data-name="Grupo 1102" transform="translate(-700 -5408.266)">
    <path id="Trazado_484" data-name="Trazado 484" class="cls-1" d="M63.251,5.873H44.089L32.169,61.857l6.533,1.59L38.349,65.3H18.657l.353-1.855,7.33-1.59L38.261,5.873H18.3l-3.179,6.8H13.27l1.415-10.6H68.462l-3.268,10.6H63.34Z" transform="translate(719.285 5411.282)"/>
    <path id="Trazado_485" data-name="Trazado 485" class="cls-1" d="M43.883,71.161H16.7l1.641-8.613,7.387-1.6L36.2,11.733H23.134l-3.177,6.8h-8.4L13.952.576H75.934L70.4,18.533H62.2l-.088-6.8H49.557L39,61.307l6.462,1.572Z" transform="translate(716.796 5409.103)"/>
    <path id="Trazado_486" data-name="Trazado 486" class="cls-1" d="M85.313,5.821H58.38L52.907,31.253H75.866l-.795,3.8H52.112l-5.564,26.4H76.4l2.914-6.8h1.676l-2.208,10.6H33.215l.353-1.855,7.239-1.59L52.818,5.556l-6.624-1.59.353-1.855H90.17L86.638,14.476H84.96Z" transform="translate(748.268 5411.334)"/>
    <path id="Trazado_487" data-name="Trazado 487" class="cls-1" d="M84.405,71.109h-53L33.043,62.5l7.3-1.6L51.1,10.476l-6.545-1.57L46.138.612H97.685L92.047,20.335H83.763l.351-8.655H63.988L60.1,29.753H83.029L80.694,40.908H57.73L53.719,59.952H76.6l2.914-6.8h8.63Z" transform="translate(745.633 5409.155)"/>
    <path id="Trazado_488" data-name="Trazado 488" class="cls-1" d="M112.706,62.871c-5.829,1.855-17.925,5.034-28.082,5.034C59.637,68.17,53.72,54.219,57.959,34.439S76.941,1.5,97.872,1.5c11.567,0,19.162,2.12,22.341,3.268L117.12,15.451h-1.855V8.3c-4.325-2.12-9.889-2.826-18.365-2.826A34,34,0,0,0,83.035,9.1C75.8,12.8,67.583,20.044,64.492,34.966,58.133,64.284,80.918,63.49,85.6,63.49c8.39,0,15.455-1.413,22.43-5.385l3.268-15.367c-4.769-.971-5.74-1.236-6.624-1.5l.353-1.676h12.629Z" transform="translate(782.401 5410.446)"/>
    <path id="Trazado_489" data-name="Trazado 489" class="cls-1" d="M86.081,73.767c-11.842,0-20.45-3.167-25.557-9.415-5.309-6.5-6.651-16.088-3.989-28.506C61.272,13.735,77.946,0,100.047,0c12.578,0,20.688,2.438,23.59,3.486l3.243,1.17-4.818,16.655h-8.3v-8.37c-3.356-1.131-7.85-1.607-14.687-1.607a30.053,30.053,0,0,0-12.192,3.219c-8.741,4.477-14.332,12.332-16.613,23.34-1.872,8.643-1.209,15,1.965,18.919C76.46,62.031,84.408,62,87.4,61.99h.375c7.642,0,13.635-1.283,19.184-4.131L109.1,47.764c-1.894-.415-2.62-.616-3.312-.822l-3.243-.974,1.668-7.909h20.153l-6.332,29.848-2.039.65c-2.73.868-16.976,5.208-29.2,5.208-.24,0-.481,0-.719,0" transform="translate(780.226 5408.267)"/>
    <path id="Trazado_490" data-name="Trazado 490" class="cls-1" d="M153.157,34.649c-3.974,18.723-16.159,33.2-40.267,33.2-24.284,0-30.113-13.333-26.05-33.2,4.592-21.632,19.074-32.76,40.178-33.113,22.959.353,30.729,11.481,26.139,33.113m-39.383,29.23c3.444,0,27.373-.088,33.378-29.318,6.359-29.669-17.484-29.139-21.016-29.139-4.416,0-26.225.177-32.583,29.139-6.359,30.29,15.894,29.318,20.222,29.318" transform="translate(824.473 5410.499)"/>
    <path id="Trazado_491" data-name="Trazado 491" class="cls-1" d="M115.078,73.711c-11.95,0-20.58-3.147-25.646-9.356-5.267-6.452-6.577-15.7-4.011-28.263C90.276,13.22,105.8.427,129.144.037c12.573.191,21.085,3.366,26.141,9.707,5.085,6.376,6.28,15.487,3.658,27.849C154,60.883,138.422,73.711,115.078,73.711M128.6,11.28h-.086c-8.866,0-24.166,3.41-29.181,26.249-1.923,9.165-1.224,15.882,2.083,19.935,4.06,4.973,11.383,4.936,14.133,4.916l.412,0c7.323,0,24.883-2.571,29.774-26.377,1.86-8.677,1.124-15.126-2.178-19.2-2.968-3.663-8-5.52-14.957-5.52" transform="translate(822.286 5408.319)"/>
    <path id="Trazado_492" data-name="Trazado 492" class="cls-1" d="M127.593,3.93l.439-1.855h28.523c17.219,0,20.487,9.891,18.544,18.458-1.678,8.034-9.094,18.014-26.315,18.014H132.8l-4.948,23.222c2.031.444,4.592,1.062,6.712,1.68l-.353,1.852h-19.78l.353-1.852,7.33-1.59,12.008-56.34Zm6,30.643h15.985A18.9,18.9,0,0,0,168.3,20.621c1.415-6.182.091-14.66-12.627-14.66H139.69Z" transform="translate(866.294 5411.282)"/>
    <path id="Trazado_493" data-name="Trazado 493" class="cls-1" d="M139.891,71.161h-27.27l1.644-8.613,7.384-1.6,10.767-50.516L125.8,8.82,127.76.575h31.43c8.91,0,15.369,2.434,19.2,7.234,3.263,4.085,4.3,9.666,2.932,15.718-2,9.6-11.049,20.879-29.9,20.879h-13l-3.574,16.78c1.077.267,2.254.576,3.39.91l3.214.935Zm.886-38.088h11.439a15.375,15.375,0,0,0,15.131-11.088c.336-1.469.913-5.13-.959-7.48-1.42-1.779-4.139-2.684-8.081-2.684h-13Z" transform="translate(863.66 5409.102)"/>
    <path id="Trazado_494" data-name="Trazado 494" class="cls-1" d="M180.736,2.076c14.219,0,19.164,7.33,17.31,16.071-2.12,9.8-10.333,12.982-17.042,14.4,5.65.707,6.886,5.829,7.858,10.065l3.621,19.427c2.031.442,4.239,1.06,6.094,1.5a8.375,8.375,0,0,0-.267,1.766H178.619l.353-1.855,7.946-1.678-4.239-21.456c-1.148-3.977-2.824-5.74-6.974-5.74H158.042L152.3,61.946l1.322.353c.883.265,2.649.618,5.387,1.148a9.181,9.181,0,0,0-.265,1.855H139.059l.351-1.855,7.242-1.59L158.66,5.52l-6.445-1.59.439-1.855Zm-6,28.17c11.567,0,16.336-6.977,17.307-12.187,1.146-5.561-1.148-12.1-12.185-12.1h-15.72l-5.122,24.284Z" transform="translate(902.08 5411.284)"/>
    <path id="Trazado_495" data-name="Trazado 495" class="cls-1" d="M204.131,71.162H176.81l1.639-8.628,6.788-1.435-3.5-17.734c-.829-2.806-1.447-2.932-3.4-2.932H163.663l-4.4,20.972c.9.186,1.967.395,3.079.611l3.9.753L165.2,66.6a1.944,1.944,0,0,0-.091.562c-.017.26-.034.523-.081.844l-.454,3.157H137.247l1.634-8.608,7.3-1.6,10.769-50.533-6.525-1.609L152.383.576h30.986c10.436,0,15.61,3.682,18.112,6.768,2.961,3.658,3.93,8.412,2.8,13.745a20.54,20.54,0,0,1-12.212,14.852,23.707,23.707,0,0,1,3.013,8.024l3.214,17.221c.5.125,1,.253,1.494.378.79.2,1.558.4,2.274.572l3.7.883-1,3.668a1.85,1.85,0,0,0-.1.52c-.015.236-.034.481-.079.8ZM166.185,28.746h11.182c11.4,0,13.4-7.647,13.689-9.18.267-1.3.488-3.609-.873-5.282-1.31-1.612-3.972-2.463-7.693-2.463H169.754Z" transform="translate(899.446 5409.104)"/>
    <path id="Trazado_496" data-name="Trazado 496" class="cls-1" d="M163.142,65.3a9.55,9.55,0,0,0,.532-1.766l6.359-1.5L204.292,5.609c-1.852-.442-4.592-1.148-6.71-1.766l.442-1.766h16.424l8.125,59.958c2.031.353,4.148,1.06,6,1.5a8.638,8.638,0,0,0-.263,1.766H208.443c.088-.707.353-1.236.444-1.855l7.769-1.678-2.034-20.487H188.753l-12.629,20.4c2.117.618,4.857,1.236,7.065,1.855a8.506,8.506,0,0,0-.265,1.766Zm27.2-27.728h23.931L209.679,5.52Z" transform="translate(937.077 5411.284)"/>
    <path id="Trazado_497" data-name="Trazado 497" class="cls-1" d="M234.529,71.162H207.3l.52-4.139a9.893,9.893,0,0,1,.363-1.609,2.9,2.9,0,0,0,.093-.326l.464-2.377,2.4-.68,4.558-.986-1.376-13.9H193.83l-8.925,14.42c.8.2,1.577.407,2.3.611l3.525.986-.967,3.528a1.838,1.838,0,0,0-.1.518c-.015.238-.034.481-.079.8l-.454,3.157H161.058l1.847-5.493a2.849,2.849,0,0,0,.155-.476l.356-2.483,7.3-1.725L201.6,10.121c-.694-.189-1.379-.38-2.016-.567l-3.4-.991L198.177.576H220.69L228.9,61.184c.532.14,1.052.285,1.543.419.692.191,1.369.38,2.009.532l3.692.878-.994,3.665a1.906,1.906,0,0,0-.093.52c-.015.24-.032.483-.078.8ZM199.887,36.074h13.166l-2.527-17.638Z" transform="translate(934.048 5409.104)"/>
    <path id="Trazado_498" data-name="Trazado 498" class="cls-1" d="M246.9,59.855l-1.68,5.446h-53.6l.881-4.416L250.956,5.873H208.572l-3.091,6.712H203.8l1.236-10.509h53.6l-.795,4.062L199.829,60.886H241.95Z" transform="translate(978.458 5411.282)"/>
    <path id="Trazado_499" data-name="Trazado 499" class="cls-1" d="M251.1,71.161h-61.31l1.99-9.967,52.557-49.461H213.587L210.5,18.445h-8.174l2.1-17.869h61.342l-1.879,9.609-52.138,49.2h30.768l14.295.218Z" transform="translate(975.8 5409.103)"/>
    <path id="Trazado_500" data-name="Trazado 500" class="cls-1" d="M210.693,65.3a9.545,9.545,0,0,0,.532-1.766l6.359-1.5L251.843,5.609c-1.852-.442-4.592-1.148-6.709-1.766l.442-1.766H262l8.125,59.958c2.031.353,4.148,1.06,6,1.5a8.641,8.641,0,0,0-.263,1.766H255.994c.088-.707.353-1.236.444-1.855l7.769-1.678-2.034-20.487H236.3l-12.629,20.4c2.117.618,4.857,1.236,7.065,1.855a8.5,8.5,0,0,0-.265,1.766Zm27.2-27.728h23.931L257.23,5.52Z" transform="translate(1006.177 5411.284)"/>
    <path id="Trazado_501" data-name="Trazado 501" class="cls-1" d="M282.079,71.162h-27.23l.52-4.139a9.9,9.9,0,0,1,.363-1.609,2.909,2.909,0,0,0,.093-.326l.464-2.377,2.4-.68,4.558-.986-1.376-13.9H241.381l-8.925,14.42c.8.2,1.577.407,2.3.611l3.525.986-.967,3.528a1.838,1.838,0,0,0-.1.518c-.015.238-.034.481-.078.8l-.454,3.157H208.609l1.847-5.493a2.854,2.854,0,0,0,.155-.476l.356-2.483,7.3-1.725,30.883-50.864c-.694-.189-1.379-.38-2.017-.567l-3.4-.991L245.728.576h22.513l8.213,60.608c.532.14,1.052.285,1.543.419.692.191,1.369.38,2.009.532l3.692.878-.994,3.665a1.906,1.906,0,0,0-.093.52c-.015.24-.032.483-.078.8ZM247.438,36.074H260.6l-2.527-17.638Z" transform="translate(1003.149 5409.104)"/>
    <path id="Trazado_502" data-name="Trazado 502" class="cls-1" d="M307.306,5.519l-11.92,56.426,6.624,1.5-.356,1.855H287.968L263.33,7.639l-11.567,54.13c2.031.442,4.59,1.06,6.624,1.678a9.043,9.043,0,0,0-.267,1.855H238.342c.088-.707.351-1.236.439-1.855l7.154-1.59L257.945,5.519,251.5,3.93l.442-1.855h14.3L290.352,58.5,302.36,2.075h12.629l-.442,1.855Z" transform="translate(1046.356 5411.282)"/>
    <path id="Trazado_503" data-name="Trazado 503" class="cls-1" d="M294,71.162h-5.993L266.975,21.933l-8.387,39.258c1.087.272,2.257.586,3.341.915l3.422,1.04-.944,3.452a2.044,2.044,0,0,0-.093.562,8.464,8.464,0,0,1-.081.844l-.451,3.157h-27.14l.52-4.139a9.745,9.745,0,0,1,.361-1.6c.032-.11.069-.216.091-.331l.456-2.372,2.387-.682,4.843-1.077,10.777-50.541-6.53-1.609L251.5.576h19.643l20.5,47.977L301.854.576h20.263l-2.053,8.633-7.178,1.575L302.207,61.339l6.557,1.487-1.6,8.336H294Z" transform="translate(1043.884 5409.104)"/>
    <path id="Trazado_504" data-name="Trazado 504" class="cls-2" d="M18.381,36.675,0,101.439H414.127l18.379-64.764Z" transform="translate(700 5461.561)"/>
    <path id="Trazado_505" data-name="Trazado 505" class="cls-3" d="M255.318,36.675l-18.379,64.764H292.65l18.374-64.764Z" transform="translate(1044.317 5461.561)"/>
    <path id="Trazado_506" data-name="Trazado 506" class="cls-4" d="M232.608,36.675l-18.379,64.764h55.712L288.32,36.675Z" transform="translate(1011.316 5461.561)"/>
    <path id="Trazado_507" data-name="Trazado 507" class="cls-5" d="M209.9,36.675l-18.382,64.764h55.707l18.379-64.764Z" transform="translate(978.316 5461.561)"/>
    <path id="Trazado_508" data-name="Trazado 508" class="cls-6" d="M187.193,36.675l-18.382,64.764h55.712L242.9,36.675Z" transform="translate(945.315 5461.561)"/>
  </g>
</svg>
