<svg width="116" height="36" viewBox="0 0 116 36" fill="none" xmlns="http://www.w3.org/2000/svg">
<g clip-path="url(#clip0_403_934)">
<path d="M16.0186 15.4143C15.3926 15.2954 14.734 14.8691 14.3944 14.3628C14.2758 14.1722 13.8053 13.5798 13.8217 12.7127C13.8237 12.6185 13.8257 12.5242 13.8257 12.4319C13.8257 11.4029 13.6028 10.4252 13.2019 9.54586C12.9768 9.05596 12.5452 8.19506 12.9032 7.21322C13.2591 6.23139 14.5233 6.00591 15.2126 5.15321C15.6585 4.60183 15.9388 3.91106 15.9388 3.14649C15.9347 1.41649 14.5437 0.0185547 12.8214 0.0185547C11.4816 0.0185547 10.3688 0.877406 9.89628 2.06012C9.52604 2.99276 9.69582 4.4358 8.76101 5.12042C8.06757 5.62466 6.59684 5.50372 6.44138 5.51397C2.8392 5.75994 0 8.7608 0 12.4319C0 14.9511 1.34187 17.1587 3.34444 18.3721C4.10743 18.8333 4.50017 19.602 4.56972 20.0037C4.6229 20.3358 4.83359 20.8503 4.47767 21.7317C3.99492 22.9308 3.729 24.2406 3.729 25.614C3.729 31.3492 8.36213 35.9981 14.0773 35.9981C19.7926 35.9981 24.4257 31.3492 24.4257 25.614C24.4257 20.5469 20.8092 16.3265 16.0165 15.4123L16.0186 15.4143ZM12.7784 0.832311C14.0201 0.832311 15.0265 1.84079 15.0265 3.08705C15.0265 4.33331 14.0201 5.34384 12.7784 5.34384C11.5368 5.34384 10.5243 4.33536 10.5243 3.08705C10.5243 1.83874 11.5327 0.832311 12.7784 0.832311ZM1.8553 12.3786C1.8553 9.60735 4.09515 7.35876 6.85866 7.35876C9.62218 7.35876 11.86 9.60735 11.86 12.3786C11.86 15.1499 9.62013 17.3985 6.85866 17.3985C4.0972 17.3985 1.8553 15.152 1.8553 12.3786ZM14.0303 33.0669C9.90037 33.0669 6.55593 29.7114 6.55593 25.5668C6.55593 21.4222 9.90037 18.0729 14.0303 18.0729C18.1602 18.0729 21.4985 21.4304 21.4985 25.5668C21.4985 29.7032 18.1561 33.0669 14.0303 33.0669Z" fill="white"/>
<path d="M30.552 14.623H22.7299C19.3057 14.623 17.5916 13.5837 17.5916 11.5053V6.03037C17.5916 4.94604 18.1602 4.14664 19.3016 3.63625C20.1362 3.26319 21.1733 3.07666 22.417 3.07666H30.552V5.25351H22.1551C20.8051 5.25351 20.1301 5.50973 20.1301 6.02217V11.4704C20.1301 12.11 20.9974 12.4277 22.732 12.4277H30.5541V14.623H30.552Z" fill="white"/>
<path d="M48.5035 14.7236H45.65L43.5452 11.7228H35.6903L33.6366 14.7236H30.6501L38.235 3.89062C38.6011 3.36589 39.0736 3.10352 39.6566 3.10352C40.2396 3.10352 40.7162 3.36179 41.0701 3.88038L48.5035 14.7236ZM41.9988 9.51928L39.5687 6.06747L37.1918 9.51928H41.9988Z" fill="white"/>
<path d="M62.8306 14.6968H58.2138L51.212 10.794V14.6968H48.6755V3.07666H57.6922C59.0239 3.07666 60.1203 3.26319 60.9753 3.63625C62.1638 4.14869 62.759 4.97884 62.759 6.13081V7.45905C62.759 8.54338 62.2129 9.33869 61.1185 9.84498C60.3023 10.2242 59.2837 10.4128 58.0584 10.4128H55.1067L62.8286 14.6968H62.8306ZM60.2205 7.4775V6.08571C60.2205 5.53228 59.48 5.25556 57.9991 5.25556H51.214V8.23797H58.4511C59.6314 8.23797 60.2226 7.98379 60.2226 7.4775H60.2205Z" fill="white"/>
<path d="M77.8673 13.1697C77.8673 14.1863 77.4521 14.6967 76.6175 14.6967C76.1204 14.6967 75.6377 14.4979 75.1774 14.1002L66.2957 6.52022V14.6967L63.7593 14.6865V4.45816C63.7593 3.47632 64.1643 2.98438 64.9723 2.98438C65.5184 2.98438 66.0462 3.20575 66.5555 3.64645L75.3206 11.1281V2.98438H77.8673V13.1697Z" fill="white"/>
<path d="M92.6994 11.3967C92.6994 13.5469 90.9116 14.6231 87.3442 14.6231H84.2309C82.8318 14.6231 81.6802 14.4283 80.774 14.0348C79.5201 13.4937 78.8921 12.6164 78.8921 11.4049V6.32768C78.8921 4.15903 80.6717 3.07471 84.2289 3.07471H87.3422C88.9193 3.07471 90.1016 3.23869 90.8871 3.56255C92.0939 4.05654 92.6974 4.97894 92.6974 6.32768V11.3967H92.6994ZM90.1507 11.3517V6.37278C90.1507 5.62666 89.2302 5.25156 87.3892 5.25156H84.2207C82.3593 5.25156 81.4306 5.62666 81.4306 6.37278V11.3517C81.4306 12.067 82.3613 12.4257 84.2207 12.4257H87.3974C89.2323 12.4257 90.1507 12.067 90.1507 11.3517Z" fill="white"/>
<path d="M105.647 5.25351H100.48V14.6865H97.9522V5.25351H92.8057V3.07666H105.647V5.25351Z" fill="white"/>
<path d="M111.661 0C112.406 0 113.12 0.188578 113.803 0.563685C114.486 0.938792 115.024 1.47993 115.413 2.18095C115.804 2.88402 115.998 3.61783 115.998 4.38649C115.998 5.15516 115.808 5.87667 115.423 6.57154C115.041 7.26436 114.507 7.8055 113.822 8.19291C113.136 8.58031 112.416 8.77299 111.661 8.77299C110.907 8.77299 110.187 8.58031 109.501 8.19291C108.816 7.8055 108.282 7.26436 107.9 6.57154C107.517 5.87872 107.325 5.15106 107.325 4.38649C107.325 3.62193 107.519 2.88402 107.912 2.18095C108.303 1.47993 108.839 0.938792 109.522 0.563685C110.205 0.188578 110.919 0 111.661 0ZM111.668 0.858851C111.07 0.858851 110.5 1.00848 109.951 1.31185C109.403 1.61316 108.972 2.04566 108.657 2.6114C108.342 3.17713 108.184 3.76747 108.184 4.38649C108.184 5.00552 108.337 5.58766 108.644 6.14519C108.953 6.70273 109.383 7.13728 109.933 7.45089C110.485 7.7645 111.062 7.92029 111.666 7.92029C112.269 7.92029 112.852 7.7645 113.4 7.45089C113.948 7.13728 114.378 6.70273 114.689 6.14519C114.998 5.58766 115.153 5.00142 115.153 4.38649C115.153 3.77156 114.996 3.17713 114.681 2.6114C114.366 2.04771 113.934 1.61316 113.384 1.31185C112.836 1.00848 112.263 0.858851 111.666 0.858851H111.668ZM109.702 6.73347V2.07846H110.637C111.512 2.07846 112.003 2.08256 112.109 2.09076C112.418 2.11741 112.66 2.18095 112.832 2.27729C113.003 2.37568 113.147 2.52326 113.263 2.72414C113.378 2.92501 113.435 3.14844 113.435 3.39236C113.435 3.72647 113.327 4.01549 113.11 4.25326C112.893 4.49103 112.588 4.63861 112.195 4.69601C112.334 4.7493 112.443 4.8067 112.519 4.87024C112.594 4.93173 112.697 5.05267 112.829 5.2269C112.862 5.27199 112.977 5.46262 113.169 5.79468L113.711 6.73347H112.557L112.173 5.97711C111.911 5.46877 111.696 5.15106 111.526 5.01782C111.357 4.88664 111.142 4.81899 110.88 4.81899H110.637V6.73142H109.702V6.73347ZM110.637 4.08928H111.015C111.555 4.08928 111.891 4.06673 112.019 4.02574C112.15 3.98269 112.253 3.91095 112.328 3.80436C112.404 3.69982 112.441 3.58094 112.441 3.4477C112.441 3.31447 112.404 3.20173 112.33 3.10129C112.257 3.00085 112.152 2.92706 112.017 2.88402C111.882 2.84097 111.547 2.81842 111.015 2.81842H110.637V4.08928Z" fill="white"/>
<path d="M27.4489 17.8268V23.4247H31.5542V24.0785H26.5488V17.8247H27.4489V17.8268Z" fill="white"/>
<path d="M37.2982 22.7563H33.2583L32.6446 24.0805H31.6914L34.6165 17.8267H35.8807L38.863 24.0805H37.9221L37.3023 22.7563H37.2982ZM37.0343 22.2255L35.2629 18.4047L33.514 22.2255H37.0343Z" fill="white"/>
<path d="M39.714 24.0805V17.8267H43.2445C44.2244 17.8267 44.8646 17.9312 45.1673 18.1423C45.468 18.3534 45.6194 18.7982 45.6194 19.4808C45.6194 20.1634 45.2778 20.6123 44.5966 20.7947V20.8091C45.4435 20.9669 45.8649 21.4588 45.8649 22.2787C45.8649 22.9408 45.6971 23.4082 45.3637 23.6767C45.0303 23.9452 44.4514 24.0805 43.625 24.0805H39.7119H39.714ZM40.614 20.5754H42.9827C43.7355 20.5754 44.2203 20.5057 44.435 20.3643C44.6519 20.2228 44.7603 19.9113 44.7603 19.4255C44.7603 19.0032 44.6662 18.7306 44.476 18.6076C44.2878 18.4846 43.8705 18.4211 43.2282 18.4211H40.614V20.5733V20.5754ZM40.614 23.484H42.5266L43.3407 23.4799C44.0259 23.4799 44.476 23.4102 44.6887 23.2708C44.9014 23.1314 45.0078 22.8383 45.0078 22.3894C45.0078 21.8319 44.9014 21.4875 44.6866 21.3605C44.4719 21.2334 43.8889 21.1698 42.9377 21.1698H40.616V23.484H40.614Z" fill="white"/>
<path d="M50.0603 17.7632C51.57 17.7632 52.5129 17.9374 52.8893 18.2818C53.2677 18.6261 53.4559 19.4891 53.4559 20.8686C53.4559 22.3567 53.2739 23.2729 52.9118 23.6235C52.5498 23.9699 51.5986 24.1441 50.0583 24.1441C48.518 24.1441 47.575 23.9719 47.2068 23.6276C46.8386 23.2832 46.6545 22.3915 46.6545 20.9526V20.514L46.6648 19.9216C46.6648 19.0914 46.9041 18.5236 47.3807 18.2203C47.8594 17.9169 48.7512 17.7652 50.0563 17.7652L50.0603 17.7632ZM50.0542 18.3576C48.7921 18.3576 48.0516 18.4683 47.8369 18.6876C47.6221 18.907 47.5157 19.6613 47.5157 20.9506C47.5157 22.2399 47.6241 22.9983 47.8369 23.2176C48.0516 23.439 48.7901 23.5476 50.0542 23.5476C51.3183 23.5476 52.0629 23.439 52.2777 23.2176C52.4925 22.9983 52.5989 22.2419 52.5989 20.9506V20.5427L52.5927 19.9523C52.5927 19.2616 52.4454 18.825 52.1468 18.6384C51.8502 18.4519 51.1527 18.3597 50.0542 18.3597V18.3576Z" fill="white"/>
<path d="M54.5235 24.0805V17.8267H58.3241C59.1812 17.8267 59.7867 17.9599 60.1365 18.2243C60.4883 18.4908 60.6622 18.952 60.6622 19.61C60.6622 20.1859 60.566 20.5897 60.3758 20.8173C60.1856 21.0448 59.8215 21.1924 59.2835 21.26V21.2723C60.1283 21.3215 60.5517 21.7253 60.5517 22.4817V24.0805H59.6496V22.6416C59.6496 21.9118 59.2467 21.547 58.4387 21.547H55.4215V24.0805H54.5215H54.5235ZM55.4236 20.9505H58.0255C58.7128 20.9505 59.1792 20.8685 59.4287 20.7066C59.6783 20.5426 59.803 20.2351 59.803 19.7842C59.803 19.2205 59.711 18.8515 59.5249 18.6814C59.3387 18.5113 58.9439 18.4252 58.3344 18.4252H55.4215V20.9525L55.4236 20.9505Z" fill="white"/>
<path d="M66.9277 22.7563H62.8857L62.2721 24.0805H61.3188L64.2419 17.8267H65.506L68.4884 24.0805H67.5475L66.9277 22.7563ZM66.6638 22.2255L64.8924 18.4047L63.1435 22.2255H66.6638Z" fill="white"/>
<path d="M72.1274 18.4826V24.0805H71.2274V18.4826H68.6255V17.8267H74.7069V18.4826H72.1274Z" fill="white"/>
<path d="M78.4604 17.7632C79.97 17.7632 80.913 17.9374 81.2914 18.2818C81.6698 18.6261 81.858 19.4891 81.858 20.8686C81.858 22.3567 81.676 23.2729 81.3139 23.6235C80.9519 23.9699 80.0007 24.1441 78.4604 24.1441C76.9201 24.1441 75.9792 23.9719 75.6089 23.6276C75.2387 23.2832 75.0566 22.3915 75.0566 20.9526V20.514L75.0689 19.9216C75.0689 19.0914 75.3062 18.5236 75.7848 18.2203C76.2635 17.9169 77.1554 17.7652 78.4604 17.7652V17.7632ZM78.4543 18.3576C77.1922 18.3576 76.4517 18.4683 76.239 18.6876C76.0242 18.907 75.9178 19.6613 75.9178 20.9506C75.9178 22.2399 76.0242 22.9983 76.239 23.2176C76.4537 23.439 77.1922 23.5476 78.4543 23.5476C79.7164 23.5476 80.463 23.439 80.6757 23.2176C80.8905 22.9983 80.9969 22.2419 80.9969 20.9506V20.5427L80.9907 19.9523C80.9907 19.2616 80.8434 18.825 80.5468 18.6384C80.2502 18.4519 79.5527 18.3597 78.4543 18.3597V18.3576Z" fill="white"/>
<path d="M82.9238 24.0805V17.8267H86.7244C87.5815 17.8267 88.187 17.9599 88.5368 18.2243C88.8886 18.4908 89.0625 18.952 89.0625 19.61C89.0625 20.1859 88.9663 20.5897 88.7761 20.8173C88.5859 21.0448 88.2217 21.1924 87.6838 21.26V21.2723C88.5306 21.3215 88.952 21.7253 88.952 22.4817V24.0805H88.052V22.6416C88.052 21.9118 87.649 21.547 86.841 21.547H83.8239V24.0805H82.9238ZM83.8239 20.9505H86.4258C87.1131 20.9505 87.5795 20.8685 87.829 20.7066C88.0786 20.5426 88.2033 20.2351 88.2033 19.7842C88.2033 19.2205 88.1113 18.8515 87.9251 18.6814C87.739 18.5113 87.3422 18.4252 86.7346 18.4252H83.8218V20.9525L83.8239 20.9505Z" fill="white"/>
<path d="M91.3226 17.8267V24.0805H90.4226V17.8267H91.3226Z" fill="white"/>
<path d="M95.8147 17.7632C97.3243 17.7632 98.2672 17.9374 98.6457 18.2818C99.0241 18.6261 99.2123 19.4891 99.2123 20.8686C99.2123 22.3567 99.0323 23.2729 98.6682 23.6235C98.3061 23.9699 97.3549 24.1441 95.8147 24.1441C94.2744 24.1441 93.3314 23.9719 92.9632 23.6276C92.595 23.2832 92.4109 22.3915 92.4109 20.9526V20.514L92.4232 19.9216C92.4232 19.0914 92.6625 18.5236 93.1391 18.2203C93.6157 17.9169 94.5096 17.7652 95.8147 17.7652V17.7632ZM95.8085 18.3576C94.5464 18.3576 93.8059 18.4683 93.5932 18.6876C93.3784 18.907 93.2721 19.6613 93.2721 20.9506C93.2721 22.2399 93.3784 22.9983 93.5932 23.2176C93.808 23.439 94.5464 23.5476 95.8085 23.5476C97.0706 23.5476 97.8172 23.439 98.03 23.2176C98.2447 22.9983 98.3511 22.2419 98.3511 20.9506V20.5427L98.345 19.9523C98.345 19.2616 98.1977 18.825 97.9011 18.6384C97.6045 18.4519 96.907 18.3597 95.8085 18.3597V18.3576Z" fill="white"/>
<path d="M105.75 19.5218H104.854C104.854 19.0175 104.748 18.6978 104.533 18.5604C104.318 18.4252 103.815 18.3555 103.019 18.3555C102.076 18.3555 101.469 18.4211 101.194 18.5502C100.922 18.6793 100.785 18.9683 100.785 19.4172C100.785 19.9215 100.892 20.2269 101.107 20.3376C101.321 20.4483 101.957 20.5241 103.019 20.561C104.263 20.6041 105.052 20.7291 105.39 20.932C105.727 21.137 105.895 21.5941 105.895 22.3054C105.895 23.074 105.701 23.5721 105.314 23.7976C104.926 24.0231 104.07 24.1358 102.745 24.1358C101.595 24.1358 100.83 24.021 100.45 23.7955C100.069 23.566 99.8792 23.1089 99.8792 22.4181L99.873 22.1393H100.767V22.2951C100.767 22.8547 100.877 23.2011 101.094 23.3364C101.313 23.4717 101.872 23.5414 102.772 23.5414C103.807 23.5414 104.441 23.4737 104.678 23.3364C104.915 23.2011 105.036 22.8383 105.036 22.248C105.036 21.8667 104.954 21.6125 104.793 21.4855C104.631 21.3584 104.291 21.2825 103.778 21.26L102.843 21.2231L101.955 21.1862C100.601 21.1124 99.9262 20.5631 99.9262 19.5361C99.9262 18.8249 100.123 18.3493 100.517 18.1115C100.912 17.8738 101.698 17.7549 102.874 17.7549C104.05 17.7549 104.846 17.8656 105.208 18.0869C105.57 18.3104 105.752 18.7839 105.752 19.5156L105.75 19.5218Z" fill="white"/>
</g>
<defs>
<clipPath id="clip0_403_934">
<rect width="116" height="36" fill="white"/>
</clipPath>
</defs>
</svg>
